<?xml version="1.0" encoding="UTF-8" standalone="no"?>
<!DOCTYPE svg PUBLIC "-//W3C//DTD SVG 1.1//EN"
 "http://www.w3.org/Graphics/SVG/1.1/DTD/svg11.dtd">
<!-- Generated by graphviz version 2.28.0 (20111028.1807)
 -->
<!-- Title: deterministicFSM Pages: 1 -->
<svg width="442pt" height="322pt"
 viewBox="0.00 0.00 442.43 322.00" xmlns="http://www.w3.org/2000/svg" xmlns:xlink="http://www.w3.org/1999/xlink">
<g id="graph1" class="graph" transform="scale(1 1) rotate(0) translate(4 318)">
<title>deterministicFSM</title>
<polygon fill="white" stroke="white" points="-4,5 -4,-318 439.426,-318 439.426,5 -4,5"/>
<!-- 0 -->
<g id="node1" class="node"><title>0</title>
<a xlink:title="{&#39;synchronous&#39;: 0, &#39;msocket&#39;: {&#39;send_arg&#39;: &#39;&#39;, &#39;recv_arg&#39;: 0, &#39;buffers&#39;: &#39;&#39;}}">
<ellipse fill="lightgray" stroke="black" cx="166.039" cy="-292" rx="27" ry="18"/>
<ellipse fill="none" stroke="black" cx="166.039" cy="-292" rx="31" ry="22"/>
<text text-anchor="middle" x="166.039" y="-286.4" font-family="Times,serif" font-size="14.00">0</text>
</a>
</g>
<!-- 1 -->
<g id="node2" class="node"><title>1</title>
<a xlink:title="{&#39;synchronous&#39;: 1, &#39;msocket&#39;: {&#39;send_arg&#39;: &#39;a&#39;, &#39;recv_arg&#39;: 0, &#39;buffers&#39;: &#39;&#39;}}">
<ellipse fill="white" stroke="black" cx="113.039" cy="-198" rx="27" ry="18"/>
<text text-anchor="middle" x="113.039" y="-192.4" font-family="Times,serif" font-size="14.00">1</text>
</a>
</g>
<!-- 0&#45;&gt;1 -->
<g id="edge2" class="edge"><title>0&#45;&gt;1</title>
<a xlink:title="send_call(&#39;a&#39;,)">
<path fill="none" stroke="black" d="M140.661,-279.033C130.107,-272.618 118.963,-263.614 113.087,-252 109.129,-244.179 108.11,-234.839 108.391,-226.194"/>
<polygon fill="black" stroke="black" points="111.886,-226.409 109.268,-216.142 104.912,-225.8 111.886,-226.409"/>
</a>
<text text-anchor="middle" x="152.515" y="-237.4" font-family="Times,serif" font-size="14.00">send_call(&#39;a&#39;,)</text>
</g>
<!-- 2 -->
<g id="node3" class="node"><title>2</title>
<a xlink:title="{&#39;synchronous&#39;: 1, &#39;msocket&#39;: {&#39;send_arg&#39;: &#39;bb&#39;, &#39;recv_arg&#39;: 0, &#39;buffers&#39;: &#39;&#39;}}">
<ellipse fill="white" stroke="black" cx="217.039" cy="-198" rx="27" ry="18"/>
<text text-anchor="middle" x="217.039" y="-192.4" font-family="Times,serif" font-size="14.00">2</text>
</a>
</g>
<!-- 0&#45;&gt;2 -->
<g id="edge4" class="edge"><title>0&#45;&gt;2</title>
<a xlink:title="send_call(&#39;bb&#39;,)">
<path fill="none" stroke="black" d="M180.553,-272.496C185.166,-266.184 190.091,-258.96 194.039,-252 198.858,-243.506 203.338,-233.807 207.04,-225.048"/>
<polygon fill="black" stroke="black" points="210.328,-226.254 210.866,-215.673 203.847,-223.609 210.328,-226.254"/>
</a>
<text text-anchor="middle" x="245.408" y="-237.4" font-family="Times,serif" font-size="14.00">send_call(&#39;bb&#39;,)</text>
</g>
<!-- 3 -->
<g id="node4" class="node"><title>3</title>
<a xlink:title="{&#39;synchronous&#39;: 2, &#39;msocket&#39;: {&#39;send_arg&#39;: &#39;&#39;, &#39;recv_arg&#39;: 0, &#39;buffers&#39;: &#39;a&#39;}}">
<ellipse fill="white" stroke="black" cx="92.039" cy="-108" rx="27" ry="18"/>
<text text-anchor="middle" x="92.039" y="-102.4" font-family="Times,serif" font-size="14.00">3</text>
</a>
</g>
<!-- 1&#45;&gt;3 -->
<g id="edge6" class="edge"><title>1&#45;&gt;3</title>
<a xlink:title="send_return(1,)">
<path fill="none" stroke="black" d="M108.99,-180.033C105.998,-167.493 101.864,-150.172 98.428,-135.773"/>
<polygon fill="black" stroke="black" points="101.801,-134.83 96.0756,-125.915 94.9925,-136.455 101.801,-134.83"/>
</a>
<text text-anchor="middle" x="147.996" y="-147.4" font-family="Times,serif" font-size="14.00">send_return(1,)</text>
</g>
<!-- 4 -->
<g id="node5" class="node"><title>4</title>
<a xlink:title="{&#39;synchronous&#39;: 2, &#39;msocket&#39;: {&#39;send_arg&#39;: &#39;&#39;, &#39;recv_arg&#39;: 0, &#39;buffers&#39;: &#39;bb&#39;}}">
<ellipse fill="white" stroke="black" cx="232.039" cy="-108" rx="27" ry="18"/>
<text text-anchor="middle" x="232.039" y="-102.4" font-family="Times,serif" font-size="14.00">4</text>
</a>
</g>
<!-- 2&#45;&gt;4 -->
<g id="edge8" class="edge"><title>2&#45;&gt;4</title>
<a xlink:title="send_return(2,)">
<path fill="none" stroke="black" d="M217.909,-179.704C218.628,-169.293 219.904,-155.81 222.125,-144 222.633,-141.3 223.254,-138.507 223.936,-135.731"/>
<polygon fill="black" stroke="black" points="227.351,-136.51 226.575,-125.943 220.592,-134.687 227.351,-136.51"/>
</a>
<text text-anchor="middle" x="265.996" y="-147.4" font-family="Times,serif" font-size="14.00">send_return(2,)</text>
</g>
<!-- 5 -->
<g id="node6" class="node"><title>5</title>
<a xlink:title="{&#39;synchronous&#39;: 3, &#39;msocket&#39;: {&#39;send_arg&#39;: &#39;&#39;, &#39;recv_arg&#39;: 4, &#39;buffers&#39;: &#39;a&#39;}}">
<ellipse fill="white" stroke="black" cx="27.039" cy="-18" rx="27" ry="18"/>
<text text-anchor="middle" x="27.039" y="-12.4" font-family="Times,serif" font-size="14.00">5</text>
</a>
</g>
<!-- 3&#45;&gt;5 -->
<g id="edge10" class="edge"><title>3&#45;&gt;5</title>
<a xlink:title="recv_call(4,)">
<path fill="none" stroke="black" d="M80.4183,-91.2674C70.4357,-77.7524 55.8955,-58.0672 44.5105,-42.6537"/>
<polygon fill="black" stroke="black" points="47.3158,-40.5606 38.5591,-34.5964 41.6852,-44.7196 47.3158,-40.5606"/>
</a>
<text text-anchor="middle" x="101.6" y="-57.4" font-family="Times,serif" font-size="14.00">recv_call(4,)</text>
</g>
<!-- 6 -->
<g id="node7" class="node"><title>6</title>
<a xlink:title="{&#39;synchronous&#39;: 3, &#39;msocket&#39;: {&#39;send_arg&#39;: &#39;&#39;, &#39;recv_arg&#39;: 4, &#39;buffers&#39;: &#39;bb&#39;}}">
<ellipse fill="white" stroke="black" cx="284.039" cy="-18" rx="27" ry="18"/>
<text text-anchor="middle" x="284.039" y="-12.4" font-family="Times,serif" font-size="14.00">6</text>
</a>
</g>
<!-- 4&#45;&gt;6 -->
<g id="edge12" class="edge"><title>4&#45;&gt;6</title>
<a xlink:title="recv_call(4,)">
<path fill="none" stroke="black" d="M233.584,-89.7785C235.175,-78.8965 238.398,-64.8854 244.918,-54 248.36,-48.2537 253.05,-42.9219 257.988,-38.2403"/>
<polygon fill="black" stroke="black" points="260.551,-40.6507 265.808,-31.4525 255.962,-35.3643 260.551,-40.6507"/>
</a>
<text text-anchor="middle" x="280.6" y="-57.4" font-family="Times,serif" font-size="14.00">recv_call(4,)</text>
</g>
<!-- 5&#45;&gt;0 -->
<g id="edge14" class="edge"><title>5&#45;&gt;0</title>
<a xlink:title="recv_return(&#39;a&#39;,)">
<path fill="none" stroke="black" d="M19.4603,-35.6507C8.09781,-63.1599 -10.1394,-119.3 8.43843,-162 32.0413,-216.249 92.1156,-254.692 130.903,-274.815"/>
<polygon fill="black" stroke="black" points="129.766,-278.161 140.271,-279.535 132.915,-271.909 129.766,-278.161"/>
</a>
<text text-anchor="middle" x="53.3393" y="-147.4" font-family="Times,serif" font-size="14.00">recv_return(&#39;a&#39;,)</text>
</g>
<!-- 6&#45;&gt;0 -->
<g id="edge16" class="edge"><title>6&#45;&gt;0</title>
<a xlink:title="recv_return(&#39;bb&#39;,)">
<path fill="none" stroke="black" d="M300.532,-32.2568C306.623,-38.1864 312.821,-45.7109 316.039,-54 348.141,-136.686 350.026,-185.758 291.039,-252 269.992,-275.635 234.871,-285.098 207.206,-288.813"/>
<polygon fill="black" stroke="black" points="206.553,-285.364 197.013,-289.972 207.345,-292.319 206.553,-285.364"/>
</a>
<text text-anchor="middle" x="386.232" y="-147.4" font-family="Times,serif" font-size="14.00">recv_return(&#39;bb&#39;,)</text>
</g>
</g>
</svg>
