<?xml version="1.0" encoding="UTF-8" standalone="no"?>
<!DOCTYPE svg PUBLIC "-//W3C//DTD SVG 1.1//EN"
 "http://www.w3.org/Graphics/SVG/1.1/DTD/svg11.dtd">
<!-- Generated by graphviz version 2.28.0 (20111028.1807)
 -->
<!-- Title: msgsizesFSM Pages: 1 -->
<svg width="991pt" height="412pt"
 viewBox="0.00 0.00 991.09 412.00" xmlns="http://www.w3.org/2000/svg" xmlns:xlink="http://www.w3.org/1999/xlink">
<g id="graph1" class="graph" transform="scale(1 1) rotate(0) translate(4 408)">
<title>msgsizesFSM</title>
<polygon fill="white" stroke="white" points="-4,5 -4,-408 988.09,-408 988.09,5 -4,5"/>
<!-- 0 -->
<g id="node1" class="node"><title>0</title>
<ellipse fill="lightgray" stroke="black" cx="27" cy="-386" rx="27" ry="18"/>
<text text-anchor="middle" x="27" y="-380.4" font-family="Times,serif" font-size="14.00">0</text>
</g>
<!-- 1 -->
<g id="node2" class="node"><title>1</title>
<ellipse fill="white" stroke="black" cx="27" cy="-296" rx="27" ry="18"/>
<text text-anchor="middle" x="27" y="-290.4" font-family="Times,serif" font-size="14.00">1</text>
</g>
<!-- 0&#45;&gt;1 -->
<g id="edge2" class="edge"><title>0&#45;&gt;1</title>
<path fill="none" stroke="black" d="M27,-367.614C27,-355.24 27,-338.369 27,-324.22"/>
<polygon fill="black" stroke="black" points="30.5001,-324.05 27,-314.05 23.5001,-324.05 30.5001,-324.05"/>
<text text-anchor="middle" x="53.4346" y="-335.4" font-family="Times,serif" font-size="14.00">send_call</text>
</g>
<!-- 2 -->
<g id="node3" class="node"><title>2</title>
<ellipse fill="white" stroke="black" cx="27" cy="-206" rx="27" ry="18"/>
<text text-anchor="middle" x="27" y="-200.4" font-family="Times,serif" font-size="14.00">2</text>
</g>
<!-- 1&#45;&gt;2 -->
<g id="edge4" class="edge"><title>1&#45;&gt;2</title>
<path fill="none" stroke="black" d="M27,-277.614C27,-265.24 27,-248.369 27,-234.22"/>
<polygon fill="black" stroke="black" points="30.5001,-234.05 27,-224.05 23.5001,-234.05 30.5001,-234.05"/>
<text text-anchor="middle" x="60.0449" y="-245.4" font-family="Times,serif" font-size="14.00">send_return</text>
</g>
<!-- 3 -->
<g id="node4" class="node"><title>3</title>
<ellipse fill="yellow" stroke="black" cx="27" cy="-116" rx="27" ry="18"/>
<text text-anchor="middle" x="27" y="-110.4" font-family="Times,serif" font-size="14.00">3</text>
</g>
<!-- 2&#45;&gt;3 -->
<g id="edge6" class="edge"><title>2&#45;&gt;3</title>
<path fill="none" stroke="black" d="M27,-187.614C27,-175.24 27,-158.369 27,-144.22"/>
<polygon fill="black" stroke="black" points="30.5001,-144.05 27,-134.05 23.5001,-144.05 30.5001,-144.05"/>
<text text-anchor="middle" x="52.6484" y="-155.4" font-family="Times,serif" font-size="14.00">recv_call</text>
</g>
<!-- 4 -->
<g id="node5" class="node"><title>4</title>
<ellipse fill="lightgray" stroke="black" cx="116" cy="-386" rx="27" ry="18"/>
<text text-anchor="middle" x="116" y="-380.4" font-family="Times,serif" font-size="14.00">4</text>
</g>
<!-- 5 -->
<g id="node6" class="node"><title>5</title>
<ellipse fill="white" stroke="black" cx="116" cy="-296" rx="27" ry="18"/>
<text text-anchor="middle" x="116" y="-290.4" font-family="Times,serif" font-size="14.00">5</text>
</g>
<!-- 4&#45;&gt;5 -->
<g id="edge8" class="edge"><title>4&#45;&gt;5</title>
<path fill="none" stroke="black" d="M116,-367.614C116,-355.24 116,-338.369 116,-324.22"/>
<polygon fill="black" stroke="black" points="119.5,-324.05 116,-314.05 112.5,-324.05 119.5,-324.05"/>
<text text-anchor="middle" x="142.435" y="-335.4" font-family="Times,serif" font-size="14.00">send_call</text>
</g>
<!-- 6 -->
<g id="node7" class="node"><title>6</title>
<ellipse fill="white" stroke="black" cx="116" cy="-206" rx="27" ry="18"/>
<text text-anchor="middle" x="116" y="-200.4" font-family="Times,serif" font-size="14.00">6</text>
</g>
<!-- 5&#45;&gt;6 -->
<g id="edge10" class="edge"><title>5&#45;&gt;6</title>
<path fill="none" stroke="black" d="M116,-277.614C116,-265.24 116,-248.369 116,-234.22"/>
<polygon fill="black" stroke="black" points="119.5,-234.05 116,-224.05 112.5,-234.05 119.5,-234.05"/>
<text text-anchor="middle" x="149.045" y="-245.4" font-family="Times,serif" font-size="14.00">send_return</text>
</g>
<!-- 7 -->
<g id="node8" class="node"><title>7</title>
<ellipse fill="yellow" stroke="black" cx="116" cy="-116" rx="27" ry="18"/>
<text text-anchor="middle" x="116" y="-110.4" font-family="Times,serif" font-size="14.00">7</text>
</g>
<!-- 6&#45;&gt;7 -->
<g id="edge12" class="edge"><title>6&#45;&gt;7</title>
<path fill="none" stroke="black" d="M116,-187.614C116,-175.24 116,-158.369 116,-144.22"/>
<polygon fill="black" stroke="black" points="119.5,-144.05 116,-134.05 112.5,-144.05 119.5,-144.05"/>
<text text-anchor="middle" x="141.648" y="-155.4" font-family="Times,serif" font-size="14.00">recv_call</text>
</g>
<!-- 8 -->
<g id="node9" class="node"><title>8</title>
<ellipse fill="lightgray" stroke="black" cx="205" cy="-386" rx="27" ry="18"/>
<text text-anchor="middle" x="205" y="-380.4" font-family="Times,serif" font-size="14.00">8</text>
</g>
<!-- 9 -->
<g id="node10" class="node"><title>9</title>
<ellipse fill="white" stroke="black" cx="205" cy="-296" rx="27" ry="18"/>
<text text-anchor="middle" x="205" y="-290.4" font-family="Times,serif" font-size="14.00">9</text>
</g>
<!-- 8&#45;&gt;9 -->
<g id="edge14" class="edge"><title>8&#45;&gt;9</title>
<path fill="none" stroke="black" d="M205,-367.614C205,-355.24 205,-338.369 205,-324.22"/>
<polygon fill="black" stroke="black" points="208.5,-324.05 205,-314.05 201.5,-324.05 208.5,-324.05"/>
<text text-anchor="middle" x="231.435" y="-335.4" font-family="Times,serif" font-size="14.00">send_call</text>
</g>
<!-- 10 -->
<g id="node11" class="node"><title>10</title>
<ellipse fill="white" stroke="black" cx="205" cy="-206" rx="27" ry="18"/>
<text text-anchor="middle" x="205" y="-200.4" font-family="Times,serif" font-size="14.00">10</text>
</g>
<!-- 9&#45;&gt;10 -->
<g id="edge16" class="edge"><title>9&#45;&gt;10</title>
<path fill="none" stroke="black" d="M205,-277.614C205,-265.24 205,-248.369 205,-234.22"/>
<polygon fill="black" stroke="black" points="208.5,-234.05 205,-224.05 201.5,-234.05 208.5,-234.05"/>
<text text-anchor="middle" x="238.045" y="-245.4" font-family="Times,serif" font-size="14.00">send_return</text>
</g>
<!-- 11 -->
<g id="node12" class="node"><title>11</title>
<ellipse fill="white" stroke="black" cx="205" cy="-116" rx="27" ry="18"/>
<text text-anchor="middle" x="205" y="-110.4" font-family="Times,serif" font-size="14.00">11</text>
</g>
<!-- 10&#45;&gt;11 -->
<g id="edge18" class="edge"><title>10&#45;&gt;11</title>
<path fill="none" stroke="black" d="M205,-187.614C205,-175.24 205,-158.369 205,-144.22"/>
<polygon fill="black" stroke="black" points="208.5,-144.05 205,-134.05 201.5,-144.05 208.5,-144.05"/>
<text text-anchor="middle" x="230.648" y="-155.4" font-family="Times,serif" font-size="14.00">recv_call</text>
</g>
<!-- 12 -->
<g id="node13" class="node"><title>12</title>
<ellipse fill="lightgreen" stroke="black" cx="205" cy="-22" rx="27" ry="18"/>
<ellipse fill="none" stroke="black" cx="205" cy="-22" rx="31" ry="22"/>
<text text-anchor="middle" x="205" y="-16.4" font-family="Times,serif" font-size="14.00">12</text>
</g>
<!-- 11&#45;&gt;12 -->
<g id="edge20" class="edge"><title>11&#45;&gt;12</title>
<path fill="none" stroke="black" d="M205,-97.6955C205,-85.4651 205,-68.7287 205,-54.1979"/>
<polygon fill="black" stroke="black" points="208.5,-54.103 205,-44.1031 201.5,-54.1031 208.5,-54.103"/>
<text text-anchor="middle" x="237.259" y="-65.4" font-family="Times,serif" font-size="14.00">recv_return</text>
</g>
<!-- 13 -->
<g id="node14" class="node"><title>13</title>
<ellipse fill="lightgray" stroke="black" cx="294" cy="-386" rx="27" ry="18"/>
<text text-anchor="middle" x="294" y="-380.4" font-family="Times,serif" font-size="14.00">13</text>
</g>
<!-- 14 -->
<g id="node15" class="node"><title>14</title>
<ellipse fill="white" stroke="black" cx="294" cy="-296" rx="27" ry="18"/>
<text text-anchor="middle" x="294" y="-290.4" font-family="Times,serif" font-size="14.00">14</text>
</g>
<!-- 13&#45;&gt;14 -->
<g id="edge22" class="edge"><title>13&#45;&gt;14</title>
<path fill="none" stroke="black" d="M294,-367.614C294,-355.24 294,-338.369 294,-324.22"/>
<polygon fill="black" stroke="black" points="297.5,-324.05 294,-314.05 290.5,-324.05 297.5,-324.05"/>
<text text-anchor="middle" x="320.435" y="-335.4" font-family="Times,serif" font-size="14.00">send_call</text>
</g>
<!-- 15 -->
<g id="node16" class="node"><title>15</title>
<ellipse fill="white" stroke="black" cx="294" cy="-206" rx="27" ry="18"/>
<text text-anchor="middle" x="294" y="-200.4" font-family="Times,serif" font-size="14.00">15</text>
</g>
<!-- 14&#45;&gt;15 -->
<g id="edge24" class="edge"><title>14&#45;&gt;15</title>
<path fill="none" stroke="black" d="M294,-277.614C294,-265.24 294,-248.369 294,-234.22"/>
<polygon fill="black" stroke="black" points="297.5,-234.05 294,-224.05 290.5,-234.05 297.5,-234.05"/>
<text text-anchor="middle" x="327.045" y="-245.4" font-family="Times,serif" font-size="14.00">send_return</text>
</g>
<!-- 16 -->
<g id="node17" class="node"><title>16</title>
<ellipse fill="white" stroke="black" cx="294" cy="-116" rx="27" ry="18"/>
<text text-anchor="middle" x="294" y="-110.4" font-family="Times,serif" font-size="14.00">16</text>
</g>
<!-- 15&#45;&gt;16 -->
<g id="edge26" class="edge"><title>15&#45;&gt;16</title>
<path fill="none" stroke="black" d="M294,-187.614C294,-175.24 294,-158.369 294,-144.22"/>
<polygon fill="black" stroke="black" points="297.5,-144.05 294,-134.05 290.5,-144.05 297.5,-144.05"/>
<text text-anchor="middle" x="319.648" y="-155.4" font-family="Times,serif" font-size="14.00">recv_call</text>
</g>
<!-- 17 -->
<g id="node18" class="node"><title>17</title>
<ellipse fill="lightgreen" stroke="black" cx="294" cy="-22" rx="27" ry="18"/>
<ellipse fill="none" stroke="black" cx="294" cy="-22" rx="31" ry="22"/>
<text text-anchor="middle" x="294" y="-16.4" font-family="Times,serif" font-size="14.00">17</text>
</g>
<!-- 16&#45;&gt;17 -->
<g id="edge28" class="edge"><title>16&#45;&gt;17</title>
<path fill="none" stroke="black" d="M294,-97.6955C294,-85.4651 294,-68.7287 294,-54.1979"/>
<polygon fill="black" stroke="black" points="297.5,-54.103 294,-44.1031 290.5,-54.1031 297.5,-54.103"/>
<text text-anchor="middle" x="326.259" y="-65.4" font-family="Times,serif" font-size="14.00">recv_return</text>
</g>
<!-- 18 -->
<g id="node19" class="node"><title>18</title>
<ellipse fill="lightgray" stroke="black" cx="383" cy="-386" rx="27" ry="18"/>
<text text-anchor="middle" x="383" y="-380.4" font-family="Times,serif" font-size="14.00">18</text>
</g>
<!-- 19 -->
<g id="node20" class="node"><title>19</title>
<ellipse fill="white" stroke="black" cx="383" cy="-296" rx="27" ry="18"/>
<text text-anchor="middle" x="383" y="-290.4" font-family="Times,serif" font-size="14.00">19</text>
</g>
<!-- 18&#45;&gt;19 -->
<g id="edge30" class="edge"><title>18&#45;&gt;19</title>
<path fill="none" stroke="black" d="M383,-367.614C383,-355.24 383,-338.369 383,-324.22"/>
<polygon fill="black" stroke="black" points="386.5,-324.05 383,-314.05 379.5,-324.05 386.5,-324.05"/>
<text text-anchor="middle" x="409.435" y="-335.4" font-family="Times,serif" font-size="14.00">send_call</text>
</g>
<!-- 20 -->
<g id="node21" class="node"><title>20</title>
<ellipse fill="white" stroke="black" cx="383" cy="-206" rx="27" ry="18"/>
<text text-anchor="middle" x="383" y="-200.4" font-family="Times,serif" font-size="14.00">20</text>
</g>
<!-- 19&#45;&gt;20 -->
<g id="edge32" class="edge"><title>19&#45;&gt;20</title>
<path fill="none" stroke="black" d="M383,-277.614C383,-265.24 383,-248.369 383,-234.22"/>
<polygon fill="black" stroke="black" points="386.5,-234.05 383,-224.05 379.5,-234.05 386.5,-234.05"/>
<text text-anchor="middle" x="416.045" y="-245.4" font-family="Times,serif" font-size="14.00">send_return</text>
</g>
<!-- 21 -->
<g id="node22" class="node"><title>21</title>
<ellipse fill="white" stroke="black" cx="383" cy="-116" rx="27" ry="18"/>
<text text-anchor="middle" x="383" y="-110.4" font-family="Times,serif" font-size="14.00">21</text>
</g>
<!-- 20&#45;&gt;21 -->
<g id="edge34" class="edge"><title>20&#45;&gt;21</title>
<path fill="none" stroke="black" d="M383,-187.614C383,-175.24 383,-158.369 383,-144.22"/>
<polygon fill="black" stroke="black" points="386.5,-144.05 383,-134.05 379.5,-144.05 386.5,-144.05"/>
<text text-anchor="middle" x="408.648" y="-155.4" font-family="Times,serif" font-size="14.00">recv_call</text>
</g>
<!-- 22 -->
<g id="node23" class="node"><title>22</title>
<ellipse fill="lightgreen" stroke="black" cx="383" cy="-22" rx="27" ry="18"/>
<ellipse fill="none" stroke="black" cx="383" cy="-22" rx="31" ry="22"/>
<text text-anchor="middle" x="383" y="-16.4" font-family="Times,serif" font-size="14.00">22</text>
</g>
<!-- 21&#45;&gt;22 -->
<g id="edge36" class="edge"><title>21&#45;&gt;22</title>
<path fill="none" stroke="black" d="M383,-97.6955C383,-85.4651 383,-68.7287 383,-54.1979"/>
<polygon fill="black" stroke="black" points="386.5,-54.103 383,-44.1031 379.5,-54.1031 386.5,-54.103"/>
<text text-anchor="middle" x="415.259" y="-65.4" font-family="Times,serif" font-size="14.00">recv_return</text>
</g>
<!-- 23 -->
<g id="node24" class="node"><title>23</title>
<ellipse fill="lightgray" stroke="black" cx="472" cy="-386" rx="27" ry="18"/>
<text text-anchor="middle" x="472" y="-380.4" font-family="Times,serif" font-size="14.00">23</text>
</g>
<!-- 24 -->
<g id="node25" class="node"><title>24</title>
<ellipse fill="white" stroke="black" cx="472" cy="-296" rx="27" ry="18"/>
<text text-anchor="middle" x="472" y="-290.4" font-family="Times,serif" font-size="14.00">24</text>
</g>
<!-- 23&#45;&gt;24 -->
<g id="edge38" class="edge"><title>23&#45;&gt;24</title>
<path fill="none" stroke="black" d="M472,-367.614C472,-355.24 472,-338.369 472,-324.22"/>
<polygon fill="black" stroke="black" points="475.5,-324.05 472,-314.05 468.5,-324.05 475.5,-324.05"/>
<text text-anchor="middle" x="498.435" y="-335.4" font-family="Times,serif" font-size="14.00">send_call</text>
</g>
<!-- 25 -->
<g id="node26" class="node"><title>25</title>
<ellipse fill="white" stroke="black" cx="472" cy="-206" rx="27" ry="18"/>
<text text-anchor="middle" x="472" y="-200.4" font-family="Times,serif" font-size="14.00">25</text>
</g>
<!-- 24&#45;&gt;25 -->
<g id="edge40" class="edge"><title>24&#45;&gt;25</title>
<path fill="none" stroke="black" d="M472,-277.614C472,-265.24 472,-248.369 472,-234.22"/>
<polygon fill="black" stroke="black" points="475.5,-234.05 472,-224.05 468.5,-234.05 475.5,-234.05"/>
<text text-anchor="middle" x="505.045" y="-245.4" font-family="Times,serif" font-size="14.00">send_return</text>
</g>
<!-- 26 -->
<g id="node27" class="node"><title>26</title>
<ellipse fill="white" stroke="black" cx="472" cy="-116" rx="27" ry="18"/>
<text text-anchor="middle" x="472" y="-110.4" font-family="Times,serif" font-size="14.00">26</text>
</g>
<!-- 25&#45;&gt;26 -->
<g id="edge42" class="edge"><title>25&#45;&gt;26</title>
<path fill="none" stroke="black" d="M472,-187.614C472,-175.24 472,-158.369 472,-144.22"/>
<polygon fill="black" stroke="black" points="475.5,-144.05 472,-134.05 468.5,-144.05 475.5,-144.05"/>
<text text-anchor="middle" x="497.648" y="-155.4" font-family="Times,serif" font-size="14.00">recv_call</text>
</g>
<!-- 27 -->
<g id="node28" class="node"><title>27</title>
<ellipse fill="lightgreen" stroke="black" cx="472" cy="-22" rx="27" ry="18"/>
<ellipse fill="none" stroke="black" cx="472" cy="-22" rx="31" ry="22"/>
<text text-anchor="middle" x="472" y="-16.4" font-family="Times,serif" font-size="14.00">27</text>
</g>
<!-- 26&#45;&gt;27 -->
<g id="edge44" class="edge"><title>26&#45;&gt;27</title>
<path fill="none" stroke="black" d="M472,-97.6955C472,-85.4651 472,-68.7287 472,-54.1979"/>
<polygon fill="black" stroke="black" points="475.5,-54.103 472,-44.1031 468.5,-54.1031 475.5,-54.103"/>
<text text-anchor="middle" x="504.259" y="-65.4" font-family="Times,serif" font-size="14.00">recv_return</text>
</g>
<!-- 28 -->
<g id="node29" class="node"><title>28</title>
<ellipse fill="lightgray" stroke="black" cx="561" cy="-386" rx="27" ry="18"/>
<text text-anchor="middle" x="561" y="-380.4" font-family="Times,serif" font-size="14.00">28</text>
</g>
<!-- 29 -->
<g id="node30" class="node"><title>29</title>
<ellipse fill="white" stroke="black" cx="561" cy="-296" rx="27" ry="18"/>
<text text-anchor="middle" x="561" y="-290.4" font-family="Times,serif" font-size="14.00">29</text>
</g>
<!-- 28&#45;&gt;29 -->
<g id="edge46" class="edge"><title>28&#45;&gt;29</title>
<path fill="none" stroke="black" d="M561,-367.614C561,-355.24 561,-338.369 561,-324.22"/>
<polygon fill="black" stroke="black" points="564.5,-324.05 561,-314.05 557.5,-324.05 564.5,-324.05"/>
<text text-anchor="middle" x="587.435" y="-335.4" font-family="Times,serif" font-size="14.00">send_call</text>
</g>
<!-- 30 -->
<g id="node31" class="node"><title>30</title>
<ellipse fill="white" stroke="black" cx="561" cy="-206" rx="27" ry="18"/>
<text text-anchor="middle" x="561" y="-200.4" font-family="Times,serif" font-size="14.00">30</text>
</g>
<!-- 29&#45;&gt;30 -->
<g id="edge48" class="edge"><title>29&#45;&gt;30</title>
<path fill="none" stroke="black" d="M561,-277.614C561,-265.24 561,-248.369 561,-234.22"/>
<polygon fill="black" stroke="black" points="564.5,-234.05 561,-224.05 557.5,-234.05 564.5,-234.05"/>
<text text-anchor="middle" x="594.045" y="-245.4" font-family="Times,serif" font-size="14.00">send_return</text>
</g>
<!-- 31 -->
<g id="node32" class="node"><title>31</title>
<ellipse fill="white" stroke="black" cx="561" cy="-116" rx="27" ry="18"/>
<text text-anchor="middle" x="561" y="-110.4" font-family="Times,serif" font-size="14.00">31</text>
</g>
<!-- 30&#45;&gt;31 -->
<g id="edge50" class="edge"><title>30&#45;&gt;31</title>
<path fill="none" stroke="black" d="M561,-187.614C561,-175.24 561,-158.369 561,-144.22"/>
<polygon fill="black" stroke="black" points="564.5,-144.05 561,-134.05 557.5,-144.05 564.5,-144.05"/>
<text text-anchor="middle" x="586.648" y="-155.4" font-family="Times,serif" font-size="14.00">recv_call</text>
</g>
<!-- 32 -->
<g id="node33" class="node"><title>32</title>
<ellipse fill="lightgreen" stroke="black" cx="561" cy="-22" rx="27" ry="18"/>
<ellipse fill="none" stroke="black" cx="561" cy="-22" rx="31" ry="22"/>
<text text-anchor="middle" x="561" y="-16.4" font-family="Times,serif" font-size="14.00">32</text>
</g>
<!-- 31&#45;&gt;32 -->
<g id="edge52" class="edge"><title>31&#45;&gt;32</title>
<path fill="none" stroke="black" d="M561,-97.6955C561,-85.4651 561,-68.7287 561,-54.1979"/>
<polygon fill="black" stroke="black" points="564.5,-54.103 561,-44.1031 557.5,-54.1031 564.5,-54.103"/>
<text text-anchor="middle" x="593.259" y="-65.4" font-family="Times,serif" font-size="14.00">recv_return</text>
</g>
<!-- 33 -->
<g id="node34" class="node"><title>33</title>
<ellipse fill="lightgray" stroke="black" cx="650" cy="-386" rx="27" ry="18"/>
<text text-anchor="middle" x="650" y="-380.4" font-family="Times,serif" font-size="14.00">33</text>
</g>
<!-- 34 -->
<g id="node35" class="node"><title>34</title>
<ellipse fill="white" stroke="black" cx="650" cy="-296" rx="27" ry="18"/>
<text text-anchor="middle" x="650" y="-290.4" font-family="Times,serif" font-size="14.00">34</text>
</g>
<!-- 33&#45;&gt;34 -->
<g id="edge54" class="edge"><title>33&#45;&gt;34</title>
<path fill="none" stroke="black" d="M650,-367.614C650,-355.24 650,-338.369 650,-324.22"/>
<polygon fill="black" stroke="black" points="653.5,-324.05 650,-314.05 646.5,-324.05 653.5,-324.05"/>
<text text-anchor="middle" x="676.435" y="-335.4" font-family="Times,serif" font-size="14.00">send_call</text>
</g>
<!-- 35 -->
<g id="node36" class="node"><title>35</title>
<ellipse fill="white" stroke="black" cx="650" cy="-206" rx="27" ry="18"/>
<text text-anchor="middle" x="650" y="-200.4" font-family="Times,serif" font-size="14.00">35</text>
</g>
<!-- 34&#45;&gt;35 -->
<g id="edge56" class="edge"><title>34&#45;&gt;35</title>
<path fill="none" stroke="black" d="M650,-277.614C650,-265.24 650,-248.369 650,-234.22"/>
<polygon fill="black" stroke="black" points="653.5,-234.05 650,-224.05 646.5,-234.05 653.5,-234.05"/>
<text text-anchor="middle" x="683.045" y="-245.4" font-family="Times,serif" font-size="14.00">send_return</text>
</g>
<!-- 36 -->
<g id="node37" class="node"><title>36</title>
<ellipse fill="white" stroke="black" cx="650" cy="-116" rx="27" ry="18"/>
<text text-anchor="middle" x="650" y="-110.4" font-family="Times,serif" font-size="14.00">36</text>
</g>
<!-- 35&#45;&gt;36 -->
<g id="edge58" class="edge"><title>35&#45;&gt;36</title>
<path fill="none" stroke="black" d="M650,-187.614C650,-175.24 650,-158.369 650,-144.22"/>
<polygon fill="black" stroke="black" points="653.5,-144.05 650,-134.05 646.5,-144.05 653.5,-144.05"/>
<text text-anchor="middle" x="675.648" y="-155.4" font-family="Times,serif" font-size="14.00">recv_call</text>
</g>
<!-- 37 -->
<g id="node38" class="node"><title>37</title>
<ellipse fill="lightgreen" stroke="black" cx="650" cy="-22" rx="27" ry="18"/>
<ellipse fill="none" stroke="black" cx="650" cy="-22" rx="31" ry="22"/>
<text text-anchor="middle" x="650" y="-16.4" font-family="Times,serif" font-size="14.00">37</text>
</g>
<!-- 36&#45;&gt;37 -->
<g id="edge60" class="edge"><title>36&#45;&gt;37</title>
<path fill="none" stroke="black" d="M650,-97.6955C650,-85.4651 650,-68.7287 650,-54.1979"/>
<polygon fill="black" stroke="black" points="653.5,-54.103 650,-44.1031 646.5,-54.1031 653.5,-54.103"/>
<text text-anchor="middle" x="682.259" y="-65.4" font-family="Times,serif" font-size="14.00">recv_return</text>
</g>
<!-- 38 -->
<g id="node39" class="node"><title>38</title>
<ellipse fill="lightgray" stroke="black" cx="739" cy="-386" rx="27" ry="18"/>
<text text-anchor="middle" x="739" y="-380.4" font-family="Times,serif" font-size="14.00">38</text>
</g>
<!-- 39 -->
<g id="node40" class="node"><title>39</title>
<ellipse fill="white" stroke="black" cx="739" cy="-296" rx="27" ry="18"/>
<text text-anchor="middle" x="739" y="-290.4" font-family="Times,serif" font-size="14.00">39</text>
</g>
<!-- 38&#45;&gt;39 -->
<g id="edge62" class="edge"><title>38&#45;&gt;39</title>
<path fill="none" stroke="black" d="M739,-367.614C739,-355.24 739,-338.369 739,-324.22"/>
<polygon fill="black" stroke="black" points="742.5,-324.05 739,-314.05 735.5,-324.05 742.5,-324.05"/>
<text text-anchor="middle" x="765.435" y="-335.4" font-family="Times,serif" font-size="14.00">send_call</text>
</g>
<!-- 40 -->
<g id="node41" class="node"><title>40</title>
<ellipse fill="white" stroke="black" cx="739" cy="-206" rx="27" ry="18"/>
<text text-anchor="middle" x="739" y="-200.4" font-family="Times,serif" font-size="14.00">40</text>
</g>
<!-- 39&#45;&gt;40 -->
<g id="edge64" class="edge"><title>39&#45;&gt;40</title>
<path fill="none" stroke="black" d="M739,-277.614C739,-265.24 739,-248.369 739,-234.22"/>
<polygon fill="black" stroke="black" points="742.5,-234.05 739,-224.05 735.5,-234.05 742.5,-234.05"/>
<text text-anchor="middle" x="772.045" y="-245.4" font-family="Times,serif" font-size="14.00">send_return</text>
</g>
<!-- 41 -->
<g id="node42" class="node"><title>41</title>
<ellipse fill="white" stroke="black" cx="739" cy="-116" rx="27" ry="18"/>
<text text-anchor="middle" x="739" y="-110.4" font-family="Times,serif" font-size="14.00">41</text>
</g>
<!-- 40&#45;&gt;41 -->
<g id="edge66" class="edge"><title>40&#45;&gt;41</title>
<path fill="none" stroke="black" d="M739,-187.614C739,-175.24 739,-158.369 739,-144.22"/>
<polygon fill="black" stroke="black" points="742.5,-144.05 739,-134.05 735.5,-144.05 742.5,-144.05"/>
<text text-anchor="middle" x="764.648" y="-155.4" font-family="Times,serif" font-size="14.00">recv_call</text>
</g>
<!-- 42 -->
<g id="node43" class="node"><title>42</title>
<ellipse fill="lightgreen" stroke="black" cx="739" cy="-22" rx="27" ry="18"/>
<ellipse fill="none" stroke="black" cx="739" cy="-22" rx="31" ry="22"/>
<text text-anchor="middle" x="739" y="-16.4" font-family="Times,serif" font-size="14.00">42</text>
</g>
<!-- 41&#45;&gt;42 -->
<g id="edge68" class="edge"><title>41&#45;&gt;42</title>
<path fill="none" stroke="black" d="M739,-97.6955C739,-85.4651 739,-68.7287 739,-54.1979"/>
<polygon fill="black" stroke="black" points="742.5,-54.103 739,-44.1031 735.5,-54.1031 742.5,-54.103"/>
<text text-anchor="middle" x="771.259" y="-65.4" font-family="Times,serif" font-size="14.00">recv_return</text>
</g>
<!-- 43 -->
<g id="node44" class="node"><title>43</title>
<ellipse fill="lightgray" stroke="black" cx="828" cy="-386" rx="27" ry="18"/>
<text text-anchor="middle" x="828" y="-380.4" font-family="Times,serif" font-size="14.00">43</text>
</g>
<!-- 44 -->
<g id="node45" class="node"><title>44</title>
<ellipse fill="white" stroke="black" cx="828" cy="-296" rx="27" ry="18"/>
<text text-anchor="middle" x="828" y="-290.4" font-family="Times,serif" font-size="14.00">44</text>
</g>
<!-- 43&#45;&gt;44 -->
<g id="edge70" class="edge"><title>43&#45;&gt;44</title>
<path fill="none" stroke="black" d="M828,-367.614C828,-355.24 828,-338.369 828,-324.22"/>
<polygon fill="black" stroke="black" points="831.5,-324.05 828,-314.05 824.5,-324.05 831.5,-324.05"/>
<text text-anchor="middle" x="854.435" y="-335.4" font-family="Times,serif" font-size="14.00">send_call</text>
</g>
<!-- 45 -->
<g id="node46" class="node"><title>45</title>
<ellipse fill="white" stroke="black" cx="828" cy="-206" rx="27" ry="18"/>
<text text-anchor="middle" x="828" y="-200.4" font-family="Times,serif" font-size="14.00">45</text>
</g>
<!-- 44&#45;&gt;45 -->
<g id="edge72" class="edge"><title>44&#45;&gt;45</title>
<path fill="none" stroke="black" d="M828,-277.614C828,-265.24 828,-248.369 828,-234.22"/>
<polygon fill="black" stroke="black" points="831.5,-234.05 828,-224.05 824.5,-234.05 831.5,-234.05"/>
<text text-anchor="middle" x="861.045" y="-245.4" font-family="Times,serif" font-size="14.00">send_return</text>
</g>
<!-- 46 -->
<g id="node47" class="node"><title>46</title>
<ellipse fill="white" stroke="black" cx="828" cy="-116" rx="27" ry="18"/>
<text text-anchor="middle" x="828" y="-110.4" font-family="Times,serif" font-size="14.00">46</text>
</g>
<!-- 45&#45;&gt;46 -->
<g id="edge74" class="edge"><title>45&#45;&gt;46</title>
<path fill="none" stroke="black" d="M828,-187.614C828,-175.24 828,-158.369 828,-144.22"/>
<polygon fill="black" stroke="black" points="831.5,-144.05 828,-134.05 824.5,-144.05 831.5,-144.05"/>
<text text-anchor="middle" x="853.648" y="-155.4" font-family="Times,serif" font-size="14.00">recv_call</text>
</g>
<!-- 47 -->
<g id="node48" class="node"><title>47</title>
<ellipse fill="lightgreen" stroke="black" cx="828" cy="-22" rx="27" ry="18"/>
<ellipse fill="none" stroke="black" cx="828" cy="-22" rx="31" ry="22"/>
<text text-anchor="middle" x="828" y="-16.4" font-family="Times,serif" font-size="14.00">47</text>
</g>
<!-- 46&#45;&gt;47 -->
<g id="edge76" class="edge"><title>46&#45;&gt;47</title>
<path fill="none" stroke="black" d="M828,-97.6955C828,-85.4651 828,-68.7287 828,-54.1979"/>
<polygon fill="black" stroke="black" points="831.5,-54.103 828,-44.1031 824.5,-54.1031 831.5,-54.103"/>
<text text-anchor="middle" x="860.259" y="-65.4" font-family="Times,serif" font-size="14.00">recv_return</text>
</g>
<!-- 48 -->
<g id="node49" class="node"><title>48</title>
<ellipse fill="lightgray" stroke="black" cx="917" cy="-386" rx="27" ry="18"/>
<text text-anchor="middle" x="917" y="-380.4" font-family="Times,serif" font-size="14.00">48</text>
</g>
<!-- 49 -->
<g id="node50" class="node"><title>49</title>
<ellipse fill="white" stroke="black" cx="917" cy="-296" rx="27" ry="18"/>
<text text-anchor="middle" x="917" y="-290.4" font-family="Times,serif" font-size="14.00">49</text>
</g>
<!-- 48&#45;&gt;49 -->
<g id="edge78" class="edge"><title>48&#45;&gt;49</title>
<path fill="none" stroke="black" d="M917,-367.614C917,-355.24 917,-338.369 917,-324.22"/>
<polygon fill="black" stroke="black" points="920.5,-324.05 917,-314.05 913.5,-324.05 920.5,-324.05"/>
<text text-anchor="middle" x="943.435" y="-335.4" font-family="Times,serif" font-size="14.00">send_call</text>
</g>
<!-- 50 -->
<g id="node51" class="node"><title>50</title>
<ellipse fill="white" stroke="black" cx="917" cy="-206" rx="27" ry="18"/>
<text text-anchor="middle" x="917" y="-200.4" font-family="Times,serif" font-size="14.00">50</text>
</g>
<!-- 49&#45;&gt;50 -->
<g id="edge80" class="edge"><title>49&#45;&gt;50</title>
<path fill="none" stroke="black" d="M917,-277.614C917,-265.24 917,-248.369 917,-234.22"/>
<polygon fill="black" stroke="black" points="920.5,-234.05 917,-224.05 913.5,-234.05 920.5,-234.05"/>
<text text-anchor="middle" x="950.045" y="-245.4" font-family="Times,serif" font-size="14.00">send_return</text>
</g>
<!-- 51 -->
<g id="node52" class="node"><title>51</title>
<ellipse fill="white" stroke="black" cx="917" cy="-116" rx="27" ry="18"/>
<text text-anchor="middle" x="917" y="-110.4" font-family="Times,serif" font-size="14.00">51</text>
</g>
<!-- 50&#45;&gt;51 -->
<g id="edge82" class="edge"><title>50&#45;&gt;51</title>
<path fill="none" stroke="black" d="M917,-187.614C917,-175.24 917,-158.369 917,-144.22"/>
<polygon fill="black" stroke="black" points="920.5,-144.05 917,-134.05 913.5,-144.05 920.5,-144.05"/>
<text text-anchor="middle" x="942.648" y="-155.4" font-family="Times,serif" font-size="14.00">recv_call</text>
</g>
<!-- 52 -->
<g id="node53" class="node"><title>52</title>
<ellipse fill="yellow" stroke="black" cx="917" cy="-22" rx="27" ry="18"/>
<text text-anchor="middle" x="917" y="-16.4" font-family="Times,serif" font-size="14.00">52</text>
</g>
<!-- 51&#45;&gt;52 -->
<g id="edge84" class="edge"><title>51&#45;&gt;52</title>
<path fill="none" stroke="black" d="M917,-97.6955C917,-84.4599 917,-65.9471 917,-50.6634"/>
<polygon fill="black" stroke="black" points="920.5,-50.2269 917,-40.2269 913.5,-50.2269 920.5,-50.2269"/>
<text text-anchor="middle" x="949.259" y="-65.4" font-family="Times,serif" font-size="14.00">recv_return</text>
</g>
</g>
</svg>
