<?xml version="1.0" encoding="UTF-8" standalone="no"?>
<!DOCTYPE svg PUBLIC "-//W3C//DTD SVG 1.1//EN"
 "http://www.w3.org/Graphics/SVG/1.1/DTD/svg11.dtd">
<!-- Generated by graphviz version 2.28.0 (20111028.1807)
 -->
<!-- Title: NoBlockScenario_e Pages: 1 -->
<svg width="213pt" height="330pt"
 viewBox="0.00 0.00 212.84 330.00" xmlns="http://www.w3.org/2000/svg" xmlns:xlink="http://www.w3.org/1999/xlink">
<g id="graph1" class="graph" transform="scale(1 1) rotate(0) translate(4 326)">
<title>NoBlockScenario_e</title>
<polygon fill="white" stroke="white" points="-4,5 -4,-326 209.842,-326 209.842,5 -4,5"/>
<!-- 0 -->
<g id="node1" class="node"><title>0</title>
<a xlink:title="{&#39;NoBlockScenario&#39;: 0}">
<ellipse fill="lightgray" stroke="black" cx="79" cy="-300" rx="27" ry="18"/>
<ellipse fill="none" stroke="black" cx="79" cy="-300" rx="31" ry="22"/>
<text text-anchor="middle" x="79" y="-294.4" font-family="Times,serif" font-size="14.00">0</text>
</a>
</g>
<!-- 1 -->
<g id="node2" class="node"><title>1</title>
<a xlink:title="{&#39;NoBlockScenario&#39;: 1}">
<ellipse fill="white" stroke="black" cx="30" cy="-206" rx="27" ry="18"/>
<text text-anchor="middle" x="30" y="-200.4" font-family="Times,serif" font-size="14.00">1</text>
</a>
</g>
<!-- 0&#45;&gt;1 -->
<g id="edge2" class="edge"><title>0&#45;&gt;1</title>
<a xlink:title="send_call()">
<path fill="none" stroke="black" d="M62.0496,-281.405C56.603,-275.043 50.9209,-267.557 46.8066,-260 42.361,-251.835 38.8816,-242.312 36.2707,-233.608"/>
<polygon fill="black" stroke="black" points="39.6264,-232.611 33.5987,-223.898 32.8773,-234.468 39.6264,-232.611"/>
</a>
<text text-anchor="middle" x="78.0967" y="-245.4" font-family="Times,serif" font-size="14.00">send_call()</text>
</g>
<!-- 2 -->
<g id="node3" class="node"><title>2</title>
<a xlink:title="{&#39;NoBlockScenario&#39;: 2}">
<ellipse fill="white" stroke="black" cx="31" cy="-112" rx="27" ry="18"/>
<ellipse fill="none" stroke="black" cx="31" cy="-112" rx="31" ry="22"/>
<text text-anchor="middle" x="31" y="-106.4" font-family="Times,serif" font-size="14.00">2</text>
</a>
</g>
<!-- 1&#45;&gt;2 -->
<g id="edge4" class="edge"><title>1&#45;&gt;2</title>
<a xlink:title="send_return()">
<path fill="none" stroke="black" d="M27.4145,-187.951C26.6674,-182.257 25.9545,-175.868 25.5859,-170 25.0845,-162.016 25.0346,-159.981 25.5859,-152 25.7632,-149.434 26.0053,-146.78 26.2893,-144.119"/>
<polygon fill="black" stroke="black" points="29.7875,-144.349 27.5444,-133.994 22.8407,-143.488 29.7875,-144.349"/>
</a>
<text text-anchor="middle" x="63.707" y="-155.4" font-family="Times,serif" font-size="14.00">send_return()</text>
</g>
<!-- 3 -->
<g id="node4" class="node"><title>3</title>
<a xlink:title="{&#39;NoBlockScenario&#39;: 3}">
<ellipse fill="white" stroke="black" cx="82" cy="-18" rx="27" ry="18"/>
<text text-anchor="middle" x="82" y="-12.4" font-family="Times,serif" font-size="14.00">3</text>
</a>
</g>
<!-- 2&#45;&gt;3 -->
<g id="edge6" class="edge"><title>2&#45;&gt;3</title>
<a xlink:title="recv_call()">
<path fill="none" stroke="black" d="M34.9185,-89.9896C37.6065,-78.7835 41.8868,-65.0645 48.3789,-54 51.2571,-49.0947 54.955,-44.3429 58.8401,-40.0046"/>
<polygon fill="black" stroke="black" points="61.4677,-42.3222 65.8991,-32.6986 56.4335,-37.4583 61.4677,-42.3222"/>
</a>
<text text-anchor="middle" x="79.3105" y="-57.4" font-family="Times,serif" font-size="14.00">recv_call()</text>
</g>
<!-- 3&#45;&gt;0 -->
<g id="edge8" class="edge"><title>3&#45;&gt;0</title>
<a xlink:title="recv_return()">
<path fill="none" stroke="black" d="M96.5288,-33.3745C101.486,-39.2528 106.425,-46.4456 109,-54 138.541,-140.659 138.481,-173.321 109,-260 107.432,-264.61 105.075,-269.1 102.358,-273.296"/>
<polygon fill="black" stroke="black" points="99.4835,-271.298 96.4133,-281.438 105.137,-275.426 99.4835,-271.298"/>
</a>
<text text-anchor="middle" x="167.921" y="-155.4" font-family="Times,serif" font-size="14.00">recv_return()</text>
</g>
</g>
</svg>
