<?xml version="1.0" encoding="UTF-8" standalone="no"?>
<!DOCTYPE svg PUBLIC "-//W3C//DTD SVG 1.1//EN"
 "http://www.w3.org/Graphics/SVG/1.1/DTD/svg11.dtd">
<!-- Generated by graphviz version 2.28.0 (20111028.1807)
 -->
<!-- Title: NoBlockScenario_a Pages: 1 -->
<svg width="245pt" height="52pt"
 viewBox="0.00 0.00 245.00 52.00" xmlns="http://www.w3.org/2000/svg" xmlns:xlink="http://www.w3.org/1999/xlink">
<g id="graph1" class="graph" transform="scale(1 1) rotate(0) translate(4 48)">
<title>NoBlockScenario_a</title>
<polygon fill="white" stroke="white" points="-4,5 -4,-48 242,-48 242,5 -4,5"/>
<!-- 0 -->
<g id="node1" class="node"><title>0</title>
<a xlink:title="{&#39;NoBlockScenario&#39;: 0}">
<ellipse fill="lightgray" stroke="black" cx="31" cy="-22" rx="27" ry="18"/>
<ellipse fill="none" stroke="black" cx="31" cy="-22" rx="31" ry="22"/>
<text text-anchor="middle" x="31" y="-16.4" font-family="Times,serif" font-size="14.00">0</text>
</a>
</g>
<!-- 0&#45;&gt;0 -->
<g id="edge2" class="edge"><title>0&#45;&gt;0</title>
<a xlink:title="recv_close()">
<path fill="none" stroke="black" d="M61.625,-26.125C71.8333,-26.125 80,-24.75 80,-22 80,-20.2812 76.8099,-19.0996 71.925,-18.4551"/>
<polygon fill="black" stroke="black" points="71.806,-14.9429 61.625,-17.875 71.4123,-21.9318 71.806,-14.9429"/>
</a>
<text text-anchor="middle" x="114.59" y="-16.4" font-family="Times,serif" font-size="14.00">recv_close()</text>
</g>
<!-- 0&#45;&gt;0 -->
<g id="edge4" class="edge"><title>0&#45;&gt;0</title>
<a xlink:title="send_close()">
<path fill="none" stroke="black" d="M56.9159,-34.0739C93.2826,-43.0545 149.18,-39.0299 149.18,-22 149.18,-6.50015 102.875,-1.77363 67.1361,-7.82046"/>
<polygon fill="black" stroke="black" points="66.0039,-4.48013 56.9159,-9.92608 67.4165,-11.3361 66.0039,-4.48013"/>
</a>
<text text-anchor="middle" x="184.556" y="-16.4" font-family="Times,serif" font-size="14.00">send_close()</text>
</g>
</g>
</svg>
