<?xml version="1.0" encoding="UTF-8" standalone="no"?>
<!DOCTYPE svg PUBLIC "-//W3C//DTD SVG 1.1//EN"
 "http://www.w3.org/Graphics/SVG/1.1/DTD/svg11.dtd">
<!-- Generated by graphviz version 2.28.0 (20111028.1807)
 -->
<!-- Title: NoBlockScenario_e_e Pages: 1 -->
<svg width="114pt" height="240pt"
 viewBox="0.00 0.00 114.41 240.00" xmlns="http://www.w3.org/2000/svg" xmlns:xlink="http://www.w3.org/1999/xlink">
<g id="graph1" class="graph" transform="scale(1 1) rotate(0) translate(4 236)">
<title>NoBlockScenario_e_e</title>
<polygon fill="white" stroke="white" points="-4,5 -4,-236 111.414,-236 111.414,5 -4,5"/>
<!-- 0 -->
<g id="node1" class="node"><title>0</title>
<a xlink:title="{&#39;NoBlockScenario&#39;: 0}">
<ellipse fill="lightgray" stroke="black" cx="31" cy="-210" rx="27" ry="18"/>
<ellipse fill="none" stroke="black" cx="31" cy="-210" rx="31" ry="22"/>
<text text-anchor="middle" x="31" y="-204.4" font-family="Times,serif" font-size="14.00">0</text>
</a>
</g>
<!-- 1 -->
<g id="node2" class="node"><title>1</title>
<a xlink:title="{&#39;NoBlockScenario&#39;: 1}">
<ellipse fill="white" stroke="black" cx="31" cy="-116" rx="27" ry="18"/>
<text text-anchor="middle" x="31" y="-110.4" font-family="Times,serif" font-size="14.00">1</text>
</a>
</g>
<!-- 0&#45;&gt;1 -->
<g id="edge2" class="edge"><title>0&#45;&gt;1</title>
<a xlink:title="send_call()">
<path fill="none" stroke="black" d="M31,-187.662C31,-174.845 31,-158.402 31,-144.603"/>
<polygon fill="black" stroke="black" points="34.5001,-144.223 31,-134.224 27.5001,-144.224 34.5001,-144.223"/>
</a>
<text text-anchor="middle" x="62.0967" y="-155.4" font-family="Times,serif" font-size="14.00">send_call()</text>
</g>
<!-- 2 -->
<g id="node3" class="node"><title>2</title>
<a xlink:title="{&#39;NoBlockScenario&#39;: 2}">
<ellipse fill="lightgreen" stroke="black" cx="31" cy="-22" rx="27" ry="18"/>
<ellipse fill="none" stroke="black" cx="31" cy="-22" rx="31" ry="22"/>
<text text-anchor="middle" x="31" y="-16.4" font-family="Times,serif" font-size="14.00">2</text>
</a>
</g>
<!-- 1&#45;&gt;2 -->
<g id="edge4" class="edge"><title>1&#45;&gt;2</title>
<a xlink:title="send_return()">
<path fill="none" stroke="black" d="M31,-97.6955C31,-85.4651 31,-68.7287 31,-54.1979"/>
<polygon fill="black" stroke="black" points="34.5001,-54.103 31,-44.1031 27.5001,-54.1031 34.5001,-54.103"/>
</a>
<text text-anchor="middle" x="68.707" y="-65.4" font-family="Times,serif" font-size="14.00">send_return()</text>
</g>
</g>
</svg>
