<?xml version="1.0" encoding="UTF-8" standalone="no"?>
<!DOCTYPE svg PUBLIC "-//W3C//DTD SVG 1.1//EN"
 "http://www.w3.org/Graphics/SVG/1.1/DTD/svg11.dtd">
<!-- Generated by graphviz version 2.28.0 (20111028.1807)
 -->
<!-- Title: NoBlockScenarioFSM Pages: 1 -->
<svg width="401pt" height="330pt"
 viewBox="0.00 0.00 401.00 330.00" xmlns="http://www.w3.org/2000/svg" xmlns:xlink="http://www.w3.org/1999/xlink">
<g id="graph1" class="graph" transform="scale(1 1) rotate(0) translate(4 326)">
<title>NoBlockScenarioFSM</title>
<polygon fill="white" stroke="white" points="-4,5 -4,-326 398,-326 398,5 -4,5"/>
<!-- 0 -->
<g id="node1" class="node"><title>0</title>
<a xlink:title="{&#39;NoBlockScenario&#39;: 0}">
<ellipse fill="lightgray" stroke="black" cx="187" cy="-300" rx="27" ry="18"/>
<ellipse fill="none" stroke="black" cx="187" cy="-300" rx="31" ry="22"/>
<text text-anchor="middle" x="187" y="-294.4" font-family="Times,serif" font-size="14.00">0</text>
</a>
</g>
<!-- 0&#45;&gt;0 -->
<g id="edge4" class="edge"><title>0&#45;&gt;0</title>
<a xlink:title="recv_close()">
<path fill="none" stroke="black" d="M217.625,-304.5C227.833,-304.5 236,-303 236,-300 236,-298.125 232.81,-296.836 227.925,-296.133"/>
<polygon fill="black" stroke="black" points="227.821,-292.62 217.625,-295.5 227.392,-299.607 227.821,-292.62"/>
</a>
<text text-anchor="middle" x="270.59" y="-294.4" font-family="Times,serif" font-size="14.00">recv_close()</text>
</g>
<!-- 0&#45;&gt;0 -->
<g id="edge6" class="edge"><title>0&#45;&gt;0</title>
<a xlink:title="send_close()">
<path fill="none" stroke="black" d="M212.916,-312.345C249.283,-321.527 305.18,-317.412 305.18,-300 305.18,-284.153 258.875,-279.32 223.136,-285.503"/>
<polygon fill="black" stroke="black" points="221.98,-282.169 212.916,-287.655 223.423,-289.019 221.98,-282.169"/>
</a>
<text text-anchor="middle" x="340.556" y="-294.4" font-family="Times,serif" font-size="14.00">send_close()</text>
</g>
<!-- 1 -->
<g id="node2" class="node"><title>1</title>
<a xlink:title="{&#39;NoBlockScenario&#39;: 1}">
<ellipse fill="white" stroke="black" cx="90" cy="-206" rx="27" ry="18"/>
<text text-anchor="middle" x="90" y="-200.4" font-family="Times,serif" font-size="14.00">1</text>
</a>
</g>
<!-- 0&#45;&gt;1 -->
<g id="edge2" class="edge"><title>0&#45;&gt;1</title>
<a xlink:title="send_call()">
<path fill="none" stroke="black" d="M168.755,-281.696C152.764,-266.529 129.468,-244.434 112.36,-228.207"/>
<polygon fill="black" stroke="black" points="114.648,-225.553 104.983,-221.211 109.83,-230.632 114.648,-225.553"/>
</a>
<text text-anchor="middle" x="176.097" y="-245.4" font-family="Times,serif" font-size="14.00">send_call()</text>
</g>
<!-- 2 -->
<g id="node3" class="node"><title>2</title>
<a xlink:title="{&#39;NoBlockScenario&#39;: 2}">
<ellipse fill="white" stroke="black" cx="31" cy="-112" rx="27" ry="18"/>
<ellipse fill="none" stroke="black" cx="31" cy="-112" rx="31" ry="22"/>
<text text-anchor="middle" x="31" y="-106.4" font-family="Times,serif" font-size="14.00">2</text>
</a>
</g>
<!-- 1&#45;&gt;2 -->
<g id="edge8" class="edge"><title>1&#45;&gt;2</title>
<a xlink:title="send_return()">
<path fill="none" stroke="black" d="M79.723,-188.975C71.2777,-175.806 59.1096,-156.832 49.0465,-141.14"/>
<polygon fill="black" stroke="black" points="51.7534,-138.878 43.4088,-132.349 45.861,-142.656 51.7534,-138.878"/>
</a>
<text text-anchor="middle" x="105.707" y="-155.4" font-family="Times,serif" font-size="14.00">send_return()</text>
</g>
<!-- 2&#45;&gt;2 -->
<g id="edge10" class="edge"><title>2&#45;&gt;2</title>
<a xlink:title="recv_close()">
<path fill="none" stroke="black" d="M61.625,-116.5C71.8333,-116.5 80,-115 80,-112 80,-110.125 76.8099,-108.836 71.925,-108.133"/>
<polygon fill="black" stroke="black" points="71.8208,-104.62 61.625,-107.5 71.3915,-111.607 71.8208,-104.62"/>
</a>
<text text-anchor="middle" x="114.59" y="-106.4" font-family="Times,serif" font-size="14.00">recv_close()</text>
</g>
<!-- 2&#45;&gt;2 -->
<g id="edge12" class="edge"><title>2&#45;&gt;2</title>
<a xlink:title="send_close()">
<path fill="none" stroke="black" d="M56.9159,-124.345C93.2826,-133.527 149.18,-129.412 149.18,-112 149.18,-96.1526 102.875,-91.3201 67.1361,-97.5025"/>
<polygon fill="black" stroke="black" points="65.9797,-94.1692 56.9159,-99.6554 67.4226,-101.019 65.9797,-94.1692"/>
</a>
<text text-anchor="middle" x="184.556" y="-106.4" font-family="Times,serif" font-size="14.00">send_close()</text>
</g>
<!-- 3 -->
<g id="node4" class="node"><title>3</title>
<a xlink:title="{&#39;NoBlockScenario&#39;: 3}">
<ellipse fill="white" stroke="black" cx="187" cy="-18" rx="27" ry="18"/>
<text text-anchor="middle" x="187" y="-12.4" font-family="Times,serif" font-size="14.00">3</text>
</a>
</g>
<!-- 2&#45;&gt;3 -->
<g id="edge14" class="edge"><title>2&#45;&gt;3</title>
<a xlink:title="recv_call()">
<path fill="none" stroke="black" d="M54.3548,-97.2267C82.2393,-80.7819 128.848,-53.2945 158.738,-35.6671"/>
<polygon fill="black" stroke="black" points="160.603,-38.6309 167.439,-30.5362 157.047,-32.6013 160.603,-38.6309"/>
</a>
<text text-anchor="middle" x="158.311" y="-57.4" font-family="Times,serif" font-size="14.00">recv_call()</text>
</g>
<!-- 3&#45;&gt;0 -->
<g id="edge16" class="edge"><title>3&#45;&gt;0</title>
<a xlink:title="recv_return()">
<path fill="none" stroke="black" d="M203.363,-32.5241C217.711,-45.5365 237.559,-66.6363 246,-90 269.045,-153.79 230.568,-231.133 205.653,-271.482"/>
<polygon fill="black" stroke="black" points="202.664,-269.66 200.265,-279.98 208.576,-273.408 202.664,-269.66"/>
</a>
<text text-anchor="middle" x="288.921" y="-155.4" font-family="Times,serif" font-size="14.00">recv_return()</text>
</g>
</g>
</svg>
