<?xml version="1.0" encoding="UTF-8" standalone="no"?>
<!DOCTYPE svg PUBLIC "-//W3C//DTD SVG 1.1//EN"
 "http://www.w3.org/Graphics/SVG/1.1/DTD/svg11.dtd">
<!-- Generated by graphviz version 2.28.0 (20111028.1807)
 -->
<!-- Title: send_aa_smallFSM Pages: 1 -->
<svg width="1520pt" height="1312pt"
 viewBox="0.00 0.00 1520.17 1312.00" xmlns="http://www.w3.org/2000/svg" xmlns:xlink="http://www.w3.org/1999/xlink">
<g id="graph1" class="graph" transform="scale(1 1) rotate(0) translate(4 1308)">
<title>send_aa_smallFSM</title>
<polygon fill="white" stroke="white" points="-4,5 -4,-1308 1517.17,-1308 1517.17,5 -4,5"/>
<!-- 0 -->
<g id="node1" class="node"><title>0</title>
<a xlink:title="{&#39;Socket&#39;: {&#39;exception&#39;: &#39;&#39;, &#39;recv_closed&#39;: False, &#39;send_arg&#39;: &#39;&#39;, &#39;recv_arg&#39;: 0, &#39;send_closed&#39;: False, &#39;buffers&#39;: &#39;&#39;}}">
<ellipse fill="lightgray" stroke="black" cx="590" cy="-1282" rx="27" ry="18"/>
<ellipse fill="none" stroke="black" cx="590" cy="-1282" rx="31" ry="22"/>
<text text-anchor="middle" x="590" y="-1276.4" font-family="Times,serif" font-size="14.00">0</text>
</a>
</g>
<!-- 1 -->
<g id="node2" class="node"><title>1</title>
<a xlink:title="{&#39;Socket&#39;: {&#39;exception&#39;: &#39;&#39;, &#39;recv_closed&#39;: False, &#39;send_arg&#39;: &#39;a&#39;, &#39;recv_arg&#39;: 0, &#39;send_closed&#39;: False, &#39;buffers&#39;: &#39;&#39;}}">
<ellipse fill="white" stroke="black" cx="590" cy="-1188" rx="27" ry="18"/>
<text text-anchor="middle" x="590" y="-1182.4" font-family="Times,serif" font-size="14.00">1</text>
</a>
</g>
<!-- 0&#45;&gt;1 -->
<g id="edge2" class="edge"><title>0&#45;&gt;1</title>
<a xlink:title="send_call(&#39;a&#39;,)">
<path fill="none" stroke="black" d="M590,-1259.66C590,-1246.85 590,-1230.4 590,-1216.6"/>
<polygon fill="black" stroke="black" points="593.5,-1216.22 590,-1206.22 586.5,-1216.22 593.5,-1216.22"/>
</a>
<text text-anchor="middle" x="628.476" y="-1227.4" font-family="Times,serif" font-size="14.00">send_call(&#39;a&#39;,)</text>
</g>
<!-- 2 -->
<g id="node3" class="node"><title>2</title>
<a xlink:title="{&#39;Socket&#39;: {&#39;exception&#39;: &#39;&#39;, &#39;recv_closed&#39;: False, &#39;send_arg&#39;: &#39;aa&#39;, &#39;recv_arg&#39;: 0, &#39;send_closed&#39;: False, &#39;buffers&#39;: &#39;&#39;}}">
<ellipse fill="white" stroke="black" cx="814" cy="-828" rx="27" ry="18"/>
<text text-anchor="middle" x="814" y="-822.4" font-family="Times,serif" font-size="14.00">2</text>
</a>
</g>
<!-- 0&#45;&gt;2 -->
<g id="edge4" class="edge"><title>0&#45;&gt;2</title>
<a xlink:title="send_call(&#39;aa&#39;,)">
<path fill="none" stroke="black" d="M621.054,-1281.57C681.697,-1280.91 810,-1269.94 810,-1189 810,-1189 810,-1189 810,-917 810,-896.609 811.085,-873.589 812.125,-856.208"/>
<polygon fill="black" stroke="black" points="815.62,-856.389 812.756,-846.189 808.634,-855.949 815.62,-856.389"/>
</a>
<text text-anchor="middle" x="851.583" y="-1047.4" font-family="Times,serif" font-size="14.00">send_call(&#39;aa&#39;,)</text>
</g>
<!-- 3 -->
<g id="node4" class="node"><title>3</title>
<a xlink:title="{&#39;Socket&#39;: {&#39;exception&#39;: &#39;&#39;, &#39;recv_closed&#39;: False, &#39;send_arg&#39;: &#39;&#39;, &#39;recv_arg&#39;: 1, &#39;send_closed&#39;: False, &#39;buffers&#39;: &#39;&#39;}}">
<ellipse fill="white" stroke="black" cx="988" cy="-1188" rx="27" ry="18"/>
<text text-anchor="middle" x="988" y="-1182.4" font-family="Times,serif" font-size="14.00">3</text>
</a>
</g>
<!-- 0&#45;&gt;3 -->
<g id="edge6" class="edge"><title>0&#45;&gt;3</title>
<a xlink:title="recv_call(1,)">
<path fill="none" stroke="black" d="M620.581,-1277.37C665.547,-1271.7 751.971,-1259.54 824,-1242 870.371,-1230.71 922.622,-1212.91 955.425,-1201.1"/>
<polygon fill="black" stroke="black" points="956.748,-1204.35 964.953,-1197.64 954.359,-1197.77 956.748,-1204.35"/>
</a>
<text text-anchor="middle" x="919.561" y="-1227.4" font-family="Times,serif" font-size="14.00">recv_call(1,)</text>
</g>
<!-- 4 -->
<g id="node5" class="node"><title>4</title>
<a xlink:title="{&#39;Socket&#39;: {&#39;exception&#39;: &#39;&#39;, &#39;recv_closed&#39;: False, &#39;send_arg&#39;: &#39;&#39;, &#39;recv_arg&#39;: 2, &#39;send_closed&#39;: False, &#39;buffers&#39;: &#39;&#39;}}">
<ellipse fill="white" stroke="black" cx="238" cy="-1188" rx="27" ry="18"/>
<text text-anchor="middle" x="238" y="-1182.4" font-family="Times,serif" font-size="14.00">4</text>
</a>
</g>
<!-- 0&#45;&gt;4 -->
<g id="edge8" class="edge"><title>0&#45;&gt;4</title>
<a xlink:title="recv_call(2,)">
<path fill="none" stroke="black" d="M561.194,-1273.47C497.005,-1256.69 342.419,-1216.29 272.9,-1198.12"/>
<polygon fill="black" stroke="black" points="273.45,-1194.65 262.89,-1195.51 271.68,-1201.42 273.45,-1194.65"/>
</a>
<text text-anchor="middle" x="471.561" y="-1227.4" font-family="Times,serif" font-size="14.00">recv_call(2,)</text>
</g>
<!-- 5 -->
<g id="node6" class="node"><title>5</title>
<a xlink:title="{&#39;Socket&#39;: {&#39;exception&#39;: &#39;&#39;, &#39;recv_closed&#39;: False, &#39;send_arg&#39;: &#39;a&#39;, &#39;recv_arg&#39;: 1, &#39;send_closed&#39;: False, &#39;buffers&#39;: &#39;&#39;}}">
<ellipse fill="white" stroke="black" cx="988" cy="-1098" rx="27" ry="18"/>
<text text-anchor="middle" x="988" y="-1092.4" font-family="Times,serif" font-size="14.00">5</text>
</a>
</g>
<!-- 1&#45;&gt;5 -->
<g id="edge10" class="edge"><title>1&#45;&gt;5</title>
<a xlink:title="recv_call(1,)">
<path fill="none" stroke="black" d="M615.199,-1181.43C683.719,-1166.28 873.584,-1124.3 952.691,-1106.81"/>
<polygon fill="black" stroke="black" points="953.647,-1110.18 962.655,-1104.6 952.135,-1103.35 953.647,-1110.18"/>
</a>
<text text-anchor="middle" x="860.561" y="-1137.4" font-family="Times,serif" font-size="14.00">recv_call(1,)</text>
</g>
<!-- 6 -->
<g id="node7" class="node"><title>6</title>
<a xlink:title="{&#39;Socket&#39;: {&#39;exception&#39;: &#39;&#39;, &#39;recv_closed&#39;: False, &#39;send_arg&#39;: &#39;a&#39;, &#39;recv_arg&#39;: 2, &#39;send_closed&#39;: False, &#39;buffers&#39;: &#39;&#39;}}">
<ellipse fill="white" stroke="black" cx="358" cy="-1098" rx="27" ry="18"/>
<text text-anchor="middle" x="358" y="-1092.4" font-family="Times,serif" font-size="14.00">6</text>
</a>
</g>
<!-- 1&#45;&gt;6 -->
<g id="edge12" class="edge"><title>1&#45;&gt;6</title>
<a xlink:title="recv_call(2,)">
<path fill="none" stroke="black" d="M563.421,-1184.33C531.344,-1180.38 476.306,-1171.27 432.879,-1152 414.313,-1143.76 395.662,-1130.58 381.618,-1119.42"/>
<polygon fill="black" stroke="black" points="383.47,-1116.42 373.511,-1112.8 379.041,-1121.84 383.47,-1116.42"/>
</a>
<text text-anchor="middle" x="468.561" y="-1137.4" font-family="Times,serif" font-size="14.00">recv_call(2,)</text>
</g>
<!-- 7 -->
<g id="node8" class="node"><title>7</title>
<a xlink:title="{&#39;Socket&#39;: {&#39;exception&#39;: &#39;&#39;, &#39;recv_closed&#39;: False, &#39;send_arg&#39;: &#39;&#39;, &#39;recv_arg&#39;: 0, &#39;send_closed&#39;: False, &#39;buffers&#39;: &#39;a&#39;}}">
<ellipse fill="white" stroke="black" cx="679" cy="-738" rx="27" ry="18"/>
<text text-anchor="middle" x="679" y="-732.4" font-family="Times,serif" font-size="14.00">7</text>
</a>
</g>
<!-- 1&#45;&gt;7 -->
<g id="edge14" class="edge"><title>1&#45;&gt;7</title>
<a xlink:title="send_return(1,)">
<path fill="none" stroke="black" d="M609.295,-1174.98C630.622,-1160.03 662,-1132.36 662,-1099 662,-1099 662,-1099 662,-827 662,-806.125 666.669,-782.962 671.113,-765.642"/>
<polygon fill="black" stroke="black" points="674.573,-766.252 673.807,-755.685 667.816,-764.424 674.573,-766.252"/>
</a>
<text text-anchor="middle" x="704.957" y="-957.4" font-family="Times,serif" font-size="14.00">send_return(1,)</text>
</g>
<!-- 2&#45;&gt;7 -->
<g id="edge22" class="edge"><title>2&#45;&gt;7</title>
<a xlink:title="send_return(1,)">
<path fill="none" stroke="black" d="M787.002,-825.998C760.476,-823.579 720.525,-815.876 696.086,-792 689.152,-785.226 685.029,-775.628 682.578,-766.458"/>
<polygon fill="black" stroke="black" points="685.957,-765.517 680.461,-756.458 679.108,-766.966 685.957,-765.517"/>
</a>
<text text-anchor="middle" x="739.957" y="-777.4" font-family="Times,serif" font-size="14.00">send_return(1,)</text>
</g>
<!-- 8 -->
<g id="node9" class="node"><title>8</title>
<a xlink:title="{&#39;Socket&#39;: {&#39;exception&#39;: &#39;&#39;, &#39;recv_closed&#39;: False, &#39;send_arg&#39;: &#39;&#39;, &#39;recv_arg&#39;: 0, &#39;send_closed&#39;: False, &#39;buffers&#39;: &#39;aa&#39;}}">
<ellipse fill="white" stroke="black" cx="745" cy="-558" rx="27" ry="18"/>
<text text-anchor="middle" x="745" y="-552.4" font-family="Times,serif" font-size="14.00">8</text>
</a>
</g>
<!-- 2&#45;&gt;8 -->
<g id="edge16" class="edge"><title>2&#45;&gt;8</title>
<a xlink:title="send_return(2,)">
<path fill="none" stroke="black" d="M805.499,-810.859C788.068,-777.734 749.844,-704.922 749.086,-702 738.913,-662.775 740.047,-615.464 742.208,-586.306"/>
<polygon fill="black" stroke="black" points="745.718,-586.332 743.065,-576.075 738.743,-585.747 745.718,-586.332"/>
</a>
<text text-anchor="middle" x="792.957" y="-687.4" font-family="Times,serif" font-size="14.00">send_return(2,)</text>
</g>
<!-- 9 -->
<g id="node10" class="node"><title>9</title>
<a xlink:title="{&#39;Socket&#39;: {&#39;exception&#39;: &#39;&#39;, &#39;recv_closed&#39;: False, &#39;send_arg&#39;: &#39;aa&#39;, &#39;recv_arg&#39;: 1, &#39;send_closed&#39;: False, &#39;buffers&#39;: &#39;&#39;}}">
<ellipse fill="white" stroke="black" cx="1373" cy="-738" rx="27" ry="18"/>
<text text-anchor="middle" x="1373" y="-732.4" font-family="Times,serif" font-size="14.00">9</text>
</a>
</g>
<!-- 2&#45;&gt;9 -->
<g id="edge18" class="edge"><title>2&#45;&gt;9</title>
<a xlink:title="recv_call(1,)">
<path fill="none" stroke="black" d="M840.668,-824.367C880.636,-820.007 958.194,-809.939 1022,-792 1042.69,-786.183 1046.04,-779.268 1066.88,-774 1161.84,-749.992 1277.56,-742.422 1335.77,-740.058"/>
<polygon fill="black" stroke="black" points="1336.09,-743.548 1345.95,-739.674 1335.83,-736.553 1336.09,-743.548"/>
</a>
<text text-anchor="middle" x="1102.56" y="-777.4" font-family="Times,serif" font-size="14.00">recv_call(1,)</text>
</g>
<!-- 10 -->
<g id="node11" class="node"><title>10</title>
<a xlink:title="{&#39;Socket&#39;: {&#39;exception&#39;: &#39;&#39;, &#39;recv_closed&#39;: False, &#39;send_arg&#39;: &#39;aa&#39;, &#39;recv_arg&#39;: 2, &#39;send_closed&#39;: False, &#39;buffers&#39;: &#39;&#39;}}">
<ellipse fill="white" stroke="black" cx="205" cy="-738" rx="27" ry="18"/>
<text text-anchor="middle" x="205" y="-732.4" font-family="Times,serif" font-size="14.00">10</text>
</a>
</g>
<!-- 2&#45;&gt;10 -->
<g id="edge20" class="edge"><title>2&#45;&gt;10</title>
<a xlink:title="recv_call(2,)">
<path fill="none" stroke="black" d="M787.561,-823.637C740.251,-817.583 638.002,-804.328 551.879,-792 438.433,-775.761 304.407,-754.769 241.305,-744.778"/>
<polygon fill="black" stroke="black" points="241.508,-741.267 231.084,-743.158 240.412,-748.18 241.508,-741.267"/>
</a>
<text text-anchor="middle" x="587.561" y="-777.4" font-family="Times,serif" font-size="14.00">recv_call(2,)</text>
</g>
<!-- 3&#45;&gt;5 -->
<g id="edge24" class="edge"><title>3&#45;&gt;5</title>
<a xlink:title="send_call(&#39;a&#39;,)">
<path fill="none" stroke="black" d="M988,-1169.61C988,-1157.24 988,-1140.37 988,-1126.22"/>
<polygon fill="black" stroke="black" points="991.5,-1126.05 988,-1116.05 984.5,-1126.05 991.5,-1126.05"/>
</a>
<text text-anchor="middle" x="1026.48" y="-1137.4" font-family="Times,serif" font-size="14.00">send_call(&#39;a&#39;,)</text>
</g>
<!-- 3&#45;&gt;9 -->
<g id="edge26" class="edge"><title>3&#45;&gt;9</title>
<a xlink:title="send_call(&#39;aa&#39;,)">
<path fill="none" stroke="black" d="M1014.59,-1184.81C1109.94,-1176.24 1429,-1141.07 1429,-1054 1429,-1054 1429,-1054 1429,-827 1429,-801.167 1411.61,-776.798 1396.21,-760.284"/>
<polygon fill="black" stroke="black" points="1398.4,-757.518 1388.9,-752.836 1393.41,-762.423 1398.4,-757.518"/>
</a>
<text text-anchor="middle" x="1470.58" y="-957.4" font-family="Times,serif" font-size="14.00">send_call(&#39;aa&#39;,)</text>
</g>
<!-- 4&#45;&gt;6 -->
<g id="edge28" class="edge"><title>4&#45;&gt;6</title>
<a xlink:title="send_call(&#39;a&#39;,)">
<path fill="none" stroke="black" d="M249.956,-1171.68C259.413,-1160.28 273.419,-1144.87 288.048,-1134 299.601,-1125.42 313.577,-1117.94 325.991,-1112.13"/>
<polygon fill="black" stroke="black" points="327.435,-1115.32 335.113,-1108.02 324.558,-1108.93 327.435,-1115.32"/>
</a>
<text text-anchor="middle" x="327.476" y="-1137.4" font-family="Times,serif" font-size="14.00">send_call(&#39;a&#39;,)</text>
</g>
<!-- 4&#45;&gt;10 -->
<g id="edge30" class="edge"><title>4&#45;&gt;10</title>
<a xlink:title="send_call(&#39;aa&#39;,)">
<path fill="none" stroke="black" d="M228.099,-1171.13C218.379,-1154 205,-1125.6 205,-1099 205,-1099 205,-1099 205,-827 205,-806.63 205,-783.609 205,-766.222"/>
<polygon fill="black" stroke="black" points="208.5,-766.199 205,-756.199 201.5,-766.2 208.5,-766.199"/>
</a>
<text text-anchor="middle" x="246.583" y="-957.4" font-family="Times,serif" font-size="14.00">send_call(&#39;aa&#39;,)</text>
</g>
<!-- 11 -->
<g id="node12" class="node"><title>11</title>
<a xlink:title="{&#39;Socket&#39;: {&#39;exception&#39;: &#39;&#39;, &#39;recv_closed&#39;: False, &#39;send_arg&#39;: &#39;&#39;, &#39;recv_arg&#39;: 1, &#39;send_closed&#39;: False, &#39;buffers&#39;: &#39;a&#39;}}">
<ellipse fill="white" stroke="black" cx="1235" cy="-1008" rx="27" ry="18"/>
<text text-anchor="middle" x="1235" y="-1002.4" font-family="Times,serif" font-size="14.00">11</text>
</a>
</g>
<!-- 5&#45;&gt;11 -->
<g id="edge32" class="edge"><title>5&#45;&gt;11</title>
<a xlink:title="send_return(1,)">
<path fill="none" stroke="black" d="M1011.24,-1088.72C1055.37,-1073 1151.43,-1038.77 1202.14,-1020.71"/>
<polygon fill="black" stroke="black" points="1203.4,-1023.97 1211.64,-1017.32 1201.05,-1017.38 1203.4,-1023.97"/>
</a>
<text text-anchor="middle" x="1176.96" y="-1047.4" font-family="Times,serif" font-size="14.00">send_return(1,)</text>
</g>
<!-- 12 -->
<g id="node13" class="node"><title>12</title>
<a xlink:title="{&#39;Socket&#39;: {&#39;exception&#39;: &#39;&#39;, &#39;recv_closed&#39;: False, &#39;send_arg&#39;: &#39;&#39;, &#39;recv_arg&#39;: 2, &#39;send_closed&#39;: False, &#39;buffers&#39;: &#39;a&#39;}}">
<ellipse fill="white" stroke="black" cx="226" cy="-648" rx="27" ry="18"/>
<text text-anchor="middle" x="226" y="-642.4" font-family="Times,serif" font-size="14.00">12</text>
</a>
</g>
<!-- 6&#45;&gt;12 -->
<g id="edge34" class="edge"><title>6&#45;&gt;12</title>
<a xlink:title="send_return(1,)">
<path fill="none" stroke="black" d="M360.302,-1079.67C367.424,-1018.84 383.447,-811.868 292,-684 284.142,-673.012 271.753,-665.171 259.82,-659.736"/>
<polygon fill="black" stroke="black" points="261.024,-656.446 250.444,-655.878 258.36,-662.92 261.024,-656.446"/>
</a>
<text text-anchor="middle" x="403.957" y="-867.4" font-family="Times,serif" font-size="14.00">send_return(1,)</text>
</g>
<!-- 7&#45;&gt;11 -->
<g id="edge40" class="edge"><title>7&#45;&gt;11</title>
<a xlink:title="recv_call(1,)">
<path fill="none" stroke="black" d="M703.553,-746.133C724.684,-752.557 755.814,-762.705 782,-774 813.4,-787.544 821.221,-791.53 850,-810 894.253,-838.401 898.508,-855.422 943.879,-882 1032.34,-933.823 1146.32,-976.449 1201.76,-995.797"/>
<polygon fill="black" stroke="black" points="1200.82,-999.174 1211.41,-999.135 1203.11,-992.558 1200.82,-999.174"/>
</a>
<text text-anchor="middle" x="979.561" y="-867.4" font-family="Times,serif" font-size="14.00">recv_call(1,)</text>
</g>
<!-- 7&#45;&gt;12 -->
<g id="edge42" class="edge"><title>7&#45;&gt;12</title>
<a xlink:title="recv_call(2,)">
<path fill="none" stroke="black" d="M651.902,-737.202C608.04,-736.588 519.577,-731.404 451.879,-702 440.012,-696.846 440.821,-689.26 429,-684 374.631,-659.807 305.175,-652.277 263.216,-649.97"/>
<polygon fill="black" stroke="black" points="263.322,-646.471 253.166,-649.489 262.987,-653.463 263.322,-646.471"/>
</a>
<text text-anchor="middle" x="487.561" y="-687.4" font-family="Times,serif" font-size="14.00">recv_call(2,)</text>
</g>
<!-- 13 -->
<g id="node14" class="node"><title>13</title>
<a xlink:title="{&#39;Socket&#39;: {&#39;exception&#39;: &#39;&#39;, &#39;recv_closed&#39;: False, &#39;send_arg&#39;: &#39;a&#39;, &#39;recv_arg&#39;: 0, &#39;send_closed&#39;: False, &#39;buffers&#39;: &#39;a&#39;}}">
<ellipse fill="white" stroke="black" cx="647" cy="-288" rx="27" ry="18"/>
<text text-anchor="middle" x="647" y="-282.4" font-family="Times,serif" font-size="14.00">13</text>
</a>
</g>
<!-- 7&#45;&gt;13 -->
<g id="edge36" class="edge"><title>7&#45;&gt;13</title>
<a xlink:title="send_call(&#39;a&#39;,)">
<path fill="none" stroke="black" d="M674.027,-719.855C670.669,-709.257 665.799,-695.526 660,-684 638.395,-641.054 630.85,-630.87 600,-594 570.358,-558.574 543.152,-564.496 525.048,-522 490.357,-440.571 578.14,-348.854 622.8,-309.127"/>
<polygon fill="black" stroke="black" points="625.108,-311.758 630.342,-302.547 620.506,-306.483 625.108,-311.758"/>
</a>
<text text-anchor="middle" x="564.476" y="-507.4" font-family="Times,serif" font-size="14.00">send_call(&#39;a&#39;,)</text>
</g>
<!-- 14 -->
<g id="node15" class="node"><title>14</title>
<a xlink:title="{&#39;Socket&#39;: {&#39;exception&#39;: &#39;&#39;, &#39;recv_closed&#39;: False, &#39;send_arg&#39;: &#39;aa&#39;, &#39;recv_arg&#39;: 0, &#39;send_closed&#39;: False, &#39;buffers&#39;: &#39;a&#39;}}">
<ellipse fill="white" stroke="black" cx="867" cy="-648" rx="27" ry="18"/>
<text text-anchor="middle" x="867" y="-642.4" font-family="Times,serif" font-size="14.00">14</text>
</a>
</g>
<!-- 7&#45;&gt;14 -->
<g id="edge38" class="edge"><title>7&#45;&gt;14</title>
<a xlink:title="send_call(&#39;aa&#39;,)">
<path fill="none" stroke="black" d="M706.202,-737.737C740.539,-737.29 799.841,-731.773 839,-702 847.823,-695.292 854.15,-684.993 858.532,-675.251"/>
<polygon fill="black" stroke="black" points="861.829,-676.434 862.286,-665.849 855.328,-673.839 861.829,-676.434"/>
</a>
<text text-anchor="middle" x="895.583" y="-687.4" font-family="Times,serif" font-size="14.00">send_call(&#39;aa&#39;,)</text>
</g>
<!-- 15 -->
<g id="node16" class="node"><title>15</title>
<a xlink:title="{&#39;Socket&#39;: {&#39;exception&#39;: &#39;&#39;, &#39;recv_closed&#39;: False, &#39;send_arg&#39;: &#39;a&#39;, &#39;recv_arg&#39;: 0, &#39;send_closed&#39;: False, &#39;buffers&#39;: &#39;aa&#39;}}">
<ellipse fill="white" stroke="black" cx="628" cy="-468" rx="27" ry="18"/>
<text text-anchor="middle" x="628" y="-462.4" font-family="Times,serif" font-size="14.00">15</text>
</a>
</g>
<!-- 8&#45;&gt;15 -->
<g id="edge44" class="edge"><title>8&#45;&gt;15</title>
<a xlink:title="send_call(&#39;a&#39;,)">
<path fill="none" stroke="black" d="M718.577,-553.182C697.612,-548.89 668.808,-540.005 650.048,-522 642.761,-515.007 637.788,-505.244 634.44,-496.001"/>
<polygon fill="black" stroke="black" points="637.74,-494.827 631.41,-486.331 631.06,-496.92 637.74,-494.827"/>
</a>
<text text-anchor="middle" x="689.476" y="-507.4" font-family="Times,serif" font-size="14.00">send_call(&#39;a&#39;,)</text>
</g>
<!-- 16 -->
<g id="node17" class="node"><title>16</title>
<a xlink:title="{&#39;Socket&#39;: {&#39;exception&#39;: &#39;&#39;, &#39;recv_closed&#39;: False, &#39;send_arg&#39;: &#39;aa&#39;, &#39;recv_arg&#39;: 0, &#39;send_closed&#39;: False, &#39;buffers&#39;: &#39;aa&#39;}}">
<ellipse fill="white" stroke="black" cx="773" cy="-108" rx="27" ry="18"/>
<text text-anchor="middle" x="773" y="-102.4" font-family="Times,serif" font-size="14.00">16</text>
</a>
</g>
<!-- 8&#45;&gt;16 -->
<g id="edge46" class="edge"><title>8&#45;&gt;16</title>
<a xlink:title="send_call(&#39;aa&#39;,)">
<path fill="none" stroke="black" d="M755.08,-541.226C769.092,-518.269 793.771,-473.817 803,-432 812.062,-390.94 781.95,-383.257 773.834,-342 759.439,-268.82 765.346,-180.191 769.779,-136.326"/>
<polygon fill="black" stroke="black" points="773.281,-136.489 770.861,-126.175 766.32,-135.747 773.281,-136.489"/>
</a>
<text text-anchor="middle" x="815.583" y="-327.4" font-family="Times,serif" font-size="14.00">send_call(&#39;aa&#39;,)</text>
</g>
<!-- 17 -->
<g id="node18" class="node"><title>17</title>
<a xlink:title="{&#39;Socket&#39;: {&#39;exception&#39;: &#39;&#39;, &#39;recv_closed&#39;: False, &#39;send_arg&#39;: &#39;&#39;, &#39;recv_arg&#39;: 1, &#39;send_closed&#39;: False, &#39;buffers&#39;: &#39;aa&#39;}}">
<ellipse fill="white" stroke="black" cx="1208" cy="-108" rx="27" ry="18"/>
<text text-anchor="middle" x="1208" y="-102.4" font-family="Times,serif" font-size="14.00">17</text>
</a>
</g>
<!-- 8&#45;&gt;17 -->
<g id="edge48" class="edge"><title>8&#45;&gt;17</title>
<a xlink:title="recv_call(1,)">
<path fill="none" stroke="black" d="M761.713,-543.457C789.436,-520.865 846.489,-473.834 893,-432 936.004,-393.321 954.675,-389.964 987,-342 1015.87,-299.157 997.968,-274.536 1030,-234 1070.58,-182.651 1137.79,-143.537 1176.98,-123.627"/>
<polygon fill="black" stroke="black" points="1178.92,-126.574 1186.31,-118.983 1175.8,-120.308 1178.92,-126.574"/>
</a>
<text text-anchor="middle" x="1033.56" y="-327.4" font-family="Times,serif" font-size="14.00">recv_call(1,)</text>
</g>
<!-- 18 -->
<g id="node19" class="node"><title>18</title>
<a xlink:title="{&#39;Socket&#39;: {&#39;exception&#39;: &#39;&#39;, &#39;recv_closed&#39;: False, &#39;send_arg&#39;: &#39;&#39;, &#39;recv_arg&#39;: 2, &#39;send_closed&#39;: False, &#39;buffers&#39;: &#39;aa&#39;}}">
<ellipse fill="white" stroke="black" cx="381" cy="-108" rx="27" ry="18"/>
<text text-anchor="middle" x="381" y="-102.4" font-family="Times,serif" font-size="14.00">18</text>
</a>
</g>
<!-- 8&#45;&gt;18 -->
<g id="edge50" class="edge"><title>8&#45;&gt;18</title>
<a xlink:title="recv_call(2,)">
<path fill="none" stroke="black" d="M719.133,-551.955C695.845,-546.707 661.202,-537.11 634,-522 612.508,-510.062 607.601,-505.001 592,-486 541.894,-424.974 431.482,-209.319 393.854,-134.662"/>
<polygon fill="black" stroke="black" points="396.859,-132.847 389.238,-125.486 390.605,-135.992 396.859,-132.847"/>
</a>
<text text-anchor="middle" x="538.561" y="-327.4" font-family="Times,serif" font-size="14.00">recv_call(2,)</text>
</g>
<!-- 9&#45;&gt;11 -->
<g id="edge54" class="edge"><title>9&#45;&gt;11</title>
<a xlink:title="send_return(1,)">
<path fill="none" stroke="black" d="M1366.44,-755.793C1357.28,-779.611 1340.52,-824.686 1329.09,-864 1315.32,-911.317 1334.4,-933.216 1304,-972 1295.15,-983.289 1281.68,-991.249 1268.98,-996.694"/>
<polygon fill="black" stroke="black" points="1267.56,-993.492 1259.51,-1000.38 1270.1,-1000.02 1267.56,-993.492"/>
</a>
<text text-anchor="middle" x="1372.96" y="-867.4" font-family="Times,serif" font-size="14.00">send_return(1,)</text>
</g>
<!-- 9&#45;&gt;17 -->
<g id="edge52" class="edge"><title>9&#45;&gt;17</title>
<a xlink:title="send_return(2,)">
<path fill="none" stroke="black" d="M1378.5,-720.337C1383.79,-702.792 1391,-674.262 1391,-649 1391,-649 1391,-649 1391,-197 1391,-171.142 1387.09,-160.282 1367,-144 1348.52,-129.019 1285.59,-118.606 1244.66,-113.231"/>
<polygon fill="black" stroke="black" points="1244.87,-109.731 1234.51,-111.942 1243.99,-116.675 1244.87,-109.731"/>
</a>
<text text-anchor="middle" x="1433.96" y="-417.4" font-family="Times,serif" font-size="14.00">send_return(2,)</text>
</g>
<!-- 10&#45;&gt;12 -->
<g id="edge58" class="edge"><title>10&#45;&gt;12</title>
<a xlink:title="send_return(1,)">
<path fill="none" stroke="black" d="M203.246,-719.985C202.671,-709.437 202.859,-695.712 206.086,-684 207.044,-680.525 208.423,-677.03 210.016,-673.663"/>
<polygon fill="black" stroke="black" points="213.217,-675.103 214.897,-664.642 207.06,-671.772 213.217,-675.103"/>
</a>
<text text-anchor="middle" x="249.957" y="-687.4" font-family="Times,serif" font-size="14.00">send_return(1,)</text>
</g>
<!-- 10&#45;&gt;18 -->
<g id="edge56" class="edge"><title>10&#45;&gt;18</title>
<a xlink:title="send_return(2,)">
<path fill="none" stroke="black" d="M196.094,-720.869C180.062,-690.276 148,-621.301 148,-559 148,-559 148,-559 148,-197 148,-155.442 279.359,-126.68 344.815,-114.927"/>
<polygon fill="black" stroke="black" points="345.481,-118.364 354.725,-113.187 344.27,-111.469 345.481,-118.364"/>
</a>
<text text-anchor="middle" x="190.957" y="-417.4" font-family="Times,serif" font-size="14.00">send_return(2,)</text>
</g>
<!-- 11&#45;&gt;0 -->
<g id="edge64" class="edge"><title>11&#45;&gt;0</title>
<a xlink:title="recv_return(&#39;a&#39;,)">
<path fill="none" stroke="black" d="M1234.17,-1026.45C1232.93,-1037.42 1229.97,-1051.45 1223,-1062 1202.69,-1092.76 1046.67,-1214.35 959,-1242 844.466,-1278.13 701.055,-1282.32 631.567,-1281.93"/>
<polygon fill="black" stroke="black" points="631.496,-1278.43 621.464,-1281.84 631.432,-1285.43 631.496,-1278.43"/>
</a>
<text text-anchor="middle" x="1187.3" y="-1137.4" font-family="Times,serif" font-size="14.00">recv_return(&#39;a&#39;,)</text>
</g>
<!-- 19 -->
<g id="node20" class="node"><title>19</title>
<a xlink:title="{&#39;Socket&#39;: {&#39;exception&#39;: &#39;&#39;, &#39;recv_closed&#39;: False, &#39;send_arg&#39;: &#39;a&#39;, &#39;recv_arg&#39;: 1, &#39;send_closed&#39;: False, &#39;buffers&#39;: &#39;a&#39;}}">
<ellipse fill="white" stroke="black" cx="1269" cy="-198" rx="27" ry="18"/>
<text text-anchor="middle" x="1269" y="-192.4" font-family="Times,serif" font-size="14.00">19</text>
</a>
</g>
<!-- 11&#45;&gt;19 -->
<g id="edge60" class="edge"><title>11&#45;&gt;19</title>
<a xlink:title="send_call(&#39;a&#39;,)">
<path fill="none" stroke="black" d="M1254.44,-995.448C1262.57,-989.526 1271.23,-981.542 1276,-972 1351.32,-821.448 1253.57,-755.797 1300.05,-594 1310.09,-559.031 1330.07,-557.27 1339,-522 1344.96,-498.473 1339.99,-492.01 1327,-414 1313.6,-333.523 1321.21,-309.786 1291,-234 1289.52,-230.281 1287.64,-226.521 1285.6,-222.914"/>
<polygon fill="black" stroke="black" points="1288.58,-221.069 1280.36,-214.376 1282.61,-224.73 1288.58,-221.069"/>
</a>
<text text-anchor="middle" x="1339.48" y="-597.4" font-family="Times,serif" font-size="14.00">send_call(&#39;a&#39;,)</text>
</g>
<!-- 20 -->
<g id="node21" class="node"><title>20</title>
<a xlink:title="{&#39;Socket&#39;: {&#39;exception&#39;: &#39;&#39;, &#39;recv_closed&#39;: False, &#39;send_arg&#39;: &#39;aa&#39;, &#39;recv_arg&#39;: 1, &#39;send_closed&#39;: False, &#39;buffers&#39;: &#39;a&#39;}}">
<ellipse fill="white" stroke="black" cx="1173" cy="-918" rx="27" ry="18"/>
<text text-anchor="middle" x="1173" y="-912.4" font-family="Times,serif" font-size="14.00">20</text>
</a>
</g>
<!-- 11&#45;&gt;20 -->
<g id="edge62" class="edge"><title>11&#45;&gt;20</title>
<a xlink:title="send_call(&#39;aa&#39;,)">
<path fill="none" stroke="black" d="M1216.27,-994.799C1208.17,-988.747 1199.12,-980.839 1192.83,-972 1187.21,-964.088 1182.97,-954.388 1179.89,-945.458"/>
<polygon fill="black" stroke="black" points="1183.21,-944.343 1176.88,-935.841 1176.52,-946.429 1183.21,-944.343"/>
</a>
<text text-anchor="middle" x="1234.58" y="-957.4" font-family="Times,serif" font-size="14.00">send_call(&#39;aa&#39;,)</text>
</g>
<!-- 12&#45;&gt;0 -->
<g id="edge70" class="edge"><title>12&#45;&gt;0</title>
<a xlink:title="recv_return(&#39;a&#39;,)">
<path fill="none" stroke="black" d="M211.794,-663.353C199.038,-676.937 180.586,-698.411 169,-720 106.605,-836.268 93,-875.048 93,-1007 93,-1189 93,-1189 93,-1189 93,-1235.26 430.263,-1267.74 549.135,-1277.75"/>
<polygon fill="black" stroke="black" points="549.03,-1281.25 559.285,-1278.59 549.61,-1274.27 549.03,-1281.25"/>
</a>
<text text-anchor="middle" x="138.3" y="-957.4" font-family="Times,serif" font-size="14.00">recv_return(&#39;a&#39;,)</text>
</g>
<!-- 21 -->
<g id="node22" class="node"><title>21</title>
<a xlink:title="{&#39;Socket&#39;: {&#39;exception&#39;: &#39;&#39;, &#39;recv_closed&#39;: False, &#39;send_arg&#39;: &#39;a&#39;, &#39;recv_arg&#39;: 2, &#39;send_closed&#39;: False, &#39;buffers&#39;: &#39;a&#39;}}">
<ellipse fill="white" stroke="black" cx="476" cy="-198" rx="27" ry="18"/>
<text text-anchor="middle" x="476" y="-192.4" font-family="Times,serif" font-size="14.00">21</text>
</a>
</g>
<!-- 12&#45;&gt;21 -->
<g id="edge66" class="edge"><title>12&#45;&gt;21</title>
<a xlink:title="send_call(&#39;a&#39;,)">
<path fill="none" stroke="black" d="M226.811,-629.699C227.503,-619.287 228.757,-605.804 231,-594 246.545,-512.186 243.407,-487.237 283.048,-414 327.83,-331.265 410.579,-254.344 451.614,-219.136"/>
<polygon fill="black" stroke="black" points="454.115,-221.604 459.475,-212.464 449.586,-216.266 454.115,-221.604"/>
</a>
<text text-anchor="middle" x="322.476" y="-417.4" font-family="Times,serif" font-size="14.00">send_call(&#39;a&#39;,)</text>
</g>
<!-- 22 -->
<g id="node23" class="node"><title>22</title>
<a xlink:title="{&#39;Socket&#39;: {&#39;exception&#39;: &#39;&#39;, &#39;recv_closed&#39;: False, &#39;send_arg&#39;: &#39;aa&#39;, &#39;recv_arg&#39;: 2, &#39;send_closed&#39;: False, &#39;buffers&#39;: &#39;a&#39;}}">
<ellipse fill="white" stroke="black" cx="303" cy="-558" rx="27" ry="18"/>
<text text-anchor="middle" x="303" y="-552.4" font-family="Times,serif" font-size="14.00">22</text>
</a>
</g>
<!-- 12&#45;&gt;22 -->
<g id="edge68" class="edge"><title>12&#45;&gt;22</title>
<a xlink:title="send_call(&#39;aa&#39;,)">
<path fill="none" stroke="black" d="M228.605,-629.745C231.012,-618.578 235.526,-604.262 243.834,-594 251.005,-585.143 261.057,-578.024 270.845,-572.579"/>
<polygon fill="black" stroke="black" points="272.738,-575.542 280.044,-567.869 269.548,-569.311 272.738,-575.542"/>
</a>
<text text-anchor="middle" x="285.583" y="-597.4" font-family="Times,serif" font-size="14.00">send_call(&#39;aa&#39;,)</text>
</g>
<!-- 13&#45;&gt;8 -->
<g id="edge76" class="edge"><title>13&#45;&gt;8</title>
<a xlink:title="send_return(1,)">
<path fill="none" stroke="black" d="M642.515,-306.065C637.596,-328.889 632.734,-369.541 652,-396 665.411,-414.419 684.329,-397.461 700,-414 730.105,-445.772 740.076,-497.512 743.375,-529.274"/>
<polygon fill="black" stroke="black" points="739.921,-529.955 744.285,-539.609 746.894,-529.341 739.921,-529.955"/>
</a>
<text text-anchor="middle" x="756.957" y="-417.4" font-family="Times,serif" font-size="14.00">send_return(1,)</text>
</g>
<!-- 13&#45;&gt;19 -->
<g id="edge72" class="edge"><title>13&#45;&gt;19</title>
<a xlink:title="recv_call(1,)">
<path fill="none" stroke="black" d="M673.983,-285.277C733.69,-281.263 881.417,-270.221 1004,-252 1087.14,-239.641 1183.7,-218.623 1234.18,-207.119"/>
<polygon fill="black" stroke="black" points="1234.97,-210.528 1243.93,-204.882 1233.41,-203.705 1234.97,-210.528"/>
</a>
<text text-anchor="middle" x="1142.56" y="-237.4" font-family="Times,serif" font-size="14.00">recv_call(1,)</text>
</g>
<!-- 13&#45;&gt;21 -->
<g id="edge74" class="edge"><title>13&#45;&gt;21</title>
<a xlink:title="recv_call(2,)">
<path fill="none" stroke="black" d="M620.287,-284.736C579.433,-280.71 504.223,-270.895 485.879,-252 479.247,-245.169 476.326,-235.399 475.213,-226.104"/>
<polygon fill="black" stroke="black" points="478.7,-225.773 474.625,-215.993 471.712,-226.18 478.7,-225.773"/>
</a>
<text text-anchor="middle" x="521.561" y="-237.4" font-family="Times,serif" font-size="14.00">recv_call(2,)</text>
</g>
<!-- 14&#45;&gt;8 -->
<g id="edge82" class="edge"><title>14&#45;&gt;8</title>
<a xlink:title="send_return(1,)">
<path fill="none" stroke="black" d="M841.726,-641.401C822.879,-636.235 797.345,-627.041 779.086,-612 770.127,-604.62 762.74,-594.254 757.16,-584.645"/>
<polygon fill="black" stroke="black" points="760.206,-582.919 752.372,-575.786 754.048,-586.247 760.206,-582.919"/>
</a>
<text text-anchor="middle" x="822.957" y="-597.4" font-family="Times,serif" font-size="14.00">send_return(1,)</text>
</g>
<!-- 14&#45;&gt;20 -->
<g id="edge78" class="edge"><title>14&#45;&gt;20</title>
<a xlink:title="recv_call(1,)">
<path fill="none" stroke="black" d="M893.204,-653.307C947.596,-663.672 1073.08,-695.235 1138,-774 1165.34,-807.169 1171.86,-858.47 1173.12,-889.767"/>
<polygon fill="black" stroke="black" points="1169.63,-890.029 1173.37,-899.94 1176.62,-889.857 1169.63,-890.029"/>
</a>
<text text-anchor="middle" x="1185.56" y="-777.4" font-family="Times,serif" font-size="14.00">recv_call(1,)</text>
</g>
<!-- 14&#45;&gt;22 -->
<g id="edge80" class="edge"><title>14&#45;&gt;22</title>
<a xlink:title="recv_call(2,)">
<path fill="none" stroke="black" d="M840.928,-642.932C749.713,-628.7 444.745,-581.116 339.265,-564.658"/>
<polygon fill="black" stroke="black" points="339.54,-561.159 329.12,-563.075 338.46,-568.075 339.54,-561.159"/>
</a>
<text text-anchor="middle" x="671.561" y="-597.4" font-family="Times,serif" font-size="14.00">recv_call(2,)</text>
</g>
<!-- 23 -->
<g id="node24" class="node"><title>23</title>
<a xlink:title="{&#39;Socket&#39;: {&#39;exception&#39;: &#39;&#39;, &#39;recv_closed&#39;: False, &#39;send_arg&#39;: &#39;a&#39;, &#39;recv_arg&#39;: 1, &#39;send_closed&#39;: False, &#39;buffers&#39;: &#39;aa&#39;}}">
<ellipse fill="white" stroke="black" cx="688" cy="-378" rx="27" ry="18"/>
<text text-anchor="middle" x="688" y="-372.4" font-family="Times,serif" font-size="14.00">23</text>
</a>
</g>
<!-- 15&#45;&gt;23 -->
<g id="edge84" class="edge"><title>15&#45;&gt;23</title>
<a xlink:title="recv_call(1,)">
<path fill="none" stroke="black" d="M624.253,-450.114C622.735,-439.103 622.59,-424.821 628.879,-414 634.752,-403.893 644.793,-396.396 654.949,-390.99"/>
<polygon fill="black" stroke="black" points="656.662,-394.052 664.193,-386.6 653.658,-387.729 656.662,-394.052"/>
</a>
<text text-anchor="middle" x="664.561" y="-417.4" font-family="Times,serif" font-size="14.00">recv_call(1,)</text>
</g>
<!-- 24 -->
<g id="node25" class="node"><title>24</title>
<a xlink:title="{&#39;Socket&#39;: {&#39;exception&#39;: &#39;&#39;, &#39;recv_closed&#39;: False, &#39;send_arg&#39;: &#39;a&#39;, &#39;recv_arg&#39;: 2, &#39;send_closed&#39;: False, &#39;buffers&#39;: &#39;aa&#39;}}">
<ellipse fill="white" stroke="black" cx="480" cy="-18" rx="27" ry="18"/>
<text text-anchor="middle" x="480" y="-12.4" font-family="Times,serif" font-size="14.00">24</text>
</a>
</g>
<!-- 15&#45;&gt;24 -->
<g id="edge86" class="edge"><title>15&#45;&gt;24</title>
<a xlink:title="recv_call(2,)">
<path fill="none" stroke="black" d="M622.812,-450.206C611.957,-414.263 586.942,-327.044 575.879,-252 563.026,-164.81 616.032,-125.855 565,-54 553.799,-38.2287 534.15,-29.5457 516.563,-24.7745"/>
<polygon fill="black" stroke="black" points="517.064,-21.2962 506.526,-22.3932 515.448,-28.1071 517.064,-21.2962"/>
</a>
<text text-anchor="middle" x="611.561" y="-237.4" font-family="Times,serif" font-size="14.00">recv_call(2,)</text>
</g>
<!-- 25 -->
<g id="node26" class="node"><title>25</title>
<a xlink:title="{&#39;Socket&#39;: {&#39;exception&#39;: &#39;&#39;, &#39;recv_closed&#39;: False, &#39;send_arg&#39;: &#39;aa&#39;, &#39;recv_arg&#39;: 1, &#39;send_closed&#39;: False, &#39;buffers&#39;: &#39;aa&#39;}}">
<ellipse fill="white" stroke="black" cx="1132" cy="-18" rx="27" ry="18"/>
<text text-anchor="middle" x="1132" y="-12.4" font-family="Times,serif" font-size="14.00">25</text>
</a>
</g>
<!-- 16&#45;&gt;25 -->
<g id="edge88" class="edge"><title>16&#45;&gt;25</title>
<a xlink:title="recv_call(1,)">
<path fill="none" stroke="black" d="M797.959,-100.882C860.552,-85.5388 1024.35,-45.3879 1096.73,-27.6444"/>
<polygon fill="black" stroke="black" points="1097.85,-30.9749 1106.73,-25.1947 1096.18,-24.1762 1097.85,-30.9749"/>
</a>
<text text-anchor="middle" x="1020.56" y="-57.4" font-family="Times,serif" font-size="14.00">recv_call(1,)</text>
</g>
<!-- 26 -->
<g id="node27" class="node"><title>26</title>
<a xlink:title="{&#39;Socket&#39;: {&#39;exception&#39;: &#39;&#39;, &#39;recv_closed&#39;: False, &#39;send_arg&#39;: &#39;aa&#39;, &#39;recv_arg&#39;: 2, &#39;send_closed&#39;: False, &#39;buffers&#39;: &#39;aa&#39;}}">
<ellipse fill="white" stroke="black" cx="719" cy="-18" rx="27" ry="18"/>
<text text-anchor="middle" x="719" y="-12.4" font-family="Times,serif" font-size="14.00">26</text>
</a>
</g>
<!-- 16&#45;&gt;26 -->
<g id="edge90" class="edge"><title>16&#45;&gt;26</title>
<a xlink:title="recv_call(2,)">
<path fill="none" stroke="black" d="M756.159,-93.7576C749.398,-87.7256 742.008,-80.1214 736.879,-72 731.885,-64.0921 728.118,-54.6326 725.362,-45.9085"/>
<polygon fill="black" stroke="black" points="728.685,-44.799 722.577,-36.1418 721.953,-46.7182 728.685,-44.799"/>
</a>
<text text-anchor="middle" x="772.561" y="-57.4" font-family="Times,serif" font-size="14.00">recv_call(2,)</text>
</g>
<!-- 17&#45;&gt;7 -->
<g id="edge96" class="edge"><title>17&#45;&gt;7</title>
<a xlink:title="recv_return(&#39;a&#39;,)">
<path fill="none" stroke="black" d="M1210.63,-126.144C1215.97,-167.081 1224.15,-272.306 1180,-342 1147.81,-392.812 1094.6,-361.414 1065.4,-414 1044.25,-452.078 1065,-468.444 1065,-512 1065,-649 1065,-649 1065,-649 1065,-720.053 813.234,-733.736 716.363,-736.371"/>
<polygon fill="black" stroke="black" points="716.053,-732.878 706.143,-736.624 716.226,-739.876 716.053,-732.878"/>
</a>
<text text-anchor="middle" x="1110.3" y="-417.4" font-family="Times,serif" font-size="14.00">recv_return(&#39;a&#39;,)</text>
</g>
<!-- 17&#45;&gt;23 -->
<g id="edge92" class="edge"><title>17&#45;&gt;23</title>
<a xlink:title="send_call(&#39;a&#39;,)">
<path fill="none" stroke="black" d="M1181.11,-111.283C1132.5,-115.781 1032.21,-126.866 1002,-144 956.22,-169.96 943.277,-184.63 925.048,-234 907.098,-282.615 1003.3,-303.157 969,-342 953.103,-360 797.778,-370.912 725.121,-375.07"/>
<polygon fill="black" stroke="black" points="724.817,-371.582 715.028,-375.635 725.208,-378.571 724.817,-371.582"/>
</a>
<text text-anchor="middle" x="964.476" y="-237.4" font-family="Times,serif" font-size="14.00">send_call(&#39;a&#39;,)</text>
</g>
<!-- 17&#45;&gt;25 -->
<g id="edge94" class="edge"><title>17&#45;&gt;25</title>
<a xlink:title="send_call(&#39;aa&#39;,)">
<path fill="none" stroke="black" d="M1195.11,-92.072C1183.21,-78.2919 1165.36,-57.6258 1151.68,-41.7838"/>
<polygon fill="black" stroke="black" points="1154.14,-39.2818 1144.96,-34.0012 1148.84,-43.8572 1154.14,-39.2818"/>
</a>
<text text-anchor="middle" x="1218.58" y="-57.4" font-family="Times,serif" font-size="14.00">send_call(&#39;aa&#39;,)</text>
</g>
<!-- 18&#45;&gt;0 -->
<g id="edge104" class="edge"><title>18&#45;&gt;0</title>
<a xlink:title="recv_return(&#39;aa&#39;,)">
<path fill="none" stroke="black" d="M354.201,-110.964C279.775,-117.146 76,-139.34 76,-197 76,-424 76,-424 76,-424 76,-510.02 0,-515.98 0,-602 0,-1189 0,-1189 0,-1189 0,-1244.64 414.935,-1271.66 548.861,-1278.93"/>
<polygon fill="black" stroke="black" points="548.937,-1282.44 559.11,-1279.48 549.311,-1275.45 548.937,-1282.44"/>
</a>
<text text-anchor="middle" x="47.4072" y="-687.4" font-family="Times,serif" font-size="14.00">recv_return(&#39;aa&#39;,)</text>
</g>
<!-- 18&#45;&gt;7 -->
<g id="edge102" class="edge"><title>18&#45;&gt;7</title>
<a xlink:title="recv_return(&#39;a&#39;,)">
<path fill="none" stroke="black" d="M381.311,-126.199C381.604,-143.937 382,-172.401 382,-197 382,-379 382,-379 382,-379 382,-402.564 377.653,-409.148 383.399,-432 405.241,-518.858 424.394,-537.43 474,-612 503.157,-655.83 506.539,-673.815 551,-702 578.742,-719.586 615.285,-728.44 642.221,-732.833"/>
<polygon fill="black" stroke="black" points="641.989,-736.337 652.397,-734.357 643.026,-729.414 641.989,-736.337"/>
</a>
<text text-anchor="middle" x="428.3" y="-417.4" font-family="Times,serif" font-size="14.00">recv_return(&#39;a&#39;,)</text>
</g>
<!-- 18&#45;&gt;24 -->
<g id="edge98" class="edge"><title>18&#45;&gt;24</title>
<a xlink:title="send_call(&#39;a&#39;,)">
<path fill="none" stroke="black" d="M376.735,-90.1702C374.905,-78.905 374.63,-64.3093 382.048,-54 395.915,-34.7262 421.377,-26.018 442.865,-22.1065"/>
<polygon fill="black" stroke="black" points="443.674,-25.5235 453.027,-20.5464 442.611,-18.6046 443.674,-25.5235"/>
</a>
<text text-anchor="middle" x="421.476" y="-57.4" font-family="Times,serif" font-size="14.00">send_call(&#39;a&#39;,)</text>
</g>
<!-- 18&#45;&gt;26 -->
<g id="edge100" class="edge"><title>18&#45;&gt;26</title>
<a xlink:title="send_call(&#39;aa&#39;,)">
<path fill="none" stroke="black" d="M405.854,-100.529C465.308,-85.0499 615.866,-45.8514 684.251,-28.047"/>
<polygon fill="black" stroke="black" points="685.314,-31.3871 694.11,-25.4803 683.55,-24.6129 685.314,-31.3871"/>
</a>
<text text-anchor="middle" x="622.583" y="-57.4" font-family="Times,serif" font-size="14.00">send_call(&#39;aa&#39;,)</text>
</g>
<!-- 19&#45;&gt;1 -->
<g id="edge106" class="edge"><title>19&#45;&gt;1</title>
<a xlink:title="recv_return(&#39;a&#39;,)">
<path fill="none" stroke="black" d="M1273.59,-215.944C1283.42,-255.581 1303.19,-356.689 1272,-432 1267.67,-442.453 1261.31,-441.364 1254,-450 1177.83,-539.994 1172.76,-573.232 1100,-666 1086.97,-682.614 1082.96,-686.157 1069,-702 1052.98,-720.182 933.309,-842.071 923,-864 885.161,-944.488 948.745,-991.906 894,-1062 876.31,-1084.65 698.205,-1149.06 623.112,-1175.48"/>
<polygon fill="black" stroke="black" points="621.922,-1172.19 613.644,-1178.8 624.239,-1178.79 621.922,-1172.19"/>
</a>
<text text-anchor="middle" x="1130.3" y="-687.4" font-family="Times,serif" font-size="14.00">recv_return(&#39;a&#39;,)</text>
</g>
<!-- 19&#45;&gt;17 -->
<g id="edge108" class="edge"><title>19&#45;&gt;17</title>
<a xlink:title="send_return(1,)">
<path fill="none" stroke="black" d="M1258.09,-181.267C1248.81,-167.878 1235.33,-148.431 1224.69,-133.083"/>
<polygon fill="black" stroke="black" points="1227.38,-130.821 1218.81,-124.596 1221.63,-134.809 1227.38,-130.821"/>
</a>
<text text-anchor="middle" x="1286.96" y="-147.4" font-family="Times,serif" font-size="14.00">send_return(1,)</text>
</g>
<!-- 20&#45;&gt;2 -->
<g id="edge110" class="edge"><title>20&#45;&gt;2</title>
<a xlink:title="recv_return(&#39;a&#39;,)">
<path fill="none" stroke="black" d="M1148.3,-910.634C1124.65,-904.281 1088.14,-893.787 1057.4,-882 1039.8,-875.252 1036.99,-869.637 1019,-864 961.793,-846.07 892.552,-836.675 850.956,-832.286"/>
<polygon fill="black" stroke="black" points="851.05,-828.778 840.748,-831.251 850.344,-835.742 851.05,-828.778"/>
</a>
<text text-anchor="middle" x="1102.3" y="-867.4" font-family="Times,serif" font-size="14.00">recv_return(&#39;a&#39;,)</text>
</g>
<!-- 20&#45;&gt;17 -->
<g id="edge112" class="edge"><title>20&#45;&gt;17</title>
<a xlink:title="send_return(1,)">
<path fill="none" stroke="black" d="M1193.34,-905.949C1216.75,-891.578 1252,-864.108 1252,-829 1252,-829 1252,-829 1252,-557 1252,-533.409 1242.04,-526.516 1249.09,-504 1260.71,-466.837 1285.07,-468.362 1299,-432 1345.09,-311.635 1410.89,-246.693 1333,-144 1322.28,-129.864 1277.46,-119.876 1244.54,-114.282"/>
<polygon fill="black" stroke="black" points="1244.76,-110.772 1234.33,-112.62 1243.64,-117.681 1244.76,-110.772"/>
</a>
<text text-anchor="middle" x="1292.96" y="-507.4" font-family="Times,serif" font-size="14.00">send_return(1,)</text>
</g>
<!-- 21&#45;&gt;1 -->
<g id="edge114" class="edge"><title>21&#45;&gt;1</title>
<a xlink:title="recv_return(&#39;a&#39;,)">
<path fill="none" stroke="black" d="M473.994,-216.189C473.041,-226.562 472.256,-240.042 473,-252 479.258,-352.523 530.619,-601.348 527,-702 524.999,-757.663 518,-771.301 518,-827 518,-1099 518,-1099 518,-1099 518,-1128.32 542.239,-1153.24 562.589,-1169"/>
<polygon fill="black" stroke="black" points="560.578,-1171.86 570.705,-1174.98 564.729,-1166.23 560.578,-1171.86"/>
</a>
<text text-anchor="middle" x="572.3" y="-687.4" font-family="Times,serif" font-size="14.00">recv_return(&#39;a&#39;,)</text>
</g>
<!-- 21&#45;&gt;18 -->
<g id="edge116" class="edge"><title>21&#45;&gt;18</title>
<a xlink:title="send_return(1,)">
<path fill="none" stroke="black" d="M465.757,-181.008C458.124,-169.844 446.986,-155.026 435,-144 427.494,-137.095 418.475,-130.664 409.976,-125.247"/>
<polygon fill="black" stroke="black" points="411.748,-122.228 401.392,-119.992 408.093,-128.198 411.748,-122.228"/>
</a>
<text text-anchor="middle" x="494.957" y="-147.4" font-family="Times,serif" font-size="14.00">send_return(1,)</text>
</g>
<!-- 22&#45;&gt;2 -->
<g id="edge118" class="edge"><title>22&#45;&gt;2</title>
<a xlink:title="recv_return(&#39;a&#39;,)">
<path fill="none" stroke="black" d="M315.855,-574.078C320.141,-579.932 324.466,-586.925 327,-594 343.247,-639.36 305.149,-665.328 336.399,-702 421.584,-801.964 496.461,-738.827 623,-774 649.414,-781.342 655.635,-784.486 682,-792 714.81,-801.351 752.441,-811.248 779.107,-818.123"/>
<polygon fill="black" stroke="black" points="778.554,-821.594 789.11,-820.693 780.295,-814.814 778.554,-821.594"/>
</a>
<text text-anchor="middle" x="381.3" y="-687.4" font-family="Times,serif" font-size="14.00">recv_return(&#39;a&#39;,)</text>
</g>
<!-- 22&#45;&gt;18 -->
<g id="edge120" class="edge"><title>22&#45;&gt;18</title>
<a xlink:title="send_return(1,)">
<path fill="none" stroke="black" d="M293.095,-541.073C270.82,-503.208 220.509,-404.918 244.086,-324 266.988,-245.398 328.295,-168.116 360.536,-131.298"/>
<polygon fill="black" stroke="black" points="363.3,-133.457 367.324,-123.656 358.066,-128.808 363.3,-133.457"/>
</a>
<text text-anchor="middle" x="287.957" y="-327.4" font-family="Times,serif" font-size="14.00">send_return(1,)</text>
</g>
<!-- 23&#45;&gt;13 -->
<g id="edge122" class="edge"><title>23&#45;&gt;13</title>
<a xlink:title="recv_return(&#39;a&#39;,)">
<path fill="none" stroke="black" d="M675.297,-362.066C670.728,-356.119 665.855,-349.026 662.399,-342 658.43,-333.931 655.302,-324.656 652.931,-316.143"/>
<polygon fill="black" stroke="black" points="656.275,-315.093 650.409,-306.27 649.493,-316.825 656.275,-315.093"/>
</a>
<text text-anchor="middle" x="707.3" y="-327.4" font-family="Times,serif" font-size="14.00">recv_return(&#39;a&#39;,)</text>
</g>
<!-- 24&#45;&gt;1 -->
<g id="edge126" class="edge"><title>24&#45;&gt;1</title>
<a xlink:title="recv_return(&#39;aa&#39;,)">
<path fill="none" stroke="black" d="M452.684,-18.5965C356.319,-17.8948 38,-22.0094 38,-107 38,-559 38,-559 38,-559 38,-583.503 42.7187,-589.845 53.1855,-612 92.6189,-695.469 252.855,-869.055 289,-954 317.77,-1021.61 276.532,-1058.28 322,-1116 350.555,-1152.25 486.68,-1174.03 553.218,-1182.68"/>
<polygon fill="black" stroke="black" points="552.911,-1186.17 563.272,-1183.95 553.793,-1179.22 552.911,-1186.17"/>
</a>
<text text-anchor="middle" x="101.407" y="-597.4" font-family="Times,serif" font-size="14.00">recv_return(&#39;aa&#39;,)</text>
</g>
<!-- 24&#45;&gt;13 -->
<g id="edge124" class="edge"><title>24&#45;&gt;13</title>
<a xlink:title="recv_return(&#39;a&#39;,)">
<path fill="none" stroke="black" d="M506.856,-20.4302C532.289,-23.2004 569.925,-31.1855 593,-54 652.769,-113.094 637.953,-150.968 651,-234 652.309,-242.332 652.174,-251.471 651.458,-259.779"/>
<polygon fill="black" stroke="black" points="647.979,-259.397 650.306,-269.733 654.932,-260.202 647.979,-259.397"/>
</a>
<text text-anchor="middle" x="688.3" y="-147.4" font-family="Times,serif" font-size="14.00">recv_return(&#39;a&#39;,)</text>
</g>
<!-- 25&#45;&gt;14 -->
<g id="edge128" class="edge"><title>25&#45;&gt;14</title>
<a xlink:title="recv_return(&#39;a&#39;,)">
<path fill="none" stroke="black" d="M1133.71,-36.0669C1137.09,-75.1324 1142.55,-173.715 1121,-252 1098.07,-335.299 939.023,-551.399 884.948,-623.324"/>
<polygon fill="black" stroke="black" points="881.829,-621.647 878.605,-631.74 887.419,-625.861 881.829,-621.647"/>
</a>
<text text-anchor="middle" x="1132.3" y="-327.4" font-family="Times,serif" font-size="14.00">recv_return(&#39;a&#39;,)</text>
</g>
<!-- 26&#45;&gt;2 -->
<g id="edge132" class="edge"><title>26&#45;&gt;2</title>
<a xlink:title="recv_return(&#39;aa&#39;,)">
<path fill="none" stroke="black" d="M716.456,-36.0797C713.991,-59.6821 713.522,-102.061 737,-126 879.505,-271.301 1041.84,-86.4394 1182,-234 1210.04,-263.515 1195.21,-283.47 1199,-324 1199.75,-331.965 1200.43,-334.129 1199,-342 1192.11,-379.846 1099.26,-634.624 1077,-666 1018.85,-747.974 904.559,-796.3 847.732,-816.246"/>
<polygon fill="black" stroke="black" points="846.467,-812.98 838.142,-819.533 848.737,-819.602 846.467,-812.98"/>
</a>
<text text-anchor="middle" x="1224.41" y="-417.4" font-family="Times,serif" font-size="14.00">recv_return(&#39;aa&#39;,)</text>
</g>
<!-- 26&#45;&gt;14 -->
<g id="edge130" class="edge"><title>26&#45;&gt;14</title>
<a xlink:title="recv_return(&#39;a&#39;,)">
<path fill="none" stroke="black" d="M746.041,-20.0965C792.058,-22.5921 882.521,-30.4426 902,-54 947.855,-109.457 879,-305.04 879,-377 879,-559 879,-559 879,-559 879,-579.558 875.745,-602.572 872.626,-619.907"/>
<polygon fill="black" stroke="black" points="869.156,-619.417 870.731,-629.895 876.034,-620.722 869.156,-619.417"/>
</a>
<text text-anchor="middle" x="930.3" y="-327.4" font-family="Times,serif" font-size="14.00">recv_return(&#39;a&#39;,)</text>
</g>
</g>
</svg>
