<?xml version="1.0" encoding="UTF-8" standalone="no"?>
<!DOCTYPE svg PUBLIC "-//W3C//DTD SVG 1.1//EN"
 "http://www.w3.org/Graphics/SVG/1.1/DTD/svg11.dtd">
<!-- Generated by graphviz version 2.28.0 (20111028.1807)
 -->
<!-- Title: synchronous_graph Pages: 1 -->
<svg width="209pt" height="322pt"
 viewBox="0.00 0.00 208.84 322.00" xmlns="http://www.w3.org/2000/svg" xmlns:xlink="http://www.w3.org/1999/xlink">
<g id="graph1" class="graph" transform="scale(1 1) rotate(0) translate(4 318)">
<title>synchronous_graph</title>
<polygon fill="white" stroke="white" points="-4,5 -4,-318 205.842,-318 205.842,5 -4,5"/>
<!-- 0 -->
<g id="node1" class="node"><title>0</title>
<a xlink:title="{&#39;synchronous&#39;: 0}">
<ellipse fill="lightgray" stroke="black" cx="76" cy="-292" rx="27" ry="18"/>
<ellipse fill="none" stroke="black" cx="76" cy="-292" rx="31" ry="22"/>
<text text-anchor="middle" x="76" y="-286.4" font-family="Times,serif" font-size="14.00">0</text>
</a>
</g>
<!-- 1 -->
<g id="node2" class="node"><title>1</title>
<a xlink:title="{&#39;synchronous&#39;: 1}">
<ellipse fill="white" stroke="black" cx="27" cy="-198" rx="27" ry="18"/>
<text text-anchor="middle" x="27" y="-192.4" font-family="Times,serif" font-size="14.00">1</text>
</a>
</g>
<!-- 0&#45;&gt;1 -->
<g id="edge2" class="edge"><title>0&#45;&gt;1</title>
<a xlink:title="send_call()">
<path fill="none" stroke="black" d="M59.0496,-273.405C53.603,-267.043 47.9209,-259.557 43.8066,-252 39.361,-243.835 35.8816,-234.312 33.2707,-225.608"/>
<polygon fill="black" stroke="black" points="36.6264,-224.611 30.5987,-215.898 29.8773,-226.468 36.6264,-224.611"/>
</a>
<text text-anchor="middle" x="75.0967" y="-237.4" font-family="Times,serif" font-size="14.00">send_call()</text>
</g>
<!-- 2 -->
<g id="node3" class="node"><title>2</title>
<a xlink:title="{&#39;synchronous&#39;: 2}">
<ellipse fill="white" stroke="black" cx="28" cy="-108" rx="27" ry="18"/>
<text text-anchor="middle" x="28" y="-102.4" font-family="Times,serif" font-size="14.00">2</text>
</a>
</g>
<!-- 1&#45;&gt;2 -->
<g id="edge4" class="edge"><title>1&#45;&gt;2</title>
<a xlink:title="send_return()">
<path fill="none" stroke="black" d="M24.176,-179.819C22.8184,-169.448 21.6658,-155.968 22.5859,-144 22.7839,-141.425 23.0626,-138.753 23.3903,-136.085"/>
<polygon fill="black" stroke="black" points="26.8774,-136.424 24.8293,-126.029 19.948,-135.432 26.8774,-136.424"/>
</a>
<text text-anchor="middle" x="60.707" y="-147.4" font-family="Times,serif" font-size="14.00">send_return()</text>
</g>
<!-- 3 -->
<g id="node4" class="node"><title>3</title>
<a xlink:title="{&#39;synchronous&#39;: 3}">
<ellipse fill="white" stroke="black" cx="79" cy="-18" rx="27" ry="18"/>
<text text-anchor="middle" x="79" y="-12.4" font-family="Times,serif" font-size="14.00">3</text>
</a>
</g>
<!-- 2&#45;&gt;3 -->
<g id="edge6" class="edge"><title>2&#45;&gt;3</title>
<a xlink:title="recv_call()">
<path fill="none" stroke="black" d="M31.5253,-89.9399C34.2472,-79.1222 38.6956,-65.1222 45.3789,-54 48.3083,-49.1251 52.0303,-44.3876 55.9233,-40.054"/>
<polygon fill="black" stroke="black" points="58.5509,-42.3715 62.9811,-32.7473 53.5162,-37.5082 58.5509,-42.3715"/>
</a>
<text text-anchor="middle" x="76.3105" y="-57.4" font-family="Times,serif" font-size="14.00">recv_call()</text>
</g>
<!-- 3&#45;&gt;0 -->
<g id="edge8" class="edge"><title>3&#45;&gt;0</title>
<a xlink:title="recv_return()">
<path fill="none" stroke="black" d="M93.5288,-33.3745C98.4859,-39.2528 103.425,-46.4456 106,-54 134.394,-137.293 134.337,-168.687 106,-252 104.432,-256.61 102.075,-261.1 99.3582,-265.296"/>
<polygon fill="black" stroke="black" points="96.4835,-263.298 93.4133,-273.438 102.137,-267.426 96.4835,-263.298"/>
</a>
<text text-anchor="middle" x="163.921" y="-147.4" font-family="Times,serif" font-size="14.00">recv_return()</text>
</g>
</g>
</svg>
