<?xml version="1.0" encoding="UTF-8" standalone="no"?>
<!DOCTYPE svg PUBLIC "-//W3C//DTD SVG 1.1//EN"
 "http://www.w3.org/Graphics/SVG/1.1/DTD/svg11.dtd">
<!-- Generated by graphviz version 2.28.0 (20111028.1807)
 -->
<!-- Title: ovenFSM Pages: 1 -->
<svg width="173pt" height="232pt"
 viewBox="0.00 0.00 173.09 232.00" xmlns="http://www.w3.org/2000/svg" xmlns:xlink="http://www.w3.org/1999/xlink">
<g id="graph1" class="graph" transform="scale(1 1) rotate(0) translate(4 228)">
<title>ovenFSM</title>
<polygon fill="white" stroke="white" points="-4,5 -4,-228 170.09,-228 170.09,5 -4,5"/>
<!-- 0 -->
<g id="node1" class="node"><title>0</title>
<a xlink:title="{&#39;oven&#39;: {&#39;door&#39;: &#39;Closed&#39;, &#39;power&#39;: &#39;Off&#39;}}">
<ellipse fill="lightgray" stroke="black" cx="70" cy="-202" rx="27" ry="18"/>
<ellipse fill="none" stroke="black" cx="70" cy="-202" rx="31" ry="22"/>
<text text-anchor="middle" x="70" y="-196.4" font-family="Times,serif" font-size="14.00">0</text>
</a>
</g>
<!-- 1 -->
<g id="node2" class="node"><title>1</title>
<a xlink:title="{&#39;oven&#39;: {&#39;door&#39;: &#39;Closed&#39;, &#39;power&#39;: &#39;On&#39;}}">
<ellipse fill="white" stroke="black" cx="27" cy="-108" rx="27" ry="18"/>
<text text-anchor="middle" x="27" y="-102.4" font-family="Times,serif" font-size="14.00">1</text>
</a>
</g>
<!-- 0&#45;&gt;1 -->
<g id="edge2" class="edge"><title>0&#45;&gt;1</title>
<a xlink:title="on()">
<path fill="none" stroke="black" d="M42.2562,-191.947C28.34,-185.839 12.761,-176.244 4.67578,-162 -0.628059,-152.656 2.47157,-141.803 7.84704,-132.36"/>
<polygon fill="black" stroke="black" points="10.8907,-134.104 13.4982,-123.835 5.05597,-130.236 10.8907,-134.104"/>
</a>
<text text-anchor="middle" x="16.6621" y="-147.4" font-family="Times,serif" font-size="14.00">on()</text>
</g>
<!-- 2 -->
<g id="node3" class="node"><title>2</title>
<a xlink:title="{&#39;oven&#39;: {&#39;door&#39;: &#39;Open&#39;, &#39;power&#39;: &#39;Off&#39;}}">
<ellipse fill="white" stroke="black" cx="90" cy="-18" rx="27" ry="18"/>
<text text-anchor="middle" x="90" y="-12.4" font-family="Times,serif" font-size="14.00">2</text>
</a>
</g>
<!-- 0&#45;&gt;2 -->
<g id="edge4" class="edge"><title>0&#45;&gt;2</title>
<a xlink:title="open()">
<path fill="none" stroke="black" d="M73.4509,-179.98C74.3464,-174.165 75.2648,-167.845 76,-162 81.0514,-121.838 85.324,-75.1354 87.7755,-46.3203"/>
<polygon fill="black" stroke="black" points="91.2759,-46.4609 88.6237,-36.2034 84.3004,-45.876 91.2759,-46.4609"/>
</a>
<text text-anchor="middle" x="102.269" y="-102.4" font-family="Times,serif" font-size="14.00">open()</text>
</g>
<!-- 1&#45;&gt;0 -->
<g id="edge6" class="edge"><title>1&#45;&gt;0</title>
<a xlink:title="off()">
<path fill="none" stroke="black" d="M34.2577,-125.793C38.8346,-136.257 44.9315,-149.973 50.5977,-162 52.0933,-165.175 53.6843,-168.48 55.2869,-171.764"/>
<polygon fill="black" stroke="black" points="52.2007,-173.42 59.7646,-180.838 58.478,-170.322 52.2007,-173.42"/>
</a>
<text text-anchor="middle" x="63.7012" y="-147.4" font-family="Times,serif" font-size="14.00">off()</text>
</g>
<!-- 1&#45;&gt;2 -->
<g id="edge8" class="edge"><title>1&#45;&gt;2</title>
<a xlink:title="open()">
<path fill="none" stroke="black" d="M27.8768,-89.9844C29.1597,-78.9182 32.2244,-64.6242 39.4619,-54 44.6444,-46.3924 52.0714,-39.9381 59.6423,-34.7235"/>
<polygon fill="black" stroke="black" points="61.8648,-37.4606 68.47,-29.1768 58.1406,-31.5335 61.8648,-37.4606"/>
</a>
<text text-anchor="middle" x="58.269" y="-57.4" font-family="Times,serif" font-size="14.00">open()</text>
</g>
<!-- 2&#45;&gt;0 -->
<g id="edge10" class="edge"><title>2&#45;&gt;0</title>
<a xlink:title="close()">
<path fill="none" stroke="black" d="M101.202,-34.6075C114.738,-55.4555 134.471,-93.5365 124,-126 118.045,-144.462 105.67,-162.215 94.2672,-175.81"/>
<polygon fill="black" stroke="black" points="91.3091,-173.876 87.3592,-183.707 96.5777,-178.485 91.3091,-173.876"/>
</a>
<text text-anchor="middle" x="146.045" y="-102.4" font-family="Times,serif" font-size="14.00">close()</text>
</g>
</g>
</svg>
