<?xml version="1.0" encoding="UTF-8" standalone="no"?>
<!DOCTYPE svg PUBLIC "-//W3C//DTD SVG 1.1//EN"
 "http://www.w3.org/Graphics/SVG/1.1/DTD/svg11.dtd">
<!-- Generated by graphviz version 2.28.0 (20111028.1807)
 -->
<!-- Title: unsafe_ovenFSM Pages: 1 -->
<svg width="203pt" height="322pt"
 viewBox="0.00 0.00 203.41 322.00" xmlns="http://www.w3.org/2000/svg" xmlns:xlink="http://www.w3.org/1999/xlink">
<g id="graph1" class="graph" transform="scale(1 1) rotate(0) translate(4 318)">
<title>unsafe_ovenFSM</title>
<polygon fill="white" stroke="white" points="-4,5 -4,-318 200.411,-318 200.411,5 -4,5"/>
<!-- 0 -->
<g id="node1" class="node"><title>0</title>
<a xlink:title="{&#39;unsafe_oven&#39;: {&#39;door&#39;: &#39;Closed&#39;, &#39;power&#39;: &#39;Off&#39;}}">
<ellipse fill="lightgray" stroke="black" cx="108.322" cy="-292" rx="27" ry="18"/>
<ellipse fill="none" stroke="black" cx="108.322" cy="-292" rx="31" ry="22"/>
<text text-anchor="middle" x="108.322" y="-286.4" font-family="Times,serif" font-size="14.00">0</text>
</a>
</g>
<!-- 1 -->
<g id="node2" class="node"><title>1</title>
<a xlink:title="{&#39;unsafe_oven&#39;: {&#39;door&#39;: &#39;Closed&#39;, &#39;power&#39;: &#39;On&#39;}}">
<ellipse fill="white" stroke="black" cx="54.3216" cy="-198" rx="27" ry="18"/>
<text text-anchor="middle" x="54.3216" y="-192.4" font-family="Times,serif" font-size="14.00">1</text>
</a>
</g>
<!-- 0&#45;&gt;1 -->
<g id="edge2" class="edge"><title>0&#45;&gt;1</title>
<a xlink:title="on()">
<path fill="none" stroke="black" d="M80.5778,-281.947C66.6616,-275.839 51.0826,-266.244 42.9974,-252 38.3402,-243.796 39.0682,-233.888 41.6775,-224.869"/>
<polygon fill="black" stroke="black" points="45.0657,-225.797 45.2361,-215.203 38.4967,-223.378 45.0657,-225.797"/>
</a>
<text text-anchor="middle" x="54.9837" y="-237.4" font-family="Times,serif" font-size="14.00">on()</text>
</g>
<!-- 2 -->
<g id="node3" class="node"><title>2</title>
<a xlink:title="{&#39;unsafe_oven&#39;: {&#39;door&#39;: &#39;Open&#39;, &#39;power&#39;: &#39;Off&#39;}}">
<ellipse fill="white" stroke="black" cx="109.322" cy="-18" rx="27" ry="18"/>
<text text-anchor="middle" x="109.322" y="-12.4" font-family="Times,serif" font-size="14.00">2</text>
</a>
</g>
<!-- 0&#45;&gt;2 -->
<g id="edge4" class="edge"><title>0&#45;&gt;2</title>
<a xlink:title="open()">
<path fill="none" stroke="black" d="M112.151,-270.018C113.048,-264.203 113.872,-257.874 114.322,-252 114.932,-244.023 114.344,-242 114.322,-234 114.099,-153.999 118.093,-133.859 113.322,-54 113.168,-51.4359 112.958,-48.771 112.713,-46.1075"/>
<polygon fill="black" stroke="black" points="116.182,-45.6321 111.646,-36.0576 109.221,-46.3713 116.182,-45.6321"/>
</a>
<text text-anchor="middle" x="134.591" y="-147.4" font-family="Times,serif" font-size="14.00">open()</text>
</g>
<!-- 1&#45;&gt;0 -->
<g id="edge6" class="edge"><title>1&#45;&gt;0</title>
<a xlink:title="off()">
<path fill="none" stroke="black" d="M63.7778,-215.111C71.4833,-228.239 82.5508,-247.094 91.7258,-262.726"/>
<polygon fill="black" stroke="black" points="88.789,-264.637 96.8696,-271.489 94.826,-261.093 88.789,-264.637"/>
</a>
<text text-anchor="middle" x="98.0227" y="-237.4" font-family="Times,serif" font-size="14.00">off()</text>
</g>
<!-- 3 -->
<g id="node4" class="node"><title>3</title>
<a xlink:title="{&#39;unsafe_oven&#39;: {&#39;door&#39;: &#39;Open&#39;, &#39;power&#39;: &#39;On&#39;}}">
<ellipse fill="red" stroke="black" cx="51.3216" cy="-108" rx="27" ry="18"/>
<text text-anchor="middle" x="51.3216" y="-102.4" font-family="Times,serif" font-size="14.00">3</text>
</a>
</g>
<!-- 1&#45;&gt;3 -->
<g id="edge8" class="edge"><title>1&#45;&gt;3</title>
<a xlink:title="open()">
<path fill="none" stroke="black" d="M31.8187,-187.855C20.9543,-182.156 8.95991,-173.661 2.78348,-162 -0.96114,-154.931 -0.861203,-151.122 2.78348,-144 6.86579,-136.023 13.7069,-129.449 20.9845,-124.237"/>
<polygon fill="black" stroke="black" points="23.0447,-127.074 29.5892,-118.742 19.2773,-121.174 23.0447,-127.074"/>
</a>
<text text-anchor="middle" x="21.5906" y="-147.4" font-family="Times,serif" font-size="14.00">open()</text>
</g>
<!-- 2&#45;&gt;0 -->
<g id="edge10" class="edge"><title>2&#45;&gt;0</title>
<a xlink:title="close()">
<path fill="none" stroke="black" d="M118.893,-35.0548C122.145,-40.8965 125.632,-47.6304 128.322,-54 144.615,-92.5927 150.028,-102.584 156.322,-144 162.8,-186.631 142.254,-233.634 126.045,-262.741"/>
<polygon fill="black" stroke="black" points="122.937,-261.123 120.974,-271.534 129.001,-264.619 122.937,-261.123"/>
</a>
<text text-anchor="middle" x="176.366" y="-147.4" font-family="Times,serif" font-size="14.00">close()</text>
</g>
<!-- 2&#45;&gt;3 -->
<g id="edge12" class="edge"><title>2&#45;&gt;3</title>
<a xlink:title="on()">
<path fill="none" stroke="black" d="M98.8465,-34.8931C90.0444,-48.2481 77.3259,-67.5451 67.2608,-82.8164"/>
<polygon fill="black" stroke="black" points="64.2716,-80.9917 61.6908,-91.2674 70.1163,-84.8439 64.2716,-80.9917"/>
</a>
<text text-anchor="middle" x="97.9837" y="-57.4" font-family="Times,serif" font-size="14.00">on()</text>
</g>
<!-- 3&#45;&gt;1 -->
<g id="edge14" class="edge"><title>3&#45;&gt;1</title>
<a xlink:title="close()">
<path fill="none" stroke="black" d="M51.9028,-126.05C52.3219,-138.342 52.8965,-155.197 53.3805,-169.395"/>
<polygon fill="black" stroke="black" points="49.8901,-169.739 53.7289,-179.614 56.886,-169.501 49.8901,-169.739"/>
</a>
<text text-anchor="middle" x="72.3665" y="-147.4" font-family="Times,serif" font-size="14.00">close()</text>
</g>
<!-- 3&#45;&gt;2 -->
<g id="edge16" class="edge"><title>3&#45;&gt;2</title>
<a xlink:title="off()">
<path fill="none" stroke="black" d="M44.6587,-90.1218C41.4499,-79.1136 39.5256,-64.8326 45.9192,-54 52.4598,-42.9184 63.904,-35.1034 75.2858,-29.7142"/>
<polygon fill="black" stroke="black" points="76.8655,-32.8467 84.7228,-25.7394 74.1483,-26.3955 76.8655,-32.8467"/>
</a>
<text text-anchor="middle" x="59.0227" y="-57.4" font-family="Times,serif" font-size="14.00">off()</text>
</g>
</g>
</svg>
