<?xml version="1.0" encoding="UTF-8" standalone="no"?>
<!DOCTYPE svg PUBLIC "-//W3C//DTD SVG 1.1//EN"
 "http://www.w3.org/Graphics/SVG/1.1/DTD/svg11.dtd">
<!-- Generated by graphviz version 2.28.0 (20111028.1807)
 -->
<!-- Title: StackFSM Pages: 1 -->
<svg width="428pt" height="346pt"
 viewBox="0.00 0.00 428.06 346.00" xmlns="http://www.w3.org/2000/svg" xmlns:xlink="http://www.w3.org/1999/xlink">
<g id="graph1" class="graph" transform="scale(1 1) rotate(0) translate(4 342)">
<title>StackFSM</title>
<polygon fill="white" stroke="white" points="-4,5 -4,-342 425.059,-342 425.059,5 -4,5"/>
<!-- 0 -->
<g id="node1" class="node"><title>0</title>
<a xlink:title="{&#39;Stack&#39;: {&#39;stack&#39;: []}}">
<ellipse fill="lightgray" stroke="black" cx="215" cy="-316" rx="27" ry="18"/>
<ellipse fill="none" stroke="black" cx="215" cy="-316" rx="31" ry="22"/>
<text text-anchor="middle" x="215" y="-310.4" font-family="Times,serif" font-size="14.00">0</text>
</a>
</g>
<!-- 1 -->
<g id="node2" class="node"><title>1</title>
<a xlink:title="{&#39;Stack&#39;: {&#39;stack&#39;: [2]}}">
<ellipse fill="white" stroke="black" cx="148" cy="-218" rx="27" ry="18"/>
<ellipse fill="none" stroke="black" cx="148" cy="-218" rx="31" ry="22"/>
<text text-anchor="middle" x="148" y="-212.4" font-family="Times,serif" font-size="14.00">1</text>
</a>
</g>
<!-- 0&#45;&gt;1 -->
<g id="edge2" class="edge"><title>0&#45;&gt;1</title>
<a xlink:title="Push(2,)">
<path fill="none" stroke="black" d="M184.144,-312.208C160.58,-308.272 129.579,-298.797 113.941,-276 106.615,-265.319 112.28,-253.033 120.945,-242.61"/>
<polygon fill="black" stroke="black" points="123.727,-244.758 127.99,-235.059 118.609,-239.983 123.727,-244.758"/>
</a>
<text text-anchor="middle" x="137.529" y="-261.4" font-family="Times,serif" font-size="14.00">Push(2,)</text>
</g>
<!-- 2 -->
<g id="node3" class="node"><title>2</title>
<a xlink:title="{&#39;Stack&#39;: {&#39;stack&#39;: [1]}}">
<ellipse fill="white" stroke="black" cx="313" cy="-218" rx="27" ry="18"/>
<ellipse fill="none" stroke="black" cx="313" cy="-218" rx="31" ry="22"/>
<text text-anchor="middle" x="313" y="-212.4" font-family="Times,serif" font-size="14.00">2</text>
</a>
</g>
<!-- 0&#45;&gt;2 -->
<g id="edge4" class="edge"><title>0&#45;&gt;2</title>
<a xlink:title="Push(1,)">
<path fill="none" stroke="black" d="M223.917,-294.9C229.818,-283.172 238.406,-268.639 248.941,-258 257.515,-249.342 268.381,-241.802 278.718,-235.72"/>
<polygon fill="black" stroke="black" points="280.573,-238.693 287.594,-230.759 277.157,-232.582 280.573,-238.693"/>
</a>
<text text-anchor="middle" x="271.529" y="-261.4" font-family="Times,serif" font-size="14.00">Push(1,)</text>
</g>
<!-- 1&#45;&gt;0 -->
<g id="edge6" class="edge"><title>1&#45;&gt;0</title>
<a xlink:title="Pop()/2">
<path fill="none" stroke="black" d="M159.655,-238.602C166.467,-249.757 175.394,-263.88 184,-276 186.99,-280.211 190.273,-284.58 193.548,-288.804"/>
<polygon fill="black" stroke="black" points="190.814,-290.99 199.759,-296.668 196.307,-286.651 190.814,-290.99"/>
</a>
<text text-anchor="middle" x="205" y="-261.4" font-family="Times,serif" font-size="14.00">Pop()/2</text>
</g>
<!-- 3 -->
<g id="node4" class="node"><title>3</title>
<a xlink:title="{&#39;Stack&#39;: {&#39;stack&#39;: [2, 2]}}">
<ellipse fill="white" stroke="black" cx="71" cy="-120" rx="27" ry="18"/>
<ellipse fill="none" stroke="black" cx="71" cy="-120" rx="31" ry="22"/>
<text text-anchor="middle" x="71" y="-114.4" font-family="Times,serif" font-size="14.00">3</text>
</a>
</g>
<!-- 1&#45;&gt;3 -->
<g id="edge8" class="edge"><title>1&#45;&gt;3</title>
<a xlink:title="Push(2,)">
<path fill="none" stroke="black" d="M116.972,-216.991C87.4222,-215.118 44.3695,-207.128 22.9414,-178 13.3238,-164.926 24.6575,-150.985 38.7257,-140.162"/>
<polygon fill="black" stroke="black" points="41.0419,-142.811 47.1871,-134.181 37.0011,-137.095 41.0419,-142.811"/>
</a>
<text text-anchor="middle" x="46.5293" y="-163.4" font-family="Times,serif" font-size="14.00">Push(2,)</text>
</g>
<!-- 4 -->
<g id="node5" class="node"><title>4</title>
<a xlink:title="{&#39;Stack&#39;: {&#39;stack&#39;: [1, 2]}}">
<ellipse fill="orange" stroke="black" cx="178" cy="-120" rx="27" ry="18"/>
<ellipse fill="none" stroke="black" cx="178" cy="-120" rx="31" ry="22"/>
<text text-anchor="middle" x="178" y="-114.4" font-family="Times,serif" font-size="14.00">4</text>
</a>
</g>
<!-- 1&#45;&gt;4 -->
<g id="edge10" class="edge"><title>1&#45;&gt;4</title>
<a xlink:title="Push(1,)">
<path fill="none" stroke="black" d="M150.114,-196.047C151.601,-185.108 154.042,-171.618 157.941,-160 159.066,-156.65 160.442,-153.234 161.941,-149.884"/>
<polygon fill="black" stroke="black" points="165.164,-151.258 166.386,-140.734 158.868,-148.199 165.164,-151.258"/>
</a>
<text text-anchor="middle" x="181.529" y="-163.4" font-family="Times,serif" font-size="14.00">Push(1,)</text>
</g>
<!-- 2&#45;&gt;0 -->
<g id="edge12" class="edge"><title>2&#45;&gt;0</title>
<a xlink:title="Pop()/1">
<path fill="none" stroke="black" d="M310.932,-239.956C308.825,-251.691 304.575,-265.941 296,-276 284.953,-288.958 268.61,-297.955 253.492,-304.013"/>
<polygon fill="black" stroke="black" points="251.976,-300.842 243.801,-307.582 254.395,-307.41 251.976,-300.842"/>
</a>
<text text-anchor="middle" x="326" y="-261.4" font-family="Times,serif" font-size="14.00">Pop()/1</text>
</g>
<!-- 5 -->
<g id="node6" class="node"><title>5</title>
<a xlink:title="{&#39;Stack&#39;: {&#39;stack&#39;: [2, 1]}}">
<ellipse fill="orange" stroke="black" cx="309" cy="-120" rx="27" ry="18"/>
<ellipse fill="none" stroke="black" cx="309" cy="-120" rx="31" ry="22"/>
<text text-anchor="middle" x="309" y="-114.4" font-family="Times,serif" font-size="14.00">5</text>
</a>
</g>
<!-- 2&#45;&gt;5 -->
<g id="edge14" class="edge"><title>2&#45;&gt;5</title>
<a xlink:title="Push(2,)">
<path fill="none" stroke="black" d="M312.112,-195.694C311.584,-183.017 310.904,-166.697 310.314,-152.547"/>
<polygon fill="black" stroke="black" points="313.799,-152.092 309.885,-142.246 306.805,-152.383 313.799,-152.092"/>
</a>
<text text-anchor="middle" x="334.529" y="-163.4" font-family="Times,serif" font-size="14.00">Push(2,)</text>
</g>
<!-- 6 -->
<g id="node7" class="node"><title>6</title>
<a xlink:title="{&#39;Stack&#39;: {&#39;stack&#39;: [1, 1]}}">
<ellipse fill="orange" stroke="black" cx="389" cy="-120" rx="27" ry="18"/>
<ellipse fill="none" stroke="black" cx="389" cy="-120" rx="31" ry="22"/>
<text text-anchor="middle" x="389" y="-114.4" font-family="Times,serif" font-size="14.00">6</text>
</a>
</g>
<!-- 2&#45;&gt;6 -->
<g id="edge16" class="edge"><title>2&#45;&gt;6</title>
<a xlink:title="Push(1,)">
<path fill="none" stroke="black" d="M335.383,-202.558C344.477,-195.889 354.569,-187.371 362,-178 368.413,-169.913 373.764,-160.054 377.965,-150.824"/>
<polygon fill="black" stroke="black" points="381.224,-152.105 381.924,-141.534 374.784,-149.361 381.224,-152.105"/>
</a>
<text text-anchor="middle" x="396.529" y="-163.4" font-family="Times,serif" font-size="14.00">Push(1,)</text>
</g>
<!-- 3&#45;&gt;1 -->
<g id="edge18" class="edge"><title>3&#45;&gt;1</title>
<a xlink:title="Pop()/2">
<path fill="none" stroke="black" d="M82.3176,-140.743C89.1735,-152.074 98.4235,-166.324 108,-178 112.198,-183.118 117,-188.279 121.787,-193.097"/>
<polygon fill="black" stroke="black" points="119.602,-195.855 129.206,-200.329 124.488,-190.842 119.602,-195.855"/>
</a>
<text text-anchor="middle" x="129" y="-163.4" font-family="Times,serif" font-size="14.00">Pop()/2</text>
</g>
<!-- 7 -->
<g id="node8" class="node"><title>7</title>
<a xlink:title="{&#39;Stack&#39;: {&#39;stack&#39;: [2, 2, 2]}}">
<ellipse fill="orange" stroke="black" cx="31" cy="-22" rx="27" ry="18"/>
<ellipse fill="none" stroke="black" cx="31" cy="-22" rx="31" ry="22"/>
<text text-anchor="middle" x="31" y="-16.4" font-family="Times,serif" font-size="14.00">7</text>
</a>
</g>
<!-- 3&#45;&gt;7 -->
<g id="edge20" class="edge"><title>3&#45;&gt;7</title>
<a xlink:title="Push(2,)">
<path fill="none" stroke="black" d="M54.9657,-101.033C50.113,-94.7567 45.2096,-87.4178 41.9414,-80 38.3887,-71.9365 35.9865,-62.731 34.3633,-54.1046"/>
<polygon fill="black" stroke="black" points="37.7802,-53.3067 32.7447,-43.985 30.8681,-54.4123 37.7802,-53.3067"/>
</a>
<text text-anchor="middle" x="65.5293" y="-65.4" font-family="Times,serif" font-size="14.00">Push(2,)</text>
</g>
<!-- 8 -->
<g id="node9" class="node"><title>8</title>
<a xlink:title="{&#39;Stack&#39;: {&#39;stack&#39;: [1, 2, 2]}}">
<ellipse fill="orange" stroke="black" cx="111" cy="-22" rx="27" ry="18"/>
<ellipse fill="none" stroke="black" cx="111" cy="-22" rx="31" ry="22"/>
<text text-anchor="middle" x="111" y="-16.4" font-family="Times,serif" font-size="14.00">8</text>
</a>
</g>
<!-- 3&#45;&gt;8 -->
<g id="edge22" class="edge"><title>3&#45;&gt;8</title>
<a xlink:title="Push(1,)">
<path fill="none" stroke="black" d="M80.5903,-98.8679C83.3828,-92.8358 86.3841,-86.1807 89,-80 92.6948,-71.2702 96.491,-61.6891 99.8675,-52.915"/>
<polygon fill="black" stroke="black" points="103.188,-54.0309 103.474,-43.4399 96.6454,-51.541 103.188,-54.0309"/>
</a>
<text text-anchor="middle" x="119.529" y="-65.4" font-family="Times,serif" font-size="14.00">Push(1,)</text>
</g>
<!-- 4&#45;&gt;1 -->
<g id="edge24" class="edge"><title>4&#45;&gt;1</title>
<a xlink:title="Pop()/1">
<path fill="none" stroke="black" d="M195.016,-138.401C204.011,-149.789 211.897,-164.925 205,-178 200.091,-187.306 191.851,-194.815 183.139,-200.665"/>
<polygon fill="black" stroke="black" points="181.12,-197.796 174.376,-205.967 184.744,-203.785 181.12,-197.796"/>
</a>
<text text-anchor="middle" x="229" y="-163.4" font-family="Times,serif" font-size="14.00">Pop()/1</text>
</g>
</g>
</svg>
