<?xml version="1.0" encoding="UTF-8" standalone="no"?>
<!DOCTYPE svg PUBLIC "-//W3C//DTD SVG 1.1//EN"
 "http://www.w3.org/Graphics/SVG/1.1/DTD/svg11.dtd">
<!-- Generated by graphviz version 2.28.0 (20111028.1807)
 -->
<!-- Title: Stack3FSM Pages: 1 -->
<svg width="1037pt" height="346pt"
 viewBox="0.00 0.00 1036.82 346.00" xmlns="http://www.w3.org/2000/svg" xmlns:xlink="http://www.w3.org/1999/xlink">
<g id="graph1" class="graph" transform="scale(1 1) rotate(0) translate(4 342)">
<title>Stack3FSM</title>
<polygon fill="white" stroke="white" points="-4,5 -4,-342 1033.82,-342 1033.82,5 -4,5"/>
<!-- 0 -->
<g id="node1" class="node"><title>0</title>
<a xlink:title="{&#39;Stack&#39;: {&#39;stack&#39;: []}}">
<ellipse fill="lightgray" stroke="black" cx="501.824" cy="-316" rx="27" ry="18"/>
<ellipse fill="none" stroke="black" cx="501.824" cy="-316" rx="31" ry="22"/>
<text text-anchor="middle" x="501.824" y="-310.4" font-family="Times,serif" font-size="14.00">0</text>
</a>
</g>
<!-- 1 -->
<g id="node2" class="node"><title>1</title>
<a xlink:title="{&#39;Stack&#39;: {&#39;stack&#39;: [2]}}">
<ellipse fill="white" stroke="black" cx="399.824" cy="-218" rx="27" ry="18"/>
<ellipse fill="none" stroke="black" cx="399.824" cy="-218" rx="31" ry="22"/>
<text text-anchor="middle" x="399.824" y="-212.4" font-family="Times,serif" font-size="14.00">1</text>
</a>
</g>
<!-- 0&#45;&gt;1 -->
<g id="edge2" class="edge"><title>0&#45;&gt;1</title>
<a xlink:title="Push(2,)">
<path fill="none" stroke="black" d="M471.07,-312.138C447.564,-308.162 416.591,-298.667 400.765,-276 395.594,-268.593 393.99,-259.221 394.068,-250.227"/>
<polygon fill="black" stroke="black" points="397.579,-250.212 394.819,-239.983 390.597,-249.701 397.579,-250.212"/>
</a>
<text text-anchor="middle" x="424.353" y="-261.4" font-family="Times,serif" font-size="14.00">Push(2,)</text>
</g>
<!-- 2 -->
<g id="node3" class="node"><title>2</title>
<a xlink:title="{&#39;Stack&#39;: {&#39;stack&#39;: [1]}}">
<ellipse fill="white" stroke="black" cx="604.824" cy="-218" rx="27" ry="18"/>
<ellipse fill="none" stroke="black" cx="604.824" cy="-218" rx="31" ry="22"/>
<text text-anchor="middle" x="604.824" y="-212.4" font-family="Times,serif" font-size="14.00">2</text>
</a>
</g>
<!-- 0&#45;&gt;2 -->
<g id="edge4" class="edge"><title>0&#45;&gt;2</title>
<a xlink:title="Push(1,)">
<path fill="none" stroke="black" d="M510.615,-294.773C516.472,-283 525.057,-268.465 535.765,-258 545.4,-248.584 557.758,-240.668 569.35,-234.482"/>
<polygon fill="black" stroke="black" points="571.073,-237.533 578.416,-229.896 567.913,-231.287 571.073,-237.533"/>
</a>
<text text-anchor="middle" x="558.353" y="-261.4" font-family="Times,serif" font-size="14.00">Push(1,)</text>
</g>
<!-- 1&#45;&gt;0 -->
<g id="edge6" class="edge"><title>1&#45;&gt;0</title>
<a xlink:title="Pop()/2">
<path fill="none" stroke="black" d="M420.4,-234.753C429.08,-241.642 439.161,-249.972 447.824,-258 458.5,-267.894 469.665,-279.451 479.054,-289.563"/>
<polygon fill="black" stroke="black" points="476.507,-291.964 485.849,-296.962 481.663,-287.229 476.507,-291.964"/>
</a>
<text text-anchor="middle" x="485.824" y="-261.4" font-family="Times,serif" font-size="14.00">Pop()/2</text>
</g>
<!-- 3 -->
<g id="node4" class="node"><title>3</title>
<a xlink:title="{&#39;Stack&#39;: {&#39;stack&#39;: [2, 2]}}">
<ellipse fill="white" stroke="black" cx="141.824" cy="-120" rx="27" ry="18"/>
<ellipse fill="none" stroke="black" cx="141.824" cy="-120" rx="31" ry="22"/>
<text text-anchor="middle" x="141.824" y="-114.4" font-family="Times,serif" font-size="14.00">3</text>
</a>
</g>
<!-- 1&#45;&gt;3 -->
<g id="edge8" class="edge"><title>1&#45;&gt;3</title>
<a xlink:title="Push(2,)">
<path fill="none" stroke="black" d="M369.003,-214.791C331.139,-211.131 265.67,-201.687 214.765,-178 197.269,-169.858 180.138,-156.814 166.879,-145.257"/>
<polygon fill="black" stroke="black" points="168.931,-142.395 159.155,-138.311 164.25,-147.6 168.931,-142.395"/>
</a>
<text text-anchor="middle" x="238.353" y="-163.4" font-family="Times,serif" font-size="14.00">Push(2,)</text>
</g>
<!-- 4 -->
<g id="node5" class="node"><title>4</title>
<a xlink:title="{&#39;Stack&#39;: {&#39;stack&#39;: [1, 2]}}">
<ellipse fill="white" stroke="black" cx="399.824" cy="-120" rx="27" ry="18"/>
<ellipse fill="none" stroke="black" cx="399.824" cy="-120" rx="31" ry="22"/>
<text text-anchor="middle" x="399.824" y="-114.4" font-family="Times,serif" font-size="14.00">4</text>
</a>
</g>
<!-- 1&#45;&gt;4 -->
<g id="edge10" class="edge"><title>1&#45;&gt;4</title>
<a xlink:title="Push(1,)">
<path fill="none" stroke="black" d="M389.769,-196.824C387.304,-190.905 385.016,-184.321 383.765,-178 382.213,-170.152 382.213,-167.848 383.765,-160 384.371,-156.938 385.22,-153.815 386.215,-150.735"/>
<polygon fill="black" stroke="black" points="389.565,-151.769 389.769,-141.176 383.003,-149.33 389.565,-151.769"/>
</a>
<text text-anchor="middle" x="407.353" y="-163.4" font-family="Times,serif" font-size="14.00">Push(1,)</text>
</g>
<!-- 2&#45;&gt;0 -->
<g id="edge12" class="edge"><title>2&#45;&gt;0</title>
<a xlink:title="Pop()/1">
<path fill="none" stroke="black" d="M600.729,-240.016C597.531,-251.771 592.031,-266.021 582.824,-276 571.363,-288.421 555.107,-297.311 540.161,-303.436"/>
<polygon fill="black" stroke="black" points="538.698,-300.248 530.593,-307.071 541.184,-306.792 538.698,-300.248"/>
</a>
<text text-anchor="middle" x="613.824" y="-261.4" font-family="Times,serif" font-size="14.00">Pop()/1</text>
</g>
<!-- 5 -->
<g id="node6" class="node"><title>5</title>
<a xlink:title="{&#39;Stack&#39;: {&#39;stack&#39;: [2, 1]}}">
<ellipse fill="white" stroke="black" cx="638.824" cy="-120" rx="27" ry="18"/>
<ellipse fill="none" stroke="black" cx="638.824" cy="-120" rx="31" ry="22"/>
<text text-anchor="middle" x="638.824" y="-114.4" font-family="Times,serif" font-size="14.00">5</text>
</a>
</g>
<!-- 2&#45;&gt;5 -->
<g id="edge14" class="edge"><title>2&#45;&gt;5</title>
<a xlink:title="Push(2,)">
<path fill="none" stroke="black" d="M592.169,-197.916C586.305,-186.548 581.813,-172.037 587.765,-160 591.781,-151.879 598.388,-144.986 605.538,-139.358"/>
<polygon fill="black" stroke="black" points="607.912,-141.966 614.058,-133.336 603.872,-136.25 607.912,-141.966"/>
</a>
<text text-anchor="middle" x="610.353" y="-163.4" font-family="Times,serif" font-size="14.00">Push(2,)</text>
</g>
<!-- 6 -->
<g id="node7" class="node"><title>6</title>
<a xlink:title="{&#39;Stack&#39;: {&#39;stack&#39;: [1, 1]}}">
<ellipse fill="white" stroke="black" cx="847.824" cy="-120" rx="27" ry="18"/>
<ellipse fill="none" stroke="black" cx="847.824" cy="-120" rx="31" ry="22"/>
<text text-anchor="middle" x="847.824" y="-114.4" font-family="Times,serif" font-size="14.00">6</text>
</a>
</g>
<!-- 2&#45;&gt;6 -->
<g id="edge16" class="edge"><title>2&#45;&gt;6</title>
<a xlink:title="Push(1,)">
<path fill="none" stroke="black" d="M631.292,-206.544C674.998,-189.277 762.323,-154.778 811.678,-135.28"/>
<polygon fill="black" stroke="black" points="813.004,-138.519 821.019,-131.59 810.432,-132.009 813.004,-138.519"/>
</a>
<text text-anchor="middle" x="771.353" y="-163.4" font-family="Times,serif" font-size="14.00">Push(1,)</text>
</g>
<!-- 3&#45;&gt;1 -->
<g id="edge18" class="edge"><title>3&#45;&gt;1</title>
<a xlink:title="Pop()/2">
<path fill="none" stroke="black" d="M170.161,-129.53C194.613,-137.051 230.785,-148.566 261.824,-160 297.29,-173.065 337.123,-189.739 364.844,-201.671"/>
<polygon fill="black" stroke="black" points="363.549,-204.925 374.117,-205.681 366.327,-198.5 363.549,-204.925"/>
</a>
<text text-anchor="middle" x="328.824" y="-163.4" font-family="Times,serif" font-size="14.00">Pop()/2</text>
</g>
<!-- 7 -->
<g id="node8" class="node"><title>7</title>
<a xlink:title="{&#39;Stack&#39;: {&#39;stack&#39;: [2, 2, 2]}}">
<ellipse fill="white" stroke="black" cx="51.8239" cy="-22" rx="27" ry="18"/>
<ellipse fill="none" stroke="black" cx="51.8239" cy="-22" rx="31" ry="22"/>
<text text-anchor="middle" x="51.8239" y="-16.4" font-family="Times,serif" font-size="14.00">7</text>
</a>
</g>
<!-- 3&#45;&gt;7 -->
<g id="edge20" class="edge"><title>3&#45;&gt;7</title>
<a xlink:title="Push(2,)">
<path fill="none" stroke="black" d="M111.479,-114.727C74.9056,-108.883 16.7272,-97.1307 3.76534,-80 -6.0278,-67.0572 5.30234,-53.1184 19.4126,-42.2644"/>
<polygon fill="black" stroke="black" points="21.7586,-44.8922 27.9031,-36.2611 17.7173,-39.1766 21.7586,-44.8922"/>
</a>
<text text-anchor="middle" x="27.3532" y="-65.4" font-family="Times,serif" font-size="14.00">Push(2,)</text>
</g>
<!-- 8 -->
<g id="node9" class="node"><title>8</title>
<a xlink:title="{&#39;Stack&#39;: {&#39;stack&#39;: [1, 2, 2]}}">
<ellipse fill="white" stroke="black" cx="158.824" cy="-22" rx="27" ry="18"/>
<ellipse fill="none" stroke="black" cx="158.824" cy="-22" rx="31" ry="22"/>
<text text-anchor="middle" x="158.824" y="-16.4" font-family="Times,serif" font-size="14.00">8</text>
</a>
</g>
<!-- 3&#45;&gt;8 -->
<g id="edge22" class="edge"><title>3&#45;&gt;8</title>
<a xlink:title="Push(1,)">
<path fill="none" stroke="black" d="M137.849,-98.1563C136.482,-87.247 135.921,-73.7508 138.765,-62 139.597,-58.5659 140.786,-55.0952 142.176,-51.7142"/>
<polygon fill="black" stroke="black" points="145.407,-53.0664 146.494,-42.5273 139.072,-50.0887 145.407,-53.0664"/>
</a>
<text text-anchor="middle" x="162.353" y="-65.4" font-family="Times,serif" font-size="14.00">Push(1,)</text>
</g>
<!-- 4&#45;&gt;1 -->
<g id="edge24" class="edge"><title>4&#45;&gt;1</title>
<a xlink:title="Pop()/1">
<path fill="none" stroke="black" d="M417.481,-138.085C422.833,-144.406 428.031,-151.997 430.824,-160 433.46,-167.553 433.46,-170.447 430.824,-178 429.165,-182.752 426.659,-187.358 423.777,-191.64"/>
<polygon fill="black" stroke="black" points="420.75,-189.837 417.481,-199.915 426.322,-194.076 420.75,-189.837"/>
</a>
<text text-anchor="middle" x="453.824" y="-163.4" font-family="Times,serif" font-size="14.00">Pop()/1</text>
</g>
<!-- 9 -->
<g id="node10" class="node"><title>9</title>
<a xlink:title="{&#39;Stack&#39;: {&#39;stack&#39;: [2, 1, 2]}}">
<ellipse fill="white" stroke="black" cx="307.824" cy="-22" rx="27" ry="18"/>
<ellipse fill="none" stroke="black" cx="307.824" cy="-22" rx="31" ry="22"/>
<text text-anchor="middle" x="307.824" y="-16.4" font-family="Times,serif" font-size="14.00">9</text>
</a>
</g>
<!-- 4&#45;&gt;9 -->
<g id="edge26" class="edge"><title>4&#45;&gt;9</title>
<a xlink:title="Push(2,)">
<path fill="none" stroke="black" d="M368.836,-119.089C339.048,-117.311 295.451,-109.409 273.765,-80 265.948,-69.3983 271.894,-56.9047 280.875,-46.3203"/>
<polygon fill="black" stroke="black" points="283.467,-48.6741 287.798,-39.005 278.382,-43.8628 283.467,-48.6741"/>
</a>
<text text-anchor="middle" x="297.353" y="-65.4" font-family="Times,serif" font-size="14.00">Push(2,)</text>
</g>
<!-- 10 -->
<g id="node11" class="node"><title>10</title>
<a xlink:title="{&#39;Stack&#39;: {&#39;stack&#39;: [1, 1, 2]}}">
<ellipse fill="white" stroke="black" cx="442.824" cy="-22" rx="27" ry="18"/>
<ellipse fill="none" stroke="black" cx="442.824" cy="-22" rx="31" ry="22"/>
<text text-anchor="middle" x="442.824" y="-16.4" font-family="Times,serif" font-size="14.00">10</text>
</a>
</g>
<!-- 4&#45;&gt;10 -->
<g id="edge28" class="edge"><title>4&#45;&gt;10</title>
<a xlink:title="Push(1,)">
<path fill="none" stroke="black" d="M400.337,-97.8711C401.286,-86.7589 403.554,-73.1643 408.765,-62 411.036,-57.1356 414.101,-52.4184 417.465,-48.0444"/>
<polygon fill="black" stroke="black" points="420.392,-50.0039 424.176,-40.1077 415.046,-45.4844 420.392,-50.0039"/>
</a>
<text text-anchor="middle" x="432.353" y="-65.4" font-family="Times,serif" font-size="14.00">Push(1,)</text>
</g>
<!-- 5&#45;&gt;2 -->
<g id="edge30" class="edge"><title>5&#45;&gt;2</title>
<a xlink:title="Pop()/2">
<path fill="none" stroke="black" d="M640.215,-142.202C640.23,-153.21 639.12,-166.686 634.824,-178 633.096,-182.552 630.65,-187.01 627.891,-191.191"/>
<polygon fill="black" stroke="black" points="625.017,-189.192 621.92,-199.324 630.66,-193.334 625.017,-189.192"/>
</a>
<text text-anchor="middle" x="659.824" y="-163.4" font-family="Times,serif" font-size="14.00">Pop()/2</text>
</g>
<!-- 11 -->
<g id="node12" class="node"><title>11</title>
<a xlink:title="{&#39;Stack&#39;: {&#39;stack&#39;: [2, 2, 1]}}">
<ellipse fill="white" stroke="black" cx="577.824" cy="-22" rx="27" ry="18"/>
<ellipse fill="none" stroke="black" cx="577.824" cy="-22" rx="31" ry="22"/>
<text text-anchor="middle" x="577.824" y="-16.4" font-family="Times,serif" font-size="14.00">11</text>
</a>
</g>
<!-- 5&#45;&gt;11 -->
<g id="edge32" class="edge"><title>5&#45;&gt;11</title>
<a xlink:title="Push(2,)">
<path fill="none" stroke="black" d="M608.375,-115.388C586.361,-111.007 558.072,-101.334 543.765,-80 536.551,-69.2425 542.231,-56.9477 550.875,-46.5374"/>
<polygon fill="black" stroke="black" points="553.642,-48.7023 557.899,-39.0005 548.521,-43.9298 553.642,-48.7023"/>
</a>
<text text-anchor="middle" x="566.353" y="-65.4" font-family="Times,serif" font-size="14.00">Push(2,)</text>
</g>
<!-- 12 -->
<g id="node13" class="node"><title>12</title>
<a xlink:title="{&#39;Stack&#39;: {&#39;stack&#39;: [1, 2, 1]}}">
<ellipse fill="white" stroke="black" cx="712.824" cy="-22" rx="27" ry="18"/>
<ellipse fill="none" stroke="black" cx="712.824" cy="-22" rx="31" ry="22"/>
<text text-anchor="middle" x="712.824" y="-16.4" font-family="Times,serif" font-size="14.00">12</text>
</a>
</g>
<!-- 5&#45;&gt;12 -->
<g id="edge34" class="edge"><title>5&#45;&gt;12</title>
<a xlink:title="Push(1,)">
<path fill="none" stroke="black" d="M651.463,-99.8938C659.086,-88.6484 669.152,-74.2707 678.765,-62 682.23,-57.5773 686.033,-52.9895 689.803,-48.5809"/>
<polygon fill="black" stroke="black" points="692.55,-50.7555 696.472,-40.9132 687.268,-46.1617 692.55,-50.7555"/>
</a>
<text text-anchor="middle" x="701.353" y="-65.4" font-family="Times,serif" font-size="14.00">Push(1,)</text>
</g>
<!-- 6&#45;&gt;2 -->
<g id="edge36" class="edge"><title>6&#45;&gt;2</title>
<a xlink:title="Pop()/1">
<path fill="none" stroke="black" d="M836.096,-140.369C827.391,-153.05 814.366,-168.903 798.824,-178 751.366,-205.778 687.411,-214.066 646.142,-216.377"/>
<polygon fill="black" stroke="black" points="645.733,-212.892 635.907,-216.854 646.059,-219.885 645.733,-212.892"/>
</a>
<text text-anchor="middle" x="839.824" y="-163.4" font-family="Times,serif" font-size="14.00">Pop()/1</text>
</g>
<!-- 13 -->
<g id="node14" class="node"><title>13</title>
<a xlink:title="{&#39;Stack&#39;: {&#39;stack&#39;: [2, 1, 1]}}">
<ellipse fill="white" stroke="black" cx="847.824" cy="-22" rx="27" ry="18"/>
<ellipse fill="none" stroke="black" cx="847.824" cy="-22" rx="31" ry="22"/>
<text text-anchor="middle" x="847.824" y="-16.4" font-family="Times,serif" font-size="14.00">13</text>
</a>
</g>
<!-- 6&#45;&gt;13 -->
<g id="edge38" class="edge"><title>6&#45;&gt;13</title>
<a xlink:title="Push(2,)">
<path fill="none" stroke="black" d="M828.814,-102.58C822.811,-96.2084 816.923,-88.4164 813.765,-80 809.526,-68.7009 814.45,-57.111 821.751,-47.3577"/>
<polygon fill="black" stroke="black" points="824.495,-49.5336 828.294,-39.6435 819.156,-45.0056 824.495,-49.5336"/>
</a>
<text text-anchor="middle" x="836.353" y="-65.4" font-family="Times,serif" font-size="14.00">Push(2,)</text>
</g>
<!-- 14 -->
<g id="node15" class="node"><title>14</title>
<a xlink:title="{&#39;Stack&#39;: {&#39;stack&#39;: [1, 1, 1]}}">
<ellipse fill="white" stroke="black" cx="982.824" cy="-22" rx="27" ry="18"/>
<ellipse fill="none" stroke="black" cx="982.824" cy="-22" rx="31" ry="22"/>
<text text-anchor="middle" x="982.824" y="-16.4" font-family="Times,serif" font-size="14.00">14</text>
</a>
</g>
<!-- 6&#45;&gt;14 -->
<g id="edge40" class="edge"><title>6&#45;&gt;14</title>
<a xlink:title="Push(1,)">
<path fill="none" stroke="black" d="M870.168,-104.677C881.291,-97.4347 894.879,-88.4158 906.824,-80 922.679,-68.8292 940.004,-55.8938 954.103,-45.1721"/>
<polygon fill="black" stroke="black" points="956.6,-47.6691 962.423,-38.8179 952.351,-42.106 956.6,-47.6691"/>
</a>
<text text-anchor="middle" x="953.353" y="-65.4" font-family="Times,serif" font-size="14.00">Push(1,)</text>
</g>
<!-- 7&#45;&gt;3 -->
<g id="edge42" class="edge"><title>7&#45;&gt;3</title>
<a xlink:title="Pop()/2">
<path fill="none" stroke="black" d="M63.0709,-42.6132C70.2071,-54.1687 80.0966,-68.6908 90.8239,-80 96.999,-86.51 104.333,-92.7821 111.487,-98.3223"/>
<polygon fill="black" stroke="black" points="109.613,-101.29 119.723,-104.46 113.796,-95.6779 109.613,-101.29"/>
</a>
<text text-anchor="middle" x="111.824" y="-65.4" font-family="Times,serif" font-size="14.00">Pop()/2</text>
</g>
<!-- 8&#45;&gt;3 -->
<g id="edge44" class="edge"><title>8&#45;&gt;3</title>
<a xlink:title="Pop()/1">
<path fill="none" stroke="black" d="M175.672,-40.6331C184.278,-51.8527 191.799,-66.7189 185.824,-80 182.772,-86.7839 177.892,-92.8658 172.472,-98.0958"/>
<polygon fill="black" stroke="black" points="170.133,-95.4914 164.867,-104.685 174.717,-100.782 170.133,-95.4914"/>
</a>
<text text-anchor="middle" x="209.824" y="-65.4" font-family="Times,serif" font-size="14.00">Pop()/1</text>
</g>
<!-- 9&#45;&gt;4 -->
<g id="edge46" class="edge"><title>9&#45;&gt;4</title>
<a xlink:title="Pop()/2">
<path fill="none" stroke="black" d="M323.128,-41.3949C332.797,-52.7755 345.712,-67.5407 357.824,-80 362.764,-85.0814 368.205,-90.3539 373.488,-95.3179"/>
<polygon fill="black" stroke="black" points="371.321,-98.0824 381.035,-102.312 376.079,-92.9478 371.321,-98.0824"/>
</a>
<text text-anchor="middle" x="378.824" y="-65.4" font-family="Times,serif" font-size="14.00">Pop()/2</text>
</g>
<!-- 10&#45;&gt;4 -->
<g id="edge48" class="edge"><title>10&#45;&gt;4</title>
<a xlink:title="Pop()/1">
<path fill="none" stroke="black" d="M453.722,-42.5968C458.536,-54.0108 461.885,-68.3937 455.824,-80 451.012,-89.2155 442.919,-96.6956 434.36,-102.547"/>
<polygon fill="black" stroke="black" points="432.422,-99.6302 425.75,-107.86 436.098,-105.587 432.422,-99.6302"/>
</a>
<text text-anchor="middle" x="480.824" y="-65.4" font-family="Times,serif" font-size="14.00">Pop()/1</text>
</g>
<!-- 11&#45;&gt;5 -->
<g id="edge50" class="edge"><title>11&#45;&gt;5</title>
<a xlink:title="Pop()/2">
<path fill="none" stroke="black" d="M589.956,-42.2807C596.922,-53.3329 605.844,-67.459 613.824,-80 616.107,-83.5878 618.513,-87.3572 620.895,-91.0803"/>
<polygon fill="black" stroke="black" points="617.995,-93.0429 626.336,-99.5758 623.89,-89.2672 617.995,-93.0429"/>
</a>
<text text-anchor="middle" x="634.824" y="-65.4" font-family="Times,serif" font-size="14.00">Pop()/2</text>
</g>
<!-- 12&#45;&gt;5 -->
<g id="edge52" class="edge"><title>12&#45;&gt;5</title>
<a xlink:title="Pop()/1">
<path fill="none" stroke="black" d="M724.265,-42.5156C729.478,-54.1753 733.052,-68.8395 725.824,-80 715.369,-96.1435 696.482,-105.667 678.971,-111.254"/>
<polygon fill="black" stroke="black" points="677.561,-108.016 668.893,-114.109 679.469,-114.75 677.561,-108.016"/>
</a>
<text text-anchor="middle" x="750.824" y="-65.4" font-family="Times,serif" font-size="14.00">Pop()/1</text>
</g>
<!-- 13&#45;&gt;6 -->
<g id="edge54" class="edge"><title>13&#45;&gt;6</title>
<a xlink:title="Pop()/2">
<path fill="none" stroke="black" d="M855.972,-43.3333C857.967,-49.2547 859.818,-55.8005 860.824,-62 862.105,-69.8967 862.105,-72.1033 860.824,-80 860.352,-82.906 859.695,-85.8881 858.925,-88.8463"/>
<polygon fill="black" stroke="black" points="855.5,-88.0824 855.972,-98.6667 862.203,-90.098 855.5,-88.0824"/>
</a>
<text text-anchor="middle" x="881.824" y="-65.4" font-family="Times,serif" font-size="14.00">Pop()/2</text>
</g>
<!-- 14&#45;&gt;6 -->
<g id="edge56" class="edge"><title>14&#45;&gt;6</title>
<a xlink:title="Pop()/1">
<path fill="none" stroke="black" d="M987.654,-43.9923C989.098,-55.7397 988.598,-69.9897 980.824,-80 959.502,-107.455 919.89,-116.343 889.421,-118.876"/>
<polygon fill="black" stroke="black" points="888.83,-115.406 879.07,-119.527 889.27,-122.393 888.83,-115.406"/>
</a>
<text text-anchor="middle" x="1007.82" y="-65.4" font-family="Times,serif" font-size="14.00">Pop()/1</text>
</g>
</g>
</svg>
