<?xml version="1.0" encoding="UTF-8" standalone="no"?>
<!DOCTYPE svg PUBLIC "-//W3C//DTD SVG 1.1//EN"
 "http://www.w3.org/Graphics/SVG/1.1/DTD/svg11.dtd">
<!-- Generated by graphviz version 2.28.0 (20111028.1807)
 -->
<!-- Title: DisplayFiveFSM Pages: 1 -->
<svg width="908pt" height="640pt"
 viewBox="0.00 0.00 907.50 640.00" xmlns="http://www.w3.org/2000/svg" xmlns:xlink="http://www.w3.org/1999/xlink">
<g id="graph1" class="graph" transform="scale(1 1) rotate(0) translate(4 636)">
<title>DisplayFiveFSM</title>
<polygon fill="white" stroke="white" points="-4,5 -4,-636 904.503,-636 904.503,5 -4,5"/>
<!-- 0 -->
<g id="node1" class="node"><title>0</title>
<a xlink:title="{&#39;Marquee&#39;: {&#39;display&#39;: &#39;* * * * * * * * * * * * * &#39;}}">
<ellipse fill="lightgray" stroke="black" cx="351.109" cy="-610" rx="27" ry="18"/>
<ellipse fill="none" stroke="black" cx="351.109" cy="-610" rx="31" ry="22"/>
<text text-anchor="middle" x="351.109" y="-604.4" font-family="Times,serif" font-size="14.00">0</text>
</a>
</g>
<!-- 1 -->
<g id="node2" class="node"><title>1</title>
<a xlink:title="{&#39;Marquee&#39;: {&#39;display&#39;: &#39; * * * * * * * * * * * * *&#39;}}">
<ellipse fill="white" stroke="black" cx="291.109" cy="-512" rx="27" ry="18"/>
<ellipse fill="none" stroke="black" cx="291.109" cy="-512" rx="31" ry="22"/>
<text text-anchor="middle" x="291.109" y="-506.4" font-family="Times,serif" font-size="14.00">1</text>
</a>
</g>
<!-- 0&#45;&gt;1 -->
<g id="edge2" class="edge"><title>0&#45;&gt;1</title>
<a xlink:title="Shift()">
<path fill="none" stroke="black" d="M324.785,-598.38C312.726,-592.047 299.581,-582.725 292.558,-570 288.26,-562.213 286.801,-552.872 286.717,-544.026"/>
<polygon fill="black" stroke="black" points="290.215,-544.137 287.162,-533.991 283.222,-543.826 290.215,-544.137"/>
</a>
<text text-anchor="middle" x="311.385" y="-555.4" font-family="Times,serif" font-size="14.00">Shift()</text>
</g>
<!-- 2 -->
<g id="node3" class="node"><title>2</title>
<a xlink:title="{&#39;Marquee&#39;: {&#39;display&#39;: &#39;Bye &#160;Bye &#160;Bye &#160;Bye &#160;Bye &#160;&#39;}}">
<ellipse fill="white" stroke="black" cx="347.109" cy="-414" rx="27" ry="18"/>
<ellipse fill="none" stroke="black" cx="347.109" cy="-414" rx="31" ry="22"/>
<text text-anchor="middle" x="347.109" y="-408.4" font-family="Times,serif" font-size="14.00">2</text>
</a>
</g>
<!-- 0&#45;&gt;2 -->
<g id="edge4" class="edge"><title>0&#45;&gt;2</title>
<a xlink:title="Load(&#39;Bye &#160;Bye &#160;Bye &#160;Bye &#160;Bye &#160;&#39;,)">
<path fill="none" stroke="black" d="M371.637,-593.39C406.493,-564.944 470.471,-503.077 438.109,-454 426.8,-436.849 406.216,-427.212 387.482,-421.811"/>
<polygon fill="black" stroke="black" points="388.18,-418.377 377.625,-419.291 386.446,-425.159 388.18,-418.377"/>
</a>
<text text-anchor="middle" x="544.306" y="-506.4" font-family="Times,serif" font-size="14.00">Load(&#39;Bye &#160;Bye &#160;Bye &#160;Bye &#160;Bye &#160;&#39;,)</text>
</g>
<!-- 1&#45;&gt;0 -->
<g id="edge6" class="edge"><title>1&#45;&gt;0</title>
<a xlink:title="Shift()">
<path fill="none" stroke="black" d="M310.167,-529.549C316.813,-536.044 323.903,-543.884 329.109,-552 334.311,-560.109 338.591,-569.638 341.948,-578.559"/>
<polygon fill="black" stroke="black" points="338.739,-579.984 345.347,-588.265 345.345,-577.67 338.739,-579.984"/>
</a>
<text text-anchor="middle" x="357.385" y="-555.4" font-family="Times,serif" font-size="14.00">Shift()</text>
</g>
<!-- 1&#45;&gt;2 -->
<g id="edge8" class="edge"><title>1&#45;&gt;2</title>
<a xlink:title="Load(&#39;Bye &#160;Bye &#160;Bye &#160;Bye &#160;Bye &#160;&#39;,)">
<path fill="none" stroke="black" d="M267.476,-497.717C250.653,-486.493 232.809,-469.772 243.716,-454 257.721,-433.749 283.671,-424.001 306.069,-419.314"/>
<polygon fill="black" stroke="black" points="306.842,-422.731 316.054,-417.498 305.589,-415.844 306.842,-422.731"/>
</a>
<text text-anchor="middle" x="341.306" y="-457.4" font-family="Times,serif" font-size="14.00">Load(&#39;Bye &#160;Bye &#160;Bye &#160;Bye &#160;Bye &#160;&#39;,)</text>
</g>
<!-- 2&#45;&gt;2 -->
<g id="edge12" class="edge"><title>2&#45;&gt;2</title>
<a xlink:title="Load(&#39;Bye &#160;Bye &#160;Bye &#160;Bye &#160;Bye &#160;&#39;,)">
<path fill="none" stroke="black" d="M375.798,-422.965C386.89,-423.363 396.109,-420.375 396.109,-414 396.109,-409.717 391.948,-406.962 385.852,-405.737"/>
<polygon fill="black" stroke="black" points="386.017,-402.24 375.798,-405.035 385.53,-409.223 386.017,-402.24"/>
</a>
<text text-anchor="middle" x="493.306" y="-408.4" font-family="Times,serif" font-size="14.00">Load(&#39;Bye &#160;Bye &#160;Bye &#160;Bye &#160;Bye &#160;&#39;,)</text>
</g>
<!-- 3 -->
<g id="node4" class="node"><title>3</title>
<a xlink:title="{&#39;Marquee&#39;: {&#39;display&#39;: &#39;ye &#160;Bye &#160;Bye &#160;Bye &#160;Bye &#160;B&#39;}}">
<ellipse fill="white" stroke="black" cx="63.1095" cy="-316" rx="27" ry="18"/>
<ellipse fill="none" stroke="black" cx="63.1095" cy="-316" rx="31" ry="22"/>
<text text-anchor="middle" x="63.1095" y="-310.4" font-family="Times,serif" font-size="14.00">3</text>
</a>
</g>
<!-- 2&#45;&gt;3 -->
<g id="edge10" class="edge"><title>2&#45;&gt;3</title>
<a xlink:title="Shift()">
<path fill="none" stroke="black" d="M316.24,-411.788C235.912,-408.318 25.1594,-397.08 4.55769,-374 -8.38622,-359.499 9.29807,-344.192 28.533,-333.096"/>
<polygon fill="black" stroke="black" points="30.2454,-336.149 37.3753,-328.312 26.9145,-329.992 30.2454,-336.149"/>
</a>
<text text-anchor="middle" x="23.3853" y="-359.4" font-family="Times,serif" font-size="14.00">Shift()</text>
</g>
<!-- 3&#45;&gt;2 -->
<g id="edge16" class="edge"><title>3&#45;&gt;2</title>
<a xlink:title="Load(&#39;Bye &#160;Bye &#160;Bye &#160;Bye &#160;Bye &#160;&#39;,)">
<path fill="none" stroke="black" d="M57.224,-337.817C55.1866,-349.8 55.2101,-364.348 63.7159,-374 94.7914,-409.264 234.843,-413.702 305.73,-413.619"/>
<polygon fill="black" stroke="black" points="306.092,-417.118 316.076,-413.575 306.061,-410.118 306.092,-417.118"/>
</a>
<text text-anchor="middle" x="161.306" y="-359.4" font-family="Times,serif" font-size="14.00">Load(&#39;Bye &#160;Bye &#160;Bye &#160;Bye &#160;Bye &#160;&#39;,)</text>
</g>
<!-- 4 -->
<g id="node5" class="node"><title>4</title>
<a xlink:title="{&#39;Marquee&#39;: {&#39;display&#39;: &#39;e &#160;Bye &#160;Bye &#160;Bye &#160;Bye &#160;By&#39;}}">
<ellipse fill="white" stroke="black" cx="201.109" cy="-218" rx="27" ry="18"/>
<ellipse fill="none" stroke="black" cx="201.109" cy="-218" rx="31" ry="22"/>
<text text-anchor="middle" x="201.109" y="-212.4" font-family="Times,serif" font-size="14.00">4</text>
</a>
</g>
<!-- 3&#45;&gt;4 -->
<g id="edge14" class="edge"><title>3&#45;&gt;4</title>
<a xlink:title="Shift()">
<path fill="none" stroke="black" d="M84.672,-300C107.828,-283.891 144.8,-258.172 170.859,-240.043"/>
<polygon fill="black" stroke="black" points="173.033,-242.795 179.243,-234.211 169.035,-237.049 173.033,-242.795"/>
</a>
<text text-anchor="middle" x="163.385" y="-261.4" font-family="Times,serif" font-size="14.00">Shift()</text>
</g>
<!-- 4&#45;&gt;2 -->
<g id="edge20" class="edge"><title>4&#45;&gt;2</title>
<a xlink:title="Load(&#39;Bye &#160;Bye &#160;Bye &#160;Bye &#160;Bye &#160;&#39;,)">
<path fill="none" stroke="black" d="M197.536,-240.253C194.435,-266.045 193.318,-309.601 214.716,-338 227.281,-354.676 239.603,-346.332 258.109,-356 278.606,-366.708 300.492,-380.687 317.432,-392.122"/>
<polygon fill="black" stroke="black" points="315.573,-395.091 325.806,-397.839 319.52,-389.31 315.573,-395.091"/>
</a>
<text text-anchor="middle" x="312.306" y="-310.4" font-family="Times,serif" font-size="14.00">Load(&#39;Bye &#160;Bye &#160;Bye &#160;Bye &#160;Bye &#160;&#39;,)</text>
</g>
<!-- 5 -->
<g id="node6" class="node"><title>5</title>
<a xlink:title="{&#39;Marquee&#39;: {&#39;display&#39;: &#39; &#160;Bye &#160;Bye &#160;Bye &#160;Bye &#160;Bye&#39;}}">
<ellipse fill="white" stroke="black" cx="423.109" cy="-120" rx="27" ry="18"/>
<ellipse fill="none" stroke="black" cx="423.109" cy="-120" rx="31" ry="22"/>
<text text-anchor="middle" x="423.109" y="-114.4" font-family="Times,serif" font-size="14.00">5</text>
</a>
</g>
<!-- 4&#45;&gt;5 -->
<g id="edge18" class="edge"><title>4&#45;&gt;5</title>
<a xlink:title="Shift()">
<path fill="none" stroke="black" d="M227.01,-205.8C266.756,-188.612 342.884,-155.692 387.698,-136.313"/>
<polygon fill="black" stroke="black" points="389.241,-139.459 397.031,-132.277 386.463,-133.034 389.241,-139.459"/>
</a>
<text text-anchor="middle" x="350.385" y="-163.4" font-family="Times,serif" font-size="14.00">Shift()</text>
</g>
<!-- 5&#45;&gt;2 -->
<g id="edge24" class="edge"><title>5&#45;&gt;2</title>
<a xlink:title="Load(&#39;Bye &#160;Bye &#160;Bye &#160;Bye &#160;Bye &#160;&#39;,)">
<path fill="none" stroke="black" d="M423.388,-142.215C423.747,-189.637 423.063,-302.82 409.109,-338 401.384,-357.477 386.591,-375.687 373.392,-389.285"/>
<polygon fill="black" stroke="black" points="370.911,-386.815 366.278,-396.343 375.842,-391.784 370.911,-386.815"/>
</a>
<text text-anchor="middle" x="518.306" y="-261.4" font-family="Times,serif" font-size="14.00">Load(&#39;Bye &#160;Bye &#160;Bye &#160;Bye &#160;Bye &#160;&#39;,)</text>
</g>
<!-- 6 -->
<g id="node7" class="node"><title>6</title>
<a xlink:title="{&#39;Marquee&#39;: {&#39;display&#39;: &#39; Bye &#160;Bye &#160;Bye &#160;Bye &#160;Bye &#39;}}">
<ellipse fill="white" stroke="black" cx="632.109" cy="-22" rx="27" ry="18"/>
<ellipse fill="none" stroke="black" cx="632.109" cy="-22" rx="31" ry="22"/>
<text text-anchor="middle" x="632.109" y="-16.4" font-family="Times,serif" font-size="14.00">6</text>
</a>
</g>
<!-- 5&#45;&gt;6 -->
<g id="edge22" class="edge"><title>5&#45;&gt;6</title>
<a xlink:title="Shift()">
<path fill="none" stroke="black" d="M448.737,-107.229C486.052,-90.0886 555.445,-58.2142 597.339,-38.9713"/>
<polygon fill="black" stroke="black" points="598.973,-42.0721 606.6,-34.7175 596.051,-35.711 598.973,-42.0721"/>
</a>
<text text-anchor="middle" x="565.385" y="-65.4" font-family="Times,serif" font-size="14.00">Shift()</text>
</g>
<!-- 6&#45;&gt;2 -->
<g id="edge26" class="edge"><title>6&#45;&gt;2</title>
<a xlink:title="Shift()">
<path fill="none" stroke="black" d="M632.109,-44.3522C632.109,-63.8066 632.109,-93.3333 632.109,-119 632.109,-317 632.109,-317 632.109,-317 632.109,-367.967 466.35,-397.03 387.659,-407.956"/>
<polygon fill="black" stroke="black" points="387.049,-404.507 377.609,-409.318 387.989,-411.443 387.049,-404.507"/>
</a>
<text text-anchor="middle" x="650.385" y="-212.4" font-family="Times,serif" font-size="14.00">Shift()</text>
</g>
<!-- 6&#45;&gt;2 -->
<g id="edge28" class="edge"><title>6&#45;&gt;2</title>
<a xlink:title="Load(&#39;Bye &#160;Bye &#160;Bye &#160;Bye &#160;Bye &#160;&#39;,)">
<path fill="none" stroke="black" d="M653.617,-37.9795C675.15,-54.9209 705.109,-84.6617 705.109,-119 705.109,-317 705.109,-317 705.109,-317 705.109,-382.047 481.834,-404.228 387.938,-410.679"/>
<polygon fill="black" stroke="black" points="387.69,-407.188 377.942,-411.34 388.151,-414.173 387.69,-407.188"/>
</a>
<text text-anchor="middle" x="802.306" y="-212.4" font-family="Times,serif" font-size="14.00">Load(&#39;Bye &#160;Bye &#160;Bye &#160;Bye &#160;Bye &#160;&#39;,)</text>
</g>
</g>
</svg>
