<?xml version="1.0" encoding="UTF-8" standalone="no"?>
<!DOCTYPE svg PUBLIC "-//W3C//DTD SVG 1.1//EN"
 "http://www.w3.org/Graphics/SVG/1.1/DTD/svg11.dtd">
<!-- Generated by graphviz version 2.28.0 (20111028.1807)
 -->
<!-- Title: LoadFirstFSM Pages: 1 -->
<svg width="125pt" height="150pt"
 viewBox="0.00 0.00 124.55 150.00" xmlns="http://www.w3.org/2000/svg" xmlns:xlink="http://www.w3.org/1999/xlink">
<g id="graph1" class="graph" transform="scale(1 1) rotate(0) translate(4 146)">
<title>LoadFirstFSM</title>
<polygon fill="white" stroke="white" points="-4,5 -4,-146 121.552,-146 121.552,5 -4,5"/>
<!-- 0 -->
<g id="node1" class="node"><title>0</title>
<a xlink:title="{&#39;LoadFirst&#39;: 0}">
<ellipse fill="lightgray" stroke="black" cx="31" cy="-120" rx="27" ry="18"/>
<ellipse fill="none" stroke="black" cx="31" cy="-120" rx="31" ry="22"/>
<text text-anchor="middle" x="31" y="-114.4" font-family="Times,serif" font-size="14.00">0</text>
</a>
</g>
<!-- 1 -->
<g id="node2" class="node"><title>1</title>
<a xlink:title="{&#39;LoadFirst&#39;: 1}">
<ellipse fill="white" stroke="black" cx="31" cy="-22" rx="27" ry="18"/>
<ellipse fill="none" stroke="black" cx="31" cy="-22" rx="31" ry="22"/>
<text text-anchor="middle" x="31" y="-16.4" font-family="Times,serif" font-size="14.00">1</text>
</a>
</g>
<!-- 0&#45;&gt;1 -->
<g id="edge2" class="edge"><title>0&#45;&gt;1</title>
<a xlink:title="Load()">
<path fill="none" stroke="black" d="M31,-97.6945C31,-85.0171 31,-68.6971 31,-54.5472"/>
<polygon fill="black" stroke="black" points="34.5001,-54.2459 31,-44.246 27.5001,-54.246 34.5001,-54.2459"/>
</a>
<text text-anchor="middle" x="50.0449" y="-65.4" font-family="Times,serif" font-size="14.00">Load()</text>
</g>
<!-- 1&#45;&gt;1 -->
<g id="edge4" class="edge"><title>1&#45;&gt;1</title>
<a xlink:title="Shift()">
<path fill="none" stroke="black" d="M59.6885,-30.9648C70.7806,-31.3633 80,-28.375 80,-22 80,-17.7168 75.8382,-14.9624 69.7429,-13.7368"/>
<polygon fill="black" stroke="black" points="69.9079,-10.2399 59.6885,-13.0352 69.4205,-17.223 69.9079,-10.2399"/>
</a>
<text text-anchor="middle" x="98.2759" y="-16.4" font-family="Times,serif" font-size="14.00">Shift()</text>
</g>
</g>
</svg>
