<?xml version="1.0" encoding="UTF-8" standalone="no"?>
<!DOCTYPE svg PUBLIC "-//W3C//DTD SVG 1.1//EN"
 "http://www.w3.org/Graphics/SVG/1.1/DTD/svg11.dtd">
<!-- Generated by graphviz version 2.28.0 (20111028.1807)
 -->
<!-- Title: MarqueeFSM Pages: 1 -->
<svg width="84pt" height="150pt"
 viewBox="0.00 0.00 83.55 150.00" xmlns="http://www.w3.org/2000/svg" xmlns:xlink="http://www.w3.org/1999/xlink">
<g id="graph1" class="graph" transform="scale(1 1) rotate(0) translate(4 146)">
<title>MarqueeFSM</title>
<polygon fill="white" stroke="white" points="-4,5 -4,-146 80.5518,-146 80.5518,5 -4,5"/>
<!-- 0 -->
<g id="node1" class="node"><title>0</title>
<a xlink:title="{&#39;Marquee&#39;: {&#39;display&#39;: &#39;* * * * * * * * * * * * * &#39;}}">
<ellipse fill="lightgray" stroke="black" cx="31" cy="-120" rx="27" ry="18"/>
<ellipse fill="none" stroke="black" cx="31" cy="-120" rx="31" ry="22"/>
<text text-anchor="middle" x="31" y="-114.4" font-family="Times,serif" font-size="14.00">0</text>
</a>
</g>
<!-- 1 -->
<g id="node2" class="node"><title>1</title>
<a xlink:title="{&#39;Marquee&#39;: {&#39;display&#39;: &#39; * * * * * * * * * * * * *&#39;}}">
<ellipse fill="white" stroke="black" cx="31" cy="-22" rx="27" ry="18"/>
<ellipse fill="none" stroke="black" cx="31" cy="-22" rx="31" ry="22"/>
<text text-anchor="middle" x="31" y="-16.4" font-family="Times,serif" font-size="14.00">1</text>
</a>
</g>
<!-- 0&#45;&gt;1 -->
<g id="edge2" class="edge"><title>0&#45;&gt;1</title>
<a xlink:title="Shift()">
<path fill="none" stroke="black" d="M14.4157,-101.313C9.59238,-95.0555 4.95148,-87.6569 2.44824,-80 -0.0376817,-72.396 -0.0376817,-69.604 2.44824,-62 3.89543,-57.5733 6.05708,-53.233 8.55539,-49.1497"/>
<polygon fill="black" stroke="black" points="11.5999,-50.901 14.4157,-40.6872 5.84503,-46.9158 11.5999,-50.901"/>
</a>
<text text-anchor="middle" x="21.2759" y="-65.4" font-family="Times,serif" font-size="14.00">Shift()</text>
</g>
<!-- 1&#45;&gt;0 -->
<g id="edge4" class="edge"><title>1&#45;&gt;0</title>
<a xlink:title="Shift()">
<path fill="none" stroke="black" d="M36.1039,-43.9297C37.2999,-49.7445 38.3997,-56.0862 39,-62 39.8079,-69.9591 39.8079,-72.0409 39,-80 38.728,-82.6797 38.3534,-85.4472 37.9138,-88.2138"/>
<polygon fill="black" stroke="black" points="34.4676,-87.6026 36.1039,-98.0703 41.3525,-88.8669 34.4676,-87.6026"/>
</a>
<text text-anchor="middle" x="57.2759" y="-65.4" font-family="Times,serif" font-size="14.00">Shift()</text>
</g>
</g>
</svg>
