<?xml version="1.0" encoding="UTF-8" standalone="no"?>
<!DOCTYPE svg PUBLIC "-//W3C//DTD SVG 1.1//EN"
 "http://www.w3.org/Graphics/SVG/1.1/DTD/svg11.dtd">
<!-- Generated by graphviz version 2.28.0 (20111028.1807)
 -->
<!-- Title: PeriodFiveFSM2 Pages: 1 -->
<svg width="279pt" height="542pt"
 viewBox="0.00 0.00 279.39 542.00" xmlns="http://www.w3.org/2000/svg" xmlns:xlink="http://www.w3.org/1999/xlink">
<g id="graph1" class="graph" transform="scale(1 1) rotate(0) translate(4 538)">
<title>PeriodFiveFSM2</title>
<polygon fill="white" stroke="white" points="-4,5 -4,-538 276.394,-538 276.394,5 -4,5"/>
<!-- 0 -->
<g id="node1" class="node"><title>0</title>
<a xlink:title="{&#39;LoadFirst&#39;: 0, &#39;Marquee&#39;: {&#39;display&#39;: &#39;* * * * * * * * * * * * * &#39;}}">
<ellipse fill="lightgray" stroke="black" cx="77" cy="-512" rx="27" ry="18"/>
<ellipse fill="none" stroke="black" cx="77" cy="-512" rx="31" ry="22"/>
<text text-anchor="middle" x="77" y="-506.4" font-family="Times,serif" font-size="14.00">0</text>
</a>
</g>
<!-- 1 -->
<g id="node2" class="node"><title>1</title>
<a xlink:title="{&#39;Marquee&#39;: {&#39;display&#39;: &#39;Bye &#160;Bye &#160;Bye &#160;Bye &#160;Bye &#160;&#39;}, &#39;LoadFirst&#39;: 1}">
<ellipse fill="white" stroke="black" cx="77" cy="-414" rx="27" ry="18"/>
<ellipse fill="none" stroke="black" cx="77" cy="-414" rx="31" ry="22"/>
<text text-anchor="middle" x="77" y="-408.4" font-family="Times,serif" font-size="14.00">1</text>
</a>
</g>
<!-- 0&#45;&gt;1 -->
<g id="edge2" class="edge"><title>0&#45;&gt;1</title>
<a xlink:title="Load(&#39;Bye &#160;Bye &#160;Bye &#160;Bye &#160;Bye &#160;&#39;,)">
<path fill="none" stroke="black" d="M77,-489.694C77,-477.017 77,-460.697 77,-446.547"/>
<polygon fill="black" stroke="black" points="80.5001,-446.246 77,-436.246 73.5001,-446.246 80.5001,-446.246"/>
</a>
<text text-anchor="middle" x="174.197" y="-457.4" font-family="Times,serif" font-size="14.00">Load(&#39;Bye &#160;Bye &#160;Bye &#160;Bye &#160;Bye &#160;&#39;,)</text>
</g>
<!-- 2 -->
<g id="node3" class="node"><title>2</title>
<a xlink:title="{&#39;Marquee&#39;: {&#39;display&#39;: &#39;ye &#160;Bye &#160;Bye &#160;Bye &#160;Bye &#160;B&#39;}, &#39;LoadFirst&#39;: 1}">
<ellipse fill="white" stroke="black" cx="37" cy="-316" rx="27" ry="18"/>
<ellipse fill="none" stroke="black" cx="37" cy="-316" rx="31" ry="22"/>
<text text-anchor="middle" x="37" y="-310.4" font-family="Times,serif" font-size="14.00">2</text>
</a>
</g>
<!-- 1&#45;&gt;2 -->
<g id="edge4" class="edge"><title>1&#45;&gt;2</title>
<a xlink:title="Shift()">
<path fill="none" stroke="black" d="M60.6507,-395.086C55.7128,-388.814 50.7353,-381.463 47.4482,-374 43.9022,-365.949 41.5597,-356.747 40.0121,-348.12"/>
<polygon fill="black" stroke="black" points="43.4384,-347.368 38.4913,-337.999 36.5161,-348.408 43.4384,-347.368"/>
</a>
<text text-anchor="middle" x="66.2759" y="-359.4" font-family="Times,serif" font-size="14.00">Shift()</text>
</g>
<!-- 3 -->
<g id="node4" class="node"><title>3</title>
<a xlink:title="{&#39;Marquee&#39;: {&#39;display&#39;: &#39;e &#160;Bye &#160;Bye &#160;Bye &#160;Bye &#160;By&#39;}, &#39;LoadFirst&#39;: 1}">
<ellipse fill="white" stroke="black" cx="31" cy="-218" rx="27" ry="18"/>
<ellipse fill="none" stroke="black" cx="31" cy="-218" rx="31" ry="22"/>
<text text-anchor="middle" x="31" y="-212.4" font-family="Times,serif" font-size="14.00">3</text>
</a>
</g>
<!-- 2&#45;&gt;3 -->
<g id="edge6" class="edge"><title>2&#45;&gt;3</title>
<a xlink:title="Shift()">
<path fill="none" stroke="black" d="M35.6684,-293.694C34.8761,-281.017 33.8561,-264.697 32.9717,-250.547"/>
<polygon fill="black" stroke="black" points="36.4449,-250.008 32.3279,-240.246 29.4586,-250.445 36.4449,-250.008"/>
</a>
<text text-anchor="middle" x="53.2759" y="-261.4" font-family="Times,serif" font-size="14.00">Shift()</text>
</g>
<!-- 4 -->
<g id="node5" class="node"><title>4</title>
<a xlink:title="{&#39;Marquee&#39;: {&#39;display&#39;: &#39; &#160;Bye &#160;Bye &#160;Bye &#160;Bye &#160;Bye&#39;}, &#39;LoadFirst&#39;: 1}">
<ellipse fill="white" stroke="black" cx="37" cy="-120" rx="27" ry="18"/>
<ellipse fill="none" stroke="black" cx="37" cy="-120" rx="31" ry="22"/>
<text text-anchor="middle" x="37" y="-114.4" font-family="Times,serif" font-size="14.00">4</text>
</a>
</g>
<!-- 3&#45;&gt;4 -->
<g id="edge8" class="edge"><title>3&#45;&gt;4</title>
<a xlink:title="Shift()">
<path fill="none" stroke="black" d="M32.3316,-195.694C33.1239,-183.017 34.1439,-166.697 35.0283,-152.547"/>
<polygon fill="black" stroke="black" points="38.5414,-152.445 35.6721,-142.246 31.5551,-152.008 38.5414,-152.445"/>
</a>
<text text-anchor="middle" x="53.2759" y="-163.4" font-family="Times,serif" font-size="14.00">Shift()</text>
</g>
<!-- 5 -->
<g id="node6" class="node"><title>5</title>
<a xlink:title="{&#39;Marquee&#39;: {&#39;display&#39;: &#39; Bye &#160;Bye &#160;Bye &#160;Bye &#160;Bye &#39;}, &#39;LoadFirst&#39;: 1}">
<ellipse fill="white" stroke="black" cx="70" cy="-22" rx="27" ry="18"/>
<ellipse fill="none" stroke="black" cx="70" cy="-22" rx="31" ry="22"/>
<text text-anchor="middle" x="70" y="-16.4" font-family="Times,serif" font-size="14.00">5</text>
</a>
</g>
<!-- 4&#45;&gt;5 -->
<g id="edge10" class="edge"><title>4&#45;&gt;5</title>
<a xlink:title="Shift()">
<path fill="none" stroke="black" d="M39.1054,-97.965C40.6357,-87.0035 43.2074,-73.5182 47.4482,-62 48.769,-58.4127 50.4075,-54.7737 52.1942,-51.2334"/>
<polygon fill="black" stroke="black" points="55.411,-52.6466 57.1535,-42.196 49.2743,-49.2789 55.411,-52.6466"/>
</a>
<text text-anchor="middle" x="66.2759" y="-65.4" font-family="Times,serif" font-size="14.00">Shift()</text>
</g>
<!-- 5&#45;&gt;1 -->
<g id="edge12" class="edge"><title>5&#45;&gt;1</title>
<a xlink:title="Shift()">
<path fill="none" stroke="black" d="M79.4795,-43.1035C87.6025,-62.1927 98,-91.9167 98,-119 98,-317 98,-317 98,-317 98,-339.312 92.5194,-363.882 87.1578,-382.579"/>
<polygon fill="black" stroke="black" points="83.7595,-381.726 84.227,-392.311 90.4621,-383.745 83.7595,-381.726"/>
</a>
<text text-anchor="middle" x="116.276" y="-212.4" font-family="Times,serif" font-size="14.00">Shift()</text>
</g>
</g>
</svg>
