<?xml version="1.0" encoding="UTF-8" standalone="no"?>
<!DOCTYPE svg PUBLIC "-//W3C//DTD SVG 1.1//EN"
 "http://www.w3.org/Graphics/SVG/1.1/DTD/svg11.dtd">
<!-- Generated by graphviz version 2.28.0 (20111028.1807)
 -->
<!-- Title: ScenariosFSM Pages: 1 -->
<svg width="326pt" height="412pt"
 viewBox="0.00 0.00 326.06 412.00" xmlns="http://www.w3.org/2000/svg" xmlns:xlink="http://www.w3.org/1999/xlink">
<g id="graph1" class="graph" transform="scale(1 1) rotate(0) translate(4 408)">
<title>ScenariosFSM</title>
<polygon fill="white" stroke="white" points="-4,5 -4,-408 323.059,-408 323.059,5 -4,5"/>
<!-- 0 -->
<g id="node1" class="node"><title>0</title>
<a xlink:title="{&#39;Scenarios&#39;: (0, 0)}">
<ellipse fill="lightgray" stroke="black" cx="31" cy="-386" rx="27" ry="18"/>
<text text-anchor="middle" x="31" y="-380.4" font-family="Times,serif" font-size="14.00">0</text>
</a>
</g>
<!-- 1 -->
<g id="node2" class="node"><title>1</title>
<a xlink:title="{&#39;Scenarios&#39;: (0, 1)}">
<ellipse fill="white" stroke="black" cx="31" cy="-296" rx="27" ry="18"/>
<text text-anchor="middle" x="31" y="-290.4" font-family="Times,serif" font-size="14.00">1</text>
</a>
</g>
<!-- 0&#45;&gt;1 -->
<g id="edge2" class="edge"><title>0&#45;&gt;1</title>
<a xlink:title="Push(1,)">
<path fill="none" stroke="black" d="M31,-367.614C31,-355.24 31,-338.369 31,-324.22"/>
<polygon fill="black" stroke="black" points="34.5001,-324.05 31,-314.05 27.5001,-324.05 34.5001,-324.05"/>
</a>
<text text-anchor="middle" x="54.5293" y="-335.4" font-family="Times,serif" font-size="14.00">Push(1,)</text>
</g>
<!-- 2 -->
<g id="node3" class="node"><title>2</title>
<a xlink:title="{&#39;Scenarios&#39;: (0, 2)}">
<ellipse fill="white" stroke="black" cx="31" cy="-206" rx="27" ry="18"/>
<text text-anchor="middle" x="31" y="-200.4" font-family="Times,serif" font-size="14.00">2</text>
</a>
</g>
<!-- 1&#45;&gt;2 -->
<g id="edge4" class="edge"><title>1&#45;&gt;2</title>
<a xlink:title="Push(2,)">
<path fill="none" stroke="black" d="M31,-277.614C31,-265.24 31,-248.369 31,-234.22"/>
<polygon fill="black" stroke="black" points="34.5001,-234.05 31,-224.05 27.5001,-234.05 34.5001,-234.05"/>
</a>
<text text-anchor="middle" x="54.5293" y="-245.4" font-family="Times,serif" font-size="14.00">Push(2,)</text>
</g>
<!-- 3 -->
<g id="node4" class="node"><title>3</title>
<a xlink:title="{&#39;Scenarios&#39;: (0, 3)}">
<ellipse fill="white" stroke="black" cx="31" cy="-116" rx="27" ry="18"/>
<text text-anchor="middle" x="31" y="-110.4" font-family="Times,serif" font-size="14.00">3</text>
</a>
</g>
<!-- 2&#45;&gt;3 -->
<g id="edge6" class="edge"><title>2&#45;&gt;3</title>
<a xlink:title="Pop(2,)">
<path fill="none" stroke="black" d="M31,-187.614C31,-175.24 31,-158.369 31,-144.22"/>
<polygon fill="black" stroke="black" points="34.5001,-144.05 31,-134.05 27.5001,-144.05 34.5001,-144.05"/>
</a>
<text text-anchor="middle" x="51.8052" y="-155.4" font-family="Times,serif" font-size="14.00">Pop(2,)</text>
</g>
<!-- 4 -->
<g id="node5" class="node"><title>4</title>
<a xlink:title="{&#39;Scenarios&#39;: (0, 4)}">
<ellipse fill="lightgreen" stroke="black" cx="31" cy="-22" rx="27" ry="18"/>
<ellipse fill="none" stroke="black" cx="31" cy="-22" rx="31" ry="22"/>
<text text-anchor="middle" x="31" y="-16.4" font-family="Times,serif" font-size="14.00">4</text>
</a>
</g>
<!-- 3&#45;&gt;4 -->
<g id="edge8" class="edge"><title>3&#45;&gt;4</title>
<a xlink:title="Pop(1,)">
<path fill="none" stroke="black" d="M31,-97.6955C31,-85.4651 31,-68.7287 31,-54.1979"/>
<polygon fill="black" stroke="black" points="34.5001,-54.103 31,-44.1031 27.5001,-54.1031 34.5001,-54.103"/>
</a>
<text text-anchor="middle" x="51.8052" y="-65.4" font-family="Times,serif" font-size="14.00">Pop(1,)</text>
</g>
<!-- 5 -->
<g id="node6" class="node"><title>5</title>
<a xlink:title="{&#39;Scenarios&#39;: (1, 0)}">
<ellipse fill="lightgray" stroke="black" cx="111" cy="-386" rx="27" ry="18"/>
<text text-anchor="middle" x="111" y="-380.4" font-family="Times,serif" font-size="14.00">5</text>
</a>
</g>
<!-- 6 -->
<g id="node7" class="node"><title>6</title>
<a xlink:title="{&#39;Scenarios&#39;: (1, 1)}">
<ellipse fill="white" stroke="black" cx="111" cy="-296" rx="27" ry="18"/>
<text text-anchor="middle" x="111" y="-290.4" font-family="Times,serif" font-size="14.00">6</text>
</a>
</g>
<!-- 5&#45;&gt;6 -->
<g id="edge10" class="edge"><title>5&#45;&gt;6</title>
<a xlink:title="Push(1,)">
<path fill="none" stroke="black" d="M111,-367.614C111,-355.24 111,-338.369 111,-324.22"/>
<polygon fill="black" stroke="black" points="114.5,-324.05 111,-314.05 107.5,-324.05 114.5,-324.05"/>
</a>
<text text-anchor="middle" x="134.529" y="-335.4" font-family="Times,serif" font-size="14.00">Push(1,)</text>
</g>
<!-- 7 -->
<g id="node8" class="node"><title>7</title>
<a xlink:title="{&#39;Scenarios&#39;: (1, 2)}">
<ellipse fill="white" stroke="black" cx="111" cy="-206" rx="27" ry="18"/>
<text text-anchor="middle" x="111" y="-200.4" font-family="Times,serif" font-size="14.00">7</text>
</a>
</g>
<!-- 6&#45;&gt;7 -->
<g id="edge12" class="edge"><title>6&#45;&gt;7</title>
<a xlink:title="Push(2,)">
<path fill="none" stroke="black" d="M111,-277.614C111,-265.24 111,-248.369 111,-234.22"/>
<polygon fill="black" stroke="black" points="114.5,-234.05 111,-224.05 107.5,-234.05 114.5,-234.05"/>
</a>
<text text-anchor="middle" x="134.529" y="-245.4" font-family="Times,serif" font-size="14.00">Push(2,)</text>
</g>
<!-- 8 -->
<g id="node9" class="node"><title>8</title>
<a xlink:title="{&#39;Scenarios&#39;: (1, 3)}">
<ellipse fill="white" stroke="black" cx="111" cy="-116" rx="27" ry="18"/>
<text text-anchor="middle" x="111" y="-110.4" font-family="Times,serif" font-size="14.00">8</text>
</a>
</g>
<!-- 7&#45;&gt;8 -->
<g id="edge14" class="edge"><title>7&#45;&gt;8</title>
<a xlink:title="Pop(1,)">
<path fill="none" stroke="black" d="M111,-187.614C111,-175.24 111,-158.369 111,-144.22"/>
<polygon fill="black" stroke="black" points="114.5,-144.05 111,-134.05 107.5,-144.05 114.5,-144.05"/>
</a>
<text text-anchor="middle" x="131.805" y="-155.4" font-family="Times,serif" font-size="14.00">Pop(1,)</text>
</g>
<!-- 9 -->
<g id="node10" class="node"><title>9</title>
<a xlink:title="{&#39;Scenarios&#39;: (1, 4)}">
<ellipse fill="lightgreen" stroke="black" cx="111" cy="-22" rx="27" ry="18"/>
<ellipse fill="none" stroke="black" cx="111" cy="-22" rx="31" ry="22"/>
<text text-anchor="middle" x="111" y="-16.4" font-family="Times,serif" font-size="14.00">9</text>
</a>
</g>
<!-- 8&#45;&gt;9 -->
<g id="edge16" class="edge"><title>8&#45;&gt;9</title>
<a xlink:title="Pop(2,)">
<path fill="none" stroke="black" d="M111,-97.6955C111,-85.4651 111,-68.7287 111,-54.1979"/>
<polygon fill="black" stroke="black" points="114.5,-54.103 111,-44.1031 107.5,-54.1031 114.5,-54.103"/>
</a>
<text text-anchor="middle" x="131.805" y="-65.4" font-family="Times,serif" font-size="14.00">Pop(2,)</text>
</g>
<!-- 10 -->
<g id="node11" class="node"><title>10</title>
<a xlink:title="{&#39;Scenarios&#39;: (2, 0)}">
<ellipse fill="lightgray" stroke="black" cx="191" cy="-386" rx="27" ry="18"/>
<text text-anchor="middle" x="191" y="-380.4" font-family="Times,serif" font-size="14.00">10</text>
</a>
</g>
<!-- 11 -->
<g id="node12" class="node"><title>11</title>
<a xlink:title="{&#39;Scenarios&#39;: (2, 1)}">
<ellipse fill="white" stroke="black" cx="191" cy="-296" rx="27" ry="18"/>
<text text-anchor="middle" x="191" y="-290.4" font-family="Times,serif" font-size="14.00">11</text>
</a>
</g>
<!-- 10&#45;&gt;11 -->
<g id="edge18" class="edge"><title>10&#45;&gt;11</title>
<a xlink:title="Push(1,)">
<path fill="none" stroke="black" d="M191,-367.614C191,-355.24 191,-338.369 191,-324.22"/>
<polygon fill="black" stroke="black" points="194.5,-324.05 191,-314.05 187.5,-324.05 194.5,-324.05"/>
</a>
<text text-anchor="middle" x="214.529" y="-335.4" font-family="Times,serif" font-size="14.00">Push(1,)</text>
</g>
<!-- 12 -->
<g id="node13" class="node"><title>12</title>
<a xlink:title="{&#39;Scenarios&#39;: (2, 2)}">
<ellipse fill="white" stroke="black" cx="191" cy="-206" rx="27" ry="18"/>
<text text-anchor="middle" x="191" y="-200.4" font-family="Times,serif" font-size="14.00">12</text>
</a>
</g>
<!-- 11&#45;&gt;12 -->
<g id="edge20" class="edge"><title>11&#45;&gt;12</title>
<a xlink:title="Push(3,)">
<path fill="none" stroke="black" d="M191,-277.614C191,-265.24 191,-248.369 191,-234.22"/>
<polygon fill="black" stroke="black" points="194.5,-234.05 191,-224.05 187.5,-234.05 194.5,-234.05"/>
</a>
<text text-anchor="middle" x="214.529" y="-245.4" font-family="Times,serif" font-size="14.00">Push(3,)</text>
</g>
<!-- 13 -->
<g id="node14" class="node"><title>13</title>
<a xlink:title="{&#39;Scenarios&#39;: (2, 3)}">
<ellipse fill="white" stroke="black" cx="191" cy="-116" rx="27" ry="18"/>
<text text-anchor="middle" x="191" y="-110.4" font-family="Times,serif" font-size="14.00">13</text>
</a>
</g>
<!-- 12&#45;&gt;13 -->
<g id="edge22" class="edge"><title>12&#45;&gt;13</title>
<a xlink:title="Pop(3,)">
<path fill="none" stroke="black" d="M191,-187.614C191,-175.24 191,-158.369 191,-144.22"/>
<polygon fill="black" stroke="black" points="194.5,-144.05 191,-134.05 187.5,-144.05 194.5,-144.05"/>
</a>
<text text-anchor="middle" x="211.805" y="-155.4" font-family="Times,serif" font-size="14.00">Pop(3,)</text>
</g>
<!-- 14 -->
<g id="node15" class="node"><title>14</title>
<a xlink:title="{&#39;Scenarios&#39;: (2, 4)}">
<ellipse fill="lightgreen" stroke="black" cx="191" cy="-22" rx="27" ry="18"/>
<ellipse fill="none" stroke="black" cx="191" cy="-22" rx="31" ry="22"/>
<text text-anchor="middle" x="191" y="-16.4" font-family="Times,serif" font-size="14.00">14</text>
</a>
</g>
<!-- 13&#45;&gt;14 -->
<g id="edge24" class="edge"><title>13&#45;&gt;14</title>
<a xlink:title="Pop(1,)">
<path fill="none" stroke="black" d="M191,-97.6955C191,-85.4651 191,-68.7287 191,-54.1979"/>
<polygon fill="black" stroke="black" points="194.5,-54.103 191,-44.1031 187.5,-54.1031 194.5,-54.103"/>
</a>
<text text-anchor="middle" x="211.805" y="-65.4" font-family="Times,serif" font-size="14.00">Pop(1,)</text>
</g>
<!-- 15 -->
<g id="node16" class="node"><title>15</title>
<a xlink:title="{&#39;Scenarios&#39;: (3, 0)}">
<ellipse fill="lightgray" stroke="black" cx="271" cy="-386" rx="27" ry="18"/>
<text text-anchor="middle" x="271" y="-380.4" font-family="Times,serif" font-size="14.00">15</text>
</a>
</g>
<!-- 16 -->
<g id="node17" class="node"><title>16</title>
<a xlink:title="{&#39;Scenarios&#39;: (3, 1)}">
<ellipse fill="white" stroke="black" cx="271" cy="-296" rx="27" ry="18"/>
<text text-anchor="middle" x="271" y="-290.4" font-family="Times,serif" font-size="14.00">16</text>
</a>
</g>
<!-- 15&#45;&gt;16 -->
<g id="edge26" class="edge"><title>15&#45;&gt;16</title>
<a xlink:title="Pop(2,)">
<path fill="none" stroke="black" d="M271,-367.614C271,-355.24 271,-338.369 271,-324.22"/>
<polygon fill="black" stroke="black" points="274.5,-324.05 271,-314.05 267.5,-324.05 274.5,-324.05"/>
</a>
<text text-anchor="middle" x="291.805" y="-335.4" font-family="Times,serif" font-size="14.00">Pop(2,)</text>
</g>
<!-- 17 -->
<g id="node18" class="node"><title>17</title>
<a xlink:title="{&#39;Scenarios&#39;: (3, 2)}">
<ellipse fill="white" stroke="black" cx="271" cy="-206" rx="27" ry="18"/>
<text text-anchor="middle" x="271" y="-200.4" font-family="Times,serif" font-size="14.00">17</text>
</a>
</g>
<!-- 16&#45;&gt;17 -->
<g id="edge28" class="edge"><title>16&#45;&gt;17</title>
<a xlink:title="Pop(1,)">
<path fill="none" stroke="black" d="M271,-277.614C271,-265.24 271,-248.369 271,-234.22"/>
<polygon fill="black" stroke="black" points="274.5,-234.05 271,-224.05 267.5,-234.05 274.5,-234.05"/>
</a>
<text text-anchor="middle" x="291.805" y="-245.4" font-family="Times,serif" font-size="14.00">Pop(1,)</text>
</g>
<!-- 18 -->
<g id="node19" class="node"><title>18</title>
<a xlink:title="{&#39;Scenarios&#39;: (3, 3)}">
<ellipse fill="white" stroke="black" cx="271" cy="-116" rx="27" ry="18"/>
<text text-anchor="middle" x="271" y="-110.4" font-family="Times,serif" font-size="14.00">18</text>
</a>
</g>
<!-- 17&#45;&gt;18 -->
<g id="edge30" class="edge"><title>17&#45;&gt;18</title>
<a xlink:title="Push(1,)">
<path fill="none" stroke="black" d="M271,-187.614C271,-175.24 271,-158.369 271,-144.22"/>
<polygon fill="black" stroke="black" points="274.5,-144.05 271,-134.05 267.5,-144.05 274.5,-144.05"/>
</a>
<text text-anchor="middle" x="294.529" y="-155.4" font-family="Times,serif" font-size="14.00">Push(1,)</text>
</g>
<!-- 19 -->
<g id="node20" class="node"><title>19</title>
<a xlink:title="{&#39;Scenarios&#39;: (3, 4)}">
<ellipse fill="lightgreen" stroke="black" cx="271" cy="-22" rx="27" ry="18"/>
<ellipse fill="none" stroke="black" cx="271" cy="-22" rx="31" ry="22"/>
<text text-anchor="middle" x="271" y="-16.4" font-family="Times,serif" font-size="14.00">19</text>
</a>
</g>
<!-- 18&#45;&gt;19 -->
<g id="edge32" class="edge"><title>18&#45;&gt;19</title>
<a xlink:title="Push(2,)">
<path fill="none" stroke="black" d="M271,-97.6955C271,-85.4651 271,-68.7287 271,-54.1979"/>
<polygon fill="black" stroke="black" points="274.5,-54.103 271,-44.1031 267.5,-54.1031 274.5,-54.103"/>
</a>
<text text-anchor="middle" x="294.529" y="-65.4" font-family="Times,serif" font-size="14.00">Push(2,)</text>
</g>
</g>
</svg>
