<?xml version="1.0" encoding="UTF-8" standalone="no"?>
<!DOCTYPE svg PUBLIC "-//W3C//DTD SVG 1.1//EN"
 "http://www.w3.org/Graphics/SVG/1.1/DTD/svg11.dtd">
<!-- Generated by graphviz version 2.28.0 (20111028.1807)
 -->
<!-- Title: StackSynchronized Pages: 1 -->
<svg width="98pt" height="346pt"
 viewBox="0.00 0.00 98.26 346.00" xmlns="http://www.w3.org/2000/svg" xmlns:xlink="http://www.w3.org/1999/xlink">
<g id="graph1" class="graph" transform="scale(1 1) rotate(0) translate(4 342)">
<title>StackSynchronized</title>
<polygon fill="white" stroke="white" points="-4,5 -4,-342 95.2569,-342 95.2569,5 -4,5"/>
<!-- 0 -->
<g id="node1" class="node"><title>0</title>
<a xlink:title="{&#39;StackOneScenario&#39;: 0, &#39;Stack&#39;: {&#39;stack&#39;: []}}">
<ellipse fill="lightgray" stroke="black" cx="35.6465" cy="-316" rx="27" ry="18"/>
<ellipse fill="none" stroke="black" cx="35.6465" cy="-316" rx="31" ry="22"/>
<text text-anchor="middle" x="35.6465" y="-310.4" font-family="Times,serif" font-size="14.00">0</text>
</a>
</g>
<!-- 1 -->
<g id="node2" class="node"><title>1</title>
<a xlink:title="{&#39;StackOneScenario&#39;: 0, &#39;Stack&#39;: {&#39;stack&#39;: [1]}}">
<ellipse fill="white" stroke="black" cx="35.6465" cy="-218" rx="27" ry="18"/>
<ellipse fill="none" stroke="black" cx="35.6465" cy="-218" rx="31" ry="22"/>
<text text-anchor="middle" x="35.6465" y="-212.4" font-family="Times,serif" font-size="14.00">1</text>
</a>
</g>
<!-- 0&#45;&gt;1 -->
<g id="edge2" class="edge"><title>0&#45;&gt;1</title>
<a xlink:title="Push(1,)">
<path fill="none" stroke="black" d="M16.6363,-298.58C10.6333,-292.208 4.74564,-284.416 1.58793,-276 -2.65132,-264.701 2.27215,-253.111 9.57334,-243.358"/>
<polygon fill="black" stroke="black" points="12.3171,-245.534 16.1166,-235.644 6.97886,-241.006 12.3171,-245.534"/>
</a>
<text text-anchor="middle" x="25.1758" y="-261.4" font-family="Times,serif" font-size="14.00">Push(1,)</text>
</g>
<!-- 1&#45;&gt;0 -->
<g id="edge6" class="edge"><title>1&#45;&gt;0</title>
<a xlink:title="Pop(1,)">
<path fill="none" stroke="black" d="M43.7944,-239.333C45.79,-245.255 47.6405,-251.8 48.6465,-258 49.928,-265.897 49.928,-268.103 48.6465,-276 48.1749,-278.906 47.5178,-281.888 46.7472,-284.846"/>
<polygon fill="black" stroke="black" points="43.3221,-284.082 43.7944,-294.667 50.0257,-286.098 43.3221,-284.082"/>
</a>
<text text-anchor="middle" x="69.4517" y="-261.4" font-family="Times,serif" font-size="14.00">Pop(1,)</text>
</g>
<!-- 2 -->
<g id="node3" class="node"><title>2</title>
<a xlink:title="{&#39;StackOneScenario&#39;: 0, &#39;Stack&#39;: {&#39;stack&#39;: [1, 1]}}">
<ellipse fill="white" stroke="black" cx="35.6465" cy="-120" rx="27" ry="18"/>
<ellipse fill="none" stroke="black" cx="35.6465" cy="-120" rx="31" ry="22"/>
<text text-anchor="middle" x="35.6465" y="-114.4" font-family="Times,serif" font-size="14.00">2</text>
</a>
</g>
<!-- 1&#45;&gt;2 -->
<g id="edge4" class="edge"><title>1&#45;&gt;2</title>
<a xlink:title="Push(1,)">
<path fill="none" stroke="black" d="M16.6363,-200.58C10.6333,-194.208 4.74564,-186.416 1.58793,-178 -2.65132,-166.701 2.27215,-155.111 9.57334,-145.358"/>
<polygon fill="black" stroke="black" points="12.3171,-147.534 16.1166,-137.644 6.97886,-143.006 12.3171,-147.534"/>
</a>
<text text-anchor="middle" x="25.1758" y="-163.4" font-family="Times,serif" font-size="14.00">Push(1,)</text>
</g>
<!-- 2&#45;&gt;1 -->
<g id="edge10" class="edge"><title>2&#45;&gt;1</title>
<a xlink:title="Pop(1,)">
<path fill="none" stroke="black" d="M43.7944,-141.333C45.79,-147.255 47.6405,-153.8 48.6465,-160 49.928,-167.897 49.928,-170.103 48.6465,-178 48.1749,-180.906 47.5178,-183.888 46.7472,-186.846"/>
<polygon fill="black" stroke="black" points="43.3221,-186.082 43.7944,-196.667 50.0257,-188.098 43.3221,-186.082"/>
</a>
<text text-anchor="middle" x="69.4517" y="-163.4" font-family="Times,serif" font-size="14.00">Pop(1,)</text>
</g>
<!-- 3 -->
<g id="node4" class="node"><title>3</title>
<a xlink:title="{&#39;StackOneScenario&#39;: 0, &#39;Stack&#39;: {&#39;stack&#39;: [1, 1, 1]}}">
<ellipse fill="white" stroke="black" cx="35.6465" cy="-22" rx="27" ry="18"/>
<ellipse fill="none" stroke="black" cx="35.6465" cy="-22" rx="31" ry="22"/>
<text text-anchor="middle" x="35.6465" y="-16.4" font-family="Times,serif" font-size="14.00">3</text>
</a>
</g>
<!-- 2&#45;&gt;3 -->
<g id="edge8" class="edge"><title>2&#45;&gt;3</title>
<a xlink:title="Push(1,)">
<path fill="none" stroke="black" d="M16.6363,-102.58C10.6333,-96.2084 4.74564,-88.4164 1.58793,-80 -2.65132,-68.7009 2.27215,-57.111 9.57334,-47.3577"/>
<polygon fill="black" stroke="black" points="12.3171,-49.5336 16.1166,-39.6435 6.97886,-45.0056 12.3171,-49.5336"/>
</a>
<text text-anchor="middle" x="25.1758" y="-65.4" font-family="Times,serif" font-size="14.00">Push(1,)</text>
</g>
<!-- 3&#45;&gt;2 -->
<g id="edge12" class="edge"><title>3&#45;&gt;2</title>
<a xlink:title="Pop(1,)">
<path fill="none" stroke="black" d="M43.7944,-43.3333C45.79,-49.2547 47.6405,-55.8005 48.6465,-62 49.928,-69.8967 49.928,-72.1033 48.6465,-80 48.1749,-82.906 47.5178,-85.8881 46.7472,-88.8463"/>
<polygon fill="black" stroke="black" points="43.3221,-88.0824 43.7944,-98.6667 50.0257,-90.098 43.3221,-88.0824"/>
</a>
<text text-anchor="middle" x="69.4517" y="-65.4" font-family="Times,serif" font-size="14.00">Pop(1,)</text>
</g>
</g>
</svg>
