<?xml version="1.0" encoding="UTF-8" standalone="no"?>
<!DOCTYPE svg PUBLIC "-//W3C//DTD SVG 1.1//EN"
 "http://www.w3.org/Graphics/SVG/1.1/DTD/svg11.dtd">
<!-- Generated by graphviz version 2.28.0 (20111028.1807)
 -->
<!-- Title: StackFSM Pages: 1 -->
<svg width="422pt" height="346pt"
 viewBox="0.00 0.00 422.06 346.00" xmlns="http://www.w3.org/2000/svg" xmlns:xlink="http://www.w3.org/1999/xlink">
<g id="graph1" class="graph" transform="scale(1 1) rotate(0) translate(4 342)">
<title>StackFSM</title>
<polygon fill="white" stroke="white" points="-4,5 -4,-342 419.059,-342 419.059,5 -4,5"/>
<!-- 0 -->
<g id="node1" class="node"><title>0</title>
<a xlink:title="{&#39;Stack&#39;: {&#39;stack&#39;: []}}">
<ellipse fill="lightgray" stroke="black" cx="212" cy="-316" rx="27" ry="18"/>
<ellipse fill="none" stroke="black" cx="212" cy="-316" rx="31" ry="22"/>
<text text-anchor="middle" x="212" y="-310.4" font-family="Times,serif" font-size="14.00">0</text>
</a>
</g>
<!-- 1 -->
<g id="node2" class="node"><title>1</title>
<a xlink:title="{&#39;Stack&#39;: {&#39;stack&#39;: [2]}}">
<ellipse fill="white" stroke="black" cx="140" cy="-218" rx="27" ry="18"/>
<ellipse fill="none" stroke="black" cx="140" cy="-218" rx="31" ry="22"/>
<text text-anchor="middle" x="140" y="-212.4" font-family="Times,serif" font-size="14.00">1</text>
</a>
</g>
<!-- 0&#45;&gt;1 -->
<g id="edge2" class="edge"><title>0&#45;&gt;1</title>
<a xlink:title="Push(2,)">
<path fill="none" stroke="black" d="M181.144,-312.208C157.58,-308.272 126.579,-298.797 110.941,-276 104.05,-265.954 108.398,-254.053 115.619,-243.731"/>
<polygon fill="black" stroke="black" points="118.392,-245.866 121.866,-235.857 112.909,-241.515 118.392,-245.866"/>
</a>
<text text-anchor="middle" x="134.529" y="-261.4" font-family="Times,serif" font-size="14.00">Push(2,)</text>
</g>
<!-- 2 -->
<g id="node3" class="node"><title>2</title>
<a xlink:title="{&#39;Stack&#39;: {&#39;stack&#39;: [1]}}">
<ellipse fill="white" stroke="black" cx="307" cy="-218" rx="27" ry="18"/>
<ellipse fill="none" stroke="black" cx="307" cy="-218" rx="31" ry="22"/>
<text text-anchor="middle" x="307" y="-212.4" font-family="Times,serif" font-size="14.00">2</text>
</a>
</g>
<!-- 0&#45;&gt;2 -->
<g id="edge4" class="edge"><title>0&#45;&gt;2</title>
<a xlink:title="Push(1,)">
<path fill="none" stroke="black" d="M221.138,-294.711C227.064,-283.059 235.601,-268.669 245.941,-258 253.917,-249.771 263.949,-242.459 273.564,-236.454"/>
<polygon fill="black" stroke="black" points="275.398,-239.436 282.206,-231.318 271.822,-233.419 275.398,-239.436"/>
</a>
<text text-anchor="middle" x="269.529" y="-261.4" font-family="Times,serif" font-size="14.00">Push(1,)</text>
</g>
<!-- 1&#45;&gt;0 -->
<g id="edge6" class="edge"><title>1&#45;&gt;0</title>
<a xlink:title="Pop(2,)">
<path fill="none" stroke="black" d="M153.433,-237.87C161.448,-249.035 171.883,-263.41 181.39,-276 184.408,-279.997 187.635,-284.192 190.821,-288.288"/>
<polygon fill="black" stroke="black" points="188.301,-290.747 197.221,-296.463 193.812,-286.431 188.301,-290.747"/>
</a>
<text text-anchor="middle" x="202.805" y="-261.4" font-family="Times,serif" font-size="14.00">Pop(2,)</text>
</g>
<!-- 3 -->
<g id="node4" class="node"><title>3</title>
<a xlink:title="{&#39;Stack&#39;: {&#39;stack&#39;: [2, 2]}}">
<ellipse fill="white" stroke="black" cx="97" cy="-120" rx="27" ry="18"/>
<ellipse fill="none" stroke="black" cx="97" cy="-120" rx="31" ry="22"/>
<text text-anchor="middle" x="97" y="-114.4" font-family="Times,serif" font-size="14.00">3</text>
</a>
</g>
<!-- 1&#45;&gt;3 -->
<g id="edge8" class="edge"><title>1&#45;&gt;3</title>
<a xlink:title="Push(2,)">
<path fill="none" stroke="black" d="M111.781,-208.776C96.8215,-202.818 79.7567,-193.102 70.9414,-178 65.2141,-168.188 68.4937,-156.898 74.3858,-146.967"/>
<polygon fill="black" stroke="black" points="77.3113,-148.89 80.0755,-138.662 71.5364,-144.934 77.3113,-148.89"/>
</a>
<text text-anchor="middle" x="94.5293" y="-163.4" font-family="Times,serif" font-size="14.00">Push(2,)</text>
</g>
<!-- 4 -->
<g id="node5" class="node"><title>4</title>
<a xlink:title="{&#39;Stack&#39;: {&#39;stack&#39;: [1, 2]}}">
<ellipse fill="orange" stroke="black" cx="205" cy="-120" rx="27" ry="18"/>
<ellipse fill="none" stroke="black" cx="205" cy="-120" rx="31" ry="22"/>
<text text-anchor="middle" x="205" y="-114.4" font-family="Times,serif" font-size="14.00">4</text>
</a>
</g>
<!-- 1&#45;&gt;4 -->
<g id="edge10" class="edge"><title>1&#45;&gt;4</title>
<a xlink:title="Push(1,)">
<path fill="none" stroke="black" d="M155.342,-198.739C160.509,-192.323 166.181,-184.973 171,-178 177.24,-168.971 183.543,-158.77 188.999,-149.519"/>
<polygon fill="black" stroke="black" points="192.146,-151.069 194.138,-140.663 186.092,-147.556 192.146,-151.069"/>
</a>
<text text-anchor="middle" x="205.529" y="-163.4" font-family="Times,serif" font-size="14.00">Push(1,)</text>
</g>
<!-- 2&#45;&gt;0 -->
<g id="edge16" class="edge"><title>2&#45;&gt;0</title>
<a xlink:title="Pop(1,)">
<path fill="none" stroke="black" d="M306.128,-240.178C304.661,-251.842 301.152,-265.949 293,-276 282.273,-289.225 265.978,-298.261 250.808,-304.277"/>
<polygon fill="black" stroke="black" points="249.28,-301.108 241.072,-307.807 251.666,-307.688 249.28,-301.108"/>
</a>
<text text-anchor="middle" x="322.805" y="-261.4" font-family="Times,serif" font-size="14.00">Pop(1,)</text>
</g>
<!-- 5 -->
<g id="node6" class="node"><title>5</title>
<a xlink:title="{&#39;Stack&#39;: {&#39;stack&#39;: [2, 1]}}">
<ellipse fill="orange" stroke="black" cx="300" cy="-120" rx="27" ry="18"/>
<ellipse fill="none" stroke="black" cx="300" cy="-120" rx="31" ry="22"/>
<text text-anchor="middle" x="300" y="-114.4" font-family="Times,serif" font-size="14.00">5</text>
</a>
</g>
<!-- 2&#45;&gt;5 -->
<g id="edge12" class="edge"><title>2&#45;&gt;5</title>
<a xlink:title="Push(2,)">
<path fill="none" stroke="black" d="M305.446,-195.694C304.522,-183.017 303.332,-166.697 302.3,-152.547"/>
<polygon fill="black" stroke="black" points="305.767,-151.965 301.549,-142.246 298.786,-152.474 305.767,-151.965"/>
</a>
<text text-anchor="middle" x="328.529" y="-163.4" font-family="Times,serif" font-size="14.00">Push(2,)</text>
</g>
<!-- 6 -->
<g id="node7" class="node"><title>6</title>
<a xlink:title="{&#39;Stack&#39;: {&#39;stack&#39;: [1, 1]}}">
<ellipse fill="orange" stroke="black" cx="380" cy="-120" rx="27" ry="18"/>
<ellipse fill="none" stroke="black" cx="380" cy="-120" rx="31" ry="22"/>
<text text-anchor="middle" x="380" y="-114.4" font-family="Times,serif" font-size="14.00">6</text>
</a>
</g>
<!-- 2&#45;&gt;6 -->
<g id="edge14" class="edge"><title>2&#45;&gt;6</title>
<a xlink:title="Push(1,)">
<path fill="none" stroke="black" d="M329.585,-202.714C338.713,-196.073 348.776,-187.532 356,-178 362.001,-170.082 366.8,-160.441 370.481,-151.357"/>
<polygon fill="black" stroke="black" points="373.82,-152.419 374.041,-141.827 367.263,-149.97 373.82,-152.419"/>
</a>
<text text-anchor="middle" x="390.529" y="-163.4" font-family="Times,serif" font-size="14.00">Push(1,)</text>
</g>
<!-- 3&#45;&gt;1 -->
<g id="edge18" class="edge"><title>3&#45;&gt;1</title>
<a xlink:title="Pop(2,)">
<path fill="none" stroke="black" d="M108.173,-140.596C111.5,-146.728 115.043,-153.573 118,-160 121.962,-168.612 125.838,-178.158 129.207,-186.935"/>
<polygon fill="black" stroke="black" points="125.979,-188.297 132.771,-196.429 132.533,-185.837 125.979,-188.297"/>
</a>
<text text-anchor="middle" x="146.805" y="-163.4" font-family="Times,serif" font-size="14.00">Pop(2,)</text>
</g>
<!-- 7 -->
<g id="node8" class="node"><title>7</title>
<a xlink:title="{&#39;Stack&#39;: {&#39;stack&#39;: [2, 2, 2]}}">
<ellipse fill="orange" stroke="black" cx="31" cy="-22" rx="27" ry="18"/>
<ellipse fill="none" stroke="black" cx="31" cy="-22" rx="31" ry="22"/>
<text text-anchor="middle" x="31" y="-16.4" font-family="Times,serif" font-size="14.00">7</text>
</a>
</g>
<!-- 3&#45;&gt;7 -->
<g id="edge20" class="edge"><title>3&#45;&gt;7</title>
<a xlink:title="Push(2,)">
<path fill="none" stroke="black" d="M75.1413,-103.814C66.9731,-97.259 58.1763,-89.0219 51.9414,-80 46.4979,-72.1232 42.281,-62.6612 39.1056,-53.7302"/>
<polygon fill="black" stroke="black" points="42.3612,-52.4225 35.9531,-43.9853 35.701,-54.5771 42.3612,-52.4225"/>
</a>
<text text-anchor="middle" x="75.5293" y="-65.4" font-family="Times,serif" font-size="14.00">Push(2,)</text>
</g>
<!-- 8 -->
<g id="node9" class="node"><title>8</title>
<a xlink:title="{&#39;Stack&#39;: {&#39;stack&#39;: [1, 2, 2]}}">
<ellipse fill="orange" stroke="black" cx="111" cy="-22" rx="27" ry="18"/>
<ellipse fill="none" stroke="black" cx="111" cy="-22" rx="31" ry="22"/>
<text text-anchor="middle" x="111" y="-16.4" font-family="Times,serif" font-size="14.00">8</text>
</a>
</g>
<!-- 3&#45;&gt;8 -->
<g id="edge22" class="edge"><title>3&#45;&gt;8</title>
<a xlink:title="Push(1,)">
<path fill="none" stroke="black" d="M100.107,-97.6945C101.987,-84.8039 104.416,-68.1472 106.503,-53.8352"/>
<polygon fill="black" stroke="black" points="109.97,-54.3161 107.95,-43.9157 103.043,-53.3059 109.97,-54.3161"/>
</a>
<text text-anchor="middle" x="129.529" y="-65.4" font-family="Times,serif" font-size="14.00">Push(1,)</text>
</g>
<!-- 9 -->
<g id="node10" class="node"><title>9</title>
<a xlink:title="{&#39;Stack&#39;: {&#39;stack&#39;: [2, 1, 2]}}">
<ellipse fill="orange" stroke="black" cx="205" cy="-22" rx="27" ry="18"/>
<ellipse fill="none" stroke="black" cx="205" cy="-22" rx="31" ry="22"/>
<text text-anchor="middle" x="205" y="-16.4" font-family="Times,serif" font-size="14.00">9</text>
</a>
</g>
<!-- 4&#45;&gt;9 -->
<g id="edge24" class="edge"><title>4&#45;&gt;9</title>
<a xlink:title="Push(2,)">
<path fill="none" stroke="black" d="M205,-97.6945C205,-85.0171 205,-68.6971 205,-54.5472"/>
<polygon fill="black" stroke="black" points="208.5,-54.2459 205,-44.246 201.5,-54.246 208.5,-54.2459"/>
</a>
<text text-anchor="middle" x="228.529" y="-65.4" font-family="Times,serif" font-size="14.00">Push(2,)</text>
</g>
</g>
</svg>
