<?xml version="1.0" encoding="UTF-8" standalone="no"?>
<!DOCTYPE svg PUBLIC "-//W3C//DTD SVG 1.1//EN"
 "http://www.w3.org/Graphics/SVG/1.1/DTD/svg11.dtd">
<!-- Generated by graphviz version 2.28.0 (20111028.1807)
 -->
<!-- Title: StackOneScenario Pages: 1 -->
<svg width="194pt" height="52pt"
 viewBox="0.00 0.00 194.00 52.00" xmlns="http://www.w3.org/2000/svg" xmlns:xlink="http://www.w3.org/1999/xlink">
<g id="graph1" class="graph" transform="scale(1 1) rotate(0) translate(4 48)">
<title>StackOneScenario</title>
<polygon fill="white" stroke="white" points="-4,5 -4,-48 191,-48 191,5 -4,5"/>
<!-- 0 -->
<g id="node1" class="node"><title>0</title>
<ellipse fill="lightgray" stroke="black" cx="31" cy="-22" rx="27" ry="18"/>
<ellipse fill="none" stroke="black" cx="31" cy="-22" rx="31" ry="22"/>
<text text-anchor="middle" x="31" y="-16.4" font-family="Times,serif" font-size="14.00">0</text>
</g>
<!-- 0&#45;&gt;0 -->
<g id="edge2" class="edge"><title>0&#45;&gt;0</title>
<a xlink:title="Push(1,)">
<path fill="none" stroke="black" d="M61.625,-26.125C71.8333,-26.125 80,-24.75 80,-22 80,-20.2812 76.8099,-19.0996 71.925,-18.4551"/>
<polygon fill="black" stroke="black" points="71.806,-14.9429 61.625,-17.875 71.4123,-21.9318 71.806,-14.9429"/>
</a>
<text text-anchor="middle" x="103.529" y="-16.4" font-family="Times,serif" font-size="14.00">Push(1,)</text>
</g>
<!-- 0&#45;&gt;0 -->
<g id="edge4" class="edge"><title>0&#45;&gt;0</title>
<a xlink:title="Pop(1,)">
<path fill="none" stroke="black" d="M56.3771,-34.801C86.4476,-42.8178 127.059,-38.5508 127.059,-22 127.059,-7.19481 94.5622,-2.21893 66.1833,-7.07237"/>
<polygon fill="black" stroke="black" points="65.4081,-3.65904 56.3771,-9.19901 66.8917,-10.5 65.4081,-3.65904"/>
</a>
<text text-anchor="middle" x="147.864" y="-16.4" font-family="Times,serif" font-size="14.00">Pop(1,)</text>
</g>
</g>
</svg>
