<?xml version="1.0" encoding="UTF-8" standalone="no"?>
<!DOCTYPE svg PUBLIC "-//W3C//DTD SVG 1.1//EN"
 "http://www.w3.org/Graphics/SVG/1.1/DTD/svg11.dtd">
<!-- Generated by graphviz version 2.28.0 (20111028.1807)
 -->
<!-- Title: ValidateObservables Pages: 1 -->
<svg width="282pt" height="412pt"
 viewBox="0.00 0.00 282.00 412.00" xmlns="http://www.w3.org/2000/svg" xmlns:xlink="http://www.w3.org/1999/xlink">
<g id="graph1" class="graph" transform="scale(1 1) rotate(0) translate(4 408)">
<title>ValidateObservables</title>
<polygon fill="white" stroke="white" points="-4,5 -4,-408 279,-408 279,5 -4,5"/>
<!-- 0 -->
<g id="node1" class="node"><title>0</title>
<a xlink:title="{&#39;Scenarios&#39;: (0, 0), &#39;Stack&#39;: {&#39;stack&#39;: []}}">
<ellipse fill="lightgray" stroke="black" cx="31" cy="-386" rx="27" ry="18"/>
<text text-anchor="middle" x="31" y="-380.4" font-family="Times,serif" font-size="14.00">0</text>
</a>
</g>
<!-- 1 -->
<g id="node2" class="node"><title>1</title>
<a xlink:title="{&#39;Scenarios&#39;: (0, 1), &#39;Stack&#39;: {&#39;stack&#39;: [1]}}">
<ellipse fill="white" stroke="black" cx="31" cy="-296" rx="27" ry="18"/>
<text text-anchor="middle" x="31" y="-290.4" font-family="Times,serif" font-size="14.00">1</text>
</a>
</g>
<!-- 0&#45;&gt;1 -->
<g id="edge2" class="edge"><title>0&#45;&gt;1</title>
<a xlink:title="Push(1,)">
<path fill="none" stroke="black" d="M31,-367.614C31,-355.24 31,-338.369 31,-324.22"/>
<polygon fill="black" stroke="black" points="34.5001,-324.05 31,-314.05 27.5001,-324.05 34.5001,-324.05"/>
</a>
<text text-anchor="middle" x="54.5293" y="-335.4" font-family="Times,serif" font-size="14.00">Push(1,)</text>
</g>
<!-- 2 -->
<g id="node3" class="node"><title>2</title>
<a xlink:title="{&#39;Scenarios&#39;: (0, 2), &#39;Stack&#39;: {&#39;stack&#39;: [2, 1]}}">
<ellipse fill="white" stroke="black" cx="31" cy="-206" rx="27" ry="18"/>
<text text-anchor="middle" x="31" y="-200.4" font-family="Times,serif" font-size="14.00">2</text>
</a>
</g>
<!-- 1&#45;&gt;2 -->
<g id="edge4" class="edge"><title>1&#45;&gt;2</title>
<a xlink:title="Push(2,)">
<path fill="none" stroke="black" d="M31,-277.614C31,-265.24 31,-248.369 31,-234.22"/>
<polygon fill="black" stroke="black" points="34.5001,-234.05 31,-224.05 27.5001,-234.05 34.5001,-234.05"/>
</a>
<text text-anchor="middle" x="54.5293" y="-245.4" font-family="Times,serif" font-size="14.00">Push(2,)</text>
</g>
<!-- 3 -->
<g id="node4" class="node"><title>3</title>
<a xlink:title="{&#39;Scenarios&#39;: (0, 3), &#39;Stack&#39;: {&#39;stack&#39;: [1]}}">
<ellipse fill="white" stroke="black" cx="31" cy="-116" rx="27" ry="18"/>
<text text-anchor="middle" x="31" y="-110.4" font-family="Times,serif" font-size="14.00">3</text>
</a>
</g>
<!-- 2&#45;&gt;3 -->
<g id="edge6" class="edge"><title>2&#45;&gt;3</title>
<a xlink:title="Pop(2,)">
<path fill="none" stroke="black" d="M31,-187.614C31,-175.24 31,-158.369 31,-144.22"/>
<polygon fill="black" stroke="black" points="34.5001,-144.05 31,-134.05 27.5001,-144.05 34.5001,-144.05"/>
</a>
<text text-anchor="middle" x="51.8052" y="-155.4" font-family="Times,serif" font-size="14.00">Pop(2,)</text>
</g>
<!-- 4 -->
<g id="node5" class="node"><title>4</title>
<a xlink:title="{&#39;Scenarios&#39;: (0, 4), &#39;Stack&#39;: {&#39;stack&#39;: []}}">
<ellipse fill="lightgreen" stroke="black" cx="31" cy="-22" rx="27" ry="18"/>
<ellipse fill="none" stroke="black" cx="31" cy="-22" rx="31" ry="22"/>
<text text-anchor="middle" x="31" y="-16.4" font-family="Times,serif" font-size="14.00">4</text>
</a>
</g>
<!-- 3&#45;&gt;4 -->
<g id="edge8" class="edge"><title>3&#45;&gt;4</title>
<a xlink:title="Pop(1,)">
<path fill="none" stroke="black" d="M31,-97.6955C31,-85.4651 31,-68.7287 31,-54.1979"/>
<polygon fill="black" stroke="black" points="34.5001,-54.103 31,-44.1031 27.5001,-54.1031 34.5001,-54.103"/>
</a>
<text text-anchor="middle" x="51.8052" y="-65.4" font-family="Times,serif" font-size="14.00">Pop(1,)</text>
</g>
<!-- 5 -->
<g id="node6" class="node"><title>5</title>
<a xlink:title="{&#39;Scenarios&#39;: (1, 0), &#39;Stack&#39;: {&#39;stack&#39;: []}}">
<ellipse fill="lightgray" stroke="black" cx="103" cy="-386" rx="27" ry="18"/>
<text text-anchor="middle" x="103" y="-380.4" font-family="Times,serif" font-size="14.00">5</text>
</a>
</g>
<!-- 6 -->
<g id="node7" class="node"><title>6</title>
<a xlink:title="{&#39;Scenarios&#39;: (1, 1), &#39;Stack&#39;: {&#39;stack&#39;: [1]}}">
<ellipse fill="white" stroke="black" cx="103" cy="-296" rx="27" ry="18"/>
<text text-anchor="middle" x="103" y="-290.4" font-family="Times,serif" font-size="14.00">6</text>
</a>
</g>
<!-- 5&#45;&gt;6 -->
<g id="edge10" class="edge"><title>5&#45;&gt;6</title>
<a xlink:title="Push(1,)">
<path fill="none" stroke="black" d="M103,-367.614C103,-355.24 103,-338.369 103,-324.22"/>
<polygon fill="black" stroke="black" points="106.5,-324.05 103,-314.05 99.5001,-324.05 106.5,-324.05"/>
</a>
<text text-anchor="middle" x="126.529" y="-335.4" font-family="Times,serif" font-size="14.00">Push(1,)</text>
</g>
<!-- 7 -->
<g id="node8" class="node"><title>7</title>
<a xlink:title="{&#39;Scenarios&#39;: (1, 2), &#39;Stack&#39;: {&#39;stack&#39;: [2, 1]}}">
<ellipse fill="yellow" stroke="black" cx="103" cy="-206" rx="27" ry="18"/>
<text text-anchor="middle" x="103" y="-200.4" font-family="Times,serif" font-size="14.00">7</text>
</a>
</g>
<!-- 6&#45;&gt;7 -->
<g id="edge12" class="edge"><title>6&#45;&gt;7</title>
<a xlink:title="Push(2,)">
<path fill="none" stroke="black" d="M103,-277.614C103,-265.24 103,-248.369 103,-234.22"/>
<polygon fill="black" stroke="black" points="106.5,-234.05 103,-224.05 99.5001,-234.05 106.5,-234.05"/>
</a>
<text text-anchor="middle" x="126.529" y="-245.4" font-family="Times,serif" font-size="14.00">Push(2,)</text>
</g>
<!-- 8 -->
<g id="node9" class="node"><title>8</title>
<a xlink:title="{&#39;Scenarios&#39;: (2, 0), &#39;Stack&#39;: {&#39;stack&#39;: []}}">
<ellipse fill="lightgray" stroke="black" cx="175" cy="-386" rx="27" ry="18"/>
<text text-anchor="middle" x="175" y="-380.4" font-family="Times,serif" font-size="14.00">8</text>
</a>
</g>
<!-- 9 -->
<g id="node10" class="node"><title>9</title>
<a xlink:title="{&#39;Scenarios&#39;: (2, 1), &#39;Stack&#39;: {&#39;stack&#39;: [1]}}">
<ellipse fill="white" stroke="black" cx="175" cy="-296" rx="27" ry="18"/>
<text text-anchor="middle" x="175" y="-290.4" font-family="Times,serif" font-size="14.00">9</text>
</a>
</g>
<!-- 8&#45;&gt;9 -->
<g id="edge14" class="edge"><title>8&#45;&gt;9</title>
<a xlink:title="Push(1,)">
<path fill="none" stroke="black" d="M175,-367.614C175,-355.24 175,-338.369 175,-324.22"/>
<polygon fill="black" stroke="black" points="178.5,-324.05 175,-314.05 171.5,-324.05 178.5,-324.05"/>
</a>
<text text-anchor="middle" x="198.529" y="-335.4" font-family="Times,serif" font-size="14.00">Push(1,)</text>
</g>
<!-- 10 -->
<g id="node11" class="node"><title>10</title>
<a xlink:title="{&#39;Scenarios&#39;: (2, 2), &#39;Stack&#39;: {&#39;stack&#39;: [3, 1]}}">
<ellipse fill="yellow" stroke="black" cx="175" cy="-206" rx="27" ry="18"/>
<text text-anchor="middle" x="175" y="-200.4" font-family="Times,serif" font-size="14.00">10</text>
</a>
</g>
<!-- 9&#45;&gt;10 -->
<g id="edge16" class="edge"><title>9&#45;&gt;10</title>
<a xlink:title="Push(3,)">
<path fill="none" stroke="black" d="M175,-277.614C175,-265.24 175,-248.369 175,-234.22"/>
<polygon fill="black" stroke="black" points="178.5,-234.05 175,-224.05 171.5,-234.05 178.5,-234.05"/>
</a>
<text text-anchor="middle" x="198.529" y="-245.4" font-family="Times,serif" font-size="14.00">Push(3,)</text>
</g>
<!-- 11 -->
<g id="node12" class="node"><title>11</title>
<a xlink:title="{&#39;Scenarios&#39;: (3, 0), &#39;Stack&#39;: {&#39;stack&#39;: []}}">
<ellipse fill="yellow" stroke="black" cx="247" cy="-386" rx="27" ry="18"/>
<text text-anchor="middle" x="247" y="-380.4" font-family="Times,serif" font-size="14.00">11</text>
</a>
</g>
</g>
</svg>
