<?xml version="1.0" encoding="UTF-8" standalone="no"?>
<!DOCTYPE svg PUBLIC "-//W3C//DTD SVG 1.1//EN"
 "http://www.w3.org/Graphics/SVG/1.1/DTD/svg11.dtd">
<!-- Generated by graphviz version 2.28.0 (20111028.1807)
 -->
<!-- Title: PowerSpeed Pages: 1 -->
<svg width="548pt" height="502pt"
 viewBox="0.00 0.00 548.28 502.00" xmlns="http://www.w3.org/2000/svg" xmlns:xlink="http://www.w3.org/1999/xlink">
<g id="graph1" class="graph" transform="scale(1 1) rotate(0) translate(4 498)">
<title>PowerSpeed</title>
<polygon fill="white" stroke="white" points="-4,5 -4,-498 545.283,-498 545.283,5 -4,5"/>
<!-- 0 -->
<g id="node1" class="node"><title>0</title>
<a xlink:title="{&#39;SpeedControl&#39;: 0, &#39;PowerSwitch&#39;: {&#39;power&#39;: False}}">
<ellipse fill="lightgray" stroke="black" cx="285" cy="-472" rx="27" ry="18"/>
<ellipse fill="none" stroke="black" cx="285" cy="-472" rx="31" ry="22"/>
<text text-anchor="middle" x="285" y="-466.4" font-family="Times,serif" font-size="14.00">0</text>
</a>
</g>
<!-- 1 -->
<g id="node2" class="node"><title>1</title>
<a xlink:title="{&#39;SpeedControl&#39;: 0, &#39;PowerSwitch&#39;: {&#39;power&#39;: True}}">
<ellipse fill="white" stroke="black" cx="161" cy="-378" rx="27" ry="18"/>
<text text-anchor="middle" x="161" y="-372.4" font-family="Times,serif" font-size="14.00">1</text>
</a>
</g>
<!-- 0&#45;&gt;1 -->
<g id="edge2" class="edge"><title>0&#45;&gt;1</title>
<a xlink:title="PowerOn()">
<path fill="none" stroke="black" d="M253.96,-470.734C224.925,-468.632 182.952,-460.442 161.793,-432 156.345,-424.677 155,-415.072 155.396,-406.053"/>
<polygon fill="black" stroke="black" points="158.897,-406.231 156.519,-395.906 151.94,-405.461 158.897,-406.231"/>
</a>
<text text-anchor="middle" x="192.104" y="-417.4" font-family="Times,serif" font-size="14.00">PowerOn()</text>
</g>
<!-- 2 -->
<g id="node3" class="node"><title>2</title>
<a xlink:title="{&#39;SpeedControl&#39;: 1, &#39;PowerSwitch&#39;: {&#39;power&#39;: False}}">
<ellipse fill="white" stroke="black" cx="250" cy="-198" rx="27" ry="18"/>
<text text-anchor="middle" x="250" y="-192.4" font-family="Times,serif" font-size="14.00">2</text>
</a>
</g>
<!-- 0&#45;&gt;2 -->
<g id="edge4" class="edge"><title>0&#45;&gt;2</title>
<a xlink:title="IncrementSpeed()">
<path fill="none" stroke="black" d="M300.395,-452.708C304.689,-446.524 308.783,-439.321 311,-432 315.009,-418.759 340.374,-299.917 303,-234 298.035,-225.243 289.872,-218.281 281.422,-212.947"/>
<polygon fill="black" stroke="black" points="283.062,-209.854 272.635,-207.971 279.612,-215.945 283.062,-209.854"/>
</a>
<text text-anchor="middle" x="373.142" y="-327.4" font-family="Times,serif" font-size="14.00">IncrementSpeed()</text>
</g>
<!-- 1&#45;&gt;0 -->
<g id="edge8" class="edge"><title>1&#45;&gt;0</title>
<a xlink:title="PowerOff()">
<path fill="none" stroke="black" d="M182.497,-389.281C195.056,-395.687 210.951,-404.5 224,-414 237.012,-423.473 250.213,-435.453 260.991,-445.983"/>
<polygon fill="black" stroke="black" points="258.819,-448.759 268.374,-453.337 263.759,-443.8 258.819,-448.759"/>
</a>
<text text-anchor="middle" x="277.143" y="-417.4" font-family="Times,serif" font-size="14.00">PowerOff()</text>
</g>
<!-- 3 -->
<g id="node4" class="node"><title>3</title>
<a xlink:title="{&#39;SpeedControl&#39;: 1, &#39;PowerSwitch&#39;: {&#39;power&#39;: True}}">
<ellipse fill="white" stroke="black" cx="161" cy="-288" rx="27" ry="18"/>
<text text-anchor="middle" x="161" y="-282.4" font-family="Times,serif" font-size="14.00">3</text>
</a>
</g>
<!-- 1&#45;&gt;3 -->
<g id="edge6" class="edge"><title>1&#45;&gt;3</title>
<a xlink:title="IncrementSpeed()">
<path fill="none" stroke="black" d="M161,-359.614C161,-347.24 161,-330.369 161,-316.22"/>
<polygon fill="black" stroke="black" points="164.5,-316.05 161,-306.05 157.5,-316.05 164.5,-316.05"/>
</a>
<text text-anchor="middle" x="211.142" y="-327.4" font-family="Times,serif" font-size="14.00">IncrementSpeed()</text>
</g>
<!-- 2&#45;&gt;3 -->
<g id="edge10" class="edge"><title>2&#45;&gt;3</title>
<a xlink:title="PowerOn()">
<path fill="none" stroke="black" d="M245.466,-215.906C241.743,-227.206 235.512,-241.811 226,-252 217.117,-261.515 205.052,-268.989 193.728,-274.544"/>
<polygon fill="black" stroke="black" points="192.123,-271.429 184.475,-278.761 195.026,-277.799 192.123,-271.429"/>
</a>
<text text-anchor="middle" x="268.104" y="-237.4" font-family="Times,serif" font-size="14.00">PowerOn()</text>
</g>
<!-- 4 -->
<g id="node5" class="node"><title>4</title>
<a xlink:title="{&#39;SpeedControl&#39;: 2, &#39;PowerSwitch&#39;: {&#39;power&#39;: False}}">
<ellipse fill="white" stroke="black" cx="250" cy="-108" rx="27" ry="18"/>
<text text-anchor="middle" x="250" y="-102.4" font-family="Times,serif" font-size="14.00">4</text>
</a>
</g>
<!-- 2&#45;&gt;4 -->
<g id="edge12" class="edge"><title>2&#45;&gt;4</title>
<a xlink:title="IncrementSpeed()">
<path fill="none" stroke="black" d="M250,-179.614C250,-167.24 250,-150.369 250,-136.22"/>
<polygon fill="black" stroke="black" points="253.5,-136.05 250,-126.05 246.5,-136.05 253.5,-136.05"/>
</a>
<text text-anchor="middle" x="300.142" y="-147.4" font-family="Times,serif" font-size="14.00">IncrementSpeed()</text>
</g>
<!-- 3&#45;&gt;2 -->
<g id="edge16" class="edge"><title>3&#45;&gt;2</title>
<a xlink:title="PowerOff()">
<path fill="none" stroke="black" d="M154.943,-270.273C152.007,-259.053 150.488,-244.47 157.715,-234 170.148,-215.987 193.15,-207.236 213.078,-202.988"/>
<polygon fill="black" stroke="black" points="213.936,-206.39 223.146,-201.153 212.681,-199.503 213.936,-206.39"/>
</a>
<text text-anchor="middle" x="190.143" y="-237.4" font-family="Times,serif" font-size="14.00">PowerOff()</text>
</g>
<!-- 5 -->
<g id="node6" class="node"><title>5</title>
<a xlink:title="{&#39;SpeedControl&#39;: 2, &#39;PowerSwitch&#39;: {&#39;power&#39;: True}}">
<ellipse fill="white" stroke="black" cx="145" cy="-18" rx="27" ry="18"/>
<text text-anchor="middle" x="145" y="-12.4" font-family="Times,serif" font-size="14.00">5</text>
</a>
</g>
<!-- 3&#45;&gt;5 -->
<g id="edge14" class="edge"><title>3&#45;&gt;5</title>
<a xlink:title="IncrementSpeed()">
<path fill="none" stroke="black" d="M154.241,-270.534C152.176,-264.769 150.148,-258.19 149,-252 135.398,-178.657 139.314,-90.1004 142.57,-46.2877"/>
<polygon fill="black" stroke="black" points="146.072,-46.3945 143.372,-36.1495 139.094,-45.842 146.072,-46.3945"/>
</a>
<text text-anchor="middle" x="190.142" y="-147.4" font-family="Times,serif" font-size="14.00">IncrementSpeed()</text>
</g>
<!-- 4&#45;&gt;0 -->
<g id="edge20" class="edge"><title>4&#45;&gt;0</title>
<a xlink:title="IncrementSpeed()">
<path fill="none" stroke="black" d="M277.222,-109.534C329.759,-112.159 440,-126.113 440,-197 440,-379 440,-379 440,-379 440,-432.385 371.167,-455.475 325.241,-464.939"/>
<polygon fill="black" stroke="black" points="324.413,-461.534 315.254,-466.86 325.735,-468.408 324.413,-461.534"/>
</a>
<text text-anchor="middle" x="490.142" y="-282.4" font-family="Times,serif" font-size="14.00">IncrementSpeed()</text>
</g>
<!-- 4&#45;&gt;5 -->
<g id="edge18" class="edge"><title>4&#45;&gt;5</title>
<a xlink:title="PowerOn()">
<path fill="none" stroke="black" d="M224.166,-102.418C205.134,-97.7853 179.867,-88.8127 163.793,-72 157.029,-64.9247 152.68,-55.2615 149.893,-46.1229"/>
<polygon fill="black" stroke="black" points="153.224,-45.0204 147.363,-36.1939 146.44,-46.7485 153.224,-45.0204"/>
</a>
<text text-anchor="middle" x="194.104" y="-57.4" font-family="Times,serif" font-size="14.00">PowerOn()</text>
</g>
<!-- 5&#45;&gt;1 -->
<g id="edge22" class="edge"><title>5&#45;&gt;1</title>
<a xlink:title="IncrementSpeed()">
<path fill="none" stroke="black" d="M118.742,-22.793C76.9566,-30.4763 0,-52.0815 0,-107 0,-289 0,-289 0,-289 0,-345.386 76.9751,-365.869 124.476,-373.141"/>
<polygon fill="black" stroke="black" points="124.024,-376.611 134.414,-374.537 124.998,-369.68 124.024,-376.611"/>
</a>
<text text-anchor="middle" x="50.1416" y="-192.4" font-family="Times,serif" font-size="14.00">IncrementSpeed()</text>
</g>
<!-- 5&#45;&gt;4 -->
<g id="edge24" class="edge"><title>5&#45;&gt;4</title>
<a xlink:title="PowerOff()">
<path fill="none" stroke="black" d="M170.399,-24.7863C187.913,-29.9087 210.704,-38.9668 226,-54 233.301,-61.1753 238.582,-70.9756 242.299,-80.1979"/>
<polygon fill="black" stroke="black" points="239.079,-81.5877 245.74,-89.8269 245.671,-79.2323 239.079,-81.5877"/>
</a>
<text text-anchor="middle" x="269.143" y="-57.4" font-family="Times,serif" font-size="14.00">PowerOff()</text>
</g>
</g>
</svg>
