<?xml version="1.0" encoding="UTF-8" standalone="no"?>
<!DOCTYPE svg PUBLIC "-//W3C//DTD SVG 1.1//EN"
 "http://www.w3.org/Graphics/SVG/1.1/DTD/svg11.dtd">
<!-- Generated by graphviz version 2.28.0 (20111028.1807)
 -->
<!-- Title: PowerSwitchFSM Pages: 1 -->
<svg width="138pt" height="142pt"
 viewBox="0.00 0.00 137.96 142.00" xmlns="http://www.w3.org/2000/svg" xmlns:xlink="http://www.w3.org/1999/xlink">
<g id="graph1" class="graph" transform="scale(1 1) rotate(0) translate(4 138)">
<title>PowerSwitchFSM</title>
<polygon fill="white" stroke="white" points="-4,5 -4,-138 134.962,-138 134.962,5 -4,5"/>
<!-- 0 -->
<g id="node1" class="node"><title>0</title>
<a xlink:title="{&#39;PowerSwitch&#39;: {&#39;power&#39;: False}}">
<ellipse fill="lightgray" stroke="black" cx="43.6773" cy="-112" rx="27" ry="18"/>
<ellipse fill="none" stroke="black" cx="43.6773" cy="-112" rx="31" ry="22"/>
<text text-anchor="middle" x="43.6773" y="-106.4" font-family="Times,serif" font-size="14.00">0</text>
</a>
</g>
<!-- 1 -->
<g id="node2" class="node"><title>1</title>
<a xlink:title="{&#39;PowerSwitch&#39;: {&#39;power&#39;: True}}">
<ellipse fill="white" stroke="black" cx="43.6773" cy="-18" rx="27" ry="18"/>
<text text-anchor="middle" x="43.6773" y="-12.4" font-family="Times,serif" font-size="14.00">1</text>
</a>
</g>
<!-- 0&#45;&gt;1 -->
<g id="edge2" class="edge"><title>0&#45;&gt;1</title>
<a xlink:title="PowerOn()">
<path fill="none" stroke="black" d="M21.6304,-96.0315C14.0805,-89.6103 6.52035,-81.4095 2.47031,-72 -0.692532,-64.6518 -0.888887,-61.2606 2.47031,-54 5.48909,-47.4752 10.3902,-41.7217 15.7771,-36.862"/>
<polygon fill="black" stroke="black" points="18.235,-39.3777 23.8543,-30.3958 13.8603,-33.913 18.235,-39.3777"/>
</a>
<text text-anchor="middle" x="33.7809" y="-57.4" font-family="Times,serif" font-size="14.00">PowerOn()</text>
</g>
<!-- 1&#45;&gt;0 -->
<g id="edge4" class="edge"><title>1&#45;&gt;0</title>
<a xlink:title="PowerOff()">
<path fill="none" stroke="black" d="M55.4605,-34.5429C59.1677,-40.3365 62.7858,-47.1709 64.6773,-54 67.3308,-63.5798 65.1834,-73.8325 61.4106,-82.9638"/>
<polygon fill="black" stroke="black" points="58.2433,-81.4741 57.0238,-91.9985 64.5402,-84.5316 58.2433,-81.4741"/>
</a>
<text text-anchor="middle" x="97.8199" y="-57.4" font-family="Times,serif" font-size="14.00">PowerOff()</text>
</g>
</g>
</svg>
