<?xml version="1.0" encoding="UTF-8" standalone="no"?>
<!DOCTYPE svg PUBLIC "-//W3C//DTD SVG 1.1//EN"
 "http://www.w3.org/Graphics/SVG/1.1/DTD/svg11.dtd">
<!-- Generated by graphviz version 2.28.0 (20111028.1807)
 -->
<!-- Title: SpeedControl Pages: 1 -->
<svg width="251pt" height="232pt"
 viewBox="0.00 0.00 251.28 232.00" xmlns="http://www.w3.org/2000/svg" xmlns:xlink="http://www.w3.org/1999/xlink">
<g id="graph1" class="graph" transform="scale(1 1) rotate(0) translate(4 228)">
<title>SpeedControl</title>
<polygon fill="white" stroke="white" points="-4,5 -4,-228 248.283,-228 248.283,5 -4,5"/>
<!-- 0 -->
<g id="node1" class="node"><title>0</title>
<ellipse fill="lightgray" stroke="black" cx="84" cy="-202" rx="27" ry="18"/>
<ellipse fill="none" stroke="black" cx="84" cy="-202" rx="31" ry="22"/>
<text text-anchor="middle" x="84" y="-196.4" font-family="Times,serif" font-size="14.00">0</text>
</g>
<!-- 1 -->
<g id="node2" class="node"><title>1</title>
<ellipse fill="white" stroke="black" cx="27" cy="-108" rx="27" ry="18"/>
<text text-anchor="middle" x="27" y="-102.4" font-family="Times,serif" font-size="14.00">1</text>
</g>
<!-- 0&#45;&gt;1 -->
<g id="edge2" class="edge"><title>0&#45;&gt;1</title>
<a xlink:title="IncrementSpeed()">
<path fill="none" stroke="black" d="M58.0203,-189.851C46.5706,-183.479 34.2526,-174.278 27.7168,-162 23.5974,-154.262 22.4446,-144.943 22.621,-136.292"/>
<polygon fill="black" stroke="black" points="26.1184,-136.458 23.3853,-126.222 19.1385,-135.928 26.1184,-136.458"/>
</a>
<text text-anchor="middle" x="78.1416" y="-147.4" font-family="Times,serif" font-size="14.00">IncrementSpeed()</text>
</g>
<!-- 2 -->
<g id="node3" class="node"><title>2</title>
<ellipse fill="white" stroke="black" cx="84" cy="-18" rx="27" ry="18"/>
<text text-anchor="middle" x="84" y="-12.4" font-family="Times,serif" font-size="14.00">2</text>
</g>
<!-- 1&#45;&gt;2 -->
<g id="edge4" class="edge"><title>1&#45;&gt;2</title>
<a xlink:title="IncrementSpeed()">
<path fill="none" stroke="black" d="M23.2688,-90.1648C21.746,-79.1748 21.5637,-64.8979 27.7168,-54 33.1187,-44.4326 42.3209,-37.1331 51.7371,-31.7407"/>
<polygon fill="black" stroke="black" points="53.4085,-34.817 60.7134,-27.1432 50.2174,-28.5867 53.4085,-34.817"/>
</a>
<text text-anchor="middle" x="78.1416" y="-57.4" font-family="Times,serif" font-size="14.00">IncrementSpeed()</text>
</g>
<!-- 2&#45;&gt;0 -->
<g id="edge6" class="edge"><title>2&#45;&gt;0</title>
<a xlink:title="IncrementSpeed()">
<path fill="none" stroke="black" d="M104.671,-29.8036C113.586,-35.6593 123.081,-43.8017 128,-54 148.853,-97.2336 147.694,-118.226 128,-162 124.948,-168.784 120.068,-174.866 114.648,-180.096"/>
<polygon fill="black" stroke="black" points="112.309,-177.491 107.043,-186.685 116.893,-182.782 112.309,-177.491"/>
</a>
<text text-anchor="middle" x="193.142" y="-102.4" font-family="Times,serif" font-size="14.00">IncrementSpeed()</text>
</g>
</g>
</svg>
