<?xml version="1.0" encoding="UTF-8" standalone="no"?>
<!DOCTYPE svg PUBLIC "-//W3C//DTD SVG 1.1//EN"
 "http://www.w3.org/Graphics/SVG/1.1/DTD/svg11.dtd">
<!-- Generated by graphviz version 2.28.0 (20111028.1807)
 -->
<!-- Title: OneUserScenarioFSM Pages: 1 -->
<svg width="820pt" height="526pt"
 viewBox="0.00 0.00 820.32 526.00" xmlns="http://www.w3.org/2000/svg" xmlns:xlink="http://www.w3.org/1999/xlink">
<g id="graph1" class="graph" transform="scale(1 1) rotate(0) translate(4 522)">
<title>OneUserScenarioFSM</title>
<polygon fill="white" stroke="white" points="-4,5 -4,-522 817.322,-522 817.322,5 -4,5"/>
<!-- 0 -->
<g id="node1" class="node"><title>0</title>
<a xlink:title="{&#39;OneUserScenario&#39;: 0, &#39;WebModel&#39;: {&#39;userToInt&#39;: {}, &#39;mode&#39;: &#39;Initializing&#39;, &#39;usersLoggedIn&#39;: []}}">
<ellipse fill="lightgray" stroke="black" cx="123.387" cy="-496" rx="27" ry="18"/>
<ellipse fill="none" stroke="black" cx="123.387" cy="-496" rx="31" ry="22"/>
<text text-anchor="middle" x="123.387" y="-490.4" font-family="Times,serif" font-size="14.00">0</text>
</a>
</g>
<!-- 1 -->
<g id="node2" class="node"><title>1</title>
<a xlink:title="{&#39;OneUserScenario&#39;: 0, &#39;WebModel&#39;: {&#39;userToInt&#39;: {}, &#39;mode&#39;: &#39;Running&#39;, &#39;usersLoggedIn&#39;: []}}">
<ellipse fill="white" stroke="black" cx="123.387" cy="-398" rx="27" ry="18"/>
<ellipse fill="none" stroke="black" cx="123.387" cy="-398" rx="31" ry="22"/>
<text text-anchor="middle" x="123.387" y="-392.4" font-family="Times,serif" font-size="14.00">1</text>
</a>
</g>
<!-- 0&#45;&gt;1 -->
<g id="edge2" class="edge"><title>0&#45;&gt;1</title>
<a xlink:title="Initialize()">
<path fill="none" stroke="black" d="M123.387,-473.694C123.387,-461.017 123.387,-444.697 123.387,-430.547"/>
<polygon fill="black" stroke="black" points="126.887,-430.246 123.387,-420.246 119.887,-430.246 126.887,-430.246"/>
</a>
<text text-anchor="middle" x="152.925" y="-441.4" font-family="Times,serif" font-size="14.00">Initialize()</text>
</g>
<!-- 2 -->
<g id="node3" class="node"><title>2</title>
<a xlink:title="{&#39;OneUserScenario&#39;: 1, &#39;WebModel&#39;: {&#39;userToInt&#39;: {}, &#39;mode&#39;: &#39;Running&#39;, &#39;usersLoggedIn&#39;: [&#39;VinniPuhh&#39;]}}">
<ellipse fill="white" stroke="black" cx="123.387" cy="-304" rx="27" ry="18"/>
<text text-anchor="middle" x="123.387" y="-298.4" font-family="Times,serif" font-size="14.00">2</text>
</a>
</g>
<!-- 1&#45;&gt;2 -->
<g id="edge4" class="edge"><title>1&#45;&gt;2</title>
<a xlink:title="Login(&#39;VinniPuhh&#39;, &#39;Correct&#39;)/&#39;Success&#39;">
<path fill="none" stroke="black" d="M92.9639,-393.732C50.3638,-387.904 -19.236,-373.078 5.45121,-340 23.8333,-315.37 58.8131,-307.371 85.9233,-305.088"/>
<polygon fill="black" stroke="black" points="86.4789,-308.56 96.2461,-304.455 86.0508,-301.574 86.4789,-308.56"/>
</a>
<text text-anchor="middle" x="113.855" y="-343.4" font-family="Times,serif" font-size="14.00">Login(&#39;VinniPuhh&#39;, &#39;Correct&#39;)/&#39;Success&#39;</text>
</g>
<!-- 2&#45;&gt;1 -->
<g id="edge6" class="edge"><title>2&#45;&gt;1</title>
<a xlink:title="Logout(&#39;VinniPuhh&#39;,)">
<path fill="none" stroke="black" d="M150.213,-306.552C173.071,-309.46 204.644,-317.584 220.387,-340 238.113,-365.242 197.063,-381.031 163.003,-389.425"/>
<polygon fill="black" stroke="black" points="162.138,-386.033 153.184,-391.697 163.715,-392.853 162.138,-386.033"/>
</a>
<text text-anchor="middle" x="284.463" y="-343.4" font-family="Times,serif" font-size="14.00">Logout(&#39;VinniPuhh&#39;,)</text>
</g>
<!-- 2&#45;&gt;2 -->
<g id="edge8" class="edge"><title>2&#45;&gt;2</title>
<a xlink:title="ReadInt(&#39;VinniPuhh&#39;,)/0">
<path fill="none" stroke="black" d="M147.919,-312.121C158.895,-312.895 168.387,-310.188 168.387,-304 168.387,-299.843 164.102,-297.257 157.961,-296.242"/>
<polygon fill="black" stroke="black" points="158.039,-292.742 147.919,-295.879 157.786,-299.738 158.039,-292.742"/>
</a>
<text text-anchor="middle" x="234.846" y="-298.4" font-family="Times,serif" font-size="14.00">ReadInt(&#39;VinniPuhh&#39;,)/0</text>
</g>
<!-- 3 -->
<g id="node4" class="node"><title>3</title>
<a xlink:title="{&#39;OneUserScenario&#39;: 1, &#39;WebModel&#39;: {&#39;userToInt&#39;: {&#39;VinniPuhh&#39;: 2}, &#39;mode&#39;: &#39;Running&#39;, &#39;usersLoggedIn&#39;: [&#39;VinniPuhh&#39;]}}">
<ellipse fill="white" stroke="black" cx="140.387" cy="-120" rx="27" ry="18"/>
<text text-anchor="middle" x="140.387" y="-114.4" font-family="Times,serif" font-size="14.00">3</text>
</a>
</g>
<!-- 2&#45;&gt;3 -->
<g id="edge10" class="edge"><title>2&#45;&gt;3</title>
<a xlink:title="UpdateInt(&#39;VinniPuhh&#39;, 2)">
<path fill="none" stroke="black" d="M122.248,-285.666C120.833,-258.599 119.48,-204.757 127.387,-160 128.107,-155.926 129.167,-151.697 130.377,-147.593"/>
<polygon fill="black" stroke="black" points="133.796,-148.397 133.583,-137.805 127.144,-146.218 133.796,-148.397"/>
</a>
<text text-anchor="middle" x="195.482" y="-208.4" font-family="Times,serif" font-size="14.00">UpdateInt(&#39;VinniPuhh&#39;, 2)</text>
</g>
<!-- 4 -->
<g id="node5" class="node"><title>4</title>
<a xlink:title="{&#39;OneUserScenario&#39;: 1, &#39;WebModel&#39;: {&#39;userToInt&#39;: {&#39;VinniPuhh&#39;: 1}, &#39;mode&#39;: &#39;Running&#39;, &#39;usersLoggedIn&#39;: [&#39;VinniPuhh&#39;]}}">
<ellipse fill="white" stroke="black" cx="307.387" cy="-214" rx="27" ry="18"/>
<text text-anchor="middle" x="307.387" y="-208.4" font-family="Times,serif" font-size="14.00">4</text>
</a>
</g>
<!-- 2&#45;&gt;4 -->
<g id="edge12" class="edge"><title>2&#45;&gt;4</title>
<a xlink:title="UpdateInt(&#39;VinniPuhh&#39;, 1)">
<path fill="none" stroke="black" d="M144.854,-292.733C177.4,-277.167 239.379,-247.525 276.685,-229.684"/>
<polygon fill="black" stroke="black" points="278.545,-232.674 286.056,-225.202 275.525,-226.359 278.545,-232.674"/>
</a>
<text text-anchor="middle" x="304.482" y="-253.4" font-family="Times,serif" font-size="14.00">UpdateInt(&#39;VinniPuhh&#39;, 1)</text>
</g>
<!-- 3&#45;&gt;3 -->
<g id="edge16" class="edge"><title>3&#45;&gt;3</title>
<a xlink:title="UpdateInt(&#39;VinniPuhh&#39;, 2)">
<path fill="none" stroke="black" d="M166.733,-124.482C176.92,-124.682 185.387,-123.188 185.387,-120 185.387,-117.958 181.912,-116.611 176.736,-115.959"/>
<polygon fill="black" stroke="black" points="176.878,-112.462 166.733,-115.518 176.569,-119.455 176.878,-112.462"/>
</a>
<text text-anchor="middle" x="257.482" y="-114.4" font-family="Times,serif" font-size="14.00">UpdateInt(&#39;VinniPuhh&#39;, 2)</text>
</g>
<!-- 3&#45;&gt;3 -->
<g id="edge20" class="edge"><title>3&#45;&gt;3</title>
<a xlink:title="ReadInt(&#39;VinniPuhh&#39;,)/2">
<path fill="none" stroke="black" d="M163.024,-129.823C214.777,-142.111 329.577,-138.837 329.577,-120 329.577,-102.304 228.258,-98.3425 173.078,-108.116"/>
<polygon fill="black" stroke="black" points="172.118,-104.74 163.024,-110.177 173.523,-111.598 172.118,-104.74"/>
</a>
<text text-anchor="middle" x="396.036" y="-114.4" font-family="Times,serif" font-size="14.00">ReadInt(&#39;VinniPuhh&#39;,)/2</text>
</g>
<!-- 3&#45;&gt;4 -->
<g id="edge18" class="edge"><title>3&#45;&gt;4</title>
<a xlink:title="UpdateInt(&#39;VinniPuhh&#39;, 1)">
<path fill="none" stroke="black" d="M167.486,-121.369C199.372,-123.213 252.169,-130.863 285.387,-160 293.087,-166.754 298.151,-176.632 301.454,-186.035"/>
<polygon fill="black" stroke="black" points="298.178,-187.297 304.388,-195.881 304.886,-185.298 298.178,-187.297"/>
</a>
<text text-anchor="middle" x="370.482" y="-163.4" font-family="Times,serif" font-size="14.00">UpdateInt(&#39;VinniPuhh&#39;, 1)</text>
</g>
<!-- 5 -->
<g id="node6" class="node"><title>5</title>
<a xlink:title="{&#39;OneUserScenario&#39;: 0, &#39;WebModel&#39;: {&#39;userToInt&#39;: {&#39;VinniPuhh&#39;: 2}, &#39;mode&#39;: &#39;Running&#39;, &#39;usersLoggedIn&#39;: []}}">
<ellipse fill="white" stroke="black" cx="140.387" cy="-22" rx="27" ry="18"/>
<ellipse fill="none" stroke="black" cx="140.387" cy="-22" rx="31" ry="22"/>
<text text-anchor="middle" x="140.387" y="-16.4" font-family="Times,serif" font-size="14.00">5</text>
</a>
</g>
<!-- 3&#45;&gt;5 -->
<g id="edge14" class="edge"><title>3&#45;&gt;5</title>
<a xlink:title="Logout(&#39;VinniPuhh&#39;,)">
<path fill="none" stroke="black" d="M116.372,-111.257C91.5506,-101.856 58.1298,-84.4356 71.2344,-62 78.2698,-49.9551 90.55,-41.3385 102.829,-35.322"/>
<polygon fill="black" stroke="black" points="104.397,-38.4556 112.131,-31.2143 101.569,-32.0521 104.397,-38.4556"/>
</a>
<text text-anchor="middle" x="130.463" y="-65.4" font-family="Times,serif" font-size="14.00">Logout(&#39;VinniPuhh&#39;,)</text>
</g>
<!-- 4&#45;&gt;3 -->
<g id="edge24" class="edge"><title>4&#45;&gt;3</title>
<a xlink:title="UpdateInt(&#39;VinniPuhh&#39;, 2)">
<path fill="none" stroke="black" d="M284.323,-204.555C275.38,-201.52 264.996,-198.286 255.387,-196 229.541,-189.851 154.51,-198.151 137.196,-178 130.172,-169.825 129.691,-158.309 131.462,-147.766"/>
<polygon fill="black" stroke="black" points="134.945,-148.243 133.825,-137.708 128.131,-146.642 134.945,-148.243"/>
</a>
<text text-anchor="middle" x="209.482" y="-163.4" font-family="Times,serif" font-size="14.00">UpdateInt(&#39;VinniPuhh&#39;, 2)</text>
</g>
<!-- 4&#45;&gt;4 -->
<g id="edge26" class="edge"><title>4&#45;&gt;4</title>
<a xlink:title="ReadInt(&#39;VinniPuhh&#39;,)/1">
<path fill="none" stroke="black" d="M333.733,-218.109C343.92,-218.292 352.387,-216.922 352.387,-214 352.387,-212.128 348.912,-210.893 343.736,-210.296"/>
<polygon fill="black" stroke="black" points="343.867,-206.798 333.733,-209.891 343.584,-213.792 343.867,-206.798"/>
</a>
<text text-anchor="middle" x="418.846" y="-208.4" font-family="Times,serif" font-size="14.00">ReadInt(&#39;VinniPuhh&#39;,)/1</text>
</g>
<!-- 4&#45;&gt;4 -->
<g id="edge28" class="edge"><title>4&#45;&gt;4</title>
<a xlink:title="UpdateInt(&#39;VinniPuhh&#39;, 1)">
<path fill="none" stroke="black" d="M330.174,-223.861C379.713,-235.58 485.305,-232.293 485.305,-214 485.305,-196.85 392.499,-192.89 340.08,-202.117"/>
<polygon fill="black" stroke="black" points="339.272,-198.71 330.174,-204.139 340.671,-205.569 339.272,-198.71"/>
</a>
<text text-anchor="middle" x="557.4" y="-208.4" font-family="Times,serif" font-size="14.00">UpdateInt(&#39;VinniPuhh&#39;, 1)</text>
</g>
<!-- 6 -->
<g id="node7" class="node"><title>6</title>
<a xlink:title="{&#39;OneUserScenario&#39;: 0, &#39;WebModel&#39;: {&#39;userToInt&#39;: {&#39;VinniPuhh&#39;: 1}, &#39;mode&#39;: &#39;Running&#39;, &#39;usersLoggedIn&#39;: []}}">
<ellipse fill="white" stroke="black" cx="571.387" cy="-120" rx="27" ry="18"/>
<ellipse fill="none" stroke="black" cx="571.387" cy="-120" rx="31" ry="22"/>
<text text-anchor="middle" x="571.387" y="-114.4" font-family="Times,serif" font-size="14.00">6</text>
</a>
</g>
<!-- 4&#45;&gt;6 -->
<g id="edge22" class="edge"><title>4&#45;&gt;6</title>
<a xlink:title="Logout(&#39;VinniPuhh&#39;,)">
<path fill="none" stroke="black" d="M333.528,-208.925C362.066,-203.908 408.718,-194.027 446.387,-178 460.293,-172.083 461.772,-166.866 475.234,-160 494.279,-150.288 516.329,-141.2 534.505,-134.244"/>
<polygon fill="black" stroke="black" points="535.766,-137.509 543.89,-130.708 533.298,-130.958 535.766,-137.509"/>
</a>
<text text-anchor="middle" x="534.463" y="-163.4" font-family="Times,serif" font-size="14.00">Logout(&#39;VinniPuhh&#39;,)</text>
</g>
<!-- 5&#45;&gt;3 -->
<g id="edge30" class="edge"><title>5&#45;&gt;3</title>
<a xlink:title="Login(&#39;VinniPuhh&#39;, &#39;Correct&#39;)/&#39;Success&#39;">
<path fill="none" stroke="black" d="M164.336,-36.022C180.56,-46.7119 197.662,-62.8381 189.387,-80 185.006,-89.0858 177.365,-96.7082 169.402,-102.735"/>
<polygon fill="black" stroke="black" points="167.371,-99.8838 161.111,-108.431 171.335,-105.653 167.371,-99.8838"/>
</a>
<text text-anchor="middle" x="299.855" y="-65.4" font-family="Times,serif" font-size="14.00">Login(&#39;VinniPuhh&#39;, &#39;Correct&#39;)/&#39;Success&#39;</text>
</g>
<!-- 6&#45;&gt;4 -->
<g id="edge32" class="edge"><title>6&#45;&gt;4</title>
<a xlink:title="Login(&#39;VinniPuhh&#39;, &#39;Correct&#39;)/&#39;Success&#39;">
<path fill="none" stroke="black" d="M587.284,-139.18C595.938,-151.331 603.088,-167.039 593.387,-178 577.152,-196.342 418.339,-207.106 344.627,-211.15"/>
<polygon fill="black" stroke="black" points="344.194,-207.668 334.395,-211.698 344.568,-214.658 344.194,-207.668"/>
</a>
<text text-anchor="middle" x="704.855" y="-163.4" font-family="Times,serif" font-size="14.00">Login(&#39;VinniPuhh&#39;, &#39;Correct&#39;)/&#39;Success&#39;</text>
</g>
</g>
</svg>
