<?xml version="1.0" encoding="UTF-8" standalone="no"?>
<!DOCTYPE svg PUBLIC "-//W3C//DTD SVG 1.1//EN"
 "http://www.w3.org/Graphics/SVG/1.1/DTD/svg11.dtd">
<!-- Generated by graphviz version 2.28.0 (20111028.1807)
 -->
<!-- Title: OneUserScenario Pages: 1 -->
<svg width="351pt" height="142pt"
 viewBox="0.00 0.00 350.54 142.00" xmlns="http://www.w3.org/2000/svg" xmlns:xlink="http://www.w3.org/1999/xlink">
<g id="graph1" class="graph" transform="scale(1 1) rotate(0) translate(4 138)">
<title>OneUserScenario</title>
<polygon fill="white" stroke="white" points="-4,5 -4,-138 347.539,-138 347.539,5 -4,5"/>
<!-- 0 -->
<g id="node1" class="node"><title>0</title>
<ellipse fill="lightgray" stroke="black" cx="123.387" cy="-112" rx="27" ry="18"/>
<ellipse fill="none" stroke="black" cx="123.387" cy="-112" rx="31" ry="22"/>
<text text-anchor="middle" x="123.387" y="-106.4" font-family="Times,serif" font-size="14.00">0</text>
</g>
<!-- 1 -->
<g id="node2" class="node"><title>1</title>
<ellipse fill="white" stroke="black" cx="123.387" cy="-18" rx="27" ry="18"/>
<text text-anchor="middle" x="123.387" y="-12.4" font-family="Times,serif" font-size="14.00">1</text>
</g>
<!-- 0&#45;&gt;1 -->
<g id="edge2" class="edge"><title>0&#45;&gt;1</title>
<a xlink:title="Login(&#39;VinniPuhh&#39;, &#39;Correct&#39;)/&#39;Success&#39;">
<path fill="none" stroke="black" d="M92.9639,-107.732C50.3638,-101.904 -19.236,-87.0779 5.45121,-54 23.8333,-29.3702 58.8131,-21.3708 85.9233,-19.0878"/>
<polygon fill="black" stroke="black" points="86.4789,-22.5604 96.2461,-18.4553 86.0508,-15.5735 86.4789,-22.5604"/>
</a>
<text text-anchor="middle" x="113.855" y="-57.4" font-family="Times,serif" font-size="14.00">Login(&#39;VinniPuhh&#39;, &#39;Correct&#39;)/&#39;Success&#39;</text>
</g>
<!-- 1&#45;&gt;0 -->
<g id="edge4" class="edge"><title>1&#45;&gt;0</title>
<a xlink:title="Logout(&#39;VinniPuhh&#39;,)">
<path fill="none" stroke="black" d="M150.213,-20.5521C173.071,-23.4604 204.644,-31.584 220.387,-54 238.113,-79.2416 197.063,-95.0312 163.003,-103.425"/>
<polygon fill="black" stroke="black" points="162.138,-100.033 153.184,-105.697 163.715,-106.853 162.138,-100.033"/>
</a>
<text text-anchor="middle" x="283.463" y="-57.4" font-family="Times,serif" font-size="14.00">Logout(&#39;VinniPuhh&#39;,)</text>
</g>
</g>
</svg>
