<?xml version="1.0" encoding="UTF-8" standalone="no"?>
<!DOCTYPE svg PUBLIC "-//W3C//DTD SVG 1.1//EN"
 "http://www.w3.org/Graphics/SVG/1.1/DTD/svg11.dtd">
<!-- Generated by graphviz version 2.28.0 (20111028.1807)
 -->
<!-- Title: OneUserFilterFSM Pages: 1 -->
<svg width="1248pt" height="526pt"
 viewBox="0.00 0.00 1248.39 526.00" xmlns="http://www.w3.org/2000/svg" xmlns:xlink="http://www.w3.org/1999/xlink">
<g id="graph1" class="graph" transform="scale(1 1) rotate(0) translate(4 522)">
<title>OneUserFilterFSM</title>
<polygon fill="white" stroke="white" points="-4,5 -4,-522 1245.39,-522 1245.39,5 -4,5"/>
<!-- 0 -->
<g id="node1" class="node"><title>0</title>
<a xlink:title="{&#39;WebModel&#39;: {&#39;userToInt&#39;: {}, &#39;mode&#39;: &#39;Initializing&#39;, &#39;usersLoggedIn&#39;: []}}">
<ellipse fill="lightgray" stroke="black" cx="123.387" cy="-496" rx="27" ry="18"/>
<ellipse fill="none" stroke="black" cx="123.387" cy="-496" rx="31" ry="22"/>
<text text-anchor="middle" x="123.387" y="-490.4" font-family="Times,serif" font-size="14.00">0</text>
</a>
</g>
<!-- 1 -->
<g id="node2" class="node"><title>1</title>
<a xlink:title="{&#39;WebModel&#39;: {&#39;userToInt&#39;: {}, &#39;mode&#39;: &#39;Running&#39;, &#39;usersLoggedIn&#39;: []}}">
<ellipse fill="white" stroke="black" cx="123.387" cy="-398" rx="27" ry="18"/>
<ellipse fill="none" stroke="black" cx="123.387" cy="-398" rx="31" ry="22"/>
<text text-anchor="middle" x="123.387" y="-392.4" font-family="Times,serif" font-size="14.00">1</text>
</a>
</g>
<!-- 0&#45;&gt;1 -->
<g id="edge2" class="edge"><title>0&#45;&gt;1</title>
<a xlink:title="Initialize()">
<path fill="none" stroke="black" d="M123.387,-473.694C123.387,-461.017 123.387,-444.697 123.387,-430.547"/>
<polygon fill="black" stroke="black" points="126.887,-430.246 123.387,-420.246 119.887,-430.246 126.887,-430.246"/>
</a>
<text text-anchor="middle" x="152.925" y="-441.4" font-family="Times,serif" font-size="14.00">Initialize()</text>
</g>
<!-- 1&#45;&gt;1 -->
<g id="edge4" class="edge"><title>1&#45;&gt;1</title>
<a xlink:title="Login(&#39;OleBrumm&#39;, &#39;Incorrect&#39;)/&#39;Failure&#39;">
<path fill="none" stroke="black" d="M154.012,-402.5C164.22,-402.5 172.387,-401 172.387,-398 172.387,-396.125 169.197,-394.836 164.312,-394.133"/>
<polygon fill="black" stroke="black" points="164.208,-390.62 154.012,-393.5 163.778,-397.607 164.208,-390.62"/>
</a>
<text text-anchor="middle" x="283.365" y="-392.4" font-family="Times,serif" font-size="14.00">Login(&#39;OleBrumm&#39;, &#39;Incorrect&#39;)/&#39;Failure&#39;</text>
</g>
<!-- 1&#45;&gt;1 -->
<g id="edge6" class="edge"><title>1&#45;&gt;1</title>
<a xlink:title="Login(&#39;VinniPuhh&#39;, &#39;Incorrect&#39;)/&#39;Failure&#39;">
<path fill="none" stroke="black" d="M151.543,-407.559C222.227,-420.157 394.343,-416.97 394.343,-398 394.343,-379.882 237.343,-376.161 161.658,-386.839"/>
<polygon fill="black" stroke="black" points="160.873,-383.419 151.543,-388.441 161.968,-390.333 160.873,-383.419"/>
</a>
<text text-anchor="middle" x="503.745" y="-392.4" font-family="Times,serif" font-size="14.00">Login(&#39;VinniPuhh&#39;, &#39;Incorrect&#39;)/&#39;Failure&#39;</text>
</g>
<!-- 2 -->
<g id="node3" class="node"><title>2</title>
<a xlink:title="{&#39;WebModel&#39;: {&#39;userToInt&#39;: {}, &#39;mode&#39;: &#39;Running&#39;, &#39;usersLoggedIn&#39;: [&#39;VinniPuhh&#39;]}}">
<ellipse fill="white" stroke="black" cx="123.387" cy="-304" rx="27" ry="18"/>
<text text-anchor="middle" x="123.387" y="-298.4" font-family="Times,serif" font-size="14.00">2</text>
</a>
</g>
<!-- 1&#45;&gt;2 -->
<g id="edge8" class="edge"><title>1&#45;&gt;2</title>
<a xlink:title="Login(&#39;VinniPuhh&#39;, &#39;Correct&#39;)/&#39;Success&#39;">
<path fill="none" stroke="black" d="M92.9639,-393.732C50.3638,-387.904 -19.236,-373.078 5.45121,-340 23.8333,-315.37 58.8131,-307.371 85.9233,-305.088"/>
<polygon fill="black" stroke="black" points="86.4789,-308.56 96.2461,-304.455 86.0508,-301.574 86.4789,-308.56"/>
</a>
<text text-anchor="middle" x="113.855" y="-343.4" font-family="Times,serif" font-size="14.00">Login(&#39;VinniPuhh&#39;, &#39;Correct&#39;)/&#39;Success&#39;</text>
</g>
<!-- 2&#45;&gt;1 -->
<g id="edge10" class="edge"><title>2&#45;&gt;1</title>
<a xlink:title="Logout(&#39;VinniPuhh&#39;,)">
<path fill="none" stroke="black" d="M150.213,-306.552C173.071,-309.46 204.644,-317.584 220.387,-340 238.113,-365.242 197.063,-381.031 163.003,-389.425"/>
<polygon fill="black" stroke="black" points="162.138,-386.033 153.184,-391.697 163.715,-392.853 162.138,-386.033"/>
</a>
<text text-anchor="middle" x="284.463" y="-343.4" font-family="Times,serif" font-size="14.00">Logout(&#39;VinniPuhh&#39;,)</text>
</g>
<!-- 2&#45;&gt;2 -->
<g id="edge12" class="edge"><title>2&#45;&gt;2</title>
<a xlink:title="Login(&#39;OleBrumm&#39;, &#39;Incorrect&#39;)/&#39;Failure&#39;">
<path fill="none" stroke="black" d="M149.733,-308.109C159.92,-308.292 168.387,-306.922 168.387,-304 168.387,-302.128 164.912,-300.893 159.736,-300.296"/>
<polygon fill="black" stroke="black" points="159.867,-296.798 149.733,-299.891 159.584,-303.792 159.867,-296.798"/>
</a>
<text text-anchor="middle" x="279.365" y="-298.4" font-family="Times,serif" font-size="14.00">Login(&#39;OleBrumm&#39;, &#39;Incorrect&#39;)/&#39;Failure&#39;</text>
</g>
<!-- 2&#45;&gt;2 -->
<g id="edge16" class="edge"><title>2&#45;&gt;2</title>
<a xlink:title="ReadInt(&#39;VinniPuhh&#39;,)/0">
<path fill="none" stroke="black" d="M147.445,-312.73C214.432,-325.769 390.343,-322.859 390.343,-304 390.343,-286.025 230.537,-282.539 157.553,-293.542"/>
<polygon fill="black" stroke="black" points="156.712,-290.135 147.445,-295.27 157.891,-297.035 156.712,-290.135"/>
</a>
<text text-anchor="middle" x="456.802" y="-298.4" font-family="Times,serif" font-size="14.00">ReadInt(&#39;VinniPuhh&#39;,)/0</text>
</g>
<!-- 3 -->
<g id="node4" class="node"><title>3</title>
<a xlink:title="{&#39;WebModel&#39;: {&#39;userToInt&#39;: {&#39;VinniPuhh&#39;: 1}, &#39;mode&#39;: &#39;Running&#39;, &#39;usersLoggedIn&#39;: [&#39;VinniPuhh&#39;]}}">
<ellipse fill="white" stroke="black" cx="107.387" cy="-120" rx="27" ry="18"/>
<text text-anchor="middle" x="107.387" y="-114.4" font-family="Times,serif" font-size="14.00">3</text>
</a>
</g>
<!-- 2&#45;&gt;3 -->
<g id="edge14" class="edge"><title>2&#45;&gt;3</title>
<a xlink:title="UpdateInt(&#39;VinniPuhh&#39;, 1)">
<path fill="none" stroke="black" d="M121.882,-285.878C119.106,-254.307 113.16,-186.673 109.81,-148.568"/>
<polygon fill="black" stroke="black" points="113.262,-147.864 108.9,-138.209 106.289,-148.477 113.262,-147.864"/>
</a>
<text text-anchor="middle" x="189.482" y="-208.4" font-family="Times,serif" font-size="14.00">UpdateInt(&#39;VinniPuhh&#39;, 1)</text>
</g>
<!-- 4 -->
<g id="node5" class="node"><title>4</title>
<a xlink:title="{&#39;WebModel&#39;: {&#39;userToInt&#39;: {&#39;VinniPuhh&#39;: 2}, &#39;mode&#39;: &#39;Running&#39;, &#39;usersLoggedIn&#39;: [&#39;VinniPuhh&#39;]}}">
<ellipse fill="white" stroke="black" cx="307.387" cy="-214" rx="27" ry="18"/>
<text text-anchor="middle" x="307.387" y="-208.4" font-family="Times,serif" font-size="14.00">4</text>
</a>
</g>
<!-- 2&#45;&gt;4 -->
<g id="edge18" class="edge"><title>2&#45;&gt;4</title>
<a xlink:title="UpdateInt(&#39;VinniPuhh&#39;, 2)">
<path fill="none" stroke="black" d="M144.854,-292.733C177.4,-277.167 239.379,-247.525 276.685,-229.684"/>
<polygon fill="black" stroke="black" points="278.545,-232.674 286.056,-225.202 275.525,-226.359 278.545,-232.674"/>
</a>
<text text-anchor="middle" x="304.482" y="-253.4" font-family="Times,serif" font-size="14.00">UpdateInt(&#39;VinniPuhh&#39;, 2)</text>
</g>
<!-- 3&#45;&gt;3 -->
<g id="edge22" class="edge"><title>3&#45;&gt;3</title>
<a xlink:title="Login(&#39;OleBrumm&#39;, &#39;Incorrect&#39;)/&#39;Failure&#39;">
<path fill="none" stroke="black" d="M134.182,-122.993C144.167,-123.092 152.387,-122.094 152.387,-120 152.387,-118.691 149.176,-117.811 144.33,-117.359"/>
<polygon fill="black" stroke="black" points="144.297,-113.855 134.182,-117.007 144.054,-120.851 144.297,-113.855"/>
</a>
<text text-anchor="middle" x="263.365" y="-114.4" font-family="Times,serif" font-size="14.00">Login(&#39;OleBrumm&#39;, &#39;Incorrect&#39;)/&#39;Failure&#39;</text>
</g>
<!-- 3&#45;&gt;3 -->
<g id="edge24" class="edge"><title>3&#45;&gt;3</title>
<a xlink:title="UpdateInt(&#39;VinniPuhh&#39;, 1)">
<path fill="none" stroke="black" d="M131.91,-128.227C199.243,-140.292 374.343,-137.55 374.343,-120 374.343,-103.273 215.274,-99.9974 142.06,-110.174"/>
<polygon fill="black" stroke="black" points="141.244,-106.76 131.91,-111.773 142.333,-113.674 141.244,-106.76"/>
</a>
<text text-anchor="middle" x="446.438" y="-114.4" font-family="Times,serif" font-size="14.00">UpdateInt(&#39;VinniPuhh&#39;, 1)</text>
</g>
<!-- 3&#45;&gt;3 -->
<g id="edge26" class="edge"><title>3&#45;&gt;3</title>
<a xlink:title="ReadInt(&#39;VinniPuhh&#39;,)/1">
<path fill="none" stroke="black" d="M131.892,-127.973C222.448,-144.43 518.533,-141.773 518.533,-120 518.533,-98.9715 242.343,-95.7736 141.878,-110.406"/>
<polygon fill="black" stroke="black" points="141.202,-106.97 131.892,-112.027 142.323,-113.88 141.202,-106.97"/>
</a>
<text text-anchor="middle" x="584.992" y="-114.4" font-family="Times,serif" font-size="14.00">ReadInt(&#39;VinniPuhh&#39;,)/1</text>
</g>
<!-- 3&#45;&gt;4 -->
<g id="edge28" class="edge"><title>3&#45;&gt;4</title>
<a xlink:title="UpdateInt(&#39;VinniPuhh&#39;, 2)">
<path fill="none" stroke="black" d="M133.913,-123.796C177.725,-128.896 262.636,-140.972 285.387,-160 293.384,-166.689 298.519,-176.765 301.796,-186.342"/>
<polygon fill="black" stroke="black" points="298.442,-187.343 304.58,-195.979 305.167,-185.4 298.442,-187.343"/>
</a>
<text text-anchor="middle" x="370.482" y="-163.4" font-family="Times,serif" font-size="14.00">UpdateInt(&#39;VinniPuhh&#39;, 2)</text>
</g>
<!-- 5 -->
<g id="node6" class="node"><title>5</title>
<a xlink:title="{&#39;WebModel&#39;: {&#39;userToInt&#39;: {&#39;VinniPuhh&#39;: 1}, &#39;mode&#39;: &#39;Running&#39;, &#39;usersLoggedIn&#39;: []}}">
<ellipse fill="white" stroke="black" cx="107.387" cy="-22" rx="27" ry="18"/>
<ellipse fill="none" stroke="black" cx="107.387" cy="-22" rx="31" ry="22"/>
<text text-anchor="middle" x="107.387" y="-16.4" font-family="Times,serif" font-size="14.00">5</text>
</a>
</g>
<!-- 3&#45;&gt;5 -->
<g id="edge20" class="edge"><title>3&#45;&gt;5</title>
<a xlink:title="Logout(&#39;VinniPuhh&#39;,)">
<path fill="none" stroke="black" d="M82.969,-112.249C67.1733,-106.474 47.8279,-96.4244 38.2344,-80 27.3172,-61.3092 48.6899,-46.099 70.4805,-36.1066"/>
<polygon fill="black" stroke="black" points="71.9291,-39.2938 79.752,-32.1486 69.1808,-32.8559 71.9291,-39.2938"/>
</a>
<text text-anchor="middle" x="97.4629" y="-65.4" font-family="Times,serif" font-size="14.00">Logout(&#39;VinniPuhh&#39;,)</text>
</g>
<!-- 4&#45;&gt;3 -->
<g id="edge34" class="edge"><title>4&#45;&gt;3</title>
<a xlink:title="UpdateInt(&#39;VinniPuhh&#39;, 1)">
<path fill="none" stroke="black" d="M284.323,-204.555C275.38,-201.52 264.996,-198.286 255.387,-196 203.695,-183.703 180.44,-208.875 137.196,-178 126.863,-170.622 119.828,-158.555 115.201,-147.419"/>
<polygon fill="black" stroke="black" points="118.476,-146.184 111.731,-138.013 111.908,-148.606 118.476,-146.184"/>
</a>
<text text-anchor="middle" x="209.482" y="-163.4" font-family="Times,serif" font-size="14.00">UpdateInt(&#39;VinniPuhh&#39;, 1)</text>
</g>
<!-- 4&#45;&gt;4 -->
<g id="edge32" class="edge"><title>4&#45;&gt;4</title>
<a xlink:title="Login(&#39;OleBrumm&#39;, &#39;Incorrect&#39;)/&#39;Failure&#39;">
<path fill="none" stroke="black" d="M334.182,-216.744C344.167,-216.834 352.387,-215.919 352.387,-214 352.387,-212.8 349.176,-211.993 344.33,-211.579"/>
<polygon fill="black" stroke="black" points="344.288,-208.076 334.182,-211.256 344.065,-215.072 344.288,-208.076"/>
</a>
<text text-anchor="middle" x="463.365" y="-208.4" font-family="Times,serif" font-size="14.00">Login(&#39;OleBrumm&#39;, &#39;Incorrect&#39;)/&#39;Failure&#39;</text>
</g>
<!-- 4&#45;&gt;4 -->
<g id="edge36" class="edge"><title>4&#45;&gt;4</title>
<a xlink:title="ReadInt(&#39;VinniPuhh&#39;,)/2">
<path fill="none" stroke="black" d="M331.91,-222.095C399.243,-233.967 574.343,-231.269 574.343,-214 574.343,-197.541 415.274,-194.318 342.06,-204.332"/>
<polygon fill="black" stroke="black" points="341.256,-200.915 331.91,-205.905 342.329,-207.832 341.256,-200.915"/>
</a>
<text text-anchor="middle" x="640.802" y="-208.4" font-family="Times,serif" font-size="14.00">ReadInt(&#39;VinniPuhh&#39;,)/2</text>
</g>
<!-- 4&#45;&gt;4 -->
<g id="edge38" class="edge"><title>4&#45;&gt;4</title>
<a xlink:title="UpdateInt(&#39;VinniPuhh&#39;, 2)">
<path fill="none" stroke="black" d="M331.725,-221.812C420.503,-237.768 707.261,-235.164 707.261,-214 707.261,-193.58 440.311,-190.438 341.801,-204.574"/>
<polygon fill="black" stroke="black" points="341.045,-201.15 331.725,-206.188 342.152,-208.062 341.045,-201.15"/>
</a>
<text text-anchor="middle" x="779.356" y="-208.4" font-family="Times,serif" font-size="14.00">UpdateInt(&#39;VinniPuhh&#39;, 2)</text>
</g>
<!-- 6 -->
<g id="node7" class="node"><title>6</title>
<a xlink:title="{&#39;WebModel&#39;: {&#39;userToInt&#39;: {&#39;VinniPuhh&#39;: 2}, &#39;mode&#39;: &#39;Running&#39;, &#39;usersLoggedIn&#39;: []}}">
<ellipse fill="white" stroke="black" cx="734.387" cy="-120" rx="27" ry="18"/>
<ellipse fill="none" stroke="black" cx="734.387" cy="-120" rx="31" ry="22"/>
<text text-anchor="middle" x="734.387" y="-114.4" font-family="Times,serif" font-size="14.00">6</text>
</a>
</g>
<!-- 4&#45;&gt;6 -->
<g id="edge30" class="edge"><title>4&#45;&gt;6</title>
<a xlink:title="Logout(&#39;VinniPuhh&#39;,)">
<path fill="none" stroke="black" d="M332.438,-207.256C378.265,-196.878 478.755,-174.714 564.234,-160 621.784,-150.094 638.782,-159.839 694.387,-142 696.959,-141.175 699.562,-140.192 702.143,-139.108"/>
<polygon fill="black" stroke="black" points="703.703,-142.243 711.288,-134.846 700.746,-135.898 703.703,-142.243"/>
</a>
<text text-anchor="middle" x="623.463" y="-163.4" font-family="Times,serif" font-size="14.00">Logout(&#39;VinniPuhh&#39;,)</text>
</g>
<!-- 5&#45;&gt;3 -->
<g id="edge44" class="edge"><title>5&#45;&gt;3</title>
<a xlink:title="Login(&#39;VinniPuhh&#39;, &#39;Correct&#39;)/&#39;Success&#39;">
<path fill="none" stroke="black" d="M131.336,-36.022C147.56,-46.7119 164.662,-62.8381 156.387,-80 152.006,-89.0858 144.365,-96.7082 136.402,-102.735"/>
<polygon fill="black" stroke="black" points="134.371,-99.8838 128.111,-108.431 138.335,-105.653 134.371,-99.8838"/>
</a>
<text text-anchor="middle" x="266.855" y="-65.4" font-family="Times,serif" font-size="14.00">Login(&#39;VinniPuhh&#39;, &#39;Correct&#39;)/&#39;Success&#39;</text>
</g>
<!-- 5&#45;&gt;5 -->
<g id="edge40" class="edge"><title>5&#45;&gt;5</title>
<a xlink:title="Login(&#39;OleBrumm&#39;, &#39;Incorrect&#39;)/&#39;Failure&#39;">
<path fill="none" stroke="black" d="M138.012,-26.5C148.22,-26.5 156.387,-25 156.387,-22 156.387,-20.125 153.197,-18.8359 148.312,-18.1328"/>
<polygon fill="black" stroke="black" points="148.208,-14.6199 138.012,-17.5 147.778,-21.6067 148.208,-14.6199"/>
</a>
<text text-anchor="middle" x="267.365" y="-16.4" font-family="Times,serif" font-size="14.00">Login(&#39;OleBrumm&#39;, &#39;Incorrect&#39;)/&#39;Failure&#39;</text>
</g>
<!-- 5&#45;&gt;5 -->
<g id="edge42" class="edge"><title>5&#45;&gt;5</title>
<a xlink:title="Login(&#39;VinniPuhh&#39;, &#39;Incorrect&#39;)/&#39;Failure&#39;">
<path fill="none" stroke="black" d="M135.543,-31.5593C206.227,-44.1567 378.343,-40.9703 378.343,-22 378.343,-3.88187 221.343,-0.161399 145.658,-10.8386"/>
<polygon fill="black" stroke="black" points="144.873,-7.41932 135.543,-12.4407 145.968,-14.3331 144.873,-7.41932"/>
</a>
<text text-anchor="middle" x="487.745" y="-16.4" font-family="Times,serif" font-size="14.00">Login(&#39;VinniPuhh&#39;, &#39;Incorrect&#39;)/&#39;Failure&#39;</text>
</g>
<!-- 6&#45;&gt;4 -->
<g id="edge50" class="edge"><title>6&#45;&gt;4</title>
<a xlink:title="Login(&#39;VinniPuhh&#39;, &#39;Correct&#39;)/&#39;Success&#39;">
<path fill="none" stroke="black" d="M722.372,-140.354C713.151,-153.375 699.173,-169.638 682.387,-178 623.794,-207.187 427.461,-212.128 344.689,-212.896"/>
<polygon fill="black" stroke="black" points="344.454,-209.398 334.481,-212.975 344.508,-216.398 344.454,-209.398"/>
</a>
<text text-anchor="middle" x="812.855" y="-163.4" font-family="Times,serif" font-size="14.00">Login(&#39;VinniPuhh&#39;, &#39;Correct&#39;)/&#39;Success&#39;</text>
</g>
<!-- 6&#45;&gt;6 -->
<g id="edge46" class="edge"><title>6&#45;&gt;6</title>
<a xlink:title="Login(&#39;OleBrumm&#39;, &#39;Incorrect&#39;)/&#39;Failure&#39;">
<path fill="none" stroke="black" d="M765.012,-124.5C775.22,-124.5 783.387,-123 783.387,-120 783.387,-118.125 780.197,-116.836 775.312,-116.133"/>
<polygon fill="black" stroke="black" points="775.208,-112.62 765.012,-115.5 774.778,-119.607 775.208,-112.62"/>
</a>
<text text-anchor="middle" x="894.365" y="-114.4" font-family="Times,serif" font-size="14.00">Login(&#39;OleBrumm&#39;, &#39;Incorrect&#39;)/&#39;Failure&#39;</text>
</g>
<!-- 6&#45;&gt;6 -->
<g id="edge48" class="edge"><title>6&#45;&gt;6</title>
<a xlink:title="Login(&#39;VinniPuhh&#39;, &#39;Incorrect&#39;)/&#39;Failure&#39;">
<path fill="none" stroke="black" d="M762.543,-129.559C833.227,-142.157 1005.34,-138.97 1005.34,-120 1005.34,-101.882 848.343,-98.1614 772.658,-108.839"/>
<polygon fill="black" stroke="black" points="771.873,-105.419 762.543,-110.441 772.968,-112.333 771.873,-105.419"/>
</a>
<text text-anchor="middle" x="1114.75" y="-114.4" font-family="Times,serif" font-size="14.00">Login(&#39;VinniPuhh&#39;, &#39;Incorrect&#39;)/&#39;Failure&#39;</text>
</g>
</g>
</svg>
