<?xml version="1.0" encoding="UTF-8" standalone="no"?>
<!DOCTYPE svg PUBLIC "-//W3C//DTD SVG 1.1//EN"
 "http://www.w3.org/Graphics/SVG/1.1/DTD/svg11.dtd">
<!-- Generated by graphviz version 2.28.0 (20111028.1807)
 -->
<!-- Title: TestIntComposeLogoutFSM Pages: 1 -->
<svg width="250pt" height="404pt"
 viewBox="0.00 0.00 249.94 404.00" xmlns="http://www.w3.org/2000/svg" xmlns:xlink="http://www.w3.org/1999/xlink">
<g id="graph1" class="graph" transform="scale(1 1) rotate(0) translate(4 400)">
<title>TestIntComposeLogoutFSM</title>
<polygon fill="white" stroke="white" points="-4,5 -4,-400 246.936,-400 246.936,5 -4,5"/>
<!-- 0 -->
<g id="node1" class="node"><title>0</title>
<a xlink:title="{&#39;TestIntWrongLogout&#39;: (0, 0), &#39;TestIntSuccess&#39;: (0, 0)}">
<ellipse fill="lightgray" stroke="black" cx="27" cy="-378" rx="27" ry="18"/>
<text text-anchor="middle" x="27" y="-372.4" font-family="Times,serif" font-size="14.00">0</text>
</a>
</g>
<!-- 1 -->
<g id="node2" class="node"><title>1</title>
<a xlink:title="{&#39;TestIntWrongLogout&#39;: (0, 1), &#39;TestIntSuccess&#39;: (0, 1)}">
<ellipse fill="white" stroke="black" cx="27" cy="-288" rx="27" ry="18"/>
<text text-anchor="middle" x="27" y="-282.4" font-family="Times,serif" font-size="14.00">1</text>
</a>
</g>
<!-- 0&#45;&gt;1 -->
<g id="edge2" class="edge"><title>0&#45;&gt;1</title>
<a xlink:title="Initialize()">
<path fill="none" stroke="black" d="M27,-359.614C27,-347.24 27,-330.369 27,-316.22"/>
<polygon fill="black" stroke="black" points="30.5001,-316.05 27,-306.05 23.5001,-316.05 30.5001,-316.05"/>
</a>
<text text-anchor="middle" x="56.5381" y="-327.4" font-family="Times,serif" font-size="14.00">Initialize()</text>
</g>
<!-- 2 -->
<g id="node3" class="node"><title>2</title>
<a xlink:title="{&#39;TestIntWrongLogout&#39;: (0, 2), &#39;TestIntSuccess&#39;: (0, 2)}">
<ellipse fill="white" stroke="black" cx="27" cy="-198" rx="27" ry="18"/>
<text text-anchor="middle" x="27" y="-192.4" font-family="Times,serif" font-size="14.00">2</text>
</a>
</g>
<!-- 1&#45;&gt;2 -->
<g id="edge4" class="edge"><title>1&#45;&gt;2</title>
<a xlink:title="Login(&#39;VinniPuhh&#39;, &#39;Correct&#39;)/&#39;Success&#39;">
<path fill="none" stroke="black" d="M27,-269.614C27,-257.24 27,-240.369 27,-226.22"/>
<polygon fill="black" stroke="black" points="30.5001,-226.05 27,-216.05 23.5001,-226.05 30.5001,-226.05"/>
</a>
<text text-anchor="middle" x="134.468" y="-237.4" font-family="Times,serif" font-size="14.00">Login(&#39;VinniPuhh&#39;, &#39;Correct&#39;)/&#39;Success&#39;</text>
</g>
<!-- 3 -->
<g id="node4" class="node"><title>3</title>
<a xlink:title="{&#39;TestIntWrongLogout&#39;: (0, 3), &#39;TestIntSuccess&#39;: (0, 3)}">
<ellipse fill="white" stroke="black" cx="27" cy="-108" rx="27" ry="18"/>
<text text-anchor="middle" x="27" y="-102.4" font-family="Times,serif" font-size="14.00">3</text>
</a>
</g>
<!-- 2&#45;&gt;3 -->
<g id="edge6" class="edge"><title>2&#45;&gt;3</title>
<a xlink:title="UpdateInt(&#39;VinniPuhh&#39;, 1)">
<path fill="none" stroke="black" d="M27,-179.614C27,-167.24 27,-150.369 27,-136.22"/>
<polygon fill="black" stroke="black" points="30.5001,-136.05 27,-126.05 23.5001,-136.05 30.5001,-136.05"/>
</a>
<text text-anchor="middle" x="99.0952" y="-147.4" font-family="Times,serif" font-size="14.00">UpdateInt(&#39;VinniPuhh&#39;, 1)</text>
</g>
<!-- 4 -->
<g id="node5" class="node"><title>4</title>
<a xlink:title="{&#39;TestIntWrongLogout&#39;: (0, 4), &#39;TestIntSuccess&#39;: (0, 4)}">
<ellipse fill="yellow" stroke="black" cx="27" cy="-18" rx="27" ry="18"/>
<text text-anchor="middle" x="27" y="-12.4" font-family="Times,serif" font-size="14.00">4</text>
</a>
</g>
<!-- 3&#45;&gt;4 -->
<g id="edge8" class="edge"><title>3&#45;&gt;4</title>
<a xlink:title="ReadInt(&#39;VinniPuhh&#39;,)/1">
<path fill="none" stroke="black" d="M27,-89.614C27,-77.2403 27,-60.3686 27,-46.2198"/>
<polygon fill="black" stroke="black" points="30.5001,-46.0504 27,-36.0504 23.5001,-46.0504 30.5001,-46.0504"/>
</a>
<text text-anchor="middle" x="93.459" y="-57.4" font-family="Times,serif" font-size="14.00">ReadInt(&#39;VinniPuhh&#39;,)/1</text>
</g>
</g>
</svg>
