<?xml version="1.0" encoding="UTF-8" standalone="no"?>
<!DOCTYPE svg PUBLIC "-//W3C//DTD SVG 1.1//EN"
 "http://www.w3.org/Graphics/SVG/1.1/DTD/svg11.dtd">
<!-- Generated by graphviz version 2.28.0 (20111028.1807)
 -->
<!-- Title: TestIntTwoRuns_Add Pages: 1 -->
<svg width="492pt" height="322pt"
 viewBox="0.00 0.00 491.94 322.00" xmlns="http://www.w3.org/2000/svg" xmlns:xlink="http://www.w3.org/1999/xlink">
<g id="graph1" class="graph" transform="scale(1 1) rotate(0) translate(4 318)">
<title>TestIntTwoRuns_Add</title>
<polygon fill="white" stroke="white" points="-4,5 -4,-318 488.936,-318 488.936,5 -4,5"/>
<!-- 0 -->
<g id="node1" class="node"><title>0</title>
<a xlink:title="{&#39;TestIntTwoRuns&#39;: (0, 0)}">
<ellipse fill="lightgray" stroke="black" cx="31" cy="-296" rx="27" ry="18"/>
<text text-anchor="middle" x="31" y="-290.4" font-family="Times,serif" font-size="14.00">0</text>
</a>
</g>
<!-- 1 -->
<g id="node2" class="node"><title>1</title>
<a xlink:title="{&#39;TestIntTwoRuns&#39;: (0, 1)}">
<ellipse fill="white" stroke="black" cx="31" cy="-206" rx="27" ry="18"/>
<text text-anchor="middle" x="31" y="-200.4" font-family="Times,serif" font-size="14.00">1</text>
</a>
</g>
<!-- 0&#45;&gt;1 -->
<g id="edge2" class="edge"><title>0&#45;&gt;1</title>
<a xlink:title="Initialize()">
<path fill="none" stroke="black" d="M31,-277.614C31,-265.24 31,-248.369 31,-234.22"/>
<polygon fill="black" stroke="black" points="34.5001,-234.05 31,-224.05 27.5001,-234.05 34.5001,-234.05"/>
</a>
<text text-anchor="middle" x="60.5381" y="-245.4" font-family="Times,serif" font-size="14.00">Initialize()</text>
</g>
<!-- 2 -->
<g id="node3" class="node"><title>2</title>
<a xlink:title="{&#39;TestIntTwoRuns&#39;: (0, 2)}">
<ellipse fill="white" stroke="black" cx="31" cy="-116" rx="27" ry="18"/>
<text text-anchor="middle" x="31" y="-110.4" font-family="Times,serif" font-size="14.00">2</text>
</a>
</g>
<!-- 1&#45;&gt;2 -->
<g id="edge4" class="edge"><title>1&#45;&gt;2</title>
<a xlink:title="Login(&#39;VinniPuhh&#39;, &#39;Correct&#39;)/&#39;Success&#39;">
<path fill="none" stroke="black" d="M31,-187.614C31,-175.24 31,-158.369 31,-144.22"/>
<polygon fill="black" stroke="black" points="34.5001,-144.05 31,-134.05 27.5001,-144.05 34.5001,-144.05"/>
</a>
<text text-anchor="middle" x="138.468" y="-155.4" font-family="Times,serif" font-size="14.00">Login(&#39;VinniPuhh&#39;, &#39;Correct&#39;)/&#39;Success&#39;</text>
</g>
<!-- 3 -->
<g id="node4" class="node"><title>3</title>
<a xlink:title="{&#39;TestIntTwoRuns&#39;: (0, 3)}">
<ellipse fill="lightgreen" stroke="black" cx="31" cy="-22" rx="27" ry="18"/>
<ellipse fill="none" stroke="black" cx="31" cy="-22" rx="31" ry="22"/>
<text text-anchor="middle" x="31" y="-16.4" font-family="Times,serif" font-size="14.00">3</text>
</a>
</g>
<!-- 2&#45;&gt;3 -->
<g id="edge6" class="edge"><title>2&#45;&gt;3</title>
<a xlink:title="UpdateInt(&#39;VinniPuhh&#39;, 1)">
<path fill="none" stroke="black" d="M31,-97.6955C31,-85.4651 31,-68.7287 31,-54.1979"/>
<polygon fill="black" stroke="black" points="34.5001,-54.103 31,-44.1031 27.5001,-54.1031 34.5001,-54.103"/>
</a>
<text text-anchor="middle" x="103.095" y="-65.4" font-family="Times,serif" font-size="14.00">UpdateInt(&#39;VinniPuhh&#39;, 1)</text>
</g>
<!-- 4 -->
<g id="node5" class="node"><title>4</title>
<a xlink:title="{&#39;TestIntTwoRuns&#39;: (1, 0)}">
<ellipse fill="lightgray" stroke="black" cx="269" cy="-296" rx="27" ry="18"/>
<text text-anchor="middle" x="269" y="-290.4" font-family="Times,serif" font-size="14.00">4</text>
</a>
</g>
<!-- 5 -->
<g id="node6" class="node"><title>5</title>
<a xlink:title="{&#39;TestIntTwoRuns&#39;: (1, 1)}">
<ellipse fill="white" stroke="black" cx="269" cy="-206" rx="27" ry="18"/>
<text text-anchor="middle" x="269" y="-200.4" font-family="Times,serif" font-size="14.00">5</text>
</a>
</g>
<!-- 4&#45;&gt;5 -->
<g id="edge8" class="edge"><title>4&#45;&gt;5</title>
<a xlink:title="Initialize()">
<path fill="none" stroke="black" d="M269,-277.614C269,-265.24 269,-248.369 269,-234.22"/>
<polygon fill="black" stroke="black" points="272.5,-234.05 269,-224.05 265.5,-234.05 272.5,-234.05"/>
</a>
<text text-anchor="middle" x="298.538" y="-245.4" font-family="Times,serif" font-size="14.00">Initialize()</text>
</g>
<!-- 6 -->
<g id="node7" class="node"><title>6</title>
<a xlink:title="{&#39;TestIntTwoRuns&#39;: (1, 2)}">
<ellipse fill="white" stroke="black" cx="269" cy="-116" rx="27" ry="18"/>
<text text-anchor="middle" x="269" y="-110.4" font-family="Times,serif" font-size="14.00">6</text>
</a>
</g>
<!-- 5&#45;&gt;6 -->
<g id="edge10" class="edge"><title>5&#45;&gt;6</title>
<a xlink:title="Login(&#39;VinniPuhh&#39;, &#39;Correct&#39;)/&#39;Success&#39;">
<path fill="none" stroke="black" d="M269,-187.614C269,-175.24 269,-158.369 269,-144.22"/>
<polygon fill="black" stroke="black" points="272.5,-144.05 269,-134.05 265.5,-144.05 272.5,-144.05"/>
</a>
<text text-anchor="middle" x="376.468" y="-155.4" font-family="Times,serif" font-size="14.00">Login(&#39;VinniPuhh&#39;, &#39;Correct&#39;)/&#39;Success&#39;</text>
</g>
<!-- 7 -->
<g id="node8" class="node"><title>7</title>
<a xlink:title="{&#39;TestIntTwoRuns&#39;: (1, 3)}">
<ellipse fill="lightgreen" stroke="black" cx="269" cy="-22" rx="27" ry="18"/>
<ellipse fill="none" stroke="black" cx="269" cy="-22" rx="31" ry="22"/>
<text text-anchor="middle" x="269" y="-16.4" font-family="Times,serif" font-size="14.00">7</text>
</a>
</g>
<!-- 6&#45;&gt;7 -->
<g id="edge12" class="edge"><title>6&#45;&gt;7</title>
<a xlink:title="UpdateInt(&#39;VinniPuhh&#39;, 1)">
<path fill="none" stroke="black" d="M269,-97.6955C269,-85.4651 269,-68.7287 269,-54.1979"/>
<polygon fill="black" stroke="black" points="272.5,-54.103 269,-44.1031 265.5,-54.1031 272.5,-54.103"/>
</a>
<text text-anchor="middle" x="341.095" y="-65.4" font-family="Times,serif" font-size="14.00">UpdateInt(&#39;VinniPuhh&#39;, 1)</text>
</g>
</g>
</svg>
