<?xml version="1.0" encoding="UTF-8" standalone="no"?>
<!DOCTYPE svg PUBLIC "-//W3C//DTD SVG 1.1//EN"
 "http://www.w3.org/Graphics/SVG/1.1/DTD/svg11.dtd">
<!-- Generated by graphviz version 2.28.0 (20111028.1807)
 -->
<!-- Title: TestIntWrongLogoutFSM Pages: 1 -->
<svg width="254pt" height="502pt"
 viewBox="0.00 0.00 253.94 502.00" xmlns="http://www.w3.org/2000/svg" xmlns:xlink="http://www.w3.org/1999/xlink">
<g id="graph1" class="graph" transform="scale(1 1) rotate(0) translate(4 498)">
<title>TestIntWrongLogoutFSM</title>
<polygon fill="white" stroke="white" points="-4,5 -4,-498 250.936,-498 250.936,5 -4,5"/>
<!-- 0 -->
<g id="node1" class="node"><title>0</title>
<a xlink:title="{&#39;TestIntWrongLogout&#39;: (0, 0)}">
<ellipse fill="lightgray" stroke="black" cx="31" cy="-476" rx="27" ry="18"/>
<text text-anchor="middle" x="31" y="-470.4" font-family="Times,serif" font-size="14.00">0</text>
</a>
</g>
<!-- 1 -->
<g id="node2" class="node"><title>1</title>
<a xlink:title="{&#39;TestIntWrongLogout&#39;: (0, 1)}">
<ellipse fill="white" stroke="black" cx="31" cy="-386" rx="27" ry="18"/>
<text text-anchor="middle" x="31" y="-380.4" font-family="Times,serif" font-size="14.00">1</text>
</a>
</g>
<!-- 0&#45;&gt;1 -->
<g id="edge2" class="edge"><title>0&#45;&gt;1</title>
<a xlink:title="Initialize()">
<path fill="none" stroke="black" d="M31,-457.614C31,-445.24 31,-428.369 31,-414.22"/>
<polygon fill="black" stroke="black" points="34.5001,-414.05 31,-404.05 27.5001,-414.05 34.5001,-414.05"/>
</a>
<text text-anchor="middle" x="60.5381" y="-425.4" font-family="Times,serif" font-size="14.00">Initialize()</text>
</g>
<!-- 2 -->
<g id="node3" class="node"><title>2</title>
<a xlink:title="{&#39;TestIntWrongLogout&#39;: (0, 2)}">
<ellipse fill="white" stroke="black" cx="31" cy="-296" rx="27" ry="18"/>
<text text-anchor="middle" x="31" y="-290.4" font-family="Times,serif" font-size="14.00">2</text>
</a>
</g>
<!-- 1&#45;&gt;2 -->
<g id="edge4" class="edge"><title>1&#45;&gt;2</title>
<a xlink:title="Login(&#39;VinniPuhh&#39;, &#39;Correct&#39;)/&#39;Success&#39;">
<path fill="none" stroke="black" d="M31,-367.614C31,-355.24 31,-338.369 31,-324.22"/>
<polygon fill="black" stroke="black" points="34.5001,-324.05 31,-314.05 27.5001,-324.05 34.5001,-324.05"/>
</a>
<text text-anchor="middle" x="138.468" y="-335.4" font-family="Times,serif" font-size="14.00">Login(&#39;VinniPuhh&#39;, &#39;Correct&#39;)/&#39;Success&#39;</text>
</g>
<!-- 3 -->
<g id="node4" class="node"><title>3</title>
<a xlink:title="{&#39;TestIntWrongLogout&#39;: (0, 3)}">
<ellipse fill="white" stroke="black" cx="31" cy="-206" rx="27" ry="18"/>
<text text-anchor="middle" x="31" y="-200.4" font-family="Times,serif" font-size="14.00">3</text>
</a>
</g>
<!-- 2&#45;&gt;3 -->
<g id="edge6" class="edge"><title>2&#45;&gt;3</title>
<a xlink:title="UpdateInt(&#39;VinniPuhh&#39;, 1)">
<path fill="none" stroke="black" d="M31,-277.614C31,-265.24 31,-248.369 31,-234.22"/>
<polygon fill="black" stroke="black" points="34.5001,-234.05 31,-224.05 27.5001,-234.05 34.5001,-234.05"/>
</a>
<text text-anchor="middle" x="103.095" y="-245.4" font-family="Times,serif" font-size="14.00">UpdateInt(&#39;VinniPuhh&#39;, 1)</text>
</g>
<!-- 4 -->
<g id="node5" class="node"><title>4</title>
<a xlink:title="{&#39;TestIntWrongLogout&#39;: (0, 4)}">
<ellipse fill="white" stroke="black" cx="31" cy="-116" rx="27" ry="18"/>
<text text-anchor="middle" x="31" y="-110.4" font-family="Times,serif" font-size="14.00">4</text>
</a>
</g>
<!-- 3&#45;&gt;4 -->
<g id="edge8" class="edge"><title>3&#45;&gt;4</title>
<a xlink:title="ReadInt(&#39;VinniPuhh&#39;,)/1">
<path fill="none" stroke="black" d="M31,-187.614C31,-175.24 31,-158.369 31,-144.22"/>
<polygon fill="black" stroke="black" points="34.5001,-144.05 31,-134.05 27.5001,-144.05 34.5001,-144.05"/>
</a>
<text text-anchor="middle" x="97.459" y="-155.4" font-family="Times,serif" font-size="14.00">ReadInt(&#39;VinniPuhh&#39;,)/1</text>
</g>
<!-- 5 -->
<g id="node6" class="node"><title>5</title>
<a xlink:title="{&#39;TestIntWrongLogout&#39;: (0, 5)}">
<ellipse fill="lightgreen" stroke="black" cx="31" cy="-22" rx="27" ry="18"/>
<ellipse fill="none" stroke="black" cx="31" cy="-22" rx="31" ry="22"/>
<text text-anchor="middle" x="31" y="-16.4" font-family="Times,serif" font-size="14.00">5</text>
</a>
</g>
<!-- 4&#45;&gt;5 -->
<g id="edge10" class="edge"><title>4&#45;&gt;5</title>
<a xlink:title="Logout(&#39;OleBrumm&#39;,)">
<path fill="none" stroke="black" d="M31,-97.6955C31,-85.4651 31,-68.7287 31,-54.1979"/>
<polygon fill="black" stroke="black" points="34.5001,-54.103 31,-44.1031 27.5001,-54.1031 34.5001,-54.103"/>
</a>
<text text-anchor="middle" x="91.6519" y="-65.4" font-family="Times,serif" font-size="14.00">Logout(&#39;OleBrumm&#39;,)</text>
</g>
</g>
</svg>
