<?xml version="1.0" encoding="UTF-8" standalone="no"?>
<!DOCTYPE svg PUBLIC "-//W3C//DTD SVG 1.1//EN"
 "http://www.w3.org/Graphics/SVG/1.1/DTD/svg11.dtd">
<!-- Generated by graphviz version 2.28.0 (20111028.1807)
 -->
<!-- Title: TestIntTwoRunsFSM Pages: 1 -->
<svg width="492pt" height="600pt"
 viewBox="0.00 0.00 491.94 600.00" xmlns="http://www.w3.org/2000/svg" xmlns:xlink="http://www.w3.org/1999/xlink">
<g id="graph1" class="graph" transform="scale(1 1) rotate(0) translate(4 596)">
<title>TestIntTwoRunsFSM</title>
<polygon fill="white" stroke="white" points="-4,5 -4,-596 488.936,-596 488.936,5 -4,5"/>
<!-- 0 -->
<g id="node1" class="node"><title>0</title>
<a xlink:title="{&#39;TestIntTwoRuns&#39;: (0, 0)}">
<ellipse fill="lightgray" stroke="black" cx="31" cy="-574" rx="27" ry="18"/>
<text text-anchor="middle" x="31" y="-568.4" font-family="Times,serif" font-size="14.00">0</text>
</a>
</g>
<!-- 1 -->
<g id="node2" class="node"><title>1</title>
<a xlink:title="{&#39;TestIntTwoRuns&#39;: (0, 1)}">
<ellipse fill="white" stroke="black" cx="31" cy="-484" rx="27" ry="18"/>
<text text-anchor="middle" x="31" y="-478.4" font-family="Times,serif" font-size="14.00">1</text>
</a>
</g>
<!-- 0&#45;&gt;1 -->
<g id="edge2" class="edge"><title>0&#45;&gt;1</title>
<a xlink:title="Initialize()">
<path fill="none" stroke="black" d="M31,-555.614C31,-543.24 31,-526.369 31,-512.22"/>
<polygon fill="black" stroke="black" points="34.5001,-512.05 31,-502.05 27.5001,-512.05 34.5001,-512.05"/>
</a>
<text text-anchor="middle" x="60.5381" y="-523.4" font-family="Times,serif" font-size="14.00">Initialize()</text>
</g>
<!-- 2 -->
<g id="node3" class="node"><title>2</title>
<a xlink:title="{&#39;TestIntTwoRuns&#39;: (0, 2)}">
<ellipse fill="white" stroke="black" cx="31" cy="-394" rx="27" ry="18"/>
<text text-anchor="middle" x="31" y="-388.4" font-family="Times,serif" font-size="14.00">2</text>
</a>
</g>
<!-- 1&#45;&gt;2 -->
<g id="edge4" class="edge"><title>1&#45;&gt;2</title>
<a xlink:title="Login(&#39;VinniPuhh&#39;, &#39;Correct&#39;)/&#39;Success&#39;">
<path fill="none" stroke="black" d="M31,-465.614C31,-453.24 31,-436.369 31,-422.22"/>
<polygon fill="black" stroke="black" points="34.5001,-422.05 31,-412.05 27.5001,-422.05 34.5001,-422.05"/>
</a>
<text text-anchor="middle" x="138.468" y="-433.4" font-family="Times,serif" font-size="14.00">Login(&#39;VinniPuhh&#39;, &#39;Correct&#39;)/&#39;Success&#39;</text>
</g>
<!-- 3 -->
<g id="node4" class="node"><title>3</title>
<a xlink:title="{&#39;TestIntTwoRuns&#39;: (0, 3)}">
<ellipse fill="white" stroke="black" cx="31" cy="-304" rx="27" ry="18"/>
<text text-anchor="middle" x="31" y="-298.4" font-family="Times,serif" font-size="14.00">3</text>
</a>
</g>
<!-- 2&#45;&gt;3 -->
<g id="edge6" class="edge"><title>2&#45;&gt;3</title>
<a xlink:title="UpdateInt(&#39;VinniPuhh&#39;, 1)">
<path fill="none" stroke="black" d="M31,-375.614C31,-363.24 31,-346.369 31,-332.22"/>
<polygon fill="black" stroke="black" points="34.5001,-332.05 31,-322.05 27.5001,-332.05 34.5001,-332.05"/>
</a>
<text text-anchor="middle" x="103.095" y="-343.4" font-family="Times,serif" font-size="14.00">UpdateInt(&#39;VinniPuhh&#39;, 1)</text>
</g>
<!-- 4 -->
<g id="node5" class="node"><title>4</title>
<a xlink:title="{&#39;TestIntTwoRuns&#39;: (0, 4)}">
<ellipse fill="white" stroke="black" cx="31" cy="-214" rx="27" ry="18"/>
<text text-anchor="middle" x="31" y="-208.4" font-family="Times,serif" font-size="14.00">4</text>
</a>
</g>
<!-- 3&#45;&gt;4 -->
<g id="edge8" class="edge"><title>3&#45;&gt;4</title>
<a xlink:title="ReadInt(&#39;VinniPuhh&#39;,)/1">
<path fill="none" stroke="black" d="M31,-285.614C31,-273.24 31,-256.369 31,-242.22"/>
<polygon fill="black" stroke="black" points="34.5001,-242.05 31,-232.05 27.5001,-242.05 34.5001,-242.05"/>
</a>
<text text-anchor="middle" x="97.459" y="-253.4" font-family="Times,serif" font-size="14.00">ReadInt(&#39;VinniPuhh&#39;,)/1</text>
</g>
<!-- 5 -->
<g id="node6" class="node"><title>5</title>
<a xlink:title="{&#39;TestIntTwoRuns&#39;: (0, 5)}">
<ellipse fill="lightgreen" stroke="black" cx="31" cy="-120" rx="27" ry="18"/>
<ellipse fill="none" stroke="black" cx="31" cy="-120" rx="31" ry="22"/>
<text text-anchor="middle" x="31" y="-114.4" font-family="Times,serif" font-size="14.00">5</text>
</a>
</g>
<!-- 4&#45;&gt;5 -->
<g id="edge10" class="edge"><title>4&#45;&gt;5</title>
<a xlink:title="Logout(&#39;VinniPuhh&#39;,)">
<path fill="none" stroke="black" d="M31,-195.696C31,-183.465 31,-166.729 31,-152.198"/>
<polygon fill="black" stroke="black" points="34.5001,-152.103 31,-142.103 27.5001,-152.103 34.5001,-152.103"/>
</a>
<text text-anchor="middle" x="90.0762" y="-163.4" font-family="Times,serif" font-size="14.00">Logout(&#39;VinniPuhh&#39;,)</text>
</g>
<!-- 6 -->
<g id="node7" class="node"><title>6</title>
<a xlink:title="{&#39;TestIntTwoRuns&#39;: (1, 0)}">
<ellipse fill="lightgray" stroke="black" cx="269" cy="-574" rx="27" ry="18"/>
<text text-anchor="middle" x="269" y="-568.4" font-family="Times,serif" font-size="14.00">6</text>
</a>
</g>
<!-- 7 -->
<g id="node8" class="node"><title>7</title>
<a xlink:title="{&#39;TestIntTwoRuns&#39;: (1, 1)}">
<ellipse fill="white" stroke="black" cx="269" cy="-484" rx="27" ry="18"/>
<text text-anchor="middle" x="269" y="-478.4" font-family="Times,serif" font-size="14.00">7</text>
</a>
</g>
<!-- 6&#45;&gt;7 -->
<g id="edge12" class="edge"><title>6&#45;&gt;7</title>
<a xlink:title="Initialize()">
<path fill="none" stroke="black" d="M269,-555.614C269,-543.24 269,-526.369 269,-512.22"/>
<polygon fill="black" stroke="black" points="272.5,-512.05 269,-502.05 265.5,-512.05 272.5,-512.05"/>
</a>
<text text-anchor="middle" x="298.538" y="-523.4" font-family="Times,serif" font-size="14.00">Initialize()</text>
</g>
<!-- 8 -->
<g id="node9" class="node"><title>8</title>
<a xlink:title="{&#39;TestIntTwoRuns&#39;: (1, 2)}">
<ellipse fill="white" stroke="black" cx="269" cy="-394" rx="27" ry="18"/>
<text text-anchor="middle" x="269" y="-388.4" font-family="Times,serif" font-size="14.00">8</text>
</a>
</g>
<!-- 7&#45;&gt;8 -->
<g id="edge14" class="edge"><title>7&#45;&gt;8</title>
<a xlink:title="Login(&#39;VinniPuhh&#39;, &#39;Correct&#39;)/&#39;Success&#39;">
<path fill="none" stroke="black" d="M269,-465.614C269,-453.24 269,-436.369 269,-422.22"/>
<polygon fill="black" stroke="black" points="272.5,-422.05 269,-412.05 265.5,-422.05 272.5,-422.05"/>
</a>
<text text-anchor="middle" x="376.468" y="-433.4" font-family="Times,serif" font-size="14.00">Login(&#39;VinniPuhh&#39;, &#39;Correct&#39;)/&#39;Success&#39;</text>
</g>
<!-- 9 -->
<g id="node10" class="node"><title>9</title>
<a xlink:title="{&#39;TestIntTwoRuns&#39;: (1, 3)}">
<ellipse fill="white" stroke="black" cx="269" cy="-304" rx="27" ry="18"/>
<text text-anchor="middle" x="269" y="-298.4" font-family="Times,serif" font-size="14.00">9</text>
</a>
</g>
<!-- 8&#45;&gt;9 -->
<g id="edge16" class="edge"><title>8&#45;&gt;9</title>
<a xlink:title="UpdateInt(&#39;VinniPuhh&#39;, 1)">
<path fill="none" stroke="black" d="M269,-375.614C269,-363.24 269,-346.369 269,-332.22"/>
<polygon fill="black" stroke="black" points="272.5,-332.05 269,-322.05 265.5,-332.05 272.5,-332.05"/>
</a>
<text text-anchor="middle" x="341.095" y="-343.4" font-family="Times,serif" font-size="14.00">UpdateInt(&#39;VinniPuhh&#39;, 1)</text>
</g>
<!-- 10 -->
<g id="node11" class="node"><title>10</title>
<a xlink:title="{&#39;TestIntTwoRuns&#39;: (1, 4)}">
<ellipse fill="white" stroke="black" cx="269" cy="-214" rx="27" ry="18"/>
<text text-anchor="middle" x="269" y="-208.4" font-family="Times,serif" font-size="14.00">10</text>
</a>
</g>
<!-- 9&#45;&gt;10 -->
<g id="edge18" class="edge"><title>9&#45;&gt;10</title>
<a xlink:title="Logout(&#39;VinniPuhh&#39;,)">
<path fill="none" stroke="black" d="M269,-285.614C269,-273.24 269,-256.369 269,-242.22"/>
<polygon fill="black" stroke="black" points="272.5,-242.05 269,-232.05 265.5,-242.05 272.5,-242.05"/>
</a>
<text text-anchor="middle" x="328.076" y="-253.4" font-family="Times,serif" font-size="14.00">Logout(&#39;VinniPuhh&#39;,)</text>
</g>
<!-- 11 -->
<g id="node12" class="node"><title>11</title>
<a xlink:title="{&#39;TestIntTwoRuns&#39;: (1, 5)}">
<ellipse fill="white" stroke="black" cx="269" cy="-120" rx="27" ry="18"/>
<text text-anchor="middle" x="269" y="-114.4" font-family="Times,serif" font-size="14.00">11</text>
</a>
</g>
<!-- 10&#45;&gt;11 -->
<g id="edge20" class="edge"><title>10&#45;&gt;11</title>
<a xlink:title="Login(&#39;VinniPuhh&#39;, &#39;Correct&#39;)/&#39;Success&#39;">
<path fill="none" stroke="black" d="M269,-195.696C269,-182.46 269,-163.947 269,-148.663"/>
<polygon fill="black" stroke="black" points="272.5,-148.227 269,-138.227 265.5,-148.227 272.5,-148.227"/>
</a>
<text text-anchor="middle" x="376.468" y="-163.4" font-family="Times,serif" font-size="14.00">Login(&#39;VinniPuhh&#39;, &#39;Correct&#39;)/&#39;Success&#39;</text>
</g>
<!-- 12 -->
<g id="node13" class="node"><title>12</title>
<a xlink:title="{&#39;TestIntTwoRuns&#39;: (1, 6)}">
<ellipse fill="lightgreen" stroke="black" cx="269" cy="-22" rx="27" ry="18"/>
<ellipse fill="none" stroke="black" cx="269" cy="-22" rx="31" ry="22"/>
<text text-anchor="middle" x="269" y="-16.4" font-family="Times,serif" font-size="14.00">12</text>
</a>
</g>
<!-- 11&#45;&gt;12 -->
<g id="edge22" class="edge"><title>11&#45;&gt;12</title>
<a xlink:title="ReadInt(&#39;VinniPuhh&#39;,)/1">
<path fill="none" stroke="black" d="M269,-101.837C269,-88.6913 269,-70.1941 269,-54.4202"/>
<polygon fill="black" stroke="black" points="272.5,-54.0342 269,-44.0342 265.5,-54.0343 272.5,-54.0342"/>
</a>
<text text-anchor="middle" x="335.459" y="-65.4" font-family="Times,serif" font-size="14.00">ReadInt(&#39;VinniPuhh&#39;,)/1</text>
</g>
</g>
</svg>
