<?xml version="1.0" encoding="UTF-8" standalone="no"?>
<!DOCTYPE svg PUBLIC "-//W3C//DTD SVG 1.1//EN"
 "http://www.w3.org/Graphics/SVG/1.1/DTD/svg11.dtd">
<!-- Generated by graphviz version 2.28.0 (20111028.1807)
 -->
<!-- Title: WebModelFSM Pages: 1 -->
<svg width="2473pt" height="624pt"
 viewBox="0.00 0.00 2473.19 624.00" xmlns="http://www.w3.org/2000/svg" xmlns:xlink="http://www.w3.org/1999/xlink">
<g id="graph1" class="graph" transform="scale(1 1) rotate(0) translate(4 620)">
<title>WebModelFSM</title>
<polygon fill="white" stroke="white" points="-4,5 -4,-620 2470.19,-620 2470.19,5 -4,5"/>
<!-- 0 -->
<g id="node1" class="node"><title>0</title>
<a xlink:title="{&#39;WebModel&#39;: {&#39;userToInt&#39;: {}, &#39;mode&#39;: &#39;Initializing&#39;, &#39;usersLoggedIn&#39;: []}}">
<ellipse fill="lightgray" stroke="black" cx="1498" cy="-594" rx="27" ry="18"/>
<ellipse fill="none" stroke="black" cx="1498" cy="-594" rx="31" ry="22"/>
<text text-anchor="middle" x="1498" y="-588.4" font-family="Times,serif" font-size="14.00">0</text>
</a>
</g>
<!-- 1 -->
<g id="node2" class="node"><title>1</title>
<a xlink:title="{&#39;WebModel&#39;: {&#39;userToInt&#39;: {}, &#39;mode&#39;: &#39;Running&#39;, &#39;usersLoggedIn&#39;: []}}">
<ellipse fill="white" stroke="black" cx="1498" cy="-496" rx="27" ry="18"/>
<ellipse fill="none" stroke="black" cx="1498" cy="-496" rx="31" ry="22"/>
<text text-anchor="middle" x="1498" y="-490.4" font-family="Times,serif" font-size="14.00">1</text>
</a>
</g>
<!-- 0&#45;&gt;1 -->
<g id="edge2" class="edge"><title>0&#45;&gt;1</title>
<a xlink:title="Initialize()">
<path fill="none" stroke="black" d="M1498,-571.694C1498,-559.017 1498,-542.697 1498,-528.547"/>
<polygon fill="black" stroke="black" points="1501.5,-528.246 1498,-518.246 1494.5,-528.246 1501.5,-528.246"/>
</a>
<text text-anchor="middle" x="1527.54" y="-539.4" font-family="Times,serif" font-size="14.00">Initialize()</text>
</g>
<!-- 1&#45;&gt;1 -->
<g id="edge4" class="edge"><title>1&#45;&gt;1</title>
<a xlink:title="Login(&#39;OleBrumm&#39;, &#39;Incorrect&#39;)/&#39;Failure&#39;">
<path fill="none" stroke="black" d="M1528.62,-500.5C1538.83,-500.5 1547,-499 1547,-496 1547,-494.125 1543.81,-492.836 1538.93,-492.133"/>
<polygon fill="black" stroke="black" points="1538.82,-488.62 1528.62,-491.5 1538.39,-495.607 1538.82,-488.62"/>
</a>
<text text-anchor="middle" x="1657.98" y="-490.4" font-family="Times,serif" font-size="14.00">Login(&#39;OleBrumm&#39;, &#39;Incorrect&#39;)/&#39;Failure&#39;</text>
</g>
<!-- 1&#45;&gt;1 -->
<g id="edge6" class="edge"><title>1&#45;&gt;1</title>
<a xlink:title="Login(&#39;VinniPuhh&#39;, &#39;Incorrect&#39;)/&#39;Failure&#39;">
<path fill="none" stroke="black" d="M1526.16,-505.559C1596.84,-518.157 1768.96,-514.97 1768.96,-496 1768.96,-477.882 1611.96,-474.161 1536.27,-484.839"/>
<polygon fill="black" stroke="black" points="1535.49,-481.419 1526.16,-486.441 1536.58,-488.333 1535.49,-481.419"/>
</a>
<text text-anchor="middle" x="1878.36" y="-490.4" font-family="Times,serif" font-size="14.00">Login(&#39;VinniPuhh&#39;, &#39;Incorrect&#39;)/&#39;Failure&#39;</text>
</g>
<!-- 2 -->
<g id="node3" class="node"><title>2</title>
<a xlink:title="{&#39;WebModel&#39;: {&#39;userToInt&#39;: {}, &#39;mode&#39;: &#39;Running&#39;, &#39;usersLoggedIn&#39;: [&#39;OleBrumm&#39;]}}">
<ellipse fill="white" stroke="black" cx="1130" cy="-402" rx="27" ry="18"/>
<text text-anchor="middle" x="1130" y="-396.4" font-family="Times,serif" font-size="14.00">2</text>
</a>
</g>
<!-- 1&#45;&gt;2 -->
<g id="edge8" class="edge"><title>1&#45;&gt;2</title>
<a xlink:title="Login(&#39;OleBrumm&#39;, &#39;Correct&#39;)/&#39;Success&#39;">
<path fill="none" stroke="black" d="M1467.14,-493.772C1397.76,-490.602 1231.66,-480.602 1181.91,-456 1168.3,-449.266 1156.21,-437.488 1147.13,-426.743"/>
<polygon fill="black" stroke="black" points="1149.78,-424.451 1140.8,-418.828 1144.31,-428.823 1149.78,-424.451"/>
</a>
<text text-anchor="middle" x="1291.04" y="-441.4" font-family="Times,serif" font-size="14.00">Login(&#39;OleBrumm&#39;, &#39;Correct&#39;)/&#39;Success&#39;</text>
</g>
<!-- 3 -->
<g id="node4" class="node"><title>3</title>
<a xlink:title="{&#39;WebModel&#39;: {&#39;userToInt&#39;: {}, &#39;mode&#39;: &#39;Running&#39;, &#39;usersLoggedIn&#39;: [&#39;VinniPuhh&#39;]}}">
<ellipse fill="white" stroke="black" cx="1619" cy="-218" rx="27" ry="18"/>
<text text-anchor="middle" x="1619" y="-212.4" font-family="Times,serif" font-size="14.00">3</text>
</a>
</g>
<!-- 1&#45;&gt;3 -->
<g id="edge10" class="edge"><title>1&#45;&gt;3</title>
<a xlink:title="Login(&#39;VinniPuhh&#39;, &#39;Correct&#39;)/&#39;Success&#39;">
<path fill="none" stroke="black" d="M1524.99,-484.781C1537.96,-478.466 1552.5,-469.04 1561,-456 1587.46,-415.396 1565.02,-395.189 1576.06,-348 1584.57,-311.682 1598.93,-271.048 1608.68,-245.264"/>
<polygon fill="black" stroke="black" points="1611.99,-246.416 1612.3,-235.826 1605.45,-243.912 1611.99,-246.416"/>
</a>
<text text-anchor="middle" x="1684.47" y="-351.4" font-family="Times,serif" font-size="14.00">Login(&#39;VinniPuhh&#39;, &#39;Correct&#39;)/&#39;Success&#39;</text>
</g>
<!-- 2&#45;&gt;1 -->
<g id="edge18" class="edge"><title>2&#45;&gt;1</title>
<a xlink:title="Logout(&#39;OleBrumm&#39;,)">
<path fill="none" stroke="black" d="M1157.24,-403.007C1206.87,-403.781 1314.75,-409.004 1400,-438 1424.61,-446.371 1449.91,-461.278 1468.64,-473.747"/>
<polygon fill="black" stroke="black" points="1466.78,-476.715 1477.02,-479.453 1470.72,-470.93 1466.78,-476.715"/>
</a>
<text text-anchor="middle" x="1500.65" y="-441.4" font-family="Times,serif" font-size="14.00">Logout(&#39;OleBrumm&#39;,)</text>
</g>
<!-- 2&#45;&gt;2 -->
<g id="edge16" class="edge"><title>2&#45;&gt;2</title>
<a xlink:title="Login(&#39;VinniPuhh&#39;, &#39;Incorrect&#39;)/&#39;Failure&#39;">
<path fill="none" stroke="black" d="M1156.35,-406.109C1166.53,-406.292 1175,-404.922 1175,-402 1175,-400.128 1171.53,-398.893 1166.35,-398.296"/>
<polygon fill="black" stroke="black" points="1166.48,-394.798 1156.35,-397.891 1166.2,-401.792 1166.48,-394.798"/>
</a>
<text text-anchor="middle" x="1284.4" y="-396.4" font-family="Times,serif" font-size="14.00">Login(&#39;VinniPuhh&#39;, &#39;Incorrect&#39;)/&#39;Failure&#39;</text>
</g>
<!-- 2&#45;&gt;2 -->
<g id="edge20" class="edge"><title>2&#45;&gt;2</title>
<a xlink:title="ReadInt(&#39;OleBrumm&#39;,)/0">
<path fill="none" stroke="black" d="M1153.86,-410.73C1220.15,-423.769 1393.8,-420.859 1393.8,-402 1393.8,-384.025 1236.05,-380.539 1163.86,-391.542"/>
<polygon fill="black" stroke="black" points="1163.11,-388.118 1153.86,-393.27 1164.31,-395.016 1163.11,-388.118"/>
</a>
<text text-anchor="middle" x="1461.84" y="-396.4" font-family="Times,serif" font-size="14.00">ReadInt(&#39;OleBrumm&#39;,)/0</text>
</g>
<!-- 4 -->
<g id="node5" class="node"><title>4</title>
<a xlink:title="{&#39;WebModel&#39;: {&#39;userToInt&#39;: {&#39;OleBrumm&#39;: 1}, &#39;mode&#39;: &#39;Running&#39;, &#39;usersLoggedIn&#39;: [&#39;OleBrumm&#39;]}}">
<ellipse fill="white" stroke="black" cx="31" cy="-218" rx="27" ry="18"/>
<text text-anchor="middle" x="31" y="-212.4" font-family="Times,serif" font-size="14.00">4</text>
</a>
</g>
<!-- 2&#45;&gt;4 -->
<g id="edge12" class="edge"><title>2&#45;&gt;4</title>
<a xlink:title="UpdateInt(&#39;OleBrumm&#39;, 1)">
<path fill="none" stroke="black" d="M1102.8,-401.136C990.74,-401.234 554.169,-397.042 203.658,-330 124.271,-314.816 77.9225,-341.088 30,-276 23.7064,-267.452 22.8616,-256.062 24.0048,-245.712"/>
<polygon fill="black" stroke="black" points="27.4555,-246.297 25.6825,-235.851 20.5547,-245.123 27.4555,-246.297"/>
</a>
<text text-anchor="middle" x="277.671" y="-306.4" font-family="Times,serif" font-size="14.00">UpdateInt(&#39;OleBrumm&#39;, 1)</text>
</g>
<!-- 5 -->
<g id="node6" class="node"><title>5</title>
<a xlink:title="{&#39;WebModel&#39;: {&#39;userToInt&#39;: {}, &#39;mode&#39;: &#39;Running&#39;, &#39;usersLoggedIn&#39;: [&#39;OleBrumm&#39;, &#39;VinniPuhh&#39;]}}">
<ellipse fill="white" stroke="black" cx="1083" cy="-312" rx="27" ry="18"/>
<text text-anchor="middle" x="1083" y="-306.4" font-family="Times,serif" font-size="14.00">5</text>
</a>
</g>
<!-- 2&#45;&gt;5 -->
<g id="edge14" class="edge"><title>2&#45;&gt;5</title>
<a xlink:title="Login(&#39;VinniPuhh&#39;, &#39;Correct&#39;)/&#39;Success&#39;">
<path fill="none" stroke="black" d="M1142.2,-385.906C1149.53,-374.9 1156.16,-359.894 1149,-348 1141.98,-336.337 1129.63,-328.354 1117.49,-322.995"/>
<polygon fill="black" stroke="black" points="1118.5,-319.63 1107.91,-319.238 1115.94,-326.147 1118.5,-319.63"/>
</a>
<text text-anchor="middle" x="1260.47" y="-351.4" font-family="Times,serif" font-size="14.00">Login(&#39;VinniPuhh&#39;, &#39;Correct&#39;)/&#39;Success&#39;</text>
</g>
<!-- 6 -->
<g id="node7" class="node"><title>6</title>
<a xlink:title="{&#39;WebModel&#39;: {&#39;userToInt&#39;: {&#39;OleBrumm&#39;: 2}, &#39;mode&#39;: &#39;Running&#39;, &#39;usersLoggedIn&#39;: [&#39;OleBrumm&#39;]}}">
<ellipse fill="white" stroke="black" cx="387" cy="-312" rx="27" ry="18"/>
<text text-anchor="middle" x="387" y="-306.4" font-family="Times,serif" font-size="14.00">6</text>
</a>
</g>
<!-- 2&#45;&gt;6 -->
<g id="edge22" class="edge"><title>2&#45;&gt;6</title>
<a xlink:title="UpdateInt(&#39;OleBrumm&#39;, 2)">
<path fill="none" stroke="black" d="M1103.56,-397.868C991.287,-384.571 553.925,-332.77 423.75,-317.353"/>
<polygon fill="black" stroke="black" points="423.856,-313.841 413.514,-316.14 423.033,-320.792 423.856,-313.841"/>
</a>
<text text-anchor="middle" x="899.671" y="-351.4" font-family="Times,serif" font-size="14.00">UpdateInt(&#39;OleBrumm&#39;, 2)</text>
</g>
<!-- 3&#45;&gt;1 -->
<g id="edge24" class="edge"><title>3&#45;&gt;1</title>
<a xlink:title="Logout(&#39;VinniPuhh&#39;,)">
<path fill="none" stroke="black" d="M1643.25,-226.564C1700.23,-245.65 1834.68,-299.05 1791,-366 1734.5,-452.606 1605.37,-481.463 1539.02,-490.768"/>
<polygon fill="black" stroke="black" points="1538.39,-487.321 1528.93,-492.099 1539.3,-494.261 1538.39,-487.321"/>
</a>
<text text-anchor="middle" x="1858.08" y="-351.4" font-family="Times,serif" font-size="14.00">Logout(&#39;VinniPuhh&#39;,)</text>
</g>
<!-- 3&#45;&gt;3 -->
<g id="edge28" class="edge"><title>3&#45;&gt;3</title>
<a xlink:title="ReadInt(&#39;VinniPuhh&#39;,)/0">
<path fill="none" stroke="black" d="M1645.35,-222.482C1655.53,-222.682 1664,-221.188 1664,-218 1664,-215.958 1660.53,-214.611 1655.35,-213.959"/>
<polygon fill="black" stroke="black" points="1655.49,-210.462 1645.35,-213.518 1655.18,-217.455 1655.49,-210.462"/>
</a>
<text text-anchor="middle" x="1730.46" y="-212.4" font-family="Times,serif" font-size="14.00">ReadInt(&#39;VinniPuhh&#39;,)/0</text>
</g>
<!-- 3&#45;&gt;3 -->
<g id="edge32" class="edge"><title>3&#45;&gt;3</title>
<a xlink:title="Login(&#39;OleBrumm&#39;, &#39;Incorrect&#39;)/&#39;Failure&#39;">
<path fill="none" stroke="black" d="M1641.79,-228.082C1691.33,-240.064 1796.92,-236.703 1796.92,-218 1796.92,-200.466 1704.11,-196.416 1651.69,-205.851"/>
<polygon fill="black" stroke="black" points="1650.86,-202.449 1641.79,-207.918 1652.29,-209.302 1650.86,-202.449"/>
</a>
<text text-anchor="middle" x="1907.9" y="-212.4" font-family="Times,serif" font-size="14.00">Login(&#39;OleBrumm&#39;, &#39;Incorrect&#39;)/&#39;Failure&#39;</text>
</g>
<!-- 7 -->
<g id="node8" class="node"><title>7</title>
<a xlink:title="{&#39;WebModel&#39;: {&#39;userToInt&#39;: {}, &#39;mode&#39;: &#39;Running&#39;, &#39;usersLoggedIn&#39;: [&#39;VinniPuhh&#39;, &#39;OleBrumm&#39;]}}">
<ellipse fill="white" stroke="black" cx="1446" cy="-120" rx="27" ry="18"/>
<text text-anchor="middle" x="1446" y="-114.4" font-family="Times,serif" font-size="14.00">7</text>
</a>
</g>
<!-- 3&#45;&gt;7 -->
<g id="edge26" class="edge"><title>3&#45;&gt;7</title>
<a xlink:title="Login(&#39;OleBrumm&#39;, &#39;Correct&#39;)/&#39;Success&#39;">
<path fill="none" stroke="black" d="M1616.66,-199.914C1614.02,-187.157 1608.49,-170.229 1597,-160 1565.71,-132.133 1517.07,-123.706 1483.49,-121.399"/>
<polygon fill="black" stroke="black" points="1483.33,-117.886 1473.16,-120.848 1482.96,-124.876 1483.33,-117.886"/>
</a>
<text text-anchor="middle" x="1719.04" y="-163.4" font-family="Times,serif" font-size="14.00">Login(&#39;OleBrumm&#39;, &#39;Correct&#39;)/&#39;Success&#39;</text>
</g>
<!-- 8 -->
<g id="node9" class="node"><title>8</title>
<a xlink:title="{&#39;WebModel&#39;: {&#39;userToInt&#39;: {&#39;VinniPuhh&#39;: 2}, &#39;mode&#39;: &#39;Running&#39;, &#39;usersLoggedIn&#39;: [&#39;VinniPuhh&#39;]}}">
<ellipse fill="orange" stroke="black" cx="1860" cy="-120" rx="27" ry="18"/>
<text text-anchor="middle" x="1860" y="-114.4" font-family="Times,serif" font-size="14.00">8</text>
</a>
</g>
<!-- 3&#45;&gt;8 -->
<g id="edge30" class="edge"><title>3&#45;&gt;8</title>
<a xlink:title="UpdateInt(&#39;VinniPuhh&#39;, 2)">
<path fill="none" stroke="black" d="M1645.7,-215.085C1696.14,-210.996 1802.99,-199.944 1832,-178 1841.9,-170.514 1848.5,-158.593 1852.8,-147.584"/>
<polygon fill="black" stroke="black" points="1856.19,-148.478 1856.12,-137.883 1849.57,-146.208 1856.19,-148.478"/>
</a>
<text text-anchor="middle" x="1919.1" y="-163.4" font-family="Times,serif" font-size="14.00">UpdateInt(&#39;VinniPuhh&#39;, 2)</text>
</g>
<!-- 9 -->
<g id="node10" class="node"><title>9</title>
<a xlink:title="{&#39;WebModel&#39;: {&#39;userToInt&#39;: {&#39;VinniPuhh&#39;: 1}, &#39;mode&#39;: &#39;Running&#39;, &#39;usersLoggedIn&#39;: [&#39;VinniPuhh&#39;]}}">
<ellipse fill="orange" stroke="black" cx="2244" cy="-22" rx="27" ry="18"/>
<text text-anchor="middle" x="2244" y="-16.4" font-family="Times,serif" font-size="14.00">9</text>
</a>
</g>
<!-- 3&#45;&gt;9 -->
<g id="edge34" class="edge"><title>3&#45;&gt;9</title>
<a xlink:title="UpdateInt(&#39;VinniPuhh&#39;, 1)">
<path fill="none" stroke="black" d="M1645.84,-215.877C1765.68,-210.618 2248.09,-186.785 2297,-142 2323.57,-117.674 2327.85,-93.2866 2310,-62 2302.85,-49.4722 2289.93,-40.562 2277.4,-34.4516"/>
<polygon fill="black" stroke="black" points="2278.56,-31.1386 2268,-30.3112 2275.74,-37.5448 2278.56,-31.1386"/>
</a>
<text text-anchor="middle" x="2393.1" y="-114.4" font-family="Times,serif" font-size="14.00">UpdateInt(&#39;VinniPuhh&#39;, 1)</text>
</g>
<!-- 4&#45;&gt;4 -->
<g id="edge36" class="edge"><title>4&#45;&gt;4</title>
<a xlink:title="UpdateInt(&#39;OleBrumm&#39;, 1)">
<path fill="none" stroke="black" d="M57.7949,-220.993C67.7804,-221.092 76,-220.094 76,-218 76,-216.691 72.7892,-215.811 67.9433,-215.359"/>
<polygon fill="black" stroke="black" points="67.9102,-211.855 57.7949,-215.007 67.6675,-218.851 67.9102,-211.855"/>
</a>
<text text-anchor="middle" x="149.671" y="-212.4" font-family="Times,serif" font-size="14.00">UpdateInt(&#39;OleBrumm&#39;, 1)</text>
</g>
<!-- 4&#45;&gt;4 -->
<g id="edge40" class="edge"><title>4&#45;&gt;4</title>
<a xlink:title="Login(&#39;VinniPuhh&#39;, &#39;Incorrect&#39;)/&#39;Failure&#39;">
<path fill="none" stroke="black" d="M54.6388,-227.119C107.494,-238.143 223.342,-235.103 223.342,-218 223.342,-201.899 120.672,-198.262 64.5426,-207.088"/>
<polygon fill="black" stroke="black" points="63.8554,-203.655 54.6388,-208.881 65.1024,-210.543 63.8554,-203.655"/>
</a>
<text text-anchor="middle" x="332.744" y="-212.4" font-family="Times,serif" font-size="14.00">Login(&#39;VinniPuhh&#39;, &#39;Incorrect&#39;)/&#39;Failure&#39;</text>
</g>
<!-- 4&#45;&gt;4 -->
<g id="edge42" class="edge"><title>4&#45;&gt;4</title>
<a xlink:title="ReadInt(&#39;OleBrumm&#39;,)/1">
<path fill="none" stroke="black" d="M55.505,-225.973C146.062,-242.43 442.146,-239.773 442.146,-218 442.146,-196.972 165.956,-193.774 65.4909,-208.406"/>
<polygon fill="black" stroke="black" points="64.8152,-204.97 55.505,-210.027 65.9365,-211.88 64.8152,-204.97"/>
</a>
<text text-anchor="middle" x="510.181" y="-212.4" font-family="Times,serif" font-size="14.00">ReadInt(&#39;OleBrumm&#39;,)/1</text>
</g>
<!-- 4&#45;&gt;6 -->
<g id="edge46" class="edge"><title>4&#45;&gt;6</title>
<a xlink:title="UpdateInt(&#39;OleBrumm&#39;, 2)">
<path fill="none" stroke="black" d="M57.1459,-223.171C90.0076,-228.874 147.823,-240.444 195,-258 211.267,-264.053 213.347,-270.065 229.658,-276 269.998,-290.677 318.488,-300.332 350.877,-305.713"/>
<polygon fill="black" stroke="black" points="350.367,-309.176 360.796,-307.311 351.48,-302.265 350.367,-309.176"/>
</a>
<text text-anchor="middle" x="303.671" y="-261.4" font-family="Times,serif" font-size="14.00">UpdateInt(&#39;OleBrumm&#39;, 2)</text>
</g>
<!-- 10 -->
<g id="node11" class="node"><title>10</title>
<a xlink:title="{&#39;WebModel&#39;: {&#39;userToInt&#39;: {&#39;OleBrumm&#39;: 1}, &#39;mode&#39;: &#39;Running&#39;, &#39;usersLoggedIn&#39;: [&#39;OleBrumm&#39;, &#39;VinniPuhh&#39;]}}">
<ellipse fill="orange" stroke="black" cx="935" cy="-120" rx="27" ry="18"/>
<text text-anchor="middle" x="935" y="-114.4" font-family="Times,serif" font-size="14.00">10</text>
</a>
</g>
<!-- 4&#45;&gt;10 -->
<g id="edge38" class="edge"><title>4&#45;&gt;10</title>
<a xlink:title="Login(&#39;VinniPuhh&#39;, &#39;Correct&#39;)/&#39;Success&#39;">
<path fill="none" stroke="black" d="M57.5654,-214.179C186.725,-200.463 748.935,-140.759 898.397,-124.887"/>
<polygon fill="black" stroke="black" points="898.859,-128.358 908.433,-123.821 898.119,-121.397 898.859,-128.358"/>
</a>
<text text-anchor="middle" x="671.468" y="-163.4" font-family="Times,serif" font-size="14.00">Login(&#39;VinniPuhh&#39;, &#39;Correct&#39;)/&#39;Success&#39;</text>
</g>
<!-- 11 -->
<g id="node12" class="node"><title>11</title>
<a xlink:title="{&#39;WebModel&#39;: {&#39;userToInt&#39;: {&#39;OleBrumm&#39;: 1}, &#39;mode&#39;: &#39;Running&#39;, &#39;usersLoggedIn&#39;: []}}">
<ellipse fill="orange" stroke="black" cx="31" cy="-120" rx="27" ry="18"/>
<ellipse fill="none" stroke="black" cx="31" cy="-120" rx="31" ry="22"/>
<text text-anchor="middle" x="31" y="-114.4" font-family="Times,serif" font-size="14.00">11</text>
</a>
</g>
<!-- 4&#45;&gt;11 -->
<g id="edge44" class="edge"><title>4&#45;&gt;11</title>
<a xlink:title="Logout(&#39;OleBrumm&#39;,)">
<path fill="none" stroke="black" d="M31,-199.837C31,-186.691 31,-168.194 31,-152.42"/>
<polygon fill="black" stroke="black" points="34.5001,-152.034 31,-142.034 27.5001,-152.034 34.5001,-152.034"/>
</a>
<text text-anchor="middle" x="91.6519" y="-163.4" font-family="Times,serif" font-size="14.00">Logout(&#39;OleBrumm&#39;,)</text>
</g>
<!-- 5&#45;&gt;2 -->
<g id="edge48" class="edge"><title>5&#45;&gt;2</title>
<a xlink:title="Logout(&#39;VinniPuhh&#39;,)">
<path fill="none" stroke="black" d="M1060.35,-322.232C1039.73,-332.017 1014.28,-348.458 1026.85,-366 1041.75,-386.794 1069.71,-395.385 1092.76,-398.863"/>
<polygon fill="black" stroke="black" points="1092.59,-402.369 1102.94,-400.127 1093.45,-395.422 1092.59,-402.369"/>
</a>
<text text-anchor="middle" x="1086.08" y="-351.4" font-family="Times,serif" font-size="14.00">Logout(&#39;VinniPuhh&#39;,)</text>
</g>
<!-- 5&#45;&gt;3 -->
<g id="edge58" class="edge"><title>5&#45;&gt;3</title>
<a xlink:title="Logout(&#39;OleBrumm&#39;,)">
<path fill="none" stroke="black" d="M1110.13,-310.209C1148.64,-308.19 1220.62,-301.06 1276,-276 1287.73,-270.692 1286.82,-262.964 1298.7,-258 1311.65,-252.587 1500.79,-231.73 1582.19,-222.941"/>
<polygon fill="black" stroke="black" points="1582.91,-226.384 1592.48,-221.833 1582.16,-219.424 1582.91,-226.384"/>
</a>
<text text-anchor="middle" x="1359.65" y="-261.4" font-family="Times,serif" font-size="14.00">Logout(&#39;OleBrumm&#39;,)</text>
</g>
<!-- 5&#45;&gt;5 -->
<g id="edge52" class="edge"><title>5&#45;&gt;5</title>
<a xlink:title="ReadInt(&#39;VinniPuhh&#39;,)/0">
<path fill="none" stroke="black" d="M1109.35,-316.109C1119.53,-316.292 1128,-314.922 1128,-312 1128,-310.128 1124.53,-308.893 1119.35,-308.296"/>
<polygon fill="black" stroke="black" points="1119.48,-304.798 1109.35,-307.891 1119.2,-311.792 1119.48,-304.798"/>
</a>
<text text-anchor="middle" x="1194.46" y="-306.4" font-family="Times,serif" font-size="14.00">ReadInt(&#39;VinniPuhh&#39;,)/0</text>
</g>
<!-- 5&#45;&gt;5 -->
<g id="edge60" class="edge"><title>5&#45;&gt;5</title>
<a xlink:title="ReadInt(&#39;OleBrumm&#39;,)/0">
<path fill="none" stroke="black" d="M1105.79,-321.861C1155.33,-333.58 1260.92,-330.293 1260.92,-312 1260.92,-294.85 1168.11,-290.89 1115.69,-300.117"/>
<polygon fill="black" stroke="black" points="1114.89,-296.71 1105.79,-302.139 1116.28,-303.569 1114.89,-296.71"/>
</a>
<text text-anchor="middle" x="1328.95" y="-306.4" font-family="Times,serif" font-size="14.00">ReadInt(&#39;OleBrumm&#39;,)/0</text>
</g>
<!-- 5&#45;&gt;10 -->
<g id="edge50" class="edge"><title>5&#45;&gt;10</title>
<a xlink:title="UpdateInt(&#39;OleBrumm&#39;, 1)">
<path fill="none" stroke="black" d="M1110.05,-311.915C1162.88,-312.633 1272.27,-308.272 1244,-258 1188.46,-159.239 1040.91,-131.521 971.749,-123.862"/>
<polygon fill="black" stroke="black" points="972.046,-120.374 961.74,-122.834 971.33,-127.337 972.046,-120.374"/>
</a>
<text text-anchor="middle" x="1304.67" y="-212.4" font-family="Times,serif" font-size="14.00">UpdateInt(&#39;OleBrumm&#39;, 1)</text>
</g>
<!-- 12 -->
<g id="node13" class="node"><title>12</title>
<a xlink:title="{&#39;WebModel&#39;: {&#39;userToInt&#39;: {&#39;VinniPuhh&#39;: 2}, &#39;mode&#39;: &#39;Running&#39;, &#39;usersLoggedIn&#39;: [&#39;OleBrumm&#39;, &#39;VinniPuhh&#39;]}}">
<ellipse fill="orange" stroke="black" cx="1106" cy="-218" rx="27" ry="18"/>
<text text-anchor="middle" x="1106" y="-212.4" font-family="Times,serif" font-size="14.00">12</text>
</a>
</g>
<!-- 5&#45;&gt;12 -->
<g id="edge54" class="edge"><title>5&#45;&gt;12</title>
<a xlink:title="UpdateInt(&#39;VinniPuhh&#39;, 2)">
<path fill="none" stroke="black" d="M1087.22,-294.126C1090.57,-280.723 1095.32,-261.716 1099.21,-246.174"/>
<polygon fill="black" stroke="black" points="1102.7,-246.629 1101.73,-236.079 1095.91,-244.931 1102.7,-246.629"/>
</a>
<text text-anchor="middle" x="1168.1" y="-261.4" font-family="Times,serif" font-size="14.00">UpdateInt(&#39;VinniPuhh&#39;, 2)</text>
</g>
<!-- 13 -->
<g id="node14" class="node"><title>13</title>
<a xlink:title="{&#39;WebModel&#39;: {&#39;userToInt&#39;: {&#39;VinniPuhh&#39;: 1}, &#39;mode&#39;: &#39;Running&#39;, &#39;usersLoggedIn&#39;: [&#39;OleBrumm&#39;, &#39;VinniPuhh&#39;]}}">
<ellipse fill="orange" stroke="black" cx="939" cy="-218" rx="27" ry="18"/>
<text text-anchor="middle" x="939" y="-212.4" font-family="Times,serif" font-size="14.00">13</text>
</a>
</g>
<!-- 5&#45;&gt;13 -->
<g id="edge56" class="edge"><title>5&#45;&gt;13</title>
<a xlink:title="UpdateInt(&#39;VinniPuhh&#39;, 1)">
<path fill="none" stroke="black" d="M1056.41,-307.979C1020.2,-303.277 958.209,-292.947 943.81,-276 936.865,-267.827 934.924,-256.405 935,-245.93"/>
<polygon fill="black" stroke="black" points="938.495,-246.129 935.639,-235.926 931.509,-245.683 938.495,-246.129"/>
</a>
<text text-anchor="middle" x="1016.1" y="-261.4" font-family="Times,serif" font-size="14.00">UpdateInt(&#39;VinniPuhh&#39;, 1)</text>
</g>
<!-- 14 -->
<g id="node15" class="node"><title>14</title>
<a xlink:title="{&#39;WebModel&#39;: {&#39;userToInt&#39;: {&#39;OleBrumm&#39;: 2}, &#39;mode&#39;: &#39;Running&#39;, &#39;usersLoggedIn&#39;: [&#39;OleBrumm&#39;, &#39;VinniPuhh&#39;]}}">
<ellipse fill="orange" stroke="black" cx="754" cy="-218" rx="27" ry="18"/>
<text text-anchor="middle" x="754" y="-212.4" font-family="Times,serif" font-size="14.00">14</text>
</a>
</g>
<!-- 5&#45;&gt;14 -->
<g id="edge62" class="edge"><title>5&#45;&gt;14</title>
<a xlink:title="UpdateInt(&#39;OleBrumm&#39;, 2)">
<path fill="none" stroke="black" d="M1057.18,-306.32C1035.97,-302.595 1005.11,-297.453 978,-294 935.195,-288.549 820.632,-299.83 784.658,-276 773.935,-268.897 766.672,-256.749 761.918,-245.489"/>
<polygon fill="black" stroke="black" points="765.141,-244.114 758.363,-235.971 758.584,-246.564 765.141,-244.114"/>
</a>
<text text-anchor="middle" x="858.671" y="-261.4" font-family="Times,serif" font-size="14.00">UpdateInt(&#39;OleBrumm&#39;, 2)</text>
</g>
<!-- 6&#45;&gt;4 -->
<g id="edge64" class="edge"><title>6&#45;&gt;4</title>
<a xlink:title="UpdateInt(&#39;OleBrumm&#39;, 1)">
<path fill="none" stroke="black" d="M360.277,-309.129C281.589,-303.509 55.4806,-286.515 43.6582,-276 35.3641,-268.623 31.8495,-257.129 30.5431,-246.388"/>
<polygon fill="black" stroke="black" points="34.0146,-245.834 29.8775,-236.08 27.0292,-246.285 34.0146,-245.834"/>
</a>
<text text-anchor="middle" x="117.671" y="-261.4" font-family="Times,serif" font-size="14.00">UpdateInt(&#39;OleBrumm&#39;, 1)</text>
</g>
<!-- 6&#45;&gt;6 -->
<g id="edge68" class="edge"><title>6&#45;&gt;6</title>
<a xlink:title="ReadInt(&#39;OleBrumm&#39;,)/2">
<path fill="none" stroke="black" d="M413.795,-314.744C423.78,-314.834 432,-313.919 432,-312 432,-310.8 428.789,-309.993 423.943,-309.579"/>
<polygon fill="black" stroke="black" points="423.901,-306.076 413.795,-309.256 423.679,-313.072 423.901,-306.076"/>
</a>
<text text-anchor="middle" x="500.035" y="-306.4" font-family="Times,serif" font-size="14.00">ReadInt(&#39;OleBrumm&#39;,)/2</text>
</g>
<!-- 6&#45;&gt;6 -->
<g id="edge70" class="edge"><title>6&#45;&gt;6</title>
<a xlink:title="Login(&#39;VinniPuhh&#39;, &#39;Incorrect&#39;)/&#39;Failure&#39;">
<path fill="none" stroke="black" d="M410.416,-321.127C460.869,-331.791 568.069,-328.749 568.069,-312 568.069,-296.298 473.85,-292.642 420.501,-301.034"/>
<polygon fill="black" stroke="black" points="419.626,-297.636 410.416,-302.873 420.881,-304.522 419.626,-297.636"/>
</a>
<text text-anchor="middle" x="677.472" y="-306.4" font-family="Times,serif" font-size="14.00">Login(&#39;VinniPuhh&#39;, &#39;Incorrect&#39;)/&#39;Failure&#39;</text>
</g>
<!-- 6&#45;&gt;6 -->
<g id="edge74" class="edge"><title>6&#45;&gt;6</title>
<a xlink:title="UpdateInt(&#39;OleBrumm&#39;, 2)">
<path fill="none" stroke="black" d="M411.338,-319.812C500.116,-335.768 786.874,-333.164 786.874,-312 786.874,-291.58 519.925,-288.438 421.414,-302.574"/>
<polygon fill="black" stroke="black" points="420.658,-299.15 411.338,-304.188 421.766,-306.062 420.658,-299.15"/>
</a>
<text text-anchor="middle" x="860.545" y="-306.4" font-family="Times,serif" font-size="14.00">UpdateInt(&#39;OleBrumm&#39;, 2)</text>
</g>
<!-- 6&#45;&gt;14 -->
<g id="edge66" class="edge"><title>6&#45;&gt;14</title>
<a xlink:title="Login(&#39;VinniPuhh&#39;, &#39;Correct&#39;)/&#39;Success&#39;">
<path fill="none" stroke="black" d="M412.079,-304.854C436.963,-298.512 476.044,-287.89 509,-276 527.745,-269.237 530.836,-263.229 550.064,-258 615.681,-240.157 636.129,-256.881 702,-240 708.97,-238.214 716.25,-235.709 723.08,-233.048"/>
<polygon fill="black" stroke="black" points="724.755,-236.144 732.675,-229.106 722.095,-229.669 724.755,-236.144"/>
</a>
<text text-anchor="middle" x="658.468" y="-261.4" font-family="Times,serif" font-size="14.00">Login(&#39;VinniPuhh&#39;, &#39;Correct&#39;)/&#39;Success&#39;</text>
</g>
<!-- 15 -->
<g id="node16" class="node"><title>15</title>
<a xlink:title="{&#39;WebModel&#39;: {&#39;userToInt&#39;: {&#39;OleBrumm&#39;: 2}, &#39;mode&#39;: &#39;Running&#39;, &#39;usersLoggedIn&#39;: []}}">
<ellipse fill="orange" stroke="black" cx="662" cy="-218" rx="27" ry="18"/>
<ellipse fill="none" stroke="black" cx="662" cy="-218" rx="31" ry="22"/>
<text text-anchor="middle" x="662" y="-212.4" font-family="Times,serif" font-size="14.00">15</text>
</a>
</g>
<!-- 6&#45;&gt;15 -->
<g id="edge72" class="edge"><title>6&#45;&gt;15</title>
<a xlink:title="Logout(&#39;OleBrumm&#39;,)">
<path fill="none" stroke="black" d="M381.869,-294.002C379.499,-282.365 378.881,-267.394 387.696,-258 405.563,-238.96 596.907,-247.217 622,-240 624.596,-239.253 627.217,-238.328 629.81,-237.284"/>
<polygon fill="black" stroke="black" points="631.333,-240.437 638.979,-233.103 628.429,-234.068 631.333,-240.437"/>
</a>
<text text-anchor="middle" x="448.652" y="-261.4" font-family="Times,serif" font-size="14.00">Logout(&#39;OleBrumm&#39;,)</text>
</g>
<!-- 7&#45;&gt;2 -->
<g id="edge76" class="edge"><title>7&#45;&gt;2</title>
<a xlink:title="Logout(&#39;VinniPuhh&#39;,)">
<path fill="none" stroke="black" d="M1448.62,-138.189C1453.46,-175.921 1460.19,-267.598 1423,-330 1408.61,-354.147 1397.16,-355.707 1371,-366 1302.46,-392.971 1215.59,-399.442 1167.09,-400.824"/>
<polygon fill="black" stroke="black" points="1166.97,-397.326 1157.05,-401.052 1167.13,-404.324 1166.97,-397.326"/>
</a>
<text text-anchor="middle" x="1507.08" y="-261.4" font-family="Times,serif" font-size="14.00">Logout(&#39;VinniPuhh&#39;,)</text>
</g>
<!-- 7&#45;&gt;3 -->
<g id="edge86" class="edge"><title>7&#45;&gt;3</title>
<a xlink:title="Logout(&#39;OleBrumm&#39;,)">
<path fill="none" stroke="black" d="M1449.46,-137.852C1452.95,-150.655 1459.61,-167.753 1471.7,-178 1502.65,-204.237 1549.4,-213.034 1581.9,-215.871"/>
<polygon fill="black" stroke="black" points="1581.69,-219.365 1591.91,-216.598 1582.19,-212.383 1581.69,-219.365"/>
</a>
<text text-anchor="middle" x="1532.65" y="-163.4" font-family="Times,serif" font-size="14.00">Logout(&#39;OleBrumm&#39;,)</text>
</g>
<!-- 7&#45;&gt;7 -->
<g id="edge80" class="edge"><title>7&#45;&gt;7</title>
<a xlink:title="ReadInt(&#39;VinniPuhh&#39;,)/0">
<path fill="none" stroke="black" d="M1472.35,-124.482C1482.53,-124.682 1491,-123.188 1491,-120 1491,-117.958 1487.53,-116.611 1482.35,-115.959"/>
<polygon fill="black" stroke="black" points="1482.49,-112.462 1472.35,-115.518 1482.18,-119.455 1482.49,-112.462"/>
</a>
<text text-anchor="middle" x="1557.46" y="-114.4" font-family="Times,serif" font-size="14.00">ReadInt(&#39;VinniPuhh&#39;,)/0</text>
</g>
<!-- 7&#45;&gt;7 -->
<g id="edge88" class="edge"><title>7&#45;&gt;7</title>
<a xlink:title="ReadInt(&#39;OleBrumm&#39;,)/0">
<path fill="none" stroke="black" d="M1468.79,-130.082C1518.33,-142.064 1623.92,-138.703 1623.92,-120 1623.92,-102.466 1531.11,-98.4162 1478.69,-107.851"/>
<polygon fill="black" stroke="black" points="1477.86,-104.449 1468.79,-109.918 1479.29,-111.302 1477.86,-104.449"/>
</a>
<text text-anchor="middle" x="1691.95" y="-114.4" font-family="Times,serif" font-size="14.00">ReadInt(&#39;OleBrumm&#39;,)/0</text>
</g>
<!-- 16 -->
<g id="node17" class="node"><title>16</title>
<a xlink:title="{&#39;WebModel&#39;: {&#39;userToInt&#39;: {&#39;OleBrumm&#39;: 1}, &#39;mode&#39;: &#39;Running&#39;, &#39;usersLoggedIn&#39;: [&#39;VinniPuhh&#39;, &#39;OleBrumm&#39;]}}">
<ellipse fill="orange" stroke="black" cx="1109" cy="-22" rx="27" ry="18"/>
<text text-anchor="middle" x="1109" y="-16.4" font-family="Times,serif" font-size="14.00">16</text>
</a>
</g>
<!-- 7&#45;&gt;16 -->
<g id="edge78" class="edge"><title>7&#45;&gt;16</title>
<a xlink:title="UpdateInt(&#39;OleBrumm&#39;, 1)">
<path fill="none" stroke="black" d="M1418.82,-118.867C1351.76,-118.033 1180.55,-112.675 1135.66,-80 1125.72,-72.7645 1119.36,-60.874 1115.37,-49.82"/>
<polygon fill="black" stroke="black" points="1118.64,-48.5646 1112.32,-40.0611 1111.96,-50.6497 1118.64,-48.5646"/>
</a>
<text text-anchor="middle" x="1209.67" y="-65.4" font-family="Times,serif" font-size="14.00">UpdateInt(&#39;OleBrumm&#39;, 1)</text>
</g>
<!-- 17 -->
<g id="node18" class="node"><title>17</title>
<a xlink:title="{&#39;WebModel&#39;: {&#39;userToInt&#39;: {&#39;VinniPuhh&#39;: 2}, &#39;mode&#39;: &#39;Running&#39;, &#39;usersLoggedIn&#39;: [&#39;VinniPuhh&#39;, &#39;OleBrumm&#39;]}}">
<ellipse fill="orange" stroke="black" cx="1699" cy="-22" rx="27" ry="18"/>
<text text-anchor="middle" x="1699" y="-16.4" font-family="Times,serif" font-size="14.00">17</text>
</a>
</g>
<!-- 7&#45;&gt;17 -->
<g id="edge82" class="edge"><title>7&#45;&gt;17</title>
<a xlink:title="UpdateInt(&#39;VinniPuhh&#39;, 2)">
<path fill="none" stroke="black" d="M1472.63,-116.076C1503.49,-111.792 1555.05,-101.813 1594,-80 1604.1,-74.346 1603.22,-68.4776 1612.81,-62 1629.31,-50.8552 1649.5,-41.521 1666.2,-34.7812"/>
<polygon fill="black" stroke="black" points="1667.53,-38.0188 1675.57,-31.1186 1664.98,-31.4991 1667.53,-38.0188"/>
</a>
<text text-anchor="middle" x="1685.1" y="-65.4" font-family="Times,serif" font-size="14.00">UpdateInt(&#39;VinniPuhh&#39;, 2)</text>
</g>
<!-- 18 -->
<g id="node19" class="node"><title>18</title>
<a xlink:title="{&#39;WebModel&#39;: {&#39;userToInt&#39;: {&#39;VinniPuhh&#39;: 1}, &#39;mode&#39;: &#39;Running&#39;, &#39;usersLoggedIn&#39;: [&#39;VinniPuhh&#39;, &#39;OleBrumm&#39;]}}">
<ellipse fill="orange" stroke="black" cx="1279" cy="-22" rx="27" ry="18"/>
<text text-anchor="middle" x="1279" y="-16.4" font-family="Times,serif" font-size="14.00">18</text>
</a>
</g>
<!-- 7&#45;&gt;18 -->
<g id="edge84" class="edge"><title>7&#45;&gt;18</title>
<a xlink:title="UpdateInt(&#39;VinniPuhh&#39;, 1)">
<path fill="none" stroke="black" d="M1418.8,-119.264C1385.94,-118.097 1330.95,-111.165 1297.81,-80 1289.47,-72.1556 1284.82,-60.5437 1282.24,-49.8438"/>
<polygon fill="black" stroke="black" points="1285.67,-49.1701 1280.33,-40.0173 1278.8,-50.5002 1285.67,-49.1701"/>
</a>
<text text-anchor="middle" x="1370.1" y="-65.4" font-family="Times,serif" font-size="14.00">UpdateInt(&#39;VinniPuhh&#39;, 1)</text>
</g>
<!-- 19 -->
<g id="node20" class="node"><title>19</title>
<a xlink:title="{&#39;WebModel&#39;: {&#39;userToInt&#39;: {&#39;OleBrumm&#39;: 2}, &#39;mode&#39;: &#39;Running&#39;, &#39;usersLoggedIn&#39;: [&#39;VinniPuhh&#39;, &#39;OleBrumm&#39;]}}">
<ellipse fill="orange" stroke="black" cx="1446" cy="-22" rx="27" ry="18"/>
<text text-anchor="middle" x="1446" y="-16.4" font-family="Times,serif" font-size="14.00">19</text>
</a>
</g>
<!-- 7&#45;&gt;19 -->
<g id="edge90" class="edge"><title>7&#45;&gt;19</title>
<a xlink:title="UpdateInt(&#39;OleBrumm&#39;, 2)">
<path fill="none" stroke="black" d="M1446,-101.837C1446,-87.5031 1446,-66.8066 1446,-50.2158"/>
<polygon fill="black" stroke="black" points="1449.5,-50.0143 1446,-40.0143 1442.5,-50.0143 1449.5,-50.0143"/>
</a>
<text text-anchor="middle" x="1519.67" y="-65.4" font-family="Times,serif" font-size="14.00">UpdateInt(&#39;OleBrumm&#39;, 2)</text>
</g>
<!-- 8&#45;&gt;8 -->
<g id="edge96" class="edge"><title>8&#45;&gt;8</title>
<a xlink:title="UpdateInt(&#39;VinniPuhh&#39;, 2)">
<path fill="none" stroke="black" d="M1886.35,-124.482C1896.53,-124.682 1905,-123.188 1905,-120 1905,-117.958 1901.53,-116.611 1896.35,-115.959"/>
<polygon fill="black" stroke="black" points="1896.49,-112.462 1886.35,-115.518 1896.18,-119.455 1896.49,-112.462"/>
</a>
<text text-anchor="middle" x="1977.1" y="-114.4" font-family="Times,serif" font-size="14.00">UpdateInt(&#39;VinniPuhh&#39;, 2)</text>
</g>
<!-- 8&#45;&gt;8 -->
<g id="edge98" class="edge"><title>8&#45;&gt;8</title>
<a xlink:title="Login(&#39;OleBrumm&#39;, &#39;Incorrect&#39;)/&#39;Failure&#39;">
<path fill="none" stroke="black" d="M1882.64,-129.823C1934.39,-142.111 2049.19,-138.837 2049.19,-120 2049.19,-102.304 1947.87,-98.3425 1892.69,-108.116"/>
<polygon fill="black" stroke="black" points="1891.73,-104.74 1882.64,-110.177 1893.14,-111.598 1891.73,-104.74"/>
</a>
<text text-anchor="middle" x="2160.17" y="-114.4" font-family="Times,serif" font-size="14.00">Login(&#39;OleBrumm&#39;, &#39;Incorrect&#39;)/&#39;Failure&#39;</text>
</g>
<!-- 8&#45;&gt;9 -->
<g id="edge100" class="edge"><title>8&#45;&gt;9</title>
<a xlink:title="UpdateInt(&#39;VinniPuhh&#39;, 1)">
<path fill="none" stroke="black" d="M1887.25,-118.88C1937.96,-117.856 2049.61,-111.817 2137,-80 2151.19,-74.8348 2152.64,-69.3779 2165.81,-62 2181.23,-53.3651 2198.8,-44.5137 2213.38,-37.4306"/>
<polygon fill="black" stroke="black" points="2214.98,-40.5435 2222.47,-33.0513 2211.95,-34.2366 2214.98,-40.5435"/>
</a>
<text text-anchor="middle" x="2238.1" y="-65.4" font-family="Times,serif" font-size="14.00">UpdateInt(&#39;VinniPuhh&#39;, 1)</text>
</g>
<!-- 8&#45;&gt;17 -->
<g id="edge94" class="edge"><title>8&#45;&gt;17</title>
<a xlink:title="Login(&#39;OleBrumm&#39;, &#39;Correct&#39;)/&#39;Success&#39;">
<path fill="none" stroke="black" d="M1838.07,-109.139C1822.53,-101.823 1801.41,-91.2102 1783.91,-80 1773.01,-73.0142 1771.59,-69.4578 1761,-62 1750.2,-54.3908 1737.95,-46.5335 1727.21,-39.8832"/>
<polygon fill="black" stroke="black" points="1728.96,-36.8527 1718.61,-34.6127 1725.31,-42.8215 1728.96,-36.8527"/>
</a>
<text text-anchor="middle" x="1893.04" y="-65.4" font-family="Times,serif" font-size="14.00">Login(&#39;OleBrumm&#39;, &#39;Correct&#39;)/&#39;Success&#39;</text>
</g>
<!-- 20 -->
<g id="node21" class="node"><title>20</title>
<a xlink:title="{&#39;WebModel&#39;: {&#39;userToInt&#39;: {&#39;VinniPuhh&#39;: 2}, &#39;mode&#39;: &#39;Running&#39;, &#39;usersLoggedIn&#39;: []}}">
<ellipse fill="orange" stroke="black" cx="2024" cy="-22" rx="27" ry="18"/>
<ellipse fill="none" stroke="black" cx="2024" cy="-22" rx="31" ry="22"/>
<text text-anchor="middle" x="2024" y="-16.4" font-family="Times,serif" font-size="14.00">20</text>
</a>
</g>
<!-- 8&#45;&gt;20 -->
<g id="edge92" class="edge"><title>8&#45;&gt;20</title>
<a xlink:title="Logout(&#39;VinniPuhh&#39;,)">
<path fill="none" stroke="black" d="M1886.95,-118.59C1918.34,-116.695 1969.96,-108.981 2002,-80 2009.59,-73.1351 2014.58,-63.3481 2017.86,-53.8168"/>
<polygon fill="black" stroke="black" points="2021.25,-54.6899 2020.69,-44.11 2014.53,-52.731 2021.25,-54.6899"/>
</a>
<text text-anchor="middle" x="2074.08" y="-65.4" font-family="Times,serif" font-size="14.00">Logout(&#39;VinniPuhh&#39;,)</text>
</g>
</g>
</svg>
