<?xml version="1.0" encoding="UTF-8" standalone="no"?>
<!DOCTYPE svg PUBLIC "-//W3C//DTD SVG 1.1//EN"
 "http://www.w3.org/Graphics/SVG/1.1/DTD/svg11.dtd">
<!-- Generated by graphviz version 2.28.0 (20111028.1807)
 -->
<!-- Title: ABPFSM Pages: 1 -->
<svg width="361pt" height="428pt"
 viewBox="0.00 0.00 361.00 428.00" xmlns="http://www.w3.org/2000/svg" xmlns:xlink="http://www.w3.org/1999/xlink">
<g id="graph1" class="graph" transform="scale(1 1) rotate(0) translate(4 424)">
<title>ABPFSM</title>
<polygon fill="white" stroke="white" points="-4,5 -4,-424 358,-424 358,5 -4,5"/>
<!-- 0 -->
<g id="node1" class="node"><title>0</title>
<a xlink:title="{&#39;ABP&#39;: 0}">
<ellipse fill="lightgray" stroke="black" cx="196" cy="-398" rx="27" ry="18"/>
<ellipse fill="none" stroke="black" cx="196" cy="-398" rx="31" ry="22"/>
<text text-anchor="middle" x="196" y="-392.4" font-family="Times,serif" font-size="14.00">0</text>
</a>
</g>
<!-- 0&#45;&gt;0 -->
<g id="edge4" class="edge"><title>0&#45;&gt;0</title>
<a xlink:title="Ack(1,)">
<path fill="none" stroke="black" d="M226.625,-402.5C236.833,-402.5 245,-401 245,-398 245,-396.125 241.81,-394.836 236.925,-394.133"/>
<polygon fill="black" stroke="black" points="236.821,-390.62 226.625,-393.5 236.392,-397.607 236.821,-390.62"/>
</a>
<text text-anchor="middle" x="266.574" y="-392.4" font-family="Times,serif" font-size="14.00">Ack(1,)</text>
</g>
<!-- 0&#45;&gt;0 -->
<g id="edge6" class="edge"><title>0&#45;&gt;0</title>
<a xlink:title="Send(1,)">
<path fill="none" stroke="black" d="M221.189,-411.216C250.095,-419.238 288.148,-414.833 288.148,-398 288.148,-383.074 258.228,-377.919 231.296,-382.536"/>
<polygon fill="black" stroke="black" points="230.191,-379.196 221.189,-384.784 231.711,-386.029 230.191,-379.196"/>
</a>
<text text-anchor="middle" x="312.061" y="-392.4" font-family="Times,serif" font-size="14.00">Send(1,)</text>
</g>
<!-- 1 -->
<g id="node2" class="node"><title>1</title>
<a xlink:title="{&#39;ABP&#39;: 1}">
<ellipse fill="white" stroke="black" cx="196" cy="-304" rx="27" ry="18"/>
<text text-anchor="middle" x="196" y="-298.4" font-family="Times,serif" font-size="14.00">1</text>
</a>
</g>
<!-- 0&#45;&gt;1 -->
<g id="edge2" class="edge"><title>0&#45;&gt;1</title>
<a xlink:title="Send(0,)">
<path fill="none" stroke="black" d="M196,-375.662C196,-362.845 196,-346.402 196,-332.603"/>
<polygon fill="black" stroke="black" points="199.5,-332.223 196,-322.224 192.5,-332.224 199.5,-332.223"/>
</a>
<text text-anchor="middle" x="219.912" y="-343.4" font-family="Times,serif" font-size="14.00">Send(0,)</text>
</g>
<!-- 1&#45;&gt;1 -->
<g id="edge10" class="edge"><title>1&#45;&gt;1</title>
<a xlink:title="Send(0,)">
<path fill="none" stroke="black" d="M222.347,-308.109C232.533,-308.292 241,-306.922 241,-304 241,-302.128 237.525,-300.893 232.35,-300.296"/>
<polygon fill="black" stroke="black" points="232.48,-296.798 222.347,-299.891 232.197,-303.792 232.48,-296.798"/>
</a>
<text text-anchor="middle" x="264.912" y="-298.4" font-family="Times,serif" font-size="14.00">Send(0,)</text>
</g>
<!-- 1&#45;&gt;1 -->
<g id="edge12" class="edge"><title>1&#45;&gt;1</title>
<a xlink:title="Ack(1,)">
<path fill="none" stroke="black" d="M216.674,-315.723C245.859,-325.155 288.824,-321.248 288.824,-304 288.824,-288.639 254.743,-283.859 226.67,-289.661"/>
<polygon fill="black" stroke="black" points="225.462,-286.359 216.674,-292.277 227.234,-293.131 225.462,-286.359"/>
</a>
<text text-anchor="middle" x="310.398" y="-298.4" font-family="Times,serif" font-size="14.00">Ack(1,)</text>
</g>
<!-- 2 -->
<g id="node3" class="node"><title>2</title>
<a xlink:title="{&#39;ABP&#39;: 2}">
<ellipse fill="white" stroke="black" cx="61" cy="-210" rx="27" ry="18"/>
<ellipse fill="none" stroke="black" cx="61" cy="-210" rx="31" ry="22"/>
<text text-anchor="middle" x="61" y="-204.4" font-family="Times,serif" font-size="14.00">2</text>
</a>
</g>
<!-- 1&#45;&gt;2 -->
<g id="edge8" class="edge"><title>1&#45;&gt;2</title>
<a xlink:title="Ack(0,)">
<path fill="none" stroke="black" d="M177.793,-290.592C155.679,-275.522 118.044,-249.874 91.4816,-231.773"/>
<polygon fill="black" stroke="black" points="93.1711,-228.689 82.9364,-225.949 89.229,-234.473 93.1711,-228.689"/>
</a>
<text text-anchor="middle" x="166.574" y="-253.4" font-family="Times,serif" font-size="14.00">Ack(0,)</text>
</g>
<!-- 2&#45;&gt;2 -->
<g id="edge14" class="edge"><title>2&#45;&gt;2</title>
<a xlink:title="Ack(0,)">
<path fill="none" stroke="black" d="M89.6885,-218.965C100.781,-219.363 110,-216.375 110,-210 110,-205.717 105.838,-202.962 99.7429,-201.737"/>
<polygon fill="black" stroke="black" points="99.9079,-198.24 89.6885,-201.035 99.4205,-205.223 99.9079,-198.24"/>
</a>
<text text-anchor="middle" x="131.574" y="-204.4" font-family="Times,serif" font-size="14.00">Ack(0,)</text>
</g>
<!-- 3 -->
<g id="node4" class="node"><title>3</title>
<a xlink:title="{&#39;ABP&#39;: 3}">
<ellipse fill="white" stroke="black" cx="27" cy="-116" rx="27" ry="18"/>
<text text-anchor="middle" x="27" y="-110.4" font-family="Times,serif" font-size="14.00">3</text>
</a>
</g>
<!-- 2&#45;&gt;3 -->
<g id="edge16" class="edge"><title>2&#45;&gt;3</title>
<a xlink:title="Send(1,)">
<path fill="none" stroke="black" d="M53.4543,-188.582C48.5426,-175.292 42.0869,-157.823 36.7825,-143.47"/>
<polygon fill="black" stroke="black" points="39.9116,-141.84 33.1621,-133.674 33.3457,-144.267 39.9116,-141.84"/>
</a>
<text text-anchor="middle" x="70.9121" y="-155.4" font-family="Times,serif" font-size="14.00">Send(1,)</text>
</g>
<!-- 3&#45;&gt;3 -->
<g id="edge22" class="edge"><title>3&#45;&gt;3</title>
<a xlink:title="Send(1,)">
<path fill="none" stroke="black" d="M47.4862,-127.865C75.3846,-137.116 115.148,-133.161 115.148,-116 115.148,-100.783 83.8833,-95.95 57.3491,-101.5"/>
<polygon fill="black" stroke="black" points="56.2438,-98.1722 47.4862,-104.135 58.0508,-104.935 56.2438,-98.1722"/>
</a>
<text text-anchor="middle" x="139.061" y="-110.4" font-family="Times,serif" font-size="14.00">Send(1,)</text>
</g>
<!-- 3&#45;&gt;3 -->
<g id="edge18" class="edge"><title>3&#45;&gt;3</title>
<a xlink:title="Ack(0,)">
<path fill="none" stroke="black" d="M53.3466,-120.109C63.5332,-120.292 72,-118.922 72,-116 72,-114.128 68.5252,-112.893 63.3495,-112.296"/>
<polygon fill="black" stroke="black" points="63.4799,-108.798 53.3466,-111.891 63.197,-115.792 63.4799,-108.798"/>
</a>
<text text-anchor="middle" x="93.5742" y="-110.4" font-family="Times,serif" font-size="14.00">Ack(0,)</text>
</g>
<!-- 4 -->
<g id="node5" class="node"><title>4</title>
<a xlink:title="{&#39;ABP&#39;: 4}">
<ellipse fill="white" stroke="black" cx="148" cy="-22" rx="27" ry="18"/>
<ellipse fill="none" stroke="black" cx="148" cy="-22" rx="31" ry="22"/>
<text text-anchor="middle" x="148" y="-16.4" font-family="Times,serif" font-size="14.00">4</text>
</a>
</g>
<!-- 3&#45;&gt;4 -->
<g id="edge20" class="edge"><title>3&#45;&gt;4</title>
<a xlink:title="Ack(1,)">
<path fill="none" stroke="black" d="M44.0797,-102.014C63.5741,-87.1916 95.7806,-62.704 119.18,-44.9127"/>
<polygon fill="black" stroke="black" points="121.521,-47.5299 127.363,-38.6913 117.284,-41.9577 121.521,-47.5299"/>
</a>
<text text-anchor="middle" x="116.574" y="-65.4" font-family="Times,serif" font-size="14.00">Ack(1,)</text>
</g>
<!-- 4&#45;&gt;1 -->
<g id="edge24" class="edge"><title>4&#45;&gt;1</title>
<a xlink:title="Send(0,)">
<path fill="none" stroke="black" d="M161.638,-41.9748C171.26,-56.5292 183.397,-77.5327 189,-98 205.925,-159.824 202.51,-236.055 198.991,-275.87"/>
<polygon fill="black" stroke="black" points="195.503,-275.576 198.036,-285.863 202.471,-276.242 195.503,-275.576"/>
</a>
<text text-anchor="middle" x="224.912" y="-155.4" font-family="Times,serif" font-size="14.00">Send(0,)</text>
</g>
<!-- 4&#45;&gt;4 -->
<g id="edge26" class="edge"><title>4&#45;&gt;4</title>
<a xlink:title="Ack(1,)">
<path fill="none" stroke="black" d="M176.689,-30.9648C187.781,-31.3633 197,-28.375 197,-22 197,-17.7168 192.838,-14.9624 186.743,-13.7368"/>
<polygon fill="black" stroke="black" points="186.908,-10.2399 176.689,-13.0352 186.421,-17.223 186.908,-10.2399"/>
</a>
<text text-anchor="middle" x="218.574" y="-16.4" font-family="Times,serif" font-size="14.00">Ack(1,)</text>
</g>
</g>
</svg>
